<svg id="Icons" xmlns="http://www.w3.org/2000/svg" viewBox="0 0 39.4 39.4"><defs><style>.cls-1{fill:#656869;}</style></defs><title>Resize GSBIG</title><path class="cls-1" d="M33.12,26.93c0-1.81-1.16-1.81-1.16-3.62s1.16-1.81,1.16-3.62S32,17.89,32,16.08s1.16-1.81,1.16-3.62S32,10.65,32,8.84s2.21-2.65,1-4c-1.06-1.2-2,1-3.63,1s-1.61-1.16-3.21-1.16-1.6,1.16-3.2,1.16-1.6-1.16-3.2-1.16-1.6,1.16-3.2,1.16-1.6-1.16-3.2-1.16-1.6,1.16-3.2,1.16-2.57-2.16-3.63-1C5.3,6.19,7,6.63,7.49,8.7c.46,1.75-1.14,2-1.14,3.77s1.16,1.81,1.16,3.62S6.35,17.9,6.35,19.71s1.16,1.8,1.16,3.61-1.16,1.81-1.16,3.62,1.16,1.81,1.16,3.62-2.21,2.65-1,4c1.06,1.2,2-1,3.63-1s1.61,1.16,3.21,1.16,1.6-1.16,3.2-1.16,1.6,1.16,3.2,1.16,1.6-1.16,3.2-1.16,1.6,1.16,3.2,1.16,1.6-1.16,3.2-1.16,2.58,2.16,3.63,1c1.2-1.35-1-2.19-1-4S33.12,28.74,33.12,26.93Zm-4,3.9H10.29V8.57H29.11Z"/><path class="cls-1" d="M17.35,16.9a2.22,2.22,0,1,0-2.22-2.22A2.23,2.23,0,0,0,17.35,16.9Z"/><path class="cls-1" d="M21.76,28.87h5.38V22.63a7.61,7.61,0,0,0-9.57.63c.26.15.51.3.75.46a10.84,10.84,0,0,1,1.35,1.12c.35.37.63.7.81.93l.28.38a.35.35,0,0,1-.08.47.32.32,0,0,1-.45-.06h0l-.27-.34a10.76,10.76,0,0,0-.79-.83,9.61,9.61,0,0,0-1.29-1,7.38,7.38,0,0,0-.79-.44,6.5,6.5,0,0,0-.86-.36,8.12,8.12,0,0,0-1.77-.42,8,8,0,0,0-.82-.07H12.2l.06,5.72Z"/></svg>