<svg id="Icons" xmlns="http://www.w3.org/2000/svg" viewBox="0 0 39.4 39.4"><defs><style>.cls-1{fill:#646869;}</style></defs><title>Resize GSBIG</title><path class="cls-1" d="M4.54,12.12V32.17H34.86V12.12ZM33.39,30.7H6V13.59H33.39Z"/><path class="cls-1" d="M10.77,26a2.2,2.2,0,0,1,3.11,0l.55.55,3.17-3.18a4,4,0,0,1,5.59,0l5.92,5.92h2.81V15.05H7.48V29.24h0Zm16.74-8.66a2.18,2.18,0,1,1-2.17,2.17A2.17,2.17,0,0,1,27.51,17.29Z"/><path class="cls-1" d="M19.7,8.43a.94.94,0,0,0,.93-.94V2.84a.93.93,0,0,0-1.86,0V7.49A.94.94,0,0,0,19.7,8.43Z"/><path class="cls-1" d="M24.51,6.91a.93.93,0,0,0,1.73-.69L24.49,1.9a.93.93,0,0,0-1.72.7Z"/><path class="cls-1" d="M13.67,7.43a.93.93,0,0,0,1.21-.52L16.62,2.6a.93.93,0,0,0-.51-1.21.92.92,0,0,0-1.21.51L13.15,6.22A.94.94,0,0,0,13.67,7.43Z"/></svg>