<svg id="Icons" xmlns="http://www.w3.org/2000/svg" viewBox="0 0 39.4 39.4"><defs><style>.cls-1{fill:#646869;}</style></defs><title>Resize GSBIG</title><path class="cls-1" d="M30.36,25.45c0-1.44-.92-1.44-.92-2.88s.92-1.44.92-2.87-.92-1.44-.92-2.88.92-1.44.92-2.87-.92-1.44-.92-2.88,1.76-2.1.81-3.18-1.62.77-2.89.77-1.28-.92-2.55-.92-1.27.92-2.54.92S21,7.74,19.72,7.74s-1.27.92-2.54.92-1.27-.92-2.54-.92-1.27.92-2.54.92-2-1.72-2.89-.77S9.57,9.31,10,11c.36,1.39-.91,1.55-.91,3s.92,1.44.92,2.88-.92,1.44-.92,2.87.92,1.44.92,2.88S9.09,24,9.09,25.45s.92,1.44.92,2.88-1.75,2.1-.8,3.18,1.62-.77,2.89-.77,1.27.92,2.55.92,1.27-.92,2.54-.92,1.27.92,2.54.92,1.27-.92,2.54-.92,1.28.92,2.55.92,1.27-.92,2.54-.92,2.05,1.72,2.89.77-.81-1.75-.81-3.18S30.36,26.89,30.36,25.45Zm-3.18,3.09h-15V10.86h15Z"/><path class="cls-1" d="M25.58,12.35H13.82v14.7H25.58Zm-10,9.15a.71.71,0,0,1,0-1l4.11-4.11a.71.71,0,1,1,1,1L16.58,21.5a.73.73,0,0,1-.51.21A.7.7,0,0,1,15.57,21.5ZM23.83,18l-6.52,6.52a.69.69,0,0,1-.5.21.72.72,0,0,1-.51-1.22L22.82,17a.71.71,0,0,1,1,1Z"/><path class="cls-1" d="M4.9,20a.79.79,0,1,0,0-1.57H1A.79.79,0,1,0,1,20Z"/><path class="cls-1" d="M1.46,15.13,5.1,16.6a.8.8,0,0,0,1-.43.67.67,0,0,0,0-.31.76.76,0,0,0-.49-.72L2.05,13.66a.78.78,0,0,0-1,.44.69.69,0,0,0-.06.31A.78.78,0,0,0,1.46,15.13Z"/><path class="cls-1" d="M6.18,22.53a.65.65,0,0,0,0-.31.79.79,0,0,0-1-.44L1.46,23.25A.8.8,0,0,0,1,24a.71.71,0,0,0,.06.31.78.78,0,0,0,1,.43l3.64-1.47A.76.76,0,0,0,6.18,22.53Z"/><path class="cls-1" d="M4.66,9.49a.79.79,0,0,0-1.12,1.12l2.78,2.77a.78.78,0,0,0,1.11-1.11Z"/><path class="cls-1" d="M6.32,25,3.54,27.78a.79.79,0,1,0,1.12,1.11l2.77-2.78A.78.78,0,0,0,6.32,25Z"/><path class="cls-1" d="M33.08,13.77,35.86,11a.79.79,0,0,0-1.12-1.12L32,12.65a.79.79,0,1,0,1.11,1.12Z"/><path class="cls-1" d="M38.43,18.79H34.5a.79.79,0,1,0,0,1.57h3.93a.79.79,0,1,0,0-1.57Z"/><path class="cls-1" d="M37.94,23.63,34.3,22.16a.79.79,0,0,0-1,.44.65.65,0,0,0-.05.31.76.76,0,0,0,.49.72l3.64,1.47a.78.78,0,0,0,1-.43.69.69,0,0,0,.06-.31A.8.8,0,0,0,37.94,23.63Z"/><path class="cls-1" d="M33.22,16.24a.67.67,0,0,0,.05.31.79.79,0,0,0,1,.43l3.64-1.47a.78.78,0,0,0,.49-.72.69.69,0,0,0-.06-.31.79.79,0,0,0-1-.44l-3.64,1.48A.76.76,0,0,0,33.22,16.24Z"/><path class="cls-1" d="M33.08,25.38A.78.78,0,0,0,32,26.49l2.77,2.78a.79.79,0,0,0,1.12-1.11Z"/></svg>