<svg id="Icons" xmlns="http://www.w3.org/2000/svg" viewBox="0 0 39.4 39.4"><defs><style>.cls-1{fill:#646869;}</style></defs><title>Resize GSBIG</title><path class="cls-1" d="M9.15,14.86,6.36,24.4h1.7l.72-2.63h2.7l.75,2.63H14l-2.76-9.54ZM9,20.49l.65-2.31c.15-.58.3-1.31.43-1.91h0c.13.6.28,1.31.44,1.91l.65,2.31Z"/><path class="cls-1" d="M20.71,17.51H19v4.24a2,2,0,0,1-.08.57,1.3,1.3,0,0,1-1.18.85c-.82,0-1.13-.72-1.13-1.81V17.51H15v4.1c0,2.11.95,2.93,2.21,2.93a2.32,2.32,0,0,0,2-1.09h0l.08.95h1.46c0-.57-.06-1.25-.06-2Z"/><path class="cls-1" d="M24.39,15.75l-1.64.5v1.26h-.93v1.23h.93v3.35A2.61,2.61,0,0,0,23.29,24a1.86,1.86,0,0,0,1.4.53,3.86,3.86,0,0,0,1.19-.16l0-1.29a1.83,1.83,0,0,1-.61.07c-.58,0-.84-.36-.84-1.2V18.74H26V17.51H24.39Z"/><path class="cls-1" d="M29.91,17.36c-1.82,0-3.24,1.29-3.24,3.63s1.36,3.55,3.16,3.55h0c1.52,0,3.2-1,3.2-3.64C33,18.75,31.78,17.36,29.91,17.36Zm0,5.95h0c-.95,0-1.48-1.08-1.48-2.35,0-1.1.4-2.36,1.49-2.36s1.46,1.28,1.46,2.35C31.33,22.22,30.79,23.31,29.87,23.31Z"/></svg>