<svg id="Icons" xmlns="http://www.w3.org/2000/svg" viewBox="0 0 39.4 39.4"><defs><style>.cls-1{fill:#646869;}</style></defs><title>Resize GSBIG</title><path class="cls-1" d="M12.4,18.25h6.93V3A7.34,7.34,0,0,0,12.4,9.89Z"/><path class="cls-1" d="M20.07,16.06v2.19H27V9.89A7.34,7.34,0,0,0,20.07,3V15.33h1.82v.73Z"/><path class="cls-1" d="M35.76,19H3.64a.73.73,0,0,0,0,1.46H5.1v12a.39.39,0,0,0,.39.39H33.91a.38.38,0,0,0,.39-.38v-12h1.46a.73.73,0,0,0,0-1.46Zm-26,12.4H6.56V20.44H9.73Zm4.62,0H11.19V20.44h3.16Zm4.62,0H15.81V20.44H19Zm4.62,0H20.43V20.44h3.16Zm4.63,0H25.05V20.44h3.17Zm4.62,0H29.67V20.44h3.17Z"/><path class="cls-1" d="M29.92,34.3H9.48a.73.73,0,1,0,0,1.46H29.92a.73.73,0,0,0,0-1.46Z"/><path class="cls-1" d="M10.94,10.22a8.76,8.76,0,0,1,17.52,0v8h1.46v-8a10.22,10.22,0,0,0-20.44,0v8h1.46Z"/></svg>