<svg id="Icons" xmlns="http://www.w3.org/2000/svg" viewBox="0 0 39.4 39.4"><defs><style>.cls-1{fill:#646869;}</style></defs><title>Resize GSBIG</title><polygon class="cls-1" points="12.91 4.58 12.91 18.26 19.27 18.26 19.27 4.58 14.61 4.58 12.94 4.58 12.91 4.58"/><polygon class="cls-1" points="20.13 16.56 20.13 18.26 26.49 18.26 26.49 4.58 26.47 4.58 24.79 4.58 20.13 4.58 20.13 15.71 22.25 15.71 22.25 16.56 20.13 16.56"/><path class="cls-1" d="M35.86,19.11H3.54a.73.73,0,1,0,0,1.46H5v12.1a.38.38,0,0,0,.39.39H34a.38.38,0,0,0,.38-.38V20.57h1.47a.73.73,0,0,0,0-1.46ZM9.66,31.59H6.48v-11H9.66Zm4.65,0H11.13v-11h3.18Zm4.66,0H15.78v-11H19Zm4.65,0H20.43v-11h3.19Zm4.65,0H25.09v-11h3.18Zm4.65,0H29.74v-11h3.18Z"/><path class="cls-1" d="M30,34.53H9.42a.74.74,0,1,0,0,1.47H30a.74.74,0,1,0,0-1.47Z"/><polygon class="cls-1" points="12.06 3.64 12.64 3.64 27.34 3.64 27.34 18.26 28.77 18.26 28.77 2.21 12.64 2.21 11.21 2.21 10.63 2.21 10.63 3.4 10.63 3.64 10.63 18.26 12.06 18.26 12.06 3.64"/></svg>