<svg id="Icons" xmlns="http://www.w3.org/2000/svg" viewBox="0 0 39.4 39.4"><defs><style>.cls-1{fill:#656869;}</style></defs><title>Resize GSBIG</title><path class="cls-1" d="M33.93,20.07H4.74V31H34.66V20.07ZM8.39,30.28H6.2V23.72H8.39Zm3.65,0H9.13V23.72H12Zm3.65,0H12.77V23.72h2.92Zm3.69,0h-3V23.72h3Zm3.62,0H20.08V23.72H23Zm3.63,0h-2.9V23.72h2.9Zm3.65,0H27.36V23.72h2.92Zm2.92,0H31V23.72H33.2Zm0-7.29H6.2V20.8h27Z"/><polygon class="cls-1" points="8.39 6.93 16.42 6.93 16.42 18.68 17.14 18.68 17.14 6.93 22.29 6.93 22.29 18.62 23 18.62 23 6.93 31.01 6.93 31.01 18.62 32.47 18.62 32.47 6.93 32.47 6.2 32.47 4.74 6.93 4.74 6.93 6.2 6.93 6.93 6.93 18.62 8.39 18.62 8.39 6.93"/><path class="cls-1" d="M31.74,33.2H7.66a.73.73,0,1,0,0,1.46H31.74a.73.73,0,1,0,0-1.46Z"/></svg>