<svg id="Icons" xmlns="http://www.w3.org/2000/svg" viewBox="0 0 39.4 39.4"><defs><style>.cls-1{fill:#646869;}</style></defs><title>Resize GSBIG</title><path class="cls-1" d="M18.55,5.93V5.22A1.23,1.23,0,0,0,17.27,4c-6.54.25-8,2.36-10.17,3.8A9.29,9.29,0,0,1,3.54,9.21a1.23,1.23,0,0,0-1,1.2V27.79A1.21,1.21,0,0,0,4,29,9.48,9.48,0,0,0,7.1,27.65c1.62-1.08,2.87-2.54,6.15-3.3V10.84h0v0C13.25,8.84,15.33,7,18.55,5.93Z"/><path class="cls-1" d="M25.42,16.47c-.88,0-1.76,0-2.6-.13A.74.74,0,1,1,23,14.87c.8.07,1.63.11,2.46.11,6.3,0,10.66-2.18,10.69-4.15a1.45,1.45,0,0,0,0-.28c-.36-1.92-4.61-4.19-10.65-4.19-6.31,0-10.69,2.48-10.69,4.45,0,1.06,1.23,2.17,3.32,3a.74.74,0,1,1-.53,1.39,9.61,9.61,0,0,1-2.79-1.58V28h0v2c0,2.53,4.79,4.58,10.69,4.58s10.69-2.05,10.69-4.58V13.56C34.07,15.31,30.1,16.47,25.42,16.47Zm-4.58-5.62c0-.84,2.05-1.52,4.58-1.52S30,10,30,10.85,28,12.38,25.42,12.38,20.84,11.7,20.84,10.85Z"/></svg>