<svg id="Icons" xmlns="http://www.w3.org/2000/svg" viewBox="0 0 39.4 39.4"><defs><style>.cls-1{fill:#656869;}</style></defs><title>Resize GSBIG</title><path class="cls-1" d="M10.88,23.51a.7.7,0,1,0,1-.06A.7.7,0,0,0,10.88,23.51Z"/><path class="cls-1" d="M10.88,26.29a.7.7,0,1,0,1-.06A.7.7,0,0,0,10.88,26.29Z"/><path class="cls-1" d="M9.49,31.85a.7.7,0,0,0,1,.92.7.7,0,1,0-1-.92Z"/><path class="cls-1" d="M9.49,29.07a.7.7,0,1,0,1-.06A.7.7,0,0,0,9.49,29.07Z"/><path class="cls-1" d="M8.1,34.63a.7.7,0,0,0,1.05.92.7.7,0,1,0-1.05-.92Z"/><path class="cls-1" d="M14.14,37.17h0a.67.67,0,0,0-.5.23.7.7,0,0,0,.07,1,.76.76,0,0,0,.8.1.69.69,0,0,0,.22-.17.7.7,0,0,0-.07-1A.75.75,0,0,0,14.14,37.17Z"/><path class="cls-1" d="M17.46,24.43a.7.7,0,0,0-.07-1,.69.69,0,0,0-1,.06.7.7,0,0,0,1.05.92Z"/><path class="cls-1" d="M16.48,27.27a.69.69,0,1,0,.91-1,.69.69,0,0,0-1,.06A.7.7,0,0,0,16.48,27.27Z"/><path class="cls-1" d="M16,31.78a.72.72,0,0,0-.52-.16.71.71,0,0,0-.5.23.7.7,0,0,0,.07,1,.75.75,0,0,0,1-.06A.71.71,0,0,0,16,31.78Z"/><path class="cls-1" d="M14.14,34.39h0a.67.67,0,0,0-.5.23.7.7,0,0,0,.07,1,.73.73,0,0,0,.52.17.58.58,0,0,0,.28-.07.82.82,0,0,0,.22-.16.71.71,0,0,0-.07-1A.75.75,0,0,0,14.14,34.39Z"/><path class="cls-1" d="M20.24,24.43a.7.7,0,0,0-.07-1,.69.69,0,0,0-1,.06.7.7,0,0,0,1,.92Z"/><path class="cls-1" d="M21.05,31.62a.69.69,0,0,0-.43,1.21.7.7,0,0,0,.51.17.69.69,0,0,0,.5-.23.71.71,0,0,0-.07-1A.68.68,0,0,0,21.05,31.62Z"/><path class="cls-1" d="M19.26,27.27a.69.69,0,1,0,.91-1,.69.69,0,0,0-1,.06A.7.7,0,0,0,19.26,27.27Z"/><path class="cls-1" d="M19,32a.69.69,0,0,0-.17-.22.66.66,0,0,0-.5-.16.76.76,0,0,0-.26.06.72.72,0,0,0-.22.17.75.75,0,0,0-.17.51.72.72,0,0,0,.07.25.62.62,0,0,0,.17.22.7.7,0,0,0,.51.17.68.68,0,0,0,.47-.23,1,1,0,0,0,.14-.24A.74.74,0,0,0,19,32Z"/><path class="cls-1" d="M21.05,28.84a.69.69,0,0,0-.43,1.21.66.66,0,0,0,.51.17A.69.69,0,0,0,21.56,29,.65.65,0,0,0,21.05,28.84Z"/><path class="cls-1" d="M18.38,30.22a.68.68,0,0,0,.47-.23,1,1,0,0,0,.14-.24.75.75,0,0,0,0-.53.56.56,0,0,0-.17-.21.63.63,0,0,0-.5-.17.59.59,0,0,0-.26.07.57.57,0,0,0-.22.16.75.75,0,0,0-.17.51.72.72,0,0,0,.07.25.62.62,0,0,0,.17.22A.7.7,0,0,0,18.38,30.22Z"/><path class="cls-1" d="M16.91,37.18h0a.77.77,0,0,0-.26.07.72.72,0,0,0-.22.17.75.75,0,0,0-.17.51.74.74,0,0,0,.24.47.73.73,0,0,0,.52.17.7.7,0,0,0,.43-1.22A.68.68,0,0,0,16.91,37.18Z"/><path class="cls-1" d="M21.94,23.51a.7.7,0,1,0,1-.06A.69.69,0,0,0,21.94,23.51Z"/><path class="cls-1" d="M21.94,26.29a.7.7,0,1,0,1-.06A.69.69,0,0,0,21.94,26.29Z"/><path class="cls-1" d="M19.67,34.39h0a.66.66,0,0,0-.5.23.7.7,0,0,0,.07,1,.7.7,0,0,0,.51.17h0a.68.68,0,0,0,.47-.23.7.7,0,0,0-.57-1.16Z"/><path class="cls-1" d="M25.2,37.17h0a.69.69,0,0,0-.5.23.7.7,0,0,0,.07,1,.73.73,0,0,0,.52.17h0a.68.68,0,0,0,.48-.24.7.7,0,0,0-.07-1A.74.74,0,0,0,25.2,37.17Z"/><path class="cls-1" d="M28.51,24.43a.7.7,0,0,0-1.05-.92.7.7,0,0,0,1.05.92Z"/><path class="cls-1" d="M28.86,31.85a.69.69,0,0,0,.07,1,.7.7,0,0,0,1-.06.71.71,0,0,0-.07-1A.7.7,0,0,0,28.86,31.85Z"/><path class="cls-1" d="M27.54,27.27a.68.68,0,0,0,1-.06.7.7,0,0,0-1.05-.92A.69.69,0,0,0,27.54,27.27Z"/><path class="cls-1" d="M28.86,29.07a.69.69,0,0,0,.07,1,.69.69,0,1,0,.91-1A.69.69,0,0,0,28.86,29.07Z"/><path class="cls-1" d="M30.25,34.63a.69.69,0,0,0,.07,1,.7.7,0,0,0,1-.06.71.71,0,0,0-.07-1A.7.7,0,0,0,30.25,34.63Z"/><path class="cls-1" d="M25.2,34.39h0a.69.69,0,0,0-.5.23.7.7,0,0,0,.07,1,.73.73,0,0,0,.52.17h0a.69.69,0,0,0,.41-1.22A.74.74,0,0,0,25.2,34.39Z"/><path class="cls-1" d="M25.77,24.43a.7.7,0,0,0-.07-1,.69.69,0,0,0-1,.06.7.7,0,0,0,1.05.92Z"/><path class="cls-1" d="M27.09,31.78a.71.71,0,0,0-.52-.16.73.73,0,0,0-.5.23.7.7,0,0,0,.07,1,.73.73,0,0,0,.52.17.69.69,0,0,0,.43-1.22Z"/><path class="cls-1" d="M24.79,27.27a.69.69,0,1,0,.91-1,.69.69,0,0,0-1,.06A.7.7,0,0,0,24.79,27.27Z"/><path class="cls-1" d="M24.31,31.78a.7.7,0,0,0-.24-.13.63.63,0,0,0-.27,0,.68.68,0,0,0-.47.23,1,1,0,0,0-.14.24.7.7,0,0,0,.21.74.67.67,0,0,0,.5.17.69.69,0,0,0,.41-1.22Z"/><path class="cls-1" d="M26.57,28.84a.73.73,0,0,0-.5.23.7.7,0,0,0,.07,1,.68.68,0,0,0,.52.17.71.71,0,0,0,.5-.23.7.7,0,0,0-.07-1A.67.67,0,0,0,26.57,28.84Z"/><path class="cls-1" d="M23.9,30.22a.71.71,0,0,0,.48-.23.7.7,0,0,0-.07-1,.58.58,0,0,0-.24-.14.63.63,0,0,0-.27,0,.68.68,0,0,0-.47.23,1,1,0,0,0-.14.24.7.7,0,0,0,.21.74A.67.67,0,0,0,23.9,30.22Z"/><path class="cls-1" d="M28,34.4a.69.69,0,1,0,.59,1.15A.69.69,0,0,0,28,34.4Z"/><path class="cls-1" d="M14.72,24.43a.7.7,0,0,0-.07-1,.69.69,0,1,0-.91,1A.7.7,0,0,0,14.72,24.43Z"/><path class="cls-1" d="M13.74,27.27a.69.69,0,1,0,.91-1,.69.69,0,1,0-.91,1Z"/><path class="cls-1" d="M13.26,31.78a.69.69,0,0,0-.51-.16.69.69,0,0,0-.64.74.66.66,0,0,0,.24.47.69.69,0,0,0,.76.1.82.82,0,0,0,.22-.16A.72.72,0,0,0,13.26,31.78Z"/><path class="cls-1" d="M15.52,28.84a.71.71,0,0,0-.5.23.7.7,0,0,0,.07,1,.68.68,0,0,0,.52.17.73.73,0,0,0,.5-.23A.7.7,0,0,0,16,29,.68.68,0,0,0,15.52,28.84Z"/><path class="cls-1" d="M13.11,30.15a.82.82,0,0,0,.22-.16.71.71,0,0,0-.07-1,.69.69,0,1,0-.91,1A.69.69,0,0,0,13.11,30.15Z"/><path class="cls-1" d="M16.91,34.4h0a.77.77,0,0,0-.26.07.72.72,0,0,0-.22.17.75.75,0,0,0-.17.51.74.74,0,0,0,.24.47.75.75,0,0,0,1-.06.71.71,0,0,0-.07-1A.72.72,0,0,0,16.91,34.4Z"/><path class="cls-1" d="M11.36,34.39a.76.76,0,0,0-.48.24.7.7,0,0,0,.07,1,.7.7,0,0,0,.77.1.65.65,0,0,0,.21-.16.71.71,0,0,0-.06-1A.75.75,0,0,0,11.36,34.39Z"/><rect class="cls-1" x="6.52" y="18.31" width="26.36" height="2.64" rx="0.99"/><path class="cls-1" d="M21.09,7.34a2.29,2.29,0,0,1-1.52-1.17l-.26-.72-.63-1.82S17.94.15,15.31.54c-2.06.3-.73,2.52-.11,4l.44,1.24c0,.11.55,2.07-.33,2.4l.09,0A11,11,0,0,0,9,16.57H30.41A11,11,0,0,0,21.09,7.34Z"/></svg>