<svg id="Icons" xmlns="http://www.w3.org/2000/svg" viewBox="0 0 39.4 39.4"><defs><style>.cls-1{fill:#656869;}</style></defs><title>Resize GSBIG</title><path class="cls-1" d="M23,12.1a1.45,1.45,0,0,0-.67,1.17.29.29,0,0,0,.57,0c0-.38.22-.56.49-.79A1.45,1.45,0,0,0,24,11.31a1.48,1.48,0,0,0-.67-1.17c-.27-.23-.49-.41-.49-.78s.22-.55.49-.78A1.47,1.47,0,0,0,24,7.41a1.47,1.47,0,0,0-.67-1.17c-.27-.23-.49-.41-.49-.78s.22-.55.49-.78A1.47,1.47,0,0,0,24,3.51a.29.29,0,0,0-.58,0,1,1,0,0,1-.48.78,1.48,1.48,0,0,0-.67,1.17A1.47,1.47,0,0,0,23,6.63c.27.23.48.41.48.78s-.21.55-.48.78a1.47,1.47,0,0,0-.67,1.17A1.47,1.47,0,0,0,23,10.53c.27.23.48.41.48.78S23.24,11.87,23,12.1Z"/><path class="cls-1" d="M27.25,12.1a1.45,1.45,0,0,0-.67,1.17.29.29,0,0,0,.58,0c0-.38.21-.56.49-.79a1.48,1.48,0,0,0,.67-1.17,1.51,1.51,0,0,0-.67-1.17c-.28-.23-.49-.41-.49-.78s.21-.55.49-.78a1.49,1.49,0,0,0,.67-1.17,1.49,1.49,0,0,0-.67-1.17c-.28-.23-.49-.41-.49-.78s.21-.55.49-.78a1.49,1.49,0,0,0,.67-1.17.29.29,0,0,0-.58,0c0,.37-.22.56-.49.78a1.48,1.48,0,0,0-.67,1.17,1.47,1.47,0,0,0,.67,1.17c.27.23.49.41.49.78s-.22.55-.49.78a1.47,1.47,0,0,0-.67,1.17,1.47,1.47,0,0,0,.67,1.17c.27.23.49.41.49.78S27.52,11.87,27.25,12.1Z"/><path class="cls-1" d="M25.11,16a1.45,1.45,0,0,0-.67,1.17.29.29,0,0,0,.58,0c0-.38.21-.56.48-.79a1.45,1.45,0,0,0,.67-1.17A1.48,1.48,0,0,0,25.5,14a1,1,0,0,1-.48-.78c0-.37.21-.55.48-.78a1.47,1.47,0,0,0,.67-1.17,1.48,1.48,0,0,0-.67-1.17A1,1,0,0,1,25,9.36c0-.37.21-.55.48-.78a1.45,1.45,0,0,0,.67-1.17.28.28,0,0,0-.29-.26.27.27,0,0,0-.28.26c0,.38-.22.56-.49.78a1.48,1.48,0,0,0-.67,1.17,1.47,1.47,0,0,0,.67,1.17c.27.23.49.41.49.78s-.22.55-.49.78a1.48,1.48,0,0,0-.67,1.17,1.47,1.47,0,0,0,.67,1.17c.27.23.49.41.49.78S25.38,15.77,25.11,16Z"/><path class="cls-1" d="M29.39,16a1.48,1.48,0,0,0-.67,1.17.29.29,0,0,0,.58,0c0-.38.22-.56.49-.79a1.45,1.45,0,0,0,.67-1.17A1.48,1.48,0,0,0,29.79,14c-.27-.22-.49-.41-.49-.78s.22-.55.49-.78a1.47,1.47,0,0,0,.67-1.17,1.48,1.48,0,0,0-.67-1.17c-.27-.22-.49-.41-.49-.78s.22-.55.49-.78a1.45,1.45,0,0,0,.67-1.17.29.29,0,0,0-.58,0c0,.38-.21.56-.49.78a1.51,1.51,0,0,0-.67,1.17,1.49,1.49,0,0,0,.67,1.17c.28.23.49.41.49.78s-.21.55-.49.78a1.51,1.51,0,0,0-.67,1.17,1.49,1.49,0,0,0,.67,1.17c.28.23.49.41.49.78S29.67,15.77,29.39,16Z"/><path class="cls-1" d="M13.84,23.18a2.43,2.43,0,0,1-2.44,2.43H7.28a3.09,3.09,0,0,1-2.37-1.34,3.39,3.39,0,0,1-.53-1.16h-1v5.2a4.82,4.82,0,0,0,4.82,4.82v1.09a1.93,1.93,0,0,0,3.86,0V33.13H27.52v1.09a1.93,1.93,0,1,0,3.85,0V33.13a4.82,4.82,0,0,0,4.82-4.82h0v-5.2H13.83S13.84,23.15,13.84,23.18Z"/><path class="cls-1" d="M3.41,21.72h.9a5.12,5.12,0,0,1,.1-.54l.82-2.35H3.41a1.45,1.45,0,0,0,0,2.9Z"/><path class="cls-1" d="M36.19,18.82H10.72l-.66,1.9H11.4a2.41,2.41,0,0,1,1.94,1H36.19a1.45,1.45,0,1,0,0-2.9Z"/><path class="cls-1" d="M10.53,11.56a3.19,3.19,0,0,0,1.24-.25,3.15,3.15,0,0,0,.79-.48,3.26,3.26,0,0,0,.95-3.76A3.29,3.29,0,0,0,9.27,5.34a3.23,3.23,0,0,0,1.26,6.22Z"/><path class="cls-1" d="M7.28,24.26H11.4a1.09,1.09,0,0,0,1.09-1.08s0-.05,0-.07a1.07,1.07,0,0,0-1.07-1H8.57a.27.27,0,0,1-.27-.37s0,0,0,0l.33-1,.28-.81.38-1.09.19-.53L9.93,17c.07-.23.27-.24.35-.08l.29.58h7.34c-.41-.91-.85-1.91-1-2.3a4.3,4.3,0,0,1-.22-1.86c1.14-.69,1.29-1.55,1.83-3.1,0,0,.62-1.8.95-2.78a1.68,1.68,0,0,0-1.83-2.17H14.07a.47.47,0,0,0-.09.06.53.53,0,0,0-.12.77,4,4,0,0,1,.55,1.09c.07.21.15.25.37.25h1.78c.22,0,.27.13.22.28l-.87,2.54a1.62,1.62,0,0,1-.69,1l-2,.72-2.39.87-1.93.7a1.29,1.29,0,0,0-.73.86L6.84,18.3l-.18.53-.38,1.09L6,20.73l-.3.86s0,.08,0,.13a2.08,2.08,0,0,0,.11,1.39A1.9,1.9,0,0,0,7.28,24.26Z"/></svg>