<svg id="Icons" xmlns="http://www.w3.org/2000/svg" viewBox="0 0 39.4 39.4"><defs><style>.cls-1{fill:#646869;}</style></defs><title>Resize GSBIG</title><path class="cls-1" d="M24.07,21.24a1.09,1.09,0,0,0,0-2.17H6a1.09,1.09,0,1,0,0,2.17Z"/><path class="cls-1" d="M27.32,4.63a.72.72,0,0,0-.72.72h0V16.91h0a.72.72,0,0,0,.72.72h1.47v3.61a4.37,4.37,0,0,1-4.36,4.37V22.69H5.65a7.93,7.93,0,0,0,7.94,7.94H15v3.62H10a.73.73,0,0,0-.72.73v1.44H25.87V35a.73.73,0,0,0-.72-.73H22.26V30.63h1.08a1.08,1.08,0,0,0,1.09-1.08V27a5.76,5.76,0,0,0,5.75-5.75V17.63h2.19v-13Z"/></svg>