<svg id="Icons" xmlns="http://www.w3.org/2000/svg" viewBox="0 0 39.4 39.4"><defs><style>.cls-1{fill:#656869;}</style></defs><title>Resize GSBIG</title><path class="cls-1" d="M30.34,15.1a1.38,1.38,0,1,0,0-2.75V7.91h0a4.45,4.45,0,0,0-8.9,0h2.24a2.21,2.21,0,0,1,4.42,0h0v4.44H2.69a1.38,1.38,0,0,0,0,2.75Z"/><path class="cls-1" d="M31.72,31.65H28.05v-4.6h1.37a1.37,1.37,0,0,0,1.38-1.37V16.94H2.24A10.1,10.1,0,0,0,12.35,27.05h6.5v4.6H12.42a.92.92,0,0,0-.92.92v1.84H32.64V32.57A.92.92,0,0,0,31.72,31.65Z"/></svg>