<svg id="Icons" xmlns="http://www.w3.org/2000/svg" viewBox="0 0 39.4 39.4"><defs><style>.cls-1{fill:#656869;}</style></defs><title>Resize GSBIG</title><path class="cls-1" d="M13.65,23.42a2.48,2.48,0,0,1-2.48,2.48H7a3.14,3.14,0,0,1-2.4-1.36,3.51,3.51,0,0,1-.54-1.18h-1v5.28A4.89,4.89,0,0,0,8,33.53H31.44a4.89,4.89,0,0,0,4.89-4.89h0V23.36H13.64S13.65,23.4,13.65,23.42Z"/><path class="cls-1" d="M3.07,21.94H4a5.12,5.12,0,0,1,.1-.54L4.91,19H3.07a1.47,1.47,0,1,0,0,2.93Z"/><path class="cls-1" d="M36.33,19H19.87v0h-9.4L9.81,21h1.36a2.45,2.45,0,0,1,2,1H36.33a1.47,1.47,0,1,0,0-2.93Z"/><path class="cls-1" d="M10.29,11.64a3.29,3.29,0,0,0,1.26-.25,3,3,0,0,0,.79-.5A3.25,3.25,0,0,0,13.55,8.5a3.31,3.31,0,0,0-.24-1.41A3.15,3.15,0,0,0,12.19,5.7,3.25,3.25,0,0,0,9,5.33a3.28,3.28,0,0,0,1.28,6.31Z"/><path class="cls-1" d="M7,24.52h4.18a1.1,1.1,0,0,0,1.1-1.1s0,0,0-.06a1.09,1.09,0,0,0-1.09-1H8.31c-.24,0-.34-.16-.29-.38,0,0,0,0,0,0l.34-1,.29-.82L9,19l.18-.53.46-1.33c.07-.24.28-.25.36-.08l.29.59h7.44c-.4-.93-.85-1.94-1-2.34a4.27,4.27,0,0,1-.22-1.89c1.16-.7,1.31-1.57,1.85-3.14l1-2.82a1.7,1.7,0,0,0-1.85-2.21h-3.6a.33.33,0,0,0-.1.06.55.55,0,0,0-.12.79,4.29,4.29,0,0,1,.56,1.1c.06.22.15.26.38.26h1.8c.22,0,.28.13.22.28l-.89,2.58a1.6,1.6,0,0,1-.69,1l-2,.74L10.6,13l-2,.71a1.26,1.26,0,0,0-.73.87L6.55,18.48,6.37,19,6,20.12l-.28.82-.31.87c0,.05,0,.09,0,.13a2.1,2.1,0,0,0,.11,1.42A2,2,0,0,0,7,24.52Z"/><circle class="cls-1" cx="21" cy="16.84" r="0.79"/><path class="cls-1" d="M26.55,8.45a.79.79,0,1,0,.79.79A.79.79,0,0,0,26.55,8.45Z"/><path class="cls-1" d="M26.93,15.41a.79.79,0,1,0,.79-.79A.79.79,0,0,0,26.93,15.41Z"/><path class="cls-1" d="M30.68,12.5a1.16,1.16,0,1,0-1.16-1.16A1.16,1.16,0,0,0,30.68,12.5Z"/><path class="cls-1" d="M22.23,13a1.16,1.16,0,1,0,1.16-1.15A1.16,1.16,0,0,0,22.23,13Z"/><circle class="cls-1" cx="32.62" cy="16.84" r="0.79"/><path class="cls-1" d="M21.44,7.72a.79.79,0,1,0,.79-.79A.79.79,0,0,0,21.44,7.72Z"/><path class="cls-1" d="M26.48,6.13a.79.79,0,0,0,0-1.58.79.79,0,1,0,0,1.58Z"/><circle class="cls-1" cx="21" cy="2.39" r="0.79"/></svg>