<svg id="Icons" xmlns="http://www.w3.org/2000/svg" viewBox="0 0 39.4 39.4"><defs><style>.cls-1{fill:#646869;}</style></defs><title>Resize GSBIG</title><path class="cls-1" d="M23.1,30.8a9.21,9.21,0,0,1-3.36.64,9.36,9.36,0,0,1-3.46-.68L15,38.17h0s0,.06,0,.1v.27a.37.37,0,0,0,.37.37H24a.37.37,0,0,0,.37-.37v-.27s0-.06,0-.1h0Z"/><rect class="cls-1" x="9.83" y="17.52" width="19.74" height="1.32" rx="0.37"/><path class="cls-1" d="M19.7,29.86a9.54,9.54,0,0,0,9.54-9.54H10.16A9.54,9.54,0,0,0,19.7,29.86Z"/><path class="cls-1" d="M19.7,1.48A.74.74,0,1,0,19,.74.74.74,0,0,0,19.7,1.48Z"/><rect class="cls-1" x="11.55" y="2.62" width="16.29" height="13.33" rx="0.76"/></svg>