<svg id="Icons" xmlns="http://www.w3.org/2000/svg" viewBox="0 0 39.4 39.4"><defs><style>.cls-1{fill:#656869;}</style></defs><title>Resize GSBIG</title><path class="cls-1" d="M10.63,6.58h0V6.12a3.65,3.65,0,0,1,3.64-3.64h5.09A3.64,3.64,0,0,1,23,6.12v.46H20.08V8h7.28V6.58H24.45V6.12A5.1,5.1,0,0,0,19.36,1H14.27A5.09,5.09,0,0,0,9.18,6.12v.46h0V23.27h1.45Z"/><path class="cls-1" d="M17.9,10.21H29.54a1.45,1.45,0,0,0-1.46-1.45H19.36A1.45,1.45,0,0,0,17.9,10.21Z"/><path class="cls-1" d="M6.6,30.57a4.36,4.36,0,0,0,3.64,4.3v1.52a1.46,1.46,0,1,0,2.91,0V34.94H26.24v1.45a1.46,1.46,0,1,0,2.91,0V34.87a4.36,4.36,0,0,0,3.63-4.3V26.94H6.6Z"/><path class="cls-1" d="M33.88,23.29H5.52a1.1,1.1,0,1,0,0,2.2l.08,0H33.88a1.1,1.1,0,1,0,0-2.2Z"/><path class="cls-1" d="M21.22,11.47a.47.47,0,0,0-.67,0,.47.47,0,0,0,.71.61A.47.47,0,0,0,21.22,11.47Z"/><path class="cls-1" d="M21.22,13.35a.47.47,0,0,0-.67.05.46.46,0,0,0,.05.66.47.47,0,0,0,.66,0A.48.48,0,0,0,21.22,13.35Z"/><path class="cls-1" d="M19.61,17.16a.47.47,0,0,0,.05.67.47.47,0,0,0,.61-.71A.47.47,0,0,0,19.61,17.16Z"/><path class="cls-1" d="M20.27,15.23a.47.47,0,1,0,.05.67A.47.47,0,0,0,20.27,15.23Z"/><path class="cls-1" d="M19.33,19a.47.47,0,1,0,.05.66A.46.46,0,0,0,19.33,19Z"/><path class="cls-1" d="M22.76,20.77h0a.46.46,0,0,0-.34.16.46.46,0,0,0,.05.66.42.42,0,0,0,.35.11.43.43,0,0,0,.19,0,.72.72,0,0,0,.15-.11.47.47,0,0,0-.39-.78Z"/><path class="cls-1" d="M18.67,20.93a.46.46,0,0,0,0,.66.47.47,0,1,0,.61-.71A.46.46,0,0,0,18.67,20.93Z"/><path class="cls-1" d="M25,12.13a.47.47,0,0,0-.72-.61.46.46,0,0,0,.05.66A.48.48,0,0,0,25,12.13Z"/><path class="cls-1" d="M24.34,14.06a.47.47,0,1,0,.62-.71.47.47,0,0,0-.67.05A.46.46,0,0,0,24.34,14.06Z"/><path class="cls-1" d="M23.75,17.94a.47.47,0,0,0,.34-.16.46.46,0,0,0-.05-.66.47.47,0,0,0-.35-.12.52.52,0,0,0-.34.16.47.47,0,0,0,0,.67A.51.51,0,0,0,23.75,17.94Z"/><path class="cls-1" d="M23.1,19a.49.49,0,0,0-.34-.12h0a.43.43,0,0,0-.34.16.46.46,0,0,0,.05.66.45.45,0,0,0,.35.11.43.43,0,0,0,.19,0,.79.79,0,0,0,.15-.12A.47.47,0,0,0,23.1,19Z"/><path class="cls-1" d="M26.89,12.13a.47.47,0,0,0-.71-.61.47.47,0,1,0,.71.61Z"/><path class="cls-1" d="M27.49,17.94a.46.46,0,0,0,.34-.16.46.46,0,0,0,0-.66.46.46,0,0,0-.35-.12.47.47,0,0,0-.33.16.48.48,0,0,0,0,.67A.51.51,0,0,0,27.49,17.94Z"/><path class="cls-1" d="M26.22,14.06a.48.48,0,0,0,.67,0,.47.47,0,0,0-.05-.67.46.46,0,0,0-.66.05A.47.47,0,0,0,26.22,14.06Z"/><path class="cls-1" d="M25.28,17.83a.48.48,0,0,0,.34.11.49.49,0,0,0,.33-.16.51.51,0,0,0,.09-.16.45.45,0,0,0,0-.36.36.36,0,0,0-.11-.14.45.45,0,0,0-.34-.12.61.61,0,0,0-.18.05.49.49,0,0,0-.14.11.46.46,0,0,0-.12.35.55.55,0,0,0,.05.17A.72.72,0,0,0,25.28,17.83Z"/><path class="cls-1" d="M27.14,15.94a.47.47,0,0,0,.35.12.5.5,0,0,0,.34-.16.47.47,0,0,0,0-.67.49.49,0,0,0-.35-.11.47.47,0,0,0-.29.82Z"/><path class="cls-1" d="M25.62,16.06A.49.49,0,0,0,26,15.9a.65.65,0,0,0,.09-.16.45.45,0,0,0,0-.36.44.44,0,0,0-.45-.26.41.41,0,0,0-.18.05.36.36,0,0,0-.14.11.45.45,0,0,0-.12.34.61.61,0,0,0,.05.18.49.49,0,0,0,.11.14A.45.45,0,0,0,25.62,16.06Z"/><path class="cls-1" d="M28.72,19a.44.44,0,0,0-.34-.11h0a.46.46,0,0,0-.32.17.47.47,0,0,0,0,.66.51.51,0,0,0,.35.11h0a.43.43,0,0,0,.34-.16A.46.46,0,0,0,28.72,19Z"/><path class="cls-1" d="M24.63,20.77h0a.58.58,0,0,0-.18,0,.79.79,0,0,0-.15.12.48.48,0,0,0-.11.34.45.45,0,0,0,.16.32.42.42,0,0,0,.35.11.45.45,0,0,0,.34-.15.47.47,0,0,0-.05-.67A.51.51,0,0,0,24.63,20.77Z"/><path class="cls-1" d="M26.84,19a.49.49,0,0,0-.34-.12h0a.44.44,0,0,0-.34.16.47.47,0,0,0,.05.66.46.46,0,0,0,.35.11h0a.43.43,0,0,0,.32-.16A.46.46,0,0,0,26.84,19Z"/><path class="cls-1" d="M26.5,20.77h0a.47.47,0,0,0-.29.82.42.42,0,0,0,.35.11h0a.52.52,0,0,0,.32-.16.47.47,0,0,0-.05-.67A.48.48,0,0,0,26.5,20.77Z"/><path class="cls-1" d="M28.38,20.77h0a.45.45,0,0,0-.32.16.47.47,0,0,0,0,.66.52.52,0,0,0,.35.12h0a.45.45,0,0,0,.34-.15.47.47,0,0,0-.05-.67A.48.48,0,0,0,28.38,20.77Z"/><path class="cls-1" d="M23.14,12.13a.46.46,0,0,0,0-.66.47.47,0,0,0-.67,0,.47.47,0,0,0,.71.61Z"/><path class="cls-1" d="M22.48,14.06a.47.47,0,1,0-.05-.66A.46.46,0,0,0,22.48,14.06Z"/><path class="cls-1" d="M21.54,17.83a.49.49,0,0,0,.52.07.53.53,0,0,0,.14-.12.47.47,0,0,0,0-.66.46.46,0,0,0-.35-.12.52.52,0,0,0-.32.16.49.49,0,0,0-.11.35A.47.47,0,0,0,21.54,17.83Z"/><path class="cls-1" d="M23.69,15.12a.52.52,0,0,0-.34.16.46.46,0,0,0,0,.66.47.47,0,0,0,.35.12.52.52,0,0,0,.34-.16.47.47,0,0,0-.05-.67A.51.51,0,0,0,23.69,15.12Z"/><path class="cls-1" d="M22.06,16a.36.36,0,0,0,.14-.11.48.48,0,0,0,0-.67.49.49,0,0,0-.35-.11.47.47,0,0,0-.32.16.48.48,0,0,0-.11.34.45.45,0,0,0,.16.32A.47.47,0,0,0,22.06,16Z"/><path class="cls-1" d="M25,19a.46.46,0,0,0-.35-.11h0a.61.61,0,0,0-.18.05.79.79,0,0,0-.15.12.47.47,0,0,0-.11.34.47.47,0,0,0,.16.32.46.46,0,0,0,.35.11.43.43,0,0,0,.34-.16A.46.46,0,0,0,25,19Z"/><path class="cls-1" d="M21.22,19a.52.52,0,0,0-.35-.12.48.48,0,0,0-.32.17.46.46,0,0,0,.05.66.46.46,0,0,0,.51.07.44.44,0,0,0,.15-.12A.47.47,0,0,0,21.22,19Z"/><path class="cls-1" d="M20.87,20.77a.47.47,0,0,0-.32.16.47.47,0,0,0,.56.73.42.42,0,0,0,.15-.11.48.48,0,0,0,0-.67A.51.51,0,0,0,20.87,20.77Z"/></svg>