<svg id="Icons" xmlns="http://www.w3.org/2000/svg" viewBox="0 0 39.4 39.4"><defs><style>.cls-1{fill:#646869;}</style></defs><title>Resize GSBIG</title><polygon class="cls-1" points="30.97 26.96 8.43 26.96 4.51 26.96 2.55 26.96 2.55 28.92 4.51 28.92 4.51 31.86 5.49 31.86 5.49 32.84 7.45 32.84 7.45 31.86 8.43 31.86 8.43 28.92 30.97 28.92 30.97 31.86 31.95 31.86 31.95 32.84 33.91 32.84 33.91 31.86 34.89 31.86 34.89 28.92 36.85 28.92 36.85 26.96 34.89 26.96 30.97 26.96"/><path class="cls-1" d="M34.89,16.36H4.51a2,2,0,0,0-2,2V26h34.3V18.32A2,2,0,0,0,34.89,16.36Z"/><path class="cls-1" d="M10.39,12.44h4.9a2.94,2.94,0,0,1,2.94,2.94h2.94A3,3,0,0,1,24,12.44h5A2.94,2.94,0,0,1,32,15.38h2.94V9.5A2.93,2.93,0,0,0,32,6.56H7.45A2.94,2.94,0,0,0,4.51,9.5v5.88H7.45A2.94,2.94,0,0,1,10.39,12.44Z"/></svg>