<svg id="Icons" xmlns="http://www.w3.org/2000/svg" viewBox="0 0 39.4 39.4"><defs><style>.cls-1{fill:#646869;}</style></defs><title>Resize GSBIG</title><polygon class="cls-1" points="1.81 26.65 3.42 26.65 3.42 29.76 4.2 29.76 4.2 30.56 7.38 30.56 7.38 29.76 8.17 29.76 8.17 26.65 31.22 26.65 31.22 29.76 32.02 29.76 32.02 30.56 35.2 30.56 35.2 29.76 35.98 29.76 35.98 26.65 37.59 26.65 37.59 24.99 1.81 24.99 1.81 26.65"/><path class="cls-1" d="M34.37,14.65H5a3.22,3.22,0,0,0-3.22,3.22V23.4H37.59V17.87A3.22,3.22,0,0,0,34.37,14.65Z"/><path class="cls-1" d="M10.86,10.48H16a2.6,2.6,0,0,1,2.7,2.58h2a2.59,2.59,0,0,1,2.69-2.58h5.13a2.6,2.6,0,0,1,2.7,2.58H34.4v-4S28.89,1.93,19.7,1.93,5,9.09,5,9.09v4H8.17A2.59,2.59,0,0,1,10.86,10.48Z"/></svg>