<svg id="Icons" xmlns="http://www.w3.org/2000/svg" viewBox="0 0 39.4 39.4"><defs><style>.cls-1{fill:#646869;}</style></defs><title>Resize GSBIG</title><polygon class="cls-1" points="5.51 31.99 6.78 31.99 6.78 34.46 7.41 34.46 7.41 35.09 9.93 35.09 9.93 34.46 10.55 34.46 10.55 31.99 28.84 31.99 28.84 34.46 29.47 34.46 29.47 35.09 31.99 35.09 31.99 34.46 32.61 34.46 32.61 31.99 33.88 31.99 33.88 30.67 5.51 30.67 5.51 31.99"/><path class="cls-1" d="M31.33,22.47H8.07A2.56,2.56,0,0,0,5.52,25v4.38H33.88V25A2.56,2.56,0,0,0,31.33,22.47Z"/><path class="cls-1" d="M12.69,19.17h4.07a2.06,2.06,0,0,1,2.15,2h1.58a2.05,2.05,0,0,1,2.14-2H26.7a2.06,2.06,0,0,1,2.14,2h2.52V18.06S27,12.38,19.7,12.38,8,18.06,8,18.06v3.15h2.52A2.06,2.06,0,0,1,12.69,19.17Z"/><path class="cls-1" d="M19.7,9.86A.89.89,0,0,0,20.59,9V4.54a.89.89,0,0,0-1.78,0V9A.89.89,0,0,0,19.7,9.86Z"/><path class="cls-1" d="M24.28,8.42a.88.88,0,1,0,1.64-.66L24.26,3.65a.88.88,0,1,0-1.64.66Z"/><path class="cls-1" d="M14,8.91a.89.89,0,0,0,1.15-.49l1.66-4.11a.88.88,0,0,0-1.64-.66L13.47,7.76A.87.87,0,0,0,14,8.91Z"/><path class="cls-1" d="M29.38,6.07a.88.88,0,0,0,1.25-1.25L27.5,1.69a.89.89,0,1,0-1.26,1.25Z"/><path class="cls-1" d="M10,6.07l3.13-3.13a.88.88,0,0,0-1.25-1.25L8.76,4.82A.88.88,0,0,0,10,6.07Z"/></svg>