<svg id="Icons" xmlns="http://www.w3.org/2000/svg" viewBox="0 0 39.4 39.4"><defs><style>.cls-1{fill:#646869;}</style></defs><title>Resize GSBIG</title><polygon class="cls-1" points="28.61 2.67 10.79 2.67 8.11 16.93 31.29 16.93 28.61 2.67"/><path class="cls-1" d="M19.7,1.78a.89.89,0,1,0-.89-.89A.89.89,0,0,0,19.7,1.78Z"/><path class="cls-1" d="M25.94,36.54H23.27a.89.89,0,1,0,0-1.78h-.89a.89.89,0,1,0,0-1.78h-.89a.9.9,0,0,0,0-1.79.89.89,0,0,0,0-1.78.89.89,0,0,0,0-1.78.89.89,0,0,0,0-1.78.89.89,0,0,0,0-1.78h.89a.9.9,0,1,0,0-1.79H20.59V18.72H18.81v3.56H17a.9.9,0,1,0,0,1.79h.89a.89.89,0,0,0,0,1.78.89.89,0,0,0,0,1.78.89.89,0,0,0,0,1.78.89.89,0,0,0,0,1.78.9.9,0,0,0,0,1.79H17a.89.89,0,1,0,0,1.78h-.89a.89.89,0,1,0,0,1.78H13.46a.9.9,0,0,0,0,1.79H25.94a.9.9,0,0,0,0-1.79Z"/></svg>