<svg id="Icons" xmlns="http://www.w3.org/2000/svg" viewBox="0 0 39.4 39.4"><defs><style>.cls-1{fill:#646869;}</style></defs><title>Resize GSBIG</title><path class="cls-1" d="M33.45,6H6A.82.82,0,0,0,6,7.59h27.5a.82.82,0,0,0,0-1.63Z"/><path class="cls-1" d="M29.53,9.23H9.87v9.83H29.53ZM19.7,15.38a1.24,1.24,0,1,1,1.24-1.23A1.24,1.24,0,0,1,19.7,15.38Z"/><path class="cls-1" d="M9.87,30.53H29.53V20.7H9.87Zm9.83-6.15a1.24,1.24,0,1,1-1.24,1.24A1.25,1.25,0,0,1,19.7,24.38Z"/><path class="cls-1" d="M31.17,32.17H8.23V9.23H6.59V33h0a.82.82,0,0,0,.82.82H9.87v2.46a.82.82,0,1,0,1.64,0V33.81H27.89v2.46a.82.82,0,0,0,1.64,0V33.81H32a.82.82,0,0,0,.82-.82V9.23H31.17Z"/></svg>