<svg id="Icons" xmlns="http://www.w3.org/2000/svg" viewBox="0 0 39.4 39.4"><defs><style>.cls-1{fill:#646869;}</style></defs><title>Resize GSBIG</title><path class="cls-1" d="M18.53,30.09H10.86c-.15-1.44-.6-5.92-.7-7.79a17.19,17.19,0,0,1,2-8.46,14.45,14.45,0,0,1,4.87-4.5,14.3,14.3,0,0,1,1.4,1.58A7.74,7.74,0,0,0,18,13.8c-.08,2,1.56,4.37,1.56,4.37s1.59-1.3,2.89-2.34a2.56,2.56,0,0,0,3.43.23,2.52,2.52,0,0,0,.46-3.25l3.16-2.43s-.13-.45-2.13-1.83a7.89,7.89,0,0,0-4.58-1.17S21.45,5.55,20,3.88s-2.58-1-4.21.3C14.38,5.33,15,6.7,15.76,7.75l-.11,0C8,11.76,8.12,18.51,8.12,21.71c0,2.8.37,7.28.47,8.38H6.78c-1.25,0-1.58,2.29-1.58,2.29H20.82S21.36,30.09,18.53,30.09Z"/><path class="cls-1" d="M21.69,20.88a.85.85,0,0,0-.93.77l-.42,4.22a.86.86,0,0,0,.76.93A.85.85,0,0,0,22,26l.42-4.23A.86.86,0,0,0,21.69,20.88Z"/><path class="cls-1" d="M28.94,18.48a.85.85,0,1,0-1.32,1.08l2.7,3.28a.85.85,0,0,0,1.31-1.08Z"/><path class="cls-1" d="M34.84,17.61l-3.72-2a.86.86,0,0,0-1.16.34.85.85,0,0,0,.34,1.15l3.73,2a.85.85,0,0,0,.81-1.5Z"/><path class="cls-1" d="M26,20.63a.85.85,0,0,0-1.62.5l1.27,4.05a.85.85,0,1,0,1.62-.5Z"/><path class="cls-1" d="M36.55,12.58l-4.23-.42a.84.84,0,0,0-.93.76.86.86,0,0,0,.76.93l4.23.42a.85.85,0,1,0,.17-1.69Z"/></svg>