<svg id="Icons" xmlns="http://www.w3.org/2000/svg" viewBox="0 0 39.4 39.4"><defs><style>.cls-1{fill:#646869;}</style></defs><title>Resize GSBIG</title><path class="cls-1" d="M34.38,8.11V6.65H5V8.11H6.49V9.58H5v1.47H6.49v1.47H5V14H6.49v1.47H5v1.47H6.49v1.47H5v1.46H6.49v1.47H5v1.47H6.49v1.47H5v1.46H6.49v1.47H5v1.47H6.49v5.6H32.91V32.8h0V28.66h1.47V27.19H32.91V25.72h1.47V24.26H32.91V22.79h1.47V21.32H32.91V19.85h1.47V18.39H32.91V16.92h1.47V15.45H32.91V14h1.47V12.52H32.91V11.05h1.47V9.58H32.91V8.11ZM19,32.8H8V28.66H19Zm0-5.61H8V25.72H19Zm0-2.93H8V22.79H19Zm0-2.94H8V19.85H19Zm0-2.93H8V16.92H19Zm0-2.94H8V14H19Zm0-2.93H8V11.05H19Zm0-2.94H8V8.11H19ZM31.44,32.8h-11V28.66h11Zm0-5.61h-11V25.72h11Zm0-2.93h-11V22.79h11Zm0-2.94h-11V19.85h11Zm0-2.93h-11V16.92h11Zm0-2.94h-11V14h11Zm0-2.93h-11V11.05h11Zm0-2.94h-11V8.11h11Z"/></svg>