<svg id="Icons" xmlns="http://www.w3.org/2000/svg" viewBox="0 0 39.4 39.4"><defs><style>.cls-1{fill:#646869;}</style></defs><title>Resize GSBIG</title><path class="cls-1" d="M16.46,25.75l3.24-3.24,3.23,3.24a.7.7,0,0,0,1-1L20.19,21a.7.7,0,0,0-1,0l-3.73,3.73a.69.69,0,0,0,1,1Z"/><path class="cls-1" d="M37.1,14.76H34.31V6.48H5.09v8.28H2.3a.7.7,0,0,0-.69.7.69.69,0,0,0,.69.69H5.09V32.92H34.31V16.15H37.1a.69.69,0,0,0,.69-.69A.7.7,0,0,0,37.1,14.76ZM32.92,31.53H6.48V16.15H32.92Zm0-16.75H6.48V13.41H32.92Zm0-2.75H6.48V10.65H32.92Zm0-2.76H6.48V7.89H32.92Z"/></svg>