<svg id="Icons" xmlns="http://www.w3.org/2000/svg" viewBox="0 0 39.4 39.4"><defs><style>.cls-1{fill:#646869;}</style></defs><title>Resize GSBIG</title><path class="cls-1" d="M16.47,25.75l3.23-3.24,3.24,3.24a.66.66,0,0,0,.49.2.69.69,0,0,0,.49-1.18L20.19,21a.68.68,0,0,0-.49-.2.7.7,0,0,0-.49.2l-3.73,3.73a.69.69,0,0,0,0,1A.71.71,0,0,0,16.47,25.75Z"/><path class="cls-1" d="M37.09,13.44H34.31v-7H5.09v7H2.31a.7.7,0,1,0,0,1.39H5.09V32.92H34.31V14.83h2.78a.7.7,0,1,0,0-1.39ZM32.92,31.53H6.48V14.83H32.92Z"/></svg>