<svg id="Icons" xmlns="http://www.w3.org/2000/svg" viewBox="0 0 39.4 39.4"><defs><style>.cls-1{fill:#646869;}</style></defs><title>Resize GSBIG</title><path class="cls-1" d="M15,12.76a4,4,0,1,0-4-4A4,4,0,0,0,15,12.76Z"/><path class="cls-1" d="M34.48,20.56a4.19,4.19,0,1,0-8.38,0Z"/><path class="cls-1" d="M35.18,21.27H25.41a.36.36,0,0,0,0,.72h9.77a.36.36,0,0,0,0-.72Z"/><path class="cls-1" d="M30.29,15.88a.36.36,0,1,0-.36-.36A.36.36,0,0,0,30.29,15.88Z"/><path class="cls-1" d="M31.25,23.33H24.16L19.36,15h0a3.5,3.5,0,0,0-2-1.22L15,21.24l-2.34-7.45a3.45,3.45,0,0,0-2,1.23h0L4,26.5a1.18,1.18,0,0,0,.43,1.6,1.22,1.22,0,0,0,.58.15,1.18,1.18,0,0,0,1-.58L9.87,21v6.05H20.14V21l2.33,4,0,0a1.14,1.14,0,0,0,1,.61h7.75a1.17,1.17,0,0,0,0-2.34Z"/><path class="cls-1" d="M14.67,13.85a.36.36,0,0,0,.72,0,.36.36,0,0,0-.72,0Z"/><path class="cls-1" d="M13.82,27.81h-4v9a19.53,19.53,0,0,0,4,1.55V30.17h0a1.19,1.19,0,0,1,2.37,0h0V38.8A18.56,18.56,0,0,0,19,39c.39,0,.77,0,1.15-.06V27.81H13.82Z"/><path class="cls-1" d="M33.63,14.2a.36.36,0,0,0,.25.11.38.38,0,0,0,.26-.11.36.36,0,0,0,0-.51,2.22,2.22,0,0,1,0-3.13A2.9,2.9,0,0,0,35,8.48a3.08,3.08,0,0,0-.07-.61,19.37,19.37,0,0,0-2.12-2.49,3,3,0,0,0,.81,1.53,2.18,2.18,0,0,1,.66,1.57,2.2,2.2,0,0,1-.66,1.58A2.93,2.93,0,0,0,33.63,14.2Z"/><path class="cls-1" d="M31,10.06a2.92,2.92,0,0,0-.75,2.79.34.34,0,0,0,.35.27h.09a.35.35,0,0,0,.25-.44,2.25,2.25,0,0,1,.57-2.11,2.94,2.94,0,0,0,0-4.16,2.26,2.26,0,0,1-.66-1.57,2.11,2.11,0,0,1,.21-.93l-.59-.43a3,3,0,0,0-.34,1.36A3,3,0,0,0,31,6.91,2.23,2.23,0,0,1,31,10.06Z"/><path class="cls-1" d="M28.48,10.06a2.88,2.88,0,0,0-.76,2.77.35.35,0,0,0,.35.27h.08a.37.37,0,0,0,.27-.44A2.18,2.18,0,0,1,29,10.56,2.94,2.94,0,0,0,29,6.4a2.22,2.22,0,0,1-.66-1.57A2.18,2.18,0,0,1,29,3.25a3,3,0,0,0,.41-.53l-.62-.38a2.12,2.12,0,0,1-.32.42,2.87,2.87,0,0,0-.85,2.07,2.93,2.93,0,0,0,.87,2.08A2.23,2.23,0,0,1,28.48,10.06Z"/><path class="cls-1" d="M26.57,8.48a2.24,2.24,0,0,1-.66,1.58,2.93,2.93,0,0,0,0,4.14.36.36,0,0,0,.25.11.4.4,0,0,0,.26-.11.35.35,0,0,0,0-.51,2.23,2.23,0,0,1,0-3.13,2.94,2.94,0,0,0,0-4.16,2.21,2.21,0,0,1-.65-1.57,2.17,2.17,0,0,1,.65-1.58,2.91,2.91,0,0,0,.83-1.7c-.23-.11-.45-.22-.69-.32a2.23,2.23,0,0,1-.67,1.53A2.91,2.91,0,0,0,25,4.83a3,3,0,0,0,.87,2.08A2.22,2.22,0,0,1,26.57,8.48Z"/></svg>