<svg id="Icons" xmlns="http://www.w3.org/2000/svg" viewBox="0 0 39.4 39.4"><defs><style>.cls-1{fill:#646869;}</style></defs><title>Resize GSBIG</title><path class="cls-1" d="M6.92,7H32.48a.71.71,0,1,0,0-1.42H6.92A.71.71,0,0,0,6.92,7Z"/><path class="cls-1" d="M7.63,31.09H19V8.37H7.63Zm8.52-12.78a.71.71,0,1,1-.71.71A.71.71,0,0,1,16.15,18.31Z"/><path class="cls-1" d="M31.77,31.09V8.37H20.41V31.09ZM23.25,18.31a.71.71,0,1,1-.71.71A.71.71,0,0,1,23.25,18.31Z"/><path class="cls-1" d="M32.48,32.52H6.92a.71.71,0,1,0,0,1.41h4.26v2.14a.71.71,0,0,0,1.42,0V33.93H26.8v2.14a.71.71,0,0,0,1.42,0V33.93h4.26a.71.71,0,1,0,0-1.41Z"/></svg>