<svg id="Icons" xmlns="http://www.w3.org/2000/svg" viewBox="0 0 78.46 43.23"><defs><style>.cls-1{fill:#6b6b6b;}</style></defs><title>Resize GSBIG</title><path class="cls-1" d="M22,38.71a2,2,0,1,0,2.81,2.8,20.5,20.5,0,0,1,29,0,2,2,0,0,0,2.8-2.8A24.46,24.46,0,0,0,22,38.71Z"/><path class="cls-1" d="M10.43,27.16A2,2,0,0,0,13.24,30a36.83,36.83,0,0,1,52,0,2,2,0,0,0,2.81,0,2,2,0,0,0,0-2.81A40.83,40.83,0,0,0,10.43,27.16Z"/><path class="cls-1" d="M75.89,15.36a51.78,51.78,0,0,0-73.26,0,2.1,2.1,0,0,0,3,3,47.58,47.58,0,0,1,67.32,0,2.1,2.1,0,0,0,3-3Z"/></svg>