<svg id="Icons" xmlns="http://www.w3.org/2000/svg" viewBox="0 0 39.4 39.4"><defs><style>.cls-1{fill:#646869;}</style></defs><title>Resize GSBIG</title><path class="cls-1" d="M35.58,25.42H34.32V22.69a.78.78,0,1,0-1.56,0v2.73H31.51a.79.79,0,1,0,0,1.57h1.25v1.48a1.36,1.36,0,0,1-1.36,1.36H25.62a6.84,6.84,0,0,0,2.57-5.32V22.38h1.25a.78.78,0,1,0,0-1.56H28.19V18.08a.79.79,0,0,0-1.57,0v2.74H25.37a.78.78,0,1,0,0,1.56h1.25v2.13a5.32,5.32,0,0,1-5,5.29c1-1.7-.06-6.3-1-15.45V1.73H22.1a.79.79,0,0,0,0-1.57H17.3a.79.79,0,0,0,0,1.57h1.78V14.42c-.92,9.1-2,13.68-1,15.38a5.31,5.31,0,0,1-5-5.29V22.38h1.25a.78.78,0,0,0,0-1.56H13.11V18.08a.79.79,0,0,0-1.57,0v2.74H10.29a.78.78,0,1,0,0,1.56h1.25v2.13a6.84,6.84,0,0,0,2.57,5.32H8.33A1.36,1.36,0,0,1,7,28.47V27H8.22a.79.79,0,0,0,0-1.57H7V22.69a.79.79,0,1,0-1.57,0v2.73H4.15a.79.79,0,0,0,0,1.57H5.4v1.48A2.93,2.93,0,0,0,8.33,31.4H19.08V37l-.38.38a.88.88,0,0,0,0,1.24l.54.54a.89.89,0,0,0,1.25,0l.54-.54a.88.88,0,0,0,0-1.24L20.65,37V31.4H31.4a2.93,2.93,0,0,0,2.92-2.93V27h1.26a.79.79,0,0,0,0-1.57Z"/><path class="cls-1" d="M12.2,15.21s.08,0,.13,0,.09,0,.13,0a.76.76,0,0,0,.63-.74.74.74,0,0,0-.37-.64v-.78a.39.39,0,0,0-.78,0v.78a.74.74,0,0,0-.37.64A.76.76,0,0,0,12.2,15.21Z"/><path class="cls-1" d="M6.19,20A.77.77,0,0,0,7,19.26a.74.74,0,0,0-.38-.64V17.8a.39.39,0,0,0-.39-.4.4.4,0,0,0-.39.4v.82a.74.74,0,0,0-.37.64A.76.76,0,0,0,6.19,20Z"/><path class="cls-1" d="M27.28,15.21s.08,0,.13,0,.09,0,.13,0a.77.77,0,0,0,.64-.74.74.74,0,0,0-.38-.64v-.78a.39.39,0,0,0-.78,0v.78a.74.74,0,0,0-.37.64A.76.76,0,0,0,27.28,15.21Z"/><path class="cls-1" d="M33.55,20a.76.76,0,0,0,.76-.76.74.74,0,0,0-.37-.64V17.8a.39.39,0,1,0-.78,0v.82a.74.74,0,0,0-.37.64A.76.76,0,0,0,33.55,20Z"/></svg>