<svg id="Icons" xmlns="http://www.w3.org/2000/svg" viewBox="0 0 39.4 39.4"><defs><style>.cls-1{fill:#646869;}</style></defs><title>Resize GSBIG</title><path class="cls-1" d="M24.23,7.29a3.5,3.5,0,0,0,.87.42,3.57,3.57,0,0,0,1,.16,3.25,3.25,0,0,0,1.68-.47A3.33,3.33,0,0,0,26.1,1.21a3.52,3.52,0,0,0-1.55.37,3.32,3.32,0,0,0-.32,5.71Zm1-4.43a1.93,1.93,0,0,1,.9-.22A1.91,1.91,0,0,1,28,4.54a1.93,1.93,0,0,1-.92,1.63,1.83,1.83,0,0,1-.95.27A2,2,0,0,1,25,6.11a1.91,1.91,0,0,1-.84-1.66A1.87,1.87,0,0,1,25.2,2.86Z"/><path class="cls-1" d="M21.81,13.39a.7.7,0,0,0,.31.07.73.73,0,0,0,.64-.42l1.43-3.33A.71.71,0,1,0,22.9,9.1l-1.44,3.34A.71.71,0,0,0,21.81,13.39Z"/><path class="cls-1" d="M20.5,27.67l3.61-3.53,7.77-7.57a.73.73,0,0,0,.16-.79.71.71,0,0,0-.66-.44H7.86a.71.71,0,0,0-.66.44.73.73,0,0,0,.16.79l7.77,7.57,3.61,3.53.16.16V34.3c0,.48-.32.82-.88,1.42a2.31,2.31,0,0,1-.59.47,2.51,2.51,0,0,1-1,.33H13.15a.76.76,0,1,0,0,1.51H25.84a.76.76,0,1,0,0-1.51h-3a2.51,2.51,0,0,1-1-.33,3.07,3.07,0,0,1-.67-.55c-.48-.52-.77-.86-.8-1.33V27.84Zm-7.35-7.46L9.63,16.77h20l-3.52,3.44Z"/></svg>