<svg id="Icons" xmlns="http://www.w3.org/2000/svg" viewBox="0 0 39.4 39.4"><defs><style>.cls-1{fill:#646869;}</style></defs><title>Resize GSBIG</title><rect class="cls-1" x="0.3" y="16.96" width="38.8" height="5.43"/><path class="cls-1" d="M19.71,29.87a.94.94,0,0,0-.94.94v4.68a.94.94,0,1,0,1.87,0V30.81A.94.94,0,0,0,19.71,29.87Z"/><path class="cls-1" d="M24.53,29.86a.93.93,0,0,0-1.22-.51.94.94,0,0,0-.52,1.22l1.75,4.34a.94.94,0,0,0,1.74-.7Z"/><path class="cls-1" d="M16.09,29.35a.93.93,0,0,0-1.22.51l-1.75,4.35a.94.94,0,0,0,1.74.7l1.75-4.34A.94.94,0,0,0,16.09,29.35Z"/><path class="cls-1" d="M28,27.79a.94.94,0,0,0-1.33,1.32l3.31,3.31a.94.94,0,0,0,1.33-1.32Z"/><path class="cls-1" d="M11.45,27.79,8.14,31.1a.94.94,0,1,0,1.33,1.32l3.31-3.31a.94.94,0,0,0-1.33-1.32Z"/><path class="cls-1" d="M19.69,9.53a.94.94,0,0,0,.94-.94V3.91a.94.94,0,1,0-1.87,0V8.59A.94.94,0,0,0,19.69,9.53Z"/><path class="cls-1" d="M14.87,9.54a.93.93,0,0,0,1.22.51.94.94,0,0,0,.52-1.22L14.86,4.49a.94.94,0,0,0-1.74.7Z"/><path class="cls-1" d="M23.31,10.05a.93.93,0,0,0,1.22-.51l1.75-4.35a.94.94,0,0,0-1.74-.7L22.79,8.83A.94.94,0,0,0,23.31,10.05Z"/><path class="cls-1" d="M11.45,11.61a.94.94,0,0,0,1.33-1.32L9.47,7A.94.94,0,1,0,8.14,8.3Z"/><path class="cls-1" d="M28,11.61,31.26,8.3A.94.94,0,0,0,29.93,7l-3.31,3.31A.94.94,0,0,0,28,11.61Z"/></svg>