<svg id="Icons" xmlns="http://www.w3.org/2000/svg" viewBox="0 0 39.4 39.4"><defs><style>.cls-1{fill:#646869;fill-rule:evenodd;}</style></defs><title>Resize GSBIG</title><path class="cls-1" d="M10.92,31.37a1.67,1.67,0,1,0,3.34,0V10.54H10.92Z"/><path class="cls-1" d="M6.18,31.37a1.73,1.73,0,0,0,1.67,1.79,1.73,1.73,0,0,0,1.67-1.79V10.54H6.18Z"/><path class="cls-1" d="M15.66,31.37a1.67,1.67,0,1,0,3.34,0V10.54H15.66Z"/><path class="cls-1" d="M20.4,31.37a1.67,1.67,0,1,0,3.34,0V10.54H20.4Z"/><path class="cls-1" d="M25.14,31.37a1.67,1.67,0,1,0,3.34,0V10.54H25.14Z"/><path class="cls-1" d="M29.88,31.37a1.67,1.67,0,1,0,3.34,0V10.54H29.88Z"/><path class="cls-1" d="M6.9,6.6a.36.36,0,0,0-.72,0V9.13H6.9Z"/><path class="cls-1" d="M8.36,6.6a.36.36,0,1,0-.72,0V9.13h.72Z"/><path class="cls-1" d="M9.46,6.24a.36.36,0,0,0-.35.36V9.13h.71V6.6A.36.36,0,0,0,9.46,6.24Z"/><path class="cls-1" d="M11.29,6.6a.36.36,0,0,0-.36-.36.36.36,0,0,0-.36.36V9.13h.72Z"/><path class="cls-1" d="M12.75,6.6a.36.36,0,0,0-.72,0V9.13h.72Z"/><path class="cls-1" d="M14.21,6.6a.36.36,0,0,0-.72,0V9.13h.72Z"/><path class="cls-1" d="M15.67,6.6a.36.36,0,0,0-.72,0V9.13h.72Z"/><path class="cls-1" d="M17.13,6.6a.36.36,0,1,0-.71,0V9.13h.71Z"/><path class="cls-1" d="M18.6,6.6a.36.36,0,1,0-.72,0V9.13h.72Z"/><path class="cls-1" d="M19.7,6.24a.36.36,0,0,0-.36.36V9.13h.72V6.6A.36.36,0,0,0,19.7,6.24Z"/><path class="cls-1" d="M21.52,6.6a.36.36,0,1,0-.72,0V9.13h.72Z"/><path class="cls-1" d="M23,6.6a.36.36,0,1,0-.71,0V9.13H23Z"/><path class="cls-1" d="M24.09,6.24a.36.36,0,0,0-.36.36V9.13h.72V6.6A.36.36,0,0,0,24.09,6.24Z"/><path class="cls-1" d="M4,8a.69.69,0,0,0,.69.7h.74V7.33H4.72A.7.7,0,0,0,4,8Z"/><path class="cls-1" d="M32.86,6.24a.36.36,0,0,0-.36.36V9.13h.72V6.6A.36.36,0,0,0,32.86,6.24Z"/><path class="cls-1" d="M31.76,6.6a.36.36,0,0,0-.72,0V9.13h.72Z"/><path class="cls-1" d="M30.29,6.6a.36.36,0,1,0-.71,0V9.13h.71Z"/><path class="cls-1" d="M28.47,6.24a.36.36,0,0,0-.36.36V9.13h.72V6.6A.36.36,0,0,0,28.47,6.24Z"/><path class="cls-1" d="M27.37,6.6a.36.36,0,0,0-.72,0V9.13h.72Z"/><path class="cls-1" d="M25.91,6.6a.36.36,0,1,0-.72,0V9.13h.72Z"/><path class="cls-1" d="M34.68,7.33h-.74v1.4h.74a.7.7,0,0,0,0-1.4Z"/></svg>