<svg id="Icons" xmlns="http://www.w3.org/2000/svg" viewBox="0 0 39.4 39.4"><defs><style>.cls-1{fill:#646869;fill-rule:evenodd;}</style></defs><title>Resize GSBIG</title><path class="cls-1" d="M6.13,32.29a.71.71,0,1,0,1.42,0V10.63H6.13Z"/><path class="cls-1" d="M8.26,32.29a.72.72,0,1,0,1.43,0V10.63H8.26Z"/><path class="cls-1" d="M10.4,32.29a.72.72,0,1,0,1.43,0V10.63H10.4Z"/><path class="cls-1" d="M25.43,32.29a.72.72,0,1,0,1.44,0V10.63H25.43Z"/><path class="cls-1" d="M12.54,32.29a.72.72,0,1,0,1.43,0V10.63H12.54Z"/><path class="cls-1" d="M27.58,32.29a.72.72,0,1,0,1.44,0V10.63H27.58Z"/><path class="cls-1" d="M29.74,32.29h0a.72.72,0,1,0,1.44,0h0V10.63H29.74Z"/><path class="cls-1" d="M31.89,32.25a.72.72,0,1,0,1.43,0V10.63H31.89Z"/><polygon class="cls-1" points="14.68 7.77 14.68 8.49 14.68 8.82 24.72 8.82 24.72 8.49 24.72 7.77 24.72 7.43 14.68 7.43 14.68 7.77"/><polygon class="cls-1" points="19 12.79 15.4 12.79 15.4 13.5 15.4 14.18 19 14.18 19 29.31 15.4 29.31 15.4 29.99 15.4 30.71 19 30.71 20.4 30.71 24 30.71 24 29.99 24 29.31 20.4 29.31 20.4 14.18 24 14.18 24 13.5 24 12.79 20.4 12.79 19 12.79"/><path class="cls-1" d="M6.8,6.69a.36.36,0,0,0-.72,0V9.22H6.8Z"/><path class="cls-1" d="M7.89,6.34a.36.36,0,0,0-.36.35V9.22h.72V6.69A.36.36,0,0,0,7.89,6.34Z"/><path class="cls-1" d="M9.67,6.69a.36.36,0,0,0-.36-.35A.36.36,0,0,0,9,6.69V9.22h.72Z"/><path class="cls-1" d="M11.1,6.69a.36.36,0,0,0-.72,0V9.22h.72Z"/><path class="cls-1" d="M12.17,6.34a.35.35,0,0,0-.35.35V9.22h.71V6.69A.36.36,0,0,0,12.17,6.34Z"/><path class="cls-1" d="M13.61,6.34a.36.36,0,0,0-.36.35V9.22H14V6.69A.36.36,0,0,0,13.61,6.34Z"/><path class="cls-1" d="M26.15,6.69a.36.36,0,0,0-.72,0V9.22h.72Z"/><path class="cls-1" d="M27.6,6.69a.36.36,0,0,0-.72,0V9.22h.72Z"/><path class="cls-1" d="M29,6.69a.36.36,0,0,0-.72,0V9.22H29Z"/><path class="cls-1" d="M30.45,6.69a.36.36,0,0,0-.36-.35.36.36,0,0,0-.36.35V9.22h.72Z"/><path class="cls-1" d="M31.89,6.69a.36.36,0,0,0-.36-.35.36.36,0,0,0-.36.35V9.22h.72Z"/><path class="cls-1" d="M33,6.34a.36.36,0,0,0-.36.35V9.22h.72V6.69A.36.36,0,0,0,33,6.34Z"/><path class="cls-1" d="M34.77,7.43H34V8.82h.73a.7.7,0,1,0,0-1.39Z"/><path class="cls-1" d="M3.93,8.13a.69.69,0,0,0,.7.69h.73V7.43H4.63A.7.7,0,0,0,3.93,8.13Z"/></svg>