<svg id="Icons" xmlns="http://www.w3.org/2000/svg" viewBox="0 0 39.4 39.4"><defs><style>.cls-1{fill:#646869;}</style></defs><title>Resize GSBIG</title><path class="cls-1" d="M6.84,6.61a.36.36,0,1,0-.72,0V9.16h.72Z"/><path class="cls-1" d="M8.31,6.61a.36.36,0,0,0-.72,0V9.16h.72Z"/><path class="cls-1" d="M9.42,6.25a.36.36,0,0,0-.36.36V9.16h.72V6.61A.36.36,0,0,0,9.42,6.25Z"/><path class="cls-1" d="M11.25,6.61a.36.36,0,0,0-.72,0V9.16h.72Z"/><path class="cls-1" d="M12.72,6.61a.36.36,0,1,0-.72,0V9.16h.72Z"/><path class="cls-1" d="M13.83,6.25a.37.37,0,0,0-.37.36V9.16h.73V6.61A.37.37,0,0,0,13.83,6.25Z"/><path class="cls-1" d="M15.65,6.61a.36.36,0,0,0-.36-.36.37.37,0,0,0-.36.36V9.16h.72Z"/><path class="cls-1" d="M17.12,6.61a.36.36,0,0,0-.72,0V9.16h.72Z"/><path class="cls-1" d="M18.23,6.25a.36.36,0,0,0-.36.36V9.16h.72V6.61A.36.36,0,0,0,18.23,6.25Z"/><path class="cls-1" d="M20.06,6.61a.36.36,0,0,0-.72,0V9.16h.72Z"/><path class="cls-1" d="M21.53,6.61a.36.36,0,0,0-.72,0V9.16h.72Z"/><path class="cls-1" d="M22.64,6.25a.36.36,0,0,0-.36.36V9.16H23V6.61A.36.36,0,0,0,22.64,6.25Z"/><path class="cls-1" d="M24.47,6.61a.36.36,0,1,0-.72,0V9.16h.72Z"/><path class="cls-1" d="M4,8.06a.7.7,0,0,0,.7.7H5.4V7.36H4.66A.7.7,0,0,0,4,8.06Z"/><path class="cls-1" d="M33.28,6.61a.36.36,0,1,0-.72,0V9.16h.72Z"/><path class="cls-1" d="M31.45,6.25a.36.36,0,0,0-.36.36V9.16h.72V6.61A.36.36,0,0,0,31.45,6.25Z"/><path class="cls-1" d="M30.34,6.61a.36.36,0,1,0-.72,0V9.16h.72Z"/><path class="cls-1" d="M28.87,6.61a.36.36,0,1,0-.72,0V9.16h.72Z"/><path class="cls-1" d="M27,6.25a.36.36,0,0,0-.36.36V9.16h.72V6.61A.36.36,0,0,0,27,6.25Z"/><path class="cls-1" d="M25.94,6.61a.37.37,0,0,0-.73,0V9.16h.73Z"/><path class="cls-1" d="M34.74,7.36H34v1.4h.74a.7.7,0,0,0,0-1.4Z"/><path class="cls-1" d="M6.12,32.37a.72.72,0,1,0,1.44,0V10.57H6.12Z"/><path class="cls-1" d="M8.27,32.37a.72.72,0,1,0,1.43,0V10.57H8.27Z"/><path class="cls-1" d="M10.42,32.37a.72.72,0,1,0,1.43,0V10.57H10.42Z"/><path class="cls-1" d="M12.57,32.37a.72.72,0,1,0,1.43,0V10.57H12.57Z"/><path class="cls-1" d="M14.71,32.37a.72.72,0,1,0,1.44,0V10.57H14.71Z"/><path class="cls-1" d="M16.86,32.37a.72.72,0,1,0,1.44,0V10.57H16.86Z"/><path class="cls-1" d="M19,32.37a.72.72,0,1,0,1.44,0V10.57H19Z"/><path class="cls-1" d="M21.16,32.37a.72.72,0,1,0,1.43,0V10.57H21.16Z"/><path class="cls-1" d="M23.31,32.37a.72.72,0,1,0,1.43,0V10.57H23.31Z"/><path class="cls-1" d="M25.46,32.37a.72.72,0,1,0,1.43,0V10.57H25.46Z"/><path class="cls-1" d="M27.6,32.37a.72.72,0,1,0,1.44,0V10.57H27.6Z"/><path class="cls-1" d="M29.75,32.37a.72.72,0,1,0,1.44,0V10.57H29.75Z"/><path class="cls-1" d="M31.9,32.37a.72.72,0,1,0,1.43,0V10.57H31.9Z"/></svg>