<svg id="Icons" xmlns="http://www.w3.org/2000/svg" viewBox="0 0 39.4 39.4"><defs><style>.cls-1{fill:#646869;}</style></defs><title>Resize GSBIG</title><path class="cls-1" d="M19.69,7.41v3.44a.69.69,0,0,0,1.38,0V7.41a.69.69,0,0,0-1.38,0Z"/><path class="cls-1" d="M23.13,6.49a.69.69,0,0,0-.25.94l1.71,3a.69.69,0,1,0,1.19-.69l-1.71-3A.69.69,0,0,0,23.13,6.49Z"/><path class="cls-1" d="M26.33,6.63l3,1.72A.69.69,0,1,0,30,7.16L27,5.45a.69.69,0,0,0-.94.25A.68.68,0,0,0,26.33,6.63Z"/><path class="cls-1" d="M16.7,6.74,15,9.71a.69.69,0,1,0,1.19.69l1.72-3a.69.69,0,0,0-.26-.94A.68.68,0,0,0,16.7,6.74Z"/><path class="cls-1" d="M11.46,8.35l3-1.72a.68.68,0,0,0,.25-.93.69.69,0,0,0-.94-.25l-3,1.71a.69.69,0,0,0,.69,1.19Z"/><path class="cls-1" d="M20.38,5.35c2.2,0,5.49-.68,5.49-2.06a.67.67,0,0,0-.68-.68H15.57a.68.68,0,0,0-.68.68C14.89,4.68,18.18,5.35,20.38,5.35Z"/><path class="cls-1" d="M25.14,34.1a.34.34,0,1,0,.68,0l1.36-6.46H25.82Z"/><path class="cls-1" d="M30.58,27.64l1.36,6.46a.34.34,0,0,0,.68,0l-.68-6.46Z"/><path class="cls-1" d="M23.78,20.17h-19v2H7.46v.68h.68V33.76a.68.68,0,0,0,1.36,0h0V22.89h.68v-.68h8.16v.68H19V33.76a.68.68,0,0,0,1.36,0h0V22.89h.68v-.68h2.72Z"/><path class="cls-1" d="M34,14.71a.69.69,0,0,0-.68.69l-.63,8.5h-.05a1,1,0,0,1-1,1v.17h0v-.17H24.46a.68.68,0,0,0-.68.68h0V27h8.5a1.7,1.7,0,0,0,1.7-1.7l.68-9.86A.68.68,0,0,0,34,14.71Z"/></svg>