<svg id="Icons" xmlns="http://www.w3.org/2000/svg" viewBox="0 0 39.4 39.4"><defs><style>.cls-1{fill:#646869;}</style></defs><title>Resize GSBIG</title><path class="cls-1" d="M19,8v3.47a.69.69,0,0,0,1.38,0V8A.69.69,0,0,0,19,8Z"/><path class="cls-1" d="M22.47,7a.7.7,0,0,0-.25,1L24,11a.69.69,0,0,0,1.2-.7l-1.73-3A.7.7,0,0,0,22.47,7Z"/><path class="cls-1" d="M25.7,7.19l3,1.73a.69.69,0,0,0,.7-1.2L26.4,6a.69.69,0,1,0-.7,1.2Z"/><path class="cls-1" d="M16,7.29l-1.73,3a.69.69,0,0,0,1.2.7l1.73-3a.69.69,0,1,0-1.2-.7Z"/><path class="cls-1" d="M10.7,8.92l3-1.73A.69.69,0,0,0,13,6L10,7.72a.69.69,0,1,0,.7,1.2Z"/><path class="cls-1" d="M19.7,5.9c2.22,0,5.54-.7,5.54-2.08a.7.7,0,0,0-.69-.7h-9.7a.7.7,0,0,0-.69.7C14.16,5.22,17.48,5.9,19.7,5.9Z"/><rect class="cls-1" x="25.94" y="25.29" width="3.46" height="0.69"/><rect class="cls-1" x="25.94" y="22.52" width="3.46" height="0.69"/><rect class="cls-1" x="25.94" y="28.07" width="3.46" height="0.69"/><path class="cls-1" d="M35.63,19.75H3.77a1,1,0,0,0,0,2.08H5.84V32.92a.7.7,0,0,0,1.39,0V21.83H21.78V32.92a.7.7,0,0,0,1.39,0V30.14h9v2.78a.7.7,0,0,0,1.39,0V21.83h2.07a1,1,0,0,0,0-2.08Zm-3.46,9.7h-9V27.37h9Zm0-2.77h-9V24.6h9Zm0-2.77h-9V21.83h9Z"/></svg>