<svg id="Icons" xmlns="http://www.w3.org/2000/svg" viewBox="0 0 39.4 39.4"><defs><style>.cls-1{fill:#646869;}</style></defs><title>Resize GSBIG</title><path class="cls-1" d="M6.82,15H1.13a.7.7,0,0,0-.7.71.7.7,0,0,0,.7.7h1.3V29a.7.7,0,0,0,.71.7.7.7,0,0,0,.7-.7V16.41h3a.7.7,0,0,0,.7-.7A.7.7,0,0,0,6.82,15Z"/><path class="cls-1" d="M38.27,15H32.58a.7.7,0,0,0-.7.71.7.7,0,0,0,.7.7h3V29a.7.7,0,0,0,.7.7A.7.7,0,0,0,37,29V16.41h1.3a.7.7,0,0,0,.7-.7A.7.7,0,0,0,38.27,15Z"/><path class="cls-1" d="M17.49,6.91H9.39a.7.7,0,0,0-.7.7V20.86a.71.71,0,0,0,.7.71h.39V29a.7.7,0,1,0,1.4,0V21.57h4.53s0,0,0,0V29a.71.71,0,0,0,1.41,0V21.6s0,0,0,0h.39a.71.71,0,0,0,.71-.71V7.61A.7.7,0,0,0,17.49,6.91Z"/><path class="cls-1" d="M30,6.91h-8.1a.7.7,0,0,0-.71.7V20.86a.71.71,0,0,0,.71.71h.39s0,0,0,0V29a.71.71,0,0,0,1.41,0V21.6s0,0,0,0h4.53V29a.7.7,0,0,0,1.4,0V21.57H30a.71.71,0,0,0,.7-.71V7.61A.7.7,0,0,0,30,6.91Z"/></svg>