<svg id="Icons" xmlns="http://www.w3.org/2000/svg" viewBox="0 0 39.4 39.4"><defs><style>.cls-1{fill:#646869;}</style></defs><title>Resize GSBIG</title><path class="cls-1" d="M20.15,9.53A11.09,11.09,0,1,0,31.23,20.61,11.08,11.08,0,0,0,20.15,9.53Zm0,20.78a9.7,9.7,0,1,1,9.7-9.7A9.69,9.69,0,0,1,20.15,30.31Z"/><path class="cls-1" d="M20.15,12.3a8.31,8.31,0,1,0,8.32,8.31A8.31,8.31,0,0,0,20.15,12.3Z"/><path class="cls-1" d="M35.93,10.92h0A2.08,2.08,0,0,0,33.85,13v6.92h0a.7.7,0,0,0,.7.7h.69v7.61h0a1,1,0,1,0,2.08,0V10.92Z"/><path class="cls-1" d="M6.91,10.66a.55.55,0,0,0-.55.55v4H5.27v-4a.55.55,0,0,0-.55-.55.55.55,0,0,0-.54.55s0,.06,0,.1a.25.25,0,0,0,0,.11v3.8H3.08v-4h0s0,0,0,0a.55.55,0,0,0-.54-.55.55.55,0,0,0-.55.55v4.56a.69.69,0,0,0,.7.69h1V28.23h0a1,1,0,0,0,2.08,0l0-11.74,1,0a.69.69,0,0,0,.69-.69V11.21A.55.55,0,0,0,6.91,10.66Z"/></svg>