<svg id="Icons" xmlns="http://www.w3.org/2000/svg" viewBox="0 0 39.4 39.4"><defs><style>.cls-1{fill:#646869;}</style></defs><title>Resize GSBIG</title><path class="cls-1" d="M17.8,17.37s0,0,0,0h0l3.3-3.3.13-.12.95.94-3.43,3.43a0,0,0,0,0,0,0l0,0a.67.67,0,0,0,1,.94s0-.08,0-.12a.26.26,0,0,0,.13-.06l3.29-3.29.95.95-.13.12-3.3,3.3v0l-.05,0a.67.67,0,1,0,.94.95s0,0,0,0h0l3.9-3.9a.85.85,0,0,0,0-1.2l-.86-.86L32.91,6.9h0a1.27,1.27,0,0,0-1.8-1.8l-8.19,8.25L22,12.48a.84.84,0,0,0-1.2,0l-3.9,3.9,0,0h0a.67.67,0,0,0,.95.95Z"/><polygon class="cls-1" points="2.04 27.09 2.04 28.44 4.27 28.44 11.59 35.45 11.59 36.81 27.8 36.81 27.8 35.45 27.8 35.45 35.12 28.44 37.35 28.44 37.35 27.09 2.04 27.09"/><path class="cls-1" d="M16,25.73h4.26a2.89,2.89,0,0,0-4.84-2.14,4.36,4.36,0,0,0-8.17,2.14H16Z"/><path class="cls-1" d="M27.48,24c-3,0-5.47.78-5.47,1.74H33C33,24.77,30.51,24,27.48,24Z"/></svg>