<svg id="Icons" xmlns="http://www.w3.org/2000/svg" viewBox="0 0 39.4 39.4"><defs><style>.cls-1{fill:#646869;}</style></defs><title>Resize GSBIG</title><rect class="cls-1" x="14.88" y="25.46" width="9.6" height="2.47"/><path class="cls-1" d="M19.77,0a8.7,8.7,0,0,0-6.58,3l0,0L13,3.18,13,3.25a6.4,6.4,0,0,0-1.23,2.06.14.14,0,0,1,0,.06,1.81,1.81,0,0,0-.09.53h0a.34.34,0,0,0,0,.1,2.28,2.28,0,0,0,4,1.5h0A2.79,2.79,0,0,0,16,6.89l.17-.31a3.71,3.71,0,0,1,.28-.41,7.2,7.2,0,0,1,.8-.78,4.11,4.11,0,0,1,2.48-.83,4.18,4.18,0,0,1,4.16,4c-.22,5.1-7.25,5.59-11.78,7.81A2.19,2.19,0,0,0,10.87,18V36.23A1.75,1.75,0,0,0,12.62,38H26.75a1.75,1.75,0,0,0,1.75-1.75V8.73A8.73,8.73,0,0,0,19.77,0Zm-.08,33.72a7,7,0,1,1,7-7A7,7,0,0,1,19.69,33.72Z"/></svg>