<svg id="Icons" xmlns="http://www.w3.org/2000/svg" viewBox="0 0 39.4 39.4"><defs><style>.cls-1{fill:#646869;}</style></defs><title>Resize GSBIG</title><circle class="cls-1" cx="19.61" cy="7.12" r="5.21" transform="translate(-0.89 3.23) rotate(-9.22)"/><path class="cls-1" d="M30,17.17s0-.06,0-.1a3.11,3.11,0,0,0-.58-1.44L27,18.06,28.49,31a1.57,1.57,0,0,0,3.11-.37Z"/><path class="cls-1" d="M31.5,7.75a1.35,1.35,0,0,0-1.93,0l-6.66,6.66H12.32a3,3,0,0,0-3.1,2.76L7.76,29.56,5.7,31.62a1.36,1.36,0,1,0,1.92,1.93l.23-.23,3-3,2.55-2.55,13.41-13.4L31.5,9.68A1.37,1.37,0,0,0,31.5,7.75ZM13.36,24l-2,2,1-8.46h1Z"/><polygon class="cls-1" points="13.36 36.28 25.86 36.28 25.86 19.17 13.36 31.67 13.36 36.28"/></svg>