<svg id="Icons" xmlns="http://www.w3.org/2000/svg" viewBox="0 0 39.4 39.4"><defs><style>.cls-1{fill:#646869;}</style></defs><title>Resize GSBIG</title><path class="cls-1" d="M19.71,29.55a1,1,0,0,0-1,1V35.3a1,1,0,1,0,1.91,0V30.51A1,1,0,0,0,19.71,29.55Z"/><path class="cls-1" d="M24.64,29.54a1,1,0,1,0-1.78.72l1.8,4.44A1,1,0,0,0,26.44,34Z"/><path class="cls-1" d="M16,29a1,1,0,0,0-1.25.53L13,34a1,1,0,0,0,1.78.72l1.8-4.44A1,1,0,0,0,16,29Z"/><path class="cls-1" d="M28.14,27.42a1,1,0,1,0-1.35,1.35l3.38,3.39a1,1,0,0,0,1.36-1.36Z"/><path class="cls-1" d="M11.26,27.42,7.87,30.8a1,1,0,0,0,1.36,1.36l3.38-3.39a1,1,0,1,0-1.35-1.35Z"/><path class="cls-1" d="M29.16,22.81a1.45,1.45,0,0,0,1.45-1.46v-.78H8.79v.78a1.45,1.45,0,0,0,1.45,1.46Z"/><rect class="cls-1" x="4.32" y="13.53" width="30.76" height="5.55"/></svg>