<svg id="Icons" xmlns="http://www.w3.org/2000/svg" viewBox="0 0 39.4 39.4"><defs><style>.cls-1{fill:#646869;}</style></defs><title>Resize GSBIG</title><path class="cls-1" d="M32.75,19H6.65a.7.7,0,0,0-.42,1.26,21.83,21.83,0,0,0,26.94,0A.7.7,0,0,0,32.75,19Z"/><path class="cls-1" d="M1.12,13.17v2.46A1.85,1.85,0,0,0,3,17.48H36.43a1.85,1.85,0,0,0,1.85-1.85V13.17Z"/><path class="cls-1" d="M19.71,31.3a.87.87,0,0,0-.87.87v4.35a.87.87,0,0,0,1.74,0V32.17A.87.87,0,0,0,19.71,31.3Z"/><path class="cls-1" d="M24.19,31.29a.87.87,0,0,0-1.61.65l1.63,4a.87.87,0,0,0,1.13.48.88.88,0,0,0,.48-1.14Z"/><path class="cls-1" d="M16.35,30.81a.87.87,0,0,0-1.13.48l-1.63,4a.88.88,0,0,0,.48,1.14A.87.87,0,0,0,15.2,36l1.63-4A.87.87,0,0,0,16.35,30.81Z"/><path class="cls-1" d="M27.37,29.36a.87.87,0,0,0-1.23,1.23l3.07,3.08a.87.87,0,1,0,1.23-1.23Z"/><path class="cls-1" d="M13.27,29.36a.87.87,0,0,0-1.23,0L9,32.44a.87.87,0,0,0,1.23,1.23l3.07-3.08A.87.87,0,0,0,13.27,29.36Z"/></svg>