<svg id="Icons" xmlns="http://www.w3.org/2000/svg" viewBox="0 0 39.4 39.4"><defs><style>.cls-1,.cls-2{fill:#646869;}.cls-1{fill-rule:evenodd;}</style></defs><title>Resize GSBIG</title><polygon class="cls-1" points="8.4 3.56 8.4 35.84 10.02 35.84 10.02 5.18 12.44 3.56 8.4 3.56"/><polygon class="cls-1" points="30.19 3.56 29.38 3.56 24.54 3.57 24.54 5.18 29.38 5.18 29.38 35.84 31 35.84 31 3.56 30.19 3.56"/><rect class="cls-2" x="21.32" y="0.34" width="1.61" height="38.73"/><path class="cls-1" d="M11.64,35.84l8.06,3.23V.34L11.64,6Zm5.64-17a.63.63,0,0,1,1.25,0v2.49h0a.63.63,0,1,1-1.25,0h0V18.87Z"/></svg>