<svg id="Icons" xmlns="http://www.w3.org/2000/svg" viewBox="0 0 39.4 39.4"><defs><style>.cls-1{fill:#646869;}</style></defs><title>Resize GSBIG</title><polygon class="cls-1" points="6.35 5.23 6.35 34.17 7.73 34.17 7.73 6.61 31.67 6.61 31.67 34.17 33.05 34.17 33.05 5.23 6.35 5.23"/><path class="cls-1" d="M19.55,14.49a.56.56,0,0,0-.38.37v2.67a.56.56,0,0,0,.69.37.54.54,0,0,0,.38-.37V14.86A.55.55,0,0,0,19.55,14.49Z"/><path class="cls-1" d="M22.45,14.31a.53.53,0,0,0-1,.4l1,2.47a.55.55,0,1,0,1.1-.11.57.57,0,0,0-.11-.29Z"/><path class="cls-1" d="M17,14.31l-1,2.47a.56.56,0,0,0,.3.7.55.55,0,0,0,.68-.3l1-2.47a.56.56,0,0,0-.21-.49A.56.56,0,0,0,17,14.31Z"/><path class="cls-1" d="M24.39,13.14a.55.55,0,0,0-.75.23.59.59,0,0,0,0,.52l1.89,1.88a.56.56,0,0,0,.75-.23.59.59,0,0,0,0-.52Z"/><path class="cls-1" d="M15,13.14,13.13,15a.55.55,0,0,0,0,.53.55.55,0,0,0,.75.22l1.89-1.88a.58.58,0,0,0,0-.53A.55.55,0,0,0,15,13.14Z"/><path class="cls-1" d="M25,10.55a.8.8,0,0,0,.8-.81V9.31H13.64v.46a.81.81,0,0,0,.8.78Z"/></svg>