<svg id="Icons" xmlns="http://www.w3.org/2000/svg" viewBox="0 0 39.4 39.4"><defs><style>.cls-1{fill:#646869;}</style></defs><title>Resize GSBIG</title><path class="cls-1" d="M22.07,20.56a12.64,12.64,0,0,0,5.38-.37,3.63,3.63,0,0,0,2.44-4.11,3.11,3.11,0,0,0-6.19.45A2.55,2.55,0,0,1,22,19.28a2.05,2.05,0,0,0-.72-1l0,0a12.21,12.21,0,0,0,1.31-5.19,3.64,3.64,0,0,0-3.16-3.59,3.1,3.1,0,0,0-1.48,6c1.51.51,2,1.1,2.14,2.42h0a2,2,0,0,0-1.23.46,12.09,12.09,0,0,0-4.54-2.84,3.63,3.63,0,0,0-4.39,1.89c-1.87,3.39,2.92,6.45,5.27,3.27.95-1.29,1.66-1.57,3-1.29A2.11,2.11,0,0,0,18,20a1.81,1.81,0,0,0,.15.74,12.14,12.14,0,0,0-4.11,3.44,3.62,3.62,0,0,0,.44,4.75,3.1,3.1,0,0,0,4.74-4c-.93-1.3-1-2.07-.3-3.22l.08,0a2,2,0,0,0,1.06.3h.11a12.21,12.21,0,0,0,2,5,3.63,3.63,0,0,0,4.67,1c3.51-1.64,1.43-6.93-2.34-5.74-1.52.49-2.27.29-3.16-.7l0-.07A2.13,2.13,0,0,0,22.07,20.56Z"/></svg>