<svg id="Icons" xmlns="http://www.w3.org/2000/svg" viewBox="0 0 39.4 39.4"><defs><style>.cls-1{fill:#646869;}</style></defs><title>Resize GSBIG</title><path class="cls-1" d="M21.61,20.39a10.15,10.15,0,0,0,4.33-.3,2.91,2.91,0,0,0,2-3.31,2.5,2.5,0,0,0-5,.37,2,2,0,0,1-1.37,2.21A1.61,1.61,0,0,0,21,18.6l0,0a9.77,9.77,0,0,0,1-4.18,2.93,2.93,0,0,0-2.54-2.89,2.5,2.5,0,0,0-1.19,4.84c1.21.41,1.61.89,1.72,1.95h0a1.67,1.67,0,0,0-1,.37,10,10,0,0,0-3.65-2.29,2.92,2.92,0,0,0-3.53,1.52,2.5,2.5,0,0,0,4.24,2.64,2,2,0,0,1,2.39-1,1.42,1.42,0,0,0-.08.45,1.64,1.64,0,0,0,.12.6,9.84,9.84,0,0,0-3.31,2.77,2.92,2.92,0,0,0,.36,3.82,2.5,2.5,0,0,0,3.82-3.21,2,2,0,0,1-.25-2.6l.07,0a1.65,1.65,0,0,0,.85.24h.09a9.8,9.8,0,0,0,1.61,4,2.93,2.93,0,0,0,3.76.85,2.5,2.5,0,0,0-1.88-4.62,2,2,0,0,1-2.55-.57l0-.06A1.78,1.78,0,0,0,21.61,20.39Z"/></svg>