<svg id="Icons" xmlns="http://www.w3.org/2000/svg" viewBox="0 0 39.4 39.4"><defs><style>.cls-1{fill:#656869;}</style></defs><title>Resize GSBIG</title><path class="cls-1" d="M10.87,21.2a4.1,4.1,0,0,0,1.47,3.1,2.72,2.72,0,0,1,1.05,2.07h1.47a4.14,4.14,0,0,0-1.46-3.1,2.58,2.58,0,0,1,0-4.15A4.12,4.12,0,0,0,14.86,16a4.17,4.17,0,0,0-1.46-3.11,2.58,2.58,0,0,1,0-4.15,4.13,4.13,0,0,0,1.46-3.11.74.74,0,1,0-1.47,0,2.72,2.72,0,0,1-1.05,2.08,4,4,0,0,0,0,6.21,2.58,2.58,0,0,1,0,4.15A4.12,4.12,0,0,0,10.87,21.2Z"/><path class="cls-1" d="M15.37,21.2a4.12,4.12,0,0,0,1.46,3.1,2.69,2.69,0,0,1,1.05,2.07h1.48a4.11,4.11,0,0,0-1.47-3.1,2.58,2.58,0,0,1,0-4.15,4,4,0,0,0,0-6.21,2.7,2.7,0,0,1-1.05-2.07,2.72,2.72,0,0,1,1.05-2.08,4.1,4.1,0,0,0,1.47-3.11.74.74,0,0,0-1.48,0,2.69,2.69,0,0,1-1.05,2.08,4,4,0,0,0,0,6.21,2.58,2.58,0,0,1,0,4.15A4.15,4.15,0,0,0,15.37,21.2Z"/><path class="cls-1" d="M20,21.2a4.12,4.12,0,0,0,1.46,3.1,2.69,2.69,0,0,1,1,2.07H24a4.15,4.15,0,0,0-1.47-3.1,2.58,2.58,0,0,1,0-4.15A4.13,4.13,0,0,0,24,16a4.17,4.17,0,0,0-1.47-3.11,2.7,2.7,0,0,1-1.05-2.07A2.72,2.72,0,0,1,22.5,8.76,4.13,4.13,0,0,0,24,5.65a.74.74,0,0,0-1.48,0,2.69,2.69,0,0,1-1,2.08,4,4,0,0,0,0,6.21,2.58,2.58,0,0,1,0,4.15A4.15,4.15,0,0,0,20,21.2Z"/><path class="cls-1" d="M24.59,21.2a4.12,4.12,0,0,0,1.46,3.1,2.69,2.69,0,0,1,1.05,2.07h1.48a4.15,4.15,0,0,0-1.47-3.1,2.58,2.58,0,0,1,0-4.15A4.13,4.13,0,0,0,28.58,16a4.17,4.17,0,0,0-1.47-3.11,2.7,2.7,0,0,1-1.05-2.07,2.72,2.72,0,0,1,1.05-2.08,4.13,4.13,0,0,0,1.47-3.11.74.74,0,1,0-1.48,0,2.69,2.69,0,0,1-1.05,2.08,4,4,0,0,0,0,6.21,2.58,2.58,0,0,1,0,4.15A4.15,4.15,0,0,0,24.59,21.2Z"/><polygon class="cls-1" points="9.37 28.4 3.22 28.4 3.22 30.72 9.37 30.72 36.26 30.72 36.26 28.4 9.37 28.4"/></svg>