<svg id="Icons" xmlns="http://www.w3.org/2000/svg" viewBox="0 0 39.4 39.4"><defs><style>.cls-1{fill:#656869;}</style></defs><title>Resize GSBIG</title><path class="cls-1" d="M33.14,14.38a3.24,3.24,0,0,0-2.78-3.2,3.7,3.7,0,0,0,.2-1.15A3.93,3.93,0,0,0,26.63,6.1a3.55,3.55,0,0,0-.57.06c0-.13,0-.24,0-.37A4.9,4.9,0,0,0,16.36,5a3.91,3.91,0,0,0-6.55,2.9,3.68,3.68,0,0,0,.09.82,3.92,3.92,0,1,0,1.4,7.63,3.24,3.24,0,0,0,4.89,4.17l-.28-1.07-.24-1c-.06-.24-.11-.45-.17-.66h-.22a2.77,2.77,0,0,1-1.82-.79.45.45,0,0,1-.06-.63A.46.46,0,0,1,14,16.4a1.94,1.94,0,0,0,1.23.58c-.23-.86-.5-1.7-1-3.12a.45.45,0,0,1,.85-.29l.09.25a44.67,44.67,0,0,1,1.33,4.49l.24,1c0,.14.07.27.1.4a39,39,0,0,1,1.08,5c0,.05,0,.11,0,.16v9.4a1.34,1.34,0,0,0,1.34,1.35h1.24a1.34,1.34,0,0,0,1.35-1.35V24.9a1.36,1.36,0,0,1,0-.29,27,27,0,0,1,1-3.62l.06-.14.51-1.32h0a.44.44,0,0,1,.07-.17c.36-.94.79-2.08,1.29-3.48l0,0a.45.45,0,0,1,.58-.28.46.46,0,0,1,.27.58c-.42,1.17-.79,2.16-1.11,3a4,4,0,0,0,1.77-.83.45.45,0,0,1,.55.72,4.62,4.62,0,0,1-2.68,1l-.43,1.12c0,.12-.09.23-.14.34a4.84,4.84,0,0,0,2.41.66A4.91,4.91,0,0,0,31,17.43,3.24,3.24,0,0,0,33.14,14.38Zm-11.23,5.4h0a27.27,27.27,0,0,1-1.24,2.91.88.88,0,0,1-.75.43H19.8c-.17,0-.58-.16-.71-.8L17.89,18h0l0-.08-.26-1L17.08,15h0l-.23-.82L15.53,9.38a.45.45,0,0,1,.32-.55.44.44,0,0,1,.55.31l1.09,4a9.56,9.56,0,0,1,1.83-3.4.45.45,0,1,1,.68.6,9.82,9.82,0,0,0-1.94,4.13c0,.2-.07.34-.08.43L18,15l.12.42.73,2.66h0a1.39,1.39,0,0,0,1.34,1,1.41,1.41,0,0,0,1.31-.88h0l.38-1a4.73,4.73,0,0,1-1.42-2.31,4.6,4.6,0,0,1-.18-1.22.45.45,0,1,1,.9,0,3.69,3.69,0,0,0,.29,1.44,4.08,4.08,0,0,0,.75,1.17c.12-.32.24-.63.35-.94.66-1.79,1.2-3.32,1.28-3.6a.45.45,0,0,1,.87.26c-.08.26-.6,1.75-1.26,3.53C23,16.94,22.42,18.48,21.91,19.78Z"/><path class="cls-1" d="M25.82,30.91a.71.71,0,0,0-.92.41l-1.28,3.29a.72.72,0,0,0,.4.92.71.71,0,0,0,.92-.41l1.28-3.29A.72.72,0,0,0,25.82,30.91Z"/><path class="cls-1" d="M29,30.88a.74.74,0,0,0-.95.44l-1.29,3.29a.74.74,0,0,0,.44.88.71.71,0,0,0,.92-.4l1.28-3.3A.71.71,0,0,0,29,30.88Z"/><path class="cls-1" d="M32.11,30.91a.71.71,0,0,0-.92.41l-1.28,3.29a.72.72,0,0,0,.4.92.71.71,0,0,0,.92-.41l1.28-3.29A.72.72,0,0,0,32.11,30.91Z"/><path class="cls-1" d="M9.66,30.88a.71.71,0,0,0-.91.4L7.47,34.57a.7.7,0,0,0,.4.92.71.71,0,0,0,.91-.4l1.29-3.3A.7.7,0,0,0,9.66,30.88Z"/><path class="cls-1" d="M12.81,30.88a.71.71,0,0,0-.92.4l-1.28,3.29a.71.71,0,1,0,1.32.52l1.28-3.3A.71.71,0,0,0,12.81,30.88Z"/><path class="cls-1" d="M16,30.88a.71.71,0,0,0-.91.4l-1.28,3.29a.7.7,0,0,0,.4.92.71.71,0,0,0,.91-.4l1.29-3.3A.7.7,0,0,0,16,30.88Z"/></svg>