<svg id="Icons" xmlns="http://www.w3.org/2000/svg" viewBox="0 0 39.4 39.4"><defs><style>.cls-1{fill:#646869;}</style></defs><title>Resize GSBIG</title><polygon class="cls-1" points="5.05 31.56 6.36 31.56 6.36 34.11 7.01 34.11 7.01 34.76 9.61 34.76 9.61 34.11 10.25 34.11 10.25 31.56 29.14 31.56 29.14 34.11 29.79 34.11 29.79 34.76 32.39 34.76 32.39 34.11 33.03 34.11 33.03 31.56 34.35 31.56 34.35 30.2 5.05 30.2 5.05 31.56"/><path class="cls-1" d="M31.71,21.73h-24a2.64,2.64,0,0,0-2.64,2.64V28.9h29.3V24.37A2.64,2.64,0,0,0,31.71,21.73Z"/><path class="cls-1" d="M12.46,18.32h4.21a2.13,2.13,0,0,1,2.21,2.11h1.64a2.12,2.12,0,0,1,2.2-2.11h4.21a2.13,2.13,0,0,1,2.21,2.11h2.6V17.18s-4.52-5.87-12-5.87-12,5.87-12,5.87v3.25h2.6A2.13,2.13,0,0,1,12.46,18.32Z"/><path class="cls-1" d="M19.7,6.4a.91.91,0,0,0,.91-.91V.91a.92.92,0,0,0-1.83,0V5.49A.92.92,0,0,0,19.7,6.4Z"/><path class="cls-1" d="M23.22,6.92a.91.91,0,0,0,1.19-.51l1.71-4.24a.91.91,0,1,0-1.69-.68L22.71,5.73A.91.91,0,0,0,23.22,6.92Z"/><path class="cls-1" d="M15,6.41a.91.91,0,1,0,1.69-.68L15,1.49a.92.92,0,1,0-1.7.68Z"/><path class="cls-1" d="M27.75,8.44,31,5.2a.92.92,0,1,0-1.3-1.29L26.46,7.15a.91.91,0,0,0,1.29,1.29Z"/><path class="cls-1" d="M11.64,8.44a.91.91,0,0,0,1.29-1.29L9.7,3.91a.92.92,0,0,0-1.3,0,.91.91,0,0,0,0,1.29Z"/></svg>