<svg id="Icons" xmlns="http://www.w3.org/2000/svg" viewBox="0 0 39.4 39.4"><defs><style>.cls-1{fill:#646869;fill-rule:evenodd;}</style></defs><title>Resize GSBIG</title><path class="cls-1" d="M6.64,11.83l25.22-.16a1,1,0,1,0,0-1.94l-6.92,0a5.76,5.76,0,0,0-11.37.07l-6.93,0a1,1,0,1,0,0,1.94Zm12.58-5A3.87,3.87,0,0,1,23,9.79l-7.56.05A3.9,3.9,0,0,1,19.22,6.87Z"/><path class="cls-1" d="M38.91,15.72a1.46,1.46,0,0,0-2-.53l-3.64,2.1V14H6.12v3.26l-3.64-2.1A1.45,1.45,0,1,0,1,17.71l5.09,2.94v7.93a1.94,1.94,0,0,0,1.94,1.94H31.34a1.94,1.94,0,0,0,1.94-1.94V20.65l5.09-2.94A1.46,1.46,0,0,0,38.91,15.72Z"/><path class="cls-1" d="M30.37,32.46H9A1,1,0,0,0,9,34.4H30.37a1,1,0,0,0,0-1.94Z"/></svg>