<svg id="Icons" xmlns="http://www.w3.org/2000/svg" viewBox="0 0 39.4 39.4"><defs><style>.cls-1{fill:#646869;}</style></defs><title>Resize GSBIG</title><path class="cls-1" d="M21,11.31v-2a4.75,4.75,0,1,0-6.08-4.55,1.32,1.32,0,1,0,2.64,0A2.12,2.12,0,1,1,19.7,6.87a1.33,1.33,0,0,0-1.33,1.32v4.3a1.33,1.33,0,0,0,1.33,1.32c4.17,0,13.77,6.67,15.57,11.11H4.13c1.56-3.77,8.73-9.42,12.2-10.86a1.32,1.32,0,0,0-1-2.44c-4.2,1.74-14.13,9.27-14.13,14.62a1.32,1.32,0,0,0,1.32,1.32H36.88a1.32,1.32,0,0,0,1.32-1.32C38.2,20.54,27,12.46,21,11.31Z"/></svg>