<svg id="Icons" xmlns="http://www.w3.org/2000/svg" viewBox="0 0 39.4 39.4"><defs><style>.cls-1{fill:#646869;}</style></defs><title>Resize GSBIG</title><path class="cls-1" d="M17.85,7.71a.72.72,0,1,0-.55-1.34,16.12,16.12,0,0,0-3.2,2l.78,1.24A14.67,14.67,0,0,1,17.85,7.71Z"/><path class="cls-1" d="M17.82,3.33a.72.72,0,0,0,.72-.72A1.16,1.16,0,1,1,19.7,3.77a.72.72,0,0,0-.72.72V6.85a.73.73,0,0,0,.72.73c1.13,0,3,.9,4.71,2.1l.76-1.22A13.89,13.89,0,0,0,20.43,6.2V5.1a2.6,2.6,0,1,0-3.34-2.49A.73.73,0,0,0,17.82,3.33Z"/><path class="cls-1" d="M38,15.73,27.37,9.1a.72.72,0,0,0-1,.24h0l-.77,1.24h0l-1.92,3.09h-8l-.76-1.22h0l-2-3.18A.69.69,0,0,0,12,9.1L1.34,15.73a.71.71,0,0,0-.22,1l3.14,5.05a.71.71,0,0,0,1,.23l4.9-3V36.5a.71.71,0,0,0,.71.71H28.56a.71.71,0,0,0,.72-.71V19l4.85,3a.72.72,0,0,0,1-.23l3.13-5A.72.72,0,0,0,38,15.73Z"/></svg>