<svg id="Icons" xmlns="http://www.w3.org/2000/svg" viewBox="0 0 39.4 39.4"><defs><style>.cls-1{fill:#646869;}</style></defs><title>Resize GSBIG</title><path class="cls-1" d="M19.7,6.54a9.06,9.06,0,0,0-9.06,9.06c0,5.16,5.06,10.16,5.78,14a1.07,1.07,0,0,0,1,.87h4.45A1.07,1.07,0,0,0,23,29.61c.73-3.86,5.78-8.86,5.78-14A9.05,9.05,0,0,0,19.7,6.54Z"/><path class="cls-1" d="M22.67,32H16.73a.73.73,0,0,0,0,1.45h5.94a.73.73,0,0,0,0-1.45Z"/><path class="cls-1" d="M22.67,34.94H16.73a.73.73,0,0,0,0,1.45h5.94a.73.73,0,0,0,0-1.45Z"/><path class="cls-1" d="M20.37,37.9H19a.75.75,0,0,0-.75.75.74.74,0,0,0,.75.74h1.33a.74.74,0,0,0,.74-.74A.75.75,0,0,0,20.37,37.9Z"/><path class="cls-1" d="M9.1,15.69a.75.75,0,0,0-.74-.75H4.76a.75.75,0,0,0-.74.75.74.74,0,0,0,.74.74h3.6A.74.74,0,0,0,9.1,15.69Z"/><path class="cls-1" d="M34.64,15H31a.74.74,0,1,0,0,1.48h3.6a.74.74,0,1,0,0-1.48Z"/><path class="cls-1" d="M9.51,20.72,6.39,22.51a.75.75,0,0,0,.75,1.29L10.25,22a.74.74,0,1,0-.74-1.28Z"/><path class="cls-1" d="M29.52,10.76a.69.69,0,0,0,.37-.1L33,8.87a.75.75,0,0,0,.27-1,.74.74,0,0,0-1-.27L29.15,9.37a.75.75,0,0,0,.37,1.39Z"/><path class="cls-1" d="M25,6.51a.71.71,0,0,0,.37.1A.75.75,0,0,0,26,6.24l1.79-3.11a.74.74,0,0,0-.27-1,.73.73,0,0,0-1,.27l-1.8,3.11A.74.74,0,0,0,25,6.51Z"/><path class="cls-1" d="M13.38,6.24a.75.75,0,0,0,.65.37.71.71,0,0,0,.37-.1.73.73,0,0,0,.27-1L12.88,2.38a.75.75,0,0,0-1-.27.74.74,0,0,0-.27,1Z"/><path class="cls-1" d="M33,22.51l-3.12-1.79A.74.74,0,0,0,29.15,22l3.11,1.8A.75.75,0,0,0,33,22.51Z"/><path class="cls-1" d="M10.25,9.37,7.14,7.58a.74.74,0,0,0-1,.27.75.75,0,0,0,.27,1l3.12,1.79a.69.69,0,0,0,.37.1.72.72,0,0,0,.64-.37A.74.74,0,0,0,10.25,9.37Z"/><path class="cls-1" d="M19.7,5.09a.74.74,0,0,0,.74-.74V.75A.74.74,0,1,0,19,.75v3.6A.74.74,0,0,0,19.7,5.09Z"/></svg>