<svg id="Icons" xmlns="http://www.w3.org/2000/svg" viewBox="0 0 39.4 39.4"><defs><style>.cls-1{fill:#646869;}</style></defs><title>Resize GSBIG</title><rect class="cls-1" x="6.98" y="22.64" width="25.43" height="3.74"/><rect class="cls-1" x="6.98" y="18.9" width="25.43" height="2.24"/><path class="cls-1" d="M1.75,19.27v8.6H2.5v.75H4.74v-.75h.75V18.15H2.87A1.12,1.12,0,0,0,1.75,19.27Z"/><path class="cls-1" d="M36.53,18.15H33.91v9.72h.75v.75H36.9v-.75h.75v-8.6A1.12,1.12,0,0,0,36.53,18.15Z"/><path class="cls-1" d="M7,17.4h6.74V8.05a1.13,1.13,0,0,0-1.13-1.12H5.49A1.5,1.5,0,0,0,4,8.42v8.23H7Z"/><path class="cls-1" d="M35.41,8.42a1.5,1.5,0,0,0-1.5-1.49h-7.1a1.13,1.13,0,0,0-1.13,1.12V17.4h6.74v-.75h3Z"/><path class="cls-1" d="M24.19,8.05a1.12,1.12,0,0,0-1.12-1.12H16.33a1.12,1.12,0,0,0-1.12,1.12V17.4h9Z"/></svg>