<svg id="Icons" xmlns="http://www.w3.org/2000/svg" viewBox="0 0 39.4 39.4"><defs><style>.cls-1{fill:#646869;}</style></defs><title>Resize GSBIG</title><rect class="cls-1" x="8.53" y="26.89" width="22.35" height="3.29"/><rect class="cls-1" x="8.53" y="23.61" width="22.35" height="1.97"/><path class="cls-1" d="M3.92,23.93v7.56h.66v.66h2v-.66h.66V23H4.91A1,1,0,0,0,3.92,23.93Z"/><path class="cls-1" d="M34.49,23h-2.3v8.54h.66v.66h2v-.66h.66V23.93A1,1,0,0,0,34.49,23Z"/><path class="cls-1" d="M8.53,22.29h5.91V14.07a1,1,0,0,0-1-1H7.21A1.31,1.31,0,0,0,5.9,14.4v7.23H8.53Z"/><path class="cls-1" d="M33.5,14.4a1.31,1.31,0,0,0-1.31-1.31H25.94a1,1,0,0,0-1,1v8.22h5.91v-.66H33.5Z"/><path class="cls-1" d="M16.74,13.09a1,1,0,0,0-1,1v8.22h7.88V14.07a1,1,0,0,0-1-1Z"/><path class="cls-1" d="M19.71,9.87A.87.87,0,0,0,20.59,9V4.55a.89.89,0,1,0-1.77,0V9A.88.88,0,0,0,19.71,9.87Z"/><path class="cls-1" d="M24.29,8.43a.89.89,0,0,0,1.65-.66L24.28,3.65a.89.89,0,0,0-1.65.67Z"/><path class="cls-1" d="M14,8.92a.89.89,0,0,0,1.16-.49l1.66-4.11a.89.89,0,0,0-1.65-.67L13.46,7.77A.89.89,0,0,0,14,8.92Z"/><path class="cls-1" d="M29.41,6.08a.88.88,0,0,0,1.25,0,.89.89,0,0,0,0-1.26L27.52,1.68a.89.89,0,0,0-1.25,1.26Z"/><path class="cls-1" d="M10,6.08l3.14-3.14a.89.89,0,0,0-1.25-1.26L8.74,4.82a.89.89,0,0,0,0,1.26A.88.88,0,0,0,10,6.08Z"/></svg>