<svg id="Icons" xmlns="http://www.w3.org/2000/svg" viewBox="0 0 39.4 39.4"><defs><style>.cls-1{fill:#646869;}</style></defs><title>Resize GSBIG</title><path class="cls-1" d="M35.59,9.73H32v20h3.63a1.82,1.82,0,0,0,1.82-1.82V11.54A1.81,1.81,0,0,0,35.59,9.73Z"/><path class="cls-1" d="M3.81,9.73A1.81,1.81,0,0,0,2,11.54V27.89a1.82,1.82,0,0,0,1.82,1.82H7.44v-20Z"/><path class="cls-1" d="M26.51,6.09h0A1.81,1.81,0,0,0,24.7,4.28h-10a1.81,1.81,0,0,0-1.81,1.81V9.73H9.26v20H30.14v-20H26.51ZM24.7,9.73h-10V6.09h10Z"/></svg>