<svg id="Icons" xmlns="http://www.w3.org/2000/svg" viewBox="0 0 39.4 39.4"><defs><style>.cls-1{fill:#646869;}</style></defs><title>Resize GSBIG</title><path class="cls-1" d="M33.63,7.2V5.77h-25v25h25V29.34h0V7.2ZM32.2,29.34H10.06V7.2H32.2Z"/><path class="cls-1" d="M31.49,32.2H7.2V7.92h0a.72.72,0,0,0-1.43,0h0V33.63H31.49a.72.72,0,0,0,0-1.43Z"/><path class="cls-1" d="M11.71,27.69a.7.7,0,0,0,1,0L30.54,9.83a.69.69,0,1,0-1-1L11.71,26.71A.71.71,0,0,0,11.71,27.69Z"/><path class="cls-1" d="M29.57,13.14,16,26.71a.69.69,0,1,0,1,1L30.54,14.11a.68.68,0,0,0,0-1A.7.7,0,0,0,29.57,13.14Z"/><path class="cls-1" d="M29.57,17.43l-9.29,9.28a.69.69,0,0,0,1,1l9.28-9.29a.69.69,0,0,0-1-1Z"/><path class="cls-1" d="M29.57,21.71l-5,5a.69.69,0,1,0,1,1l5-5a.69.69,0,0,0-1-1Z"/><path class="cls-1" d="M29.57,26l-.71.71a.69.69,0,0,0,.48,1.18.71.71,0,0,0,.49-.2l.71-.72a.69.69,0,0,0-1-1Z"/><path class="cls-1" d="M12.2,23.6a.71.71,0,0,0,.49-.2L26.26,9.83a.68.68,0,0,0,0-1,.69.69,0,0,0-1,0L11.71,22.43a.7.7,0,0,0,0,1A.71.71,0,0,0,12.2,23.6Z"/><path class="cls-1" d="M12.2,19.32a.68.68,0,0,0,.49-.21L22,9.83a.69.69,0,1,0-1-1l-9.29,9.28a.7.7,0,0,0,0,1A.68.68,0,0,0,12.2,19.32Z"/><path class="cls-1" d="M12.2,15a.71.71,0,0,0,.49-.2l5-5a.69.69,0,1,0-1-1l-5,5a.7.7,0,0,0,0,1A.71.71,0,0,0,12.2,15Z"/><path class="cls-1" d="M12.2,10.74a.67.67,0,0,0,.49-.2l.71-.71a.69.69,0,0,0-1-1l-.72.71a.7.7,0,0,0,0,1A.67.67,0,0,0,12.2,10.74Z"/></svg>