<svg id="Icons" xmlns="http://www.w3.org/2000/svg" viewBox="0 0 39.4 39.4"><defs><style>.cls-1{fill:#646869;}</style></defs><title>Resize GSBIG</title><path class="cls-1" d="M23.1,32.09H16.3a.72.72,0,0,0,0,1.44h6.8a.72.72,0,0,0,0-1.44Z"/><path class="cls-1" d="M23.1,35H16.3a.72.72,0,0,0,0,1.44h6.8a.72.72,0,0,0,0-1.44Z"/><path class="cls-1" d="M20.42,37.87H19a.72.72,0,0,0,0,1.44h1.44a.72.72,0,0,0,0-1.44Z"/><path class="cls-1" d="M10.6,7.12a10.68,10.68,0,0,0-1.69,5.79,16.55,16.55,0,0,0,2.4,7.62l6.35-6.35Z"/><path class="cls-1" d="M28.09,20.53a16.55,16.55,0,0,0,2.4-7.62A10.68,10.68,0,0,0,28.8,7.12l-7.06,7.06Z"/><path class="cls-1" d="M26.93,4.91a10.73,10.73,0,0,0-14.46,0l7.23,7.23Z"/><path class="cls-1" d="M12.78,23.14c1.37,2.34,2.65,4.53,3,6.47a1.27,1.27,0,0,0,1.25,1h5.3a1.29,1.29,0,0,0,1.27-1.05c.37-1.93,1.65-4.12,3-6.45L19.7,16.22Z"/><path class="cls-1" d="M8.78,23.06a1.45,1.45,0,0,0,2,2.05l2-2c-.49-.85-1-1.72-1.47-2.61Z"/><path class="cls-1" d="M28.09,20.53c-.47.89-1,1.76-1.47,2.61l2,2a1.45,1.45,0,1,0,2-2.05Z"/><path class="cls-1" d="M30.62,5.3a1.44,1.44,0,1,0-2-2L26.93,4.91A10.69,10.69,0,0,1,28.8,7.12Z"/><path class="cls-1" d="M10.82,3.26a1.44,1.44,0,0,0-2,2L10.6,7.12a10.69,10.69,0,0,1,1.87-2.21Z"/></svg>