<svg id="Icons" xmlns="http://www.w3.org/2000/svg" viewBox="0 0 39.4 39.4"><defs><style>.cls-1{fill:#656869;}</style></defs><title>Resize GSBIG</title><path class="cls-1" d="M23.18,32.22H16.43a.72.72,0,0,0,0,1.44h6.75a.72.72,0,0,0,0-1.44Z"/><path class="cls-1" d="M23.18,35.09H16.43a.72.72,0,0,0,0,1.44h6.75a.72.72,0,0,0,0-1.44Z"/><path class="cls-1" d="M20.52,38H19.09a.72.72,0,1,0,0,1.44h1.43a.72.72,0,1,0,0-1.44Z"/><path class="cls-1" d="M30.67,3.3a1.44,1.44,0,0,0-2,0L26.85,5.09A10.71,10.71,0,0,0,9.08,13.16a16.22,16.22,0,0,0,2.3,7.41L9.12,22.83a1.44,1.44,0,0,0,0,2,1.42,1.42,0,0,0,1,.42,1.44,1.44,0,0,0,1-.42l1.69-1.69L28.76,7.25l1.91-1.92A1.44,1.44,0,0,0,30.67,3.3Z"/><path class="cls-1" d="M14.31,25.76a14.57,14.57,0,0,1,1.61,4,1.26,1.26,0,0,0,1.25,1h5.26a1.27,1.27,0,0,0,1.26-1c.86-4.56,6.84-10.48,6.84-16.58A10.53,10.53,0,0,0,30.06,10Z"/></svg>