<svg id="Icons" xmlns="http://www.w3.org/2000/svg" viewBox="0 0 39.4 39.4"><defs><style>.cls-1{fill:#646869;}</style></defs><title>Resize GSBIG</title><path class="cls-1" d="M36.9,14H32.38V5h0a.75.75,0,1,0-1.5,0V34.4a.75.75,0,1,0,1.5,0h0v-9H36.9a1.52,1.52,0,0,0,1.51-1.51h0v-8.3A1.52,1.52,0,0,0,36.9,14Zm0,9.81H32.38v-8.3H36.9Z"/><path class="cls-1" d="M7.49,35.16H29.36V4.24H7.49ZM9,5.75H27.85v27.9H9Z"/><path class="cls-1" d="M18.05,19.32H15V17.59l1.91-1.91-.53-.53-2.13,2.13h0v2H10.51v.76L12,32.14h4.52l1.51-12.06h0Zm-3.77,3.76H11.64l-.38-3h3Zm2.64,0H15v-3H17.3Z"/><path class="cls-1" d="M24.46,12.54h0a.37.37,0,0,0,.37-.38V11a.75.75,0,0,0-.75-.76H21.82a.75.75,0,0,0-.75.76h0v1.13a.38.38,0,0,0,.38.38h0L19.56,14.8V32.14h6.78V14.8l-1.89-2.26Zm1.13,2.54v3.49H20.31V15.08l2.22-2.54h.84Z"/></svg>