<?xml version="1.0" encoding="utf-8"?>
<!-- Generator: Adobe Illustrator 23.0.0, SVG Export Plug-In . SVG Version: 6.00 Build 0)  -->
<svg version="1.1" id="Icons" xmlns="http://www.w3.org/2000/svg" xmlns:xlink="http://www.w3.org/1999/xlink" x="0px" y="0px"
	 viewBox="0 0 40.7 39.4" style="enable-background:new 0 0 40.7 39.4;" xml:space="preserve">
<style type="text/css">
	.st0{fill:#646869;}
</style>
<title>Resize GSBIG</title>
<g id="Mirror_Alternative_2_1_">
	<title>Resize GS12 B</title>
	<path class="st0" d="M9.2,36h22.1V3.5H9.2V36z M10.6,5h19.3v29.5H10.7L10.6,5z"/>
	<path class="st0" d="M5.4,19.6c0.4-0.1,0.7-0.5,0.7-0.9c0-0.4-0.3-0.6-0.7-0.7H1.5c-0.4-0.1-0.8,0.2-0.9,0.7
		c-0.1,0.4,0.2,0.8,0.7,0.9c0.1,0,0.1,0,0.2,0H5.4z"/>
	<path class="st0" d="M2,14.7l3.6,1.4c0.4,0.2,0.9,0,1-0.4c0,0,0,0,0,0c0-0.1,0-0.2,0-0.3c0-0.3-0.2-0.6-0.5-0.7l-3.7-1.4
		c-0.4-0.2-0.9,0-1,0.4c0,0,0,0,0,0c0,0.1,0,0.2,0,0.3C1.5,14.3,1.7,14.6,2,14.7z"/>
	<path class="st0" d="M6.7,22.1c0-0.1,0-0.2,0-0.3c-0.2-0.4-0.6-0.6-1-0.4L2,22.8c-0.3,0.1-0.5,0.4-0.5,0.7c0,0.1,0,0.2,0,0.3
		c0.2,0.4,0.6,0.6,1,0.4l3.7-1.5C6.5,22.7,6.7,22.4,6.7,22.1z"/>
	<path class="st0" d="M5.2,9C4.9,8.7,4.4,8.7,4.1,9c-0.3,0.3-0.3,0.8,0,1.1L6.9,13c0.3,0.3,0.8,0.3,1.1,0c0.3-0.3,0.3-0.8,0-1.1
		L5.2,9z"/>
	<path class="st0" d="M6.9,24.6L4,27.4c-0.3,0.3-0.3,0.8,0,1.1c0.3,0.3,0.8,0.3,1.1,0L8,25.7c0.3-0.3,0.3-0.8,0-1.1
		C7.7,24.3,7.2,24.3,6.9,24.6z"/>
	<path class="st0" d="M33.7,12.9l2.8-2.8c0.3-0.3,0.3-0.8,0-1.1c-0.3-0.3-0.8-0.3-1.1,0l-2.8,2.8c-0.3,0.3-0.3,0.8,0,1.1
		C32.9,13.3,33.4,13.3,33.7,12.9z"/>
	<path class="st0" d="M39.2,18h-4c-0.4,0.1-0.7,0.5-0.7,0.9c0,0.4,0.3,0.6,0.7,0.7h4c0.4,0.1,0.8-0.2,0.9-0.7
		c0.1-0.4-0.2-0.8-0.7-0.9C39.3,18,39.2,18,39.2,18z"/>
	<path class="st0" d="M38.6,22.9L35,21.4c-0.4-0.2-0.9,0-1,0.4c0,0.1,0,0.2,0,0.3c0,0.3,0.2,0.6,0.5,0.7l3.6,1.5
		c0.4,0.2,0.9,0,1-0.4c0-0.1,0-0.2,0-0.3C39.1,23.3,38.9,23,38.6,22.9z"/>
	<path class="st0" d="M33.9,15.4c0,0.1,0,0.2,0,0.3c0.2,0.4,0.6,0.6,1,0.4c0,0,0,0,0,0l3.6-1.4c0.3-0.1,0.5-0.4,0.5-0.7
		c0-0.1,0-0.2,0-0.3c-0.2-0.4-0.6-0.6-1-0.4c0,0,0,0,0,0l-3.7,1.4C34.1,14.8,33.9,15.1,33.9,15.4z"/>
	<path class="st0" d="M33.7,24.6c-0.3-0.3-0.8-0.3-1.1,0c-0.3,0.3-0.3,0.8,0,1.1l2.8,2.8c0.3,0.3,0.8,0.3,1.1,0
		c0.3-0.3,0.3-0.8,0-1.1L33.7,24.6z"/>
	<path class="st0" d="M12.2,33h16.2V6.5H12.2V33z M14.4,19.4l6.2-6.2c0.3-0.3,0.8-0.3,1.1,0c0.3,0.3,0.3,0.8,0,1.1l-6.2,6.2
		c-0.3,0.3-0.8,0.3-1.1,0C14.1,20.2,14.1,19.7,14.4,19.4C14.4,19.4,14.4,19.4,14.4,19.4z M13.8,24.5l12-12c0.3-0.3,0.8-0.3,1.1,0.1
		c0.3,0.3,0.3,0.7,0,1l-12,12c-0.3,0.3-0.8,0.3-1.1,0C13.5,25.3,13.5,24.8,13.8,24.5L13.8,24.5z"/>
</g>
</svg>
