<svg id="Icons" xmlns="http://www.w3.org/2000/svg" viewBox="0 0 39.4 39.4"><defs><style>.cls-1{fill:#646869;}</style></defs><title>Resize GSBIG</title><path class="cls-1" d="M8.61,36H30.79V3.43H8.61ZM10.09,4.91H29.31V34.49H10.09Z"/><path class="cls-1" d="M11.57,33H27.84V6.39H11.57ZM13.8,19.3,20,13.06a.79.79,0,1,1,1.12,1.12l-6.24,6.24A.79.79,0,0,1,13.8,19.3Zm-.65,5.16,12-12a.79.79,0,0,1,1.12,0,.81.81,0,0,1,0,1.12l-12,12a.79.79,0,0,1-1.12-1.12Z"/><path class="cls-1" d="M38.18,14.74a.26.26,0,0,0-.25-.22H33.19a.27.27,0,0,0-.25.22l-.67,4.67a.26.26,0,0,0,.25.29H38.6a.26.26,0,0,0,.25-.29Z"/><path class="cls-1" d="M6.13,14.52H1.39a.27.27,0,0,0-.25.22L.48,19.41a.25.25,0,0,0,.25.29H6.8a.26.26,0,0,0,.25-.29l-.67-4.67A.26.26,0,0,0,6.13,14.52Z"/><path class="cls-1" d="M34.82,22.65a.74.74,0,1,0,1.48,0V20.43H34.82Z"/><path class="cls-1" d="M3,22.65a.74.74,0,1,0,1.48,0V20.43H3Z"/></svg>