<svg id="Icons" xmlns="http://www.w3.org/2000/svg" viewBox="0 0 39.4 39.4"><defs><style>.cls-1{fill:#646869;}</style></defs><title>Resize GSBIG</title><path class="cls-1" d="M19.7,7.69c-3.42,0-6.21,5-6.39,11.37L24,10.77C22.84,8.86,21.35,7.69,19.7,7.69Z"/><path class="cls-1" d="M19.7,31.71c3.54,0,6.41-5.38,6.41-12a21.28,21.28,0,0,0-.36-3.91L14,25C15,29,17.17,31.71,19.7,31.71Z"/><path class="cls-1" d="M13.65,23.61l11.8-9.18a15.51,15.51,0,0,0-.88-2.52L13.32,20.66A21.29,21.29,0,0,0,13.65,23.61Z"/><path class="cls-1" d="M4.49,19.7H2.09a1.58,1.58,0,0,0,.8,1.36V23.7a.8.8,0,1,0,1.6,0V21.06a1.58,1.58,0,0,0,.8-1.36Z"/><path class="cls-1" d="M36.51,19.7h-2.4a1.58,1.58,0,0,0,.8,1.36V23.7h0a.8.8,0,0,0,1.6,0h0V21.06a1.58,1.58,0,0,0,.8-1.36Z"/><path class="cls-1" d="M19.7,4.49c-5.31,0-9.61,6.81-9.61,15.21s4.3,15.21,9.61,15.21,9.61-6.81,9.61-15.21S25,4.49,19.7,4.49Zm0,28.82c-4.42,0-8-6.09-8-13.61s3.59-13.61,8-13.61,8,6.09,8,13.61S24.12,33.31,19.7,33.31Z"/><path class="cls-1" d="M3.69,12.5a3.19,3.19,0,0,0-2.1,5.6h4.2a3.19,3.19,0,0,0-2.1-5.6Z"/><path class="cls-1" d="M35.71,12.5a3.19,3.19,0,0,0-2.1,5.6h4.2a3.19,3.19,0,0,0-2.1-5.6Z"/></svg>