<svg id="Icons" xmlns="http://www.w3.org/2000/svg" viewBox="0 0 39.4 39.4"><defs><style>.cls-1{fill:#95d3ec;}.cls-1,.cls-10,.cls-11,.cls-12,.cls-13,.cls-14,.cls-15,.cls-16,.cls-17,.cls-18,.cls-19,.cls-2,.cls-20,.cls-21,.cls-22,.cls-23,.cls-24,.cls-25,.cls-26,.cls-27,.cls-28,.cls-29,.cls-3,.cls-30,.cls-31,.cls-32,.cls-33,.cls-34,.cls-35,.cls-36,.cls-37,.cls-38,.cls-39,.cls-4,.cls-40,.cls-41,.cls-42,.cls-43,.cls-44,.cls-45,.cls-46,.cls-47,.cls-48,.cls-49,.cls-5,.cls-50,.cls-51,.cls-52,.cls-53,.cls-54,.cls-55,.cls-56,.cls-57,.cls-58,.cls-59,.cls-6,.cls-60,.cls-61,.cls-62,.cls-63,.cls-64,.cls-65,.cls-66,.cls-67,.cls-68,.cls-69,.cls-7,.cls-70,.cls-71,.cls-72,.cls-73,.cls-74,.cls-75,.cls-76,.cls-77,.cls-78,.cls-79,.cls-8,.cls-80,.cls-81,.cls-82,.cls-83,.cls-84,.cls-85,.cls-86,.cls-87,.cls-88,.cls-89,.cls-9,.cls-90,.cls-91,.cls-92,.cls-93,.cls-94,.cls-95,.cls-96{fill-rule:evenodd;}.cls-2{fill:#afb9b8;}.cls-3{fill:#a3a7a1;}.cls-4{fill:#8f9390;}.cls-5{fill:#a8aca9;}.cls-6{fill:#9eafb2;}.cls-7{fill:#a7ada9;}.cls-8{fill:#9fa09b;}.cls-9{fill:#b1b3b1;}.cls-10{fill:#9fabad;}.cls-11{fill:#878b88;}.cls-12{fill:#b8bcb9;}.cls-13{fill:#b0b1ab;}.cls-14{fill:#a6a59e;}.cls-15{fill:#b4bbb8;}.cls-16{fill:#92aab1;}.cls-17{fill:#bfc3bf;}.cls-18{fill:#d8cbb5;}.cls-19{fill:#c0baaa;}.cls-20{fill:#f1d3b0;}.cls-21{fill:#eaccab;}.cls-22{fill:#889693;}.cls-23{fill:#808c8c;}.cls-24{fill:#88a1aa;}.cls-25{fill:#8da3a9;}.cls-26{fill:#8a9999;}.cls-27{fill:#92a6a9;}.cls-28{fill:#b6bfbc;}.cls-29{fill:#acc1c2;}.cls-30{fill:#b3bdb8;}.cls-31{fill:#a1b2b4;}.cls-32{fill:#929d9d;}.cls-33{fill:#91a3a5;}.cls-34{fill:#c3c7be;}.cls-35{fill:#f8dcb6;}.cls-36{fill:#d0d1c6;}.cls-37{fill:#c2cac6;}.cls-38{fill:#b7cfd1;}.cls-39{fill:#ded5c7;}.cls-40{fill:#c7d0c9;}.cls-41{fill:#afc3c1;}.cls-42{fill:#bcc0b7;}.cls-43{fill:#e8d0b8;}.cls-44{fill:#b8c8c7;}.cls-45{fill:#ceb89e;}.cls-46{fill:#bcc1b4;}.cls-47{fill:#adb4ae;}.cls-48{fill:#92a09f;}.cls-49{fill:#b3bebc;}.cls-50{fill:#d0d0c2;}.cls-51{fill:#aababb;}.cls-52{fill:#c9cec7;}.cls-53{fill:#bbcaca;}.cls-54{fill:#d8d4c9;}.cls-55{fill:#849a9c;}.cls-56{fill:#b8bbb1;}.cls-57{fill:#7a8d92;}.cls-58{fill:#cfcbbc;}.cls-59{fill:#ecd5bf;}.cls-60{fill:#d9d2c4;}.cls-61{fill:#cfd6ce;}.cls-62{fill:#b9d0ce;}.cls-63{fill:#c3d7d5;}.cls-64{fill:#ded7cb;}.cls-65{fill:#d1d5ce;}.cls-66{fill:#b9cbcc;}.cls-67{fill:#adc5c8;}.cls-68{fill:#d4d9cd;}.cls-69{fill:#dedacc;}.cls-70{fill:#cad8d2;}.cls-71{fill:#e4dbc7;}.cls-72{fill:#cfdcd7;}.cls-73{fill:#e8dac6;}.cls-74{fill:#cecfc6;}.cls-75{fill:#f9daae;}.cls-76{fill:#e5d2bb;}.cls-77{fill:#b7c7c7;}.cls-78{fill:#cdd1cc;}.cls-79{fill:#cbccbb;}.cls-80{fill:#cbd0c6;}.cls-81{fill:#dadfd1;}.cls-82{fill:#bad6d9;}.cls-83{fill:#e7e0ce;}.cls-84{fill:#d3dfd9;}.cls-85{fill:#e3daca;}.cls-86{fill:#f7f6eb;}.cls-87{fill:#cad5d0;}.cls-88{fill:#b9d3d3;}.cls-89{fill:#f3e3cc;}.cls-90{fill:#dfd9c9;}.cls-91{fill:#aac7ca;}.cls-92{fill:#f4e3c9;}.cls-93{fill:#e3e7dc;}.cls-94{fill:#dde5d9;}.cls-95{fill:#f8dbbb;}.cls-96{fill:#f7e3cb;}</style></defs><title>Resize GSBIG</title><path class="cls-1" d="M5.52,20A14.09,14.09,0,1,1,19.61,34.17,14.14,14.14,0,0,1,5.52,20Z"/><path class="cls-2" d="M13.21,8.16C14,7,15.42,7,16.57,6.71c2.73-.77,5.51-1.08,8.15.43a.42.42,0,0,1-.25.43,7.73,7.73,0,0,1-2.08-.45,3.75,3.75,0,0,0-3.69.29c-1,.17-2.1-.2-2.82.84-.43-.38-.8-1-1.48-.23C14.32,8.12,13.66,8.71,13.21,8.16Z"/><path class="cls-3" d="M30.82,27.22a15.52,15.52,0,0,1-5.22,5.13,2.19,2.19,0,0,1-1.22.32c.85-1,2.22-1.37,2.91-2.54,0,0-.05-.08-.09-.11a.29.29,0,0,0-.31,0c-.31-.35.28-.46.21-.75a3.4,3.4,0,0,0,.45,0c.75-.52.86-1.57,1.66-2a1.2,1.2,0,0,0,.93-1.55c-.06-.49.28-.47.6-.47C31.47,25.83,30.8,26.54,30.82,27.22Z"/><path class="cls-4" d="M26.76,30c.15.13,1.09-.26.36.45s-1.82,1.52-2.74,2.27a13.45,13.45,0,0,1-8.8.68c.5,0,1.09.14,1-.69a.72.72,0,0,1,.48.18c1,.37,2.06.07,3.08.17a10.87,10.87,0,0,0,3.31-.38c.43-.06,1.06-.37.21-.88-.48-.2-.26-.39.05-.41a4,4,0,0,0,2.56-1.28A.74.74,0,0,1,26.76,30Z"/><path class="cls-5" d="M31.84,12.58c2.42,3.2,2,6.68,1,10.22a.44.44,0,0,1-.43-.24,7.76,7.76,0,0,1,.44-2,17.76,17.76,0,0,0-.78-6.15c-.87-.27-.81-1.22-1.26-1.79C31.16,12.57,31.5,12.59,31.84,12.58Z"/><path class="cls-6" d="M13.21,8.16a1.55,1.55,0,0,0,1.57-.38c.59-.58.61.09.8.38-.43.1-.62.44-.8.79-.18.94-1.32.21-1.63,1-1.08,0-1.66.94-2.54,1.32-1.18.16-1.34,1.35-2,2a3.71,3.71,0,0,1-.47,0A6.22,6.22,0,0,1,10.5,10.2c.9,0,1.26-.74,1.69-1.36Z"/><path class="cls-7" d="M32.51,22.8h.34a6.66,6.66,0,0,1-2,4.42c.05-.68.48-1.36,0-2,0-.34.4-.47.46-.8.66-1.2-.37-2.13-.51-3.21.53-.2.45-.86.86-1.14a.61.61,0,0,1,.31.39c-.26,1,0,2.11-.15,3.19C32.47,23.65,31.92,22.75,32.51,22.8Z"/><path class="cls-8" d="M10.5,30c-2.24-1.91-4-4.09-4.41-7.15.28,0,.39-.28.61-.36.14,2.79,1.67,4.81,3.56,6.64a2.6,2.6,0,0,0,.63.69A.43.43,0,0,1,10.5,30Z"/><path class="cls-9" d="M31.84,12.58h-1c-.53-1.24-1.78-1.74-2.69-2.6,0-.39-.42-.61-.43-1a.57.57,0,0,1,.41-.14A10.14,10.14,0,0,1,31.84,12.58Z"/><path class="cls-10" d="M5.76,19.06v-.69c.58-.08.3-1.07,1-1-.11.52.09.73.61.63.34.56-.5,1-.1,1.61a.73.73,0,0,1,.14.42.61.61,0,0,1-.13.43c-.84-.2-.84-.2-.93,1.32A.53.53,0,0,1,6,21.56C5.62,20.75,6.37,19.83,5.76,19.06Z"/><path class="cls-11" d="M16.59,32.67c.14.94-.55.65-1,.68l-1.7-.68c-.07-.63-1-.71-.92-1.42a34.84,34.84,0,0,0,3.4,1.42Z"/><path class="cls-12" d="M28.11,8.84h-.34c-1.26.1-1.94-1.11-3.05-1.36V7.14A4.37,4.37,0,0,1,28.11,8.84Z"/><path class="cls-13" d="M5.76,19.06c.58.84,0,1.84.33,2.72,0,.31.4.37.34.68s-.1.34-.34.34C5.65,21.58,4.88,20.39,5.76,19.06Z"/><path class="cls-13" d="M6.77,17.35c-.68,0-.47.89-1,1A5.67,5.67,0,0,1,7.11,15c0,.34,0,.69,0,1C6.4,16.31,6.93,16.91,6.77,17.35Z"/><path class="cls-10" d="M7.11,16V15a1.83,1.83,0,0,1,1-1.7h.34C7.93,14.13,7.68,15.14,7.11,16Z"/><path class="cls-14" d="M10.5,30h.34c.43.39,1.11.51,1.35,1.14v.22C11.28,31.29,10.93,30.57,10.5,30Z"/><path class="cls-14" d="M12.87,31.31l1,1.36c-.74-.22-1.54-.39-1.69-1.36Z"/><path class="cls-15" d="M12.19,8.84c-.43.62-.78,1.34-1.69,1.36C10.93,9.58,11.28,8.86,12.19,8.84Z"/><path class="cls-16" d="M24.72,7.48c1.11.26,1.79,1.47,3.05,1.36-.17.43.29.66.34,1-.24-.1-.43.5-.66.09-.84-1.53-.87-.18-1.15.32a16.22,16.22,0,0,1-1.93-1.13c-.19-.62-.74-.14-1.06-.35C21.9,8.69,21,7.17,19.42,7.48h-.79a3.64,3.64,0,0,1,3.56-.4A4.21,4.21,0,0,0,24.72,7.48Z"/><path class="cls-17" d="M18.63,7.48h.67c-.13.67-.74.66-1.27.73.42.71,1.65-.37,1.61.95.13,1.1-1,.52-1.35,1-.55-.88-1.05-.93-2.22-.19-.33.42-.51-.2-.8-.12-.09-.36-.51-.6-.37-1.05a.85.85,0,0,1,.68-.68C16.56,7.79,17.5,7.21,18.63,7.48Z"/><path class="cls-18" d="M27.43,29.27h-.34c-.77-.95-1.45.07-2.17.14-.11,0,.16.42.43.49-.31,1.06-.66-.13-1,0a6,6,0,0,0,0-.74,2.76,2.76,0,0,1,.1-1c1,.09,2.06.35,2.58-.92a1.28,1.28,0,0,1,.75,0A3.91,3.91,0,0,0,27.43,29.27Z"/><path class="cls-19" d="M27.43,29.27c-.22-.74.31-1.35.34-2.05.3-.92.81-1.57,1.91-1.43.24.64-.89.75-.55,1.43C28.28,27.67,28.4,28.92,27.43,29.27Z"/><path class="cls-20" d="M31.16,24.5c-.11.23-.23.45-.34.68-.26,0-.65-.16-.68.34h-.43c-.39-.12-.18-.72-.63-.79.42-.22.29-1.09,1.06-.9C30.35,24.24,31.42,23.37,31.16,24.5Z"/><path class="cls-21" d="M25.4,30c-.22-.2-1.1-.33-.11-.66.57-.2,1.2-.89,1.8,0l-.33.68H25.4Z"/><path class="cls-7" d="M29.8,25.52h.34c.14.85-.09,1.49-1,1.7-.22-.67.6-.83.67-1.36Z"/><path class="cls-11" d="M23.37,31.65c.3.14.76-.29,1,.25-.42.11-.14.87-.84.79-1.06-.12-2.07.57-3.17.32a.87.87,0,0,1,.1-.42c.27,0,.31-.27.5-.35.62.36,1.06-.52,1.67-.25C22.94,32.1,23.05,31.62,23.37,31.65Z"/><path class="cls-3" d="M23.37,31.65l-.68.34c0-.23,0-.46,0-.69.69-.17.68-.89,1-1.34.23,0,.46,0,.68,0s.68,1,1,0h1C25.72,31.09,24.34,31,23.37,31.65Z"/><path class="cls-22" d="M20.66,32.33a.29.29,0,0,1-.34.34c-1.13.09-2.26-.13-3.39,0h-.34c0-.24,0-.47,0-.71.58-.23,1.14.19,1.71,0h1.23C20,32,20.2,32.51,20.66,32.33Z"/><path class="cls-23" d="M16.93,32.67h3.39V33C19.2,32.82,18,33.4,16.93,32.67Z"/><path class="cls-24" d="M26.42,10.2c.39-1,.45-1.06,1-.28.37.54.46-.26.71-.06.73,1.08,2.29,1.33,2.71,2.72.38.55.4,1.31,1,1.71-.13.82.59,1.85-.59,2.42-.18-.21.09-.69-.41-.71,0-.28-.25-.38-.44-.51.08-.15.16-.37.07-.48a11.68,11.68,0,0,0-3-3.06C27.31,11.26,26.28,11.1,26.42,10.2Z"/><path class="cls-25" d="M31.16,16.67c1.45-.44.47-1.58.68-2.38,1.07,1.26.68,2.87,1,4.31a11.11,11.11,0,0,1,0,2.16c-.4-.05-.29-.36-.35-.62-.13-.52-.38-.67-.66-.06H31.5A14,14,0,0,1,31.16,16.67Z"/><path class="cls-26" d="M31.84,20.08c.2-.55.47-.52.67,0,.1.25-.16.65.34.71a3.21,3.21,0,0,0-.34,2c-.69,0-.06.81-.67,1Z"/><path class="cls-27" d="M7.11,16c.45-.91.9-1.82,1.36-2.72.73-.63,1-1.72,2-2a21.45,21.45,0,0,0-1,2.17C10,15.14,8.2,16,7.89,17.47c-.17.18-.44.26-.44.56-.54.09-.76-.14-.68-.68S6.37,16.28,7.11,16Z"/><path class="cls-28" d="M9.48,13.27l1-2c1-.28,1.56-1.39,2.71-1.36a3.55,3.55,0,0,1,1,.1c-1,.47-1.88.9-1.71,2.08.19.83-.8.27-.89.75a1.4,1.4,0,0,0-1.66.87C9.84,13.49,9.75,13.26,9.48,13.27Z"/><path class="cls-29" d="M12.53,12.24a2.14,2.14,0,0,1,1.61-2.38h-.93c.43-.56,1.39-.23,1.69-1-.17.43.29.66.34,1a2.9,2.9,0,0,1-1.39,2.72A1.74,1.74,0,0,0,12.53,12.24Z"/><path class="cls-30" d="M31.16,24.5c.34-1.26-.94-.05-1-.68-.31-1.24-1.41-2.38-.52-3.79a5.55,5.55,0,0,1,1.2,1.07C30.62,22.26,32.17,23.25,31.16,24.5Z"/><path class="cls-31" d="M30.82,21.1l-1-1c.12-.37.45-.66.4-1.09.48-.08.21-.57.43-.78.41-.71.08-1.48.19-2.22.5,0,.3.41.34.68.11,1.13.22,2.27.34,3.41C31.18,20.35,31.37,21,30.82,21.1Z"/><path class="cls-32" d="M6.43,22.46c-.11-.23-.22-.46-.34-.68h.34C7.59,21.35,7.34,23,8.18,23c-.43.24-1.39.46-.93.94s.22,2,1.59,1.63c.46.88.79,1.89,2,2,.22.86,1.51.42,1.65,1.37-.41,0-.82,0-1.24,0s-.69-.19-.76.35a9.59,9.59,0,0,1-3.73-6.53C6.77,22.64,6.55,22.55,6.43,22.46Z"/><path class="cls-23" d="M10.5,29.27c0-.51.41-.31.68-.35.3,1.19,1.67.86,2.3,1.68s1.51.72,2.33.95c.09.45.43.47.78.44v.68l-3.72-1.36h-.68c0-.89-.92-.89-1.35-1.36Z"/><path class="cls-33" d="M10.84,27.56c-1.18-.18-1.65-1.07-2-2,0-.86-.68-1.52-.68-2.38-.74-.24-.47-1.74-1.7-1.36.32-.47-.75-2,1-1.36a2.79,2.79,0,0,1,1.07,2.49A3.17,3.17,0,0,0,9.3,25c.21.33.36.73.81.82a1.43,1.43,0,0,0,.78.82A3.56,3.56,0,0,0,10.84,27.56Z"/><path class="cls-34" d="M9.48,25.18a3,3,0,0,1-1-2.34,3,3,0,0,0-1.07-2.42v-.34c.46-.1.55,1,1.18.37.17,0,.25.12.23.29.9.22,2,.08,2.34,1.32a1,1,0,0,1-.46.05.69.69,0,0,1-.43-.2c-.57-.22-1.21-.41-1.48.34-.2.56.13.87.78,1,.46.07.58.48.13.85S9.5,24.8,9.48,25.18Z"/><path class="cls-34" d="M7.45,18c0-.23.11-.34.34-.34.52.17.93.56,1.45.71.58.83.11,1.43-.43,2,.09-1.34-.5-1.27-1.36-.69C6.47,19.16,8.06,18.6,7.45,18Z"/><path class="cls-35" d="M7.45,19.73c.86-.59,1.45-.65,1.36.69-.64.63-.9-.29-1.36-.34Z"/><path class="cls-36" d="M26.42,10.2c-.18.88.88,1,1,1.7.09.51,1,1.19-.28,1.4-.14-.45-.39-.47-.73-.21s-.38.59-.8.4c-.83-1.44-2-1-3.19-.63-.69.12-.32-.42-.42-.66,0-1.42,1.19-.81,1.87-1,.37-.63-1-.42-.49-1,.33-.34-.18-1.55,1-1C25.06,9.52,25.61,10.12,26.42,10.2Z"/><path class="cls-37" d="M24.38,9.18c-.29.12-1-.18-.85.23s-1,1.48.78,1.54c-1,.53-2.35-.25-2.3,1.29a1.61,1.61,0,0,1-1-1.14A1.94,1.94,0,0,1,22,9.17a1.8,1.8,0,0,1,1.33-.33C23.7,9,24.24,8.49,24.38,9.18Z"/><path class="cls-2" d="M23.37,8.84A1.88,1.88,0,0,0,22,9.18c-.27-.62-.65-.35-1.05-.14s-.83.53-1.32.14c0-1.44-1.23-.24-1.67-.84.42-.33,1.24-.07,1.33-.86C20.91,7.16,21.93,8.65,23.37,8.84Z"/><path class="cls-38" d="M19.64,9.18c.51.49.93,0,1.34-.16s.78-.49,1,.16a2,2,0,0,0-1,2c-.73,0-1.17.16-.69,1,.1.18.14.7-.42.6a2.22,2.22,0,0,0-2.44-1.66c-1.09.06-1.76.33-1.93,1.54-.08.55-1,.72-.95,1.47-.91.84-2.35.55-3.18,1.54-.16-.27-.53-.4-.53-.79.7.08,1.12-.55,1.73-.68C13,13.79,13,13.06,14,13.2c.32.05-.13-.38-.08-.62a3,3,0,0,0,1.36-2.72l.68.34h2.37C18.57,9.63,19.77,10.29,19.64,9.18Z"/><path class="cls-39" d="M18.29,10.2H15.92C16.88,9.25,17.75,9.25,18.29,10.2Z"/><path class="cls-40" d="M24.38,28.25v1c-1-.91-2.23-.1-3.34-.31.2-.8.83-.18,1.22-.37s.91.36,1-.41c.3-.56.27-.54-.31-1.34-.36-.5.72-.66.38-1.23.22-.17.69.07.73-.42h.49a5,5,0,0,1,1.22.07c-.83.27-1.66.57-1.67,1.66,0,.34.26.28.48.23C24.82,27.56,24.17,27.83,24.38,28.25Z"/><path class="cls-41" d="M21,28.92c.89-.09,1.81.2,2.69-.22.54-.25.18.73.69.57V30h-.67a4.72,4.72,0,0,0-3.35-.17c-.47.11-.92.39-1.36-.05-.13-.56,0-.89.66-.81Z"/><path class="cls-42" d="M29.8,25.52v.34c-1.13-.24-1.72.35-2,1.36h-.68c-.4-.34-.92-.3-1.39-.44a22.24,22.24,0,0,1,3.43-1.94C29.67,24.75,29.27,25.61,29.8,25.52Z"/><path class="cls-43" d="M25.74,26.88a1.86,1.86,0,0,1,1.35.34c-.52,1.36-1.69,1-2.71,1-.17-.44.29-.67.34-1C25.08,27.16,25.31,26.73,25.74,26.88Z"/><path class="cls-44" d="M25.74,26.88c-.43-.17-.66.29-1,.34s-.92-.1-.61-.4S24,25.43,25,25.51c.29,0,.7.21.77-.33.69-.57,1.73-.39,2.38-1.07,0-.35,0-.7,0-1.05,0-1.93,0-1.93-1.8-2-.65.24-.49-.9-1.14-.67-.28-.06-.67.18-.78-.31.3-.31.11-1,.73-1.06a1.84,1.84,0,0,1,2.14.33,1.54,1.54,0,0,0,1.49.39c.54-.1.71-.91,1.39-.71.17.43-.28.65-.34,1-1.42,1.39.16,2.5.34,3.74-.79-.12-.71.65-1,1A12.7,12.7,0,0,0,25.74,26.88Z"/><path class="cls-45" d="M20.66,32.33c-.43.17-.66-.29-1-.34v-.47c.13-.27-.34-.84.4-.82.6,1.14,1,1.19,2.18.3.27-.07.45,0,.47.31V32Z"/><path class="cls-46" d="M22.69,31.31a.29.29,0,0,0-.34-.34c.13-.76-.06-1.07-.94-1.07-.68,0-.91.6-1.43.73-.68.15-.19.69-.34,1-.77-.12-.53-.95-.91-1.39-.58.2-.92.81-1.56.81.16-.75.91-.94,1.33-1.44a2.4,2.4,0,0,1,.46,0c.37.67.87.32,1.35.19a4.65,4.65,0,0,1,3.4.15C23.38,30.41,23.39,31.13,22.69,31.31Z"/><path class="cls-47" d="M16.93,31a.85.85,0,0,0,.16,0,3,3,0,0,1,2.55.68V32H18.29c-.39-1.32-1.38-.47-2.1-.58a.5.5,0,0,1-.3-.4A6,6,0,0,1,16.93,31Z"/><path class="cls-48" d="M15.92,31.31c.73.43,2-.88,2.37.68h-1.7c-.26,0-.64.17-.67-.34Z"/><path class="cls-49" d="M27.09,13.27c1.56-.1.34-.89.34-1.37,1.24,1.07,2.74,1.92,3.05,3.75-.39,0-.79-.1-1.16.09-.72-.75-1.2-1.74-2.16-2.25A1.87,1.87,0,0,0,27.09,13.27Z"/><path class="cls-50" d="M29.13,15.65h1.35c.23,0,.34.11.34.34-.16.79.35,1.67-.34,2.38-1.08.21-.89-.85-1.3-1.31a2.36,2.36,0,0,1-.05-.7Z"/><path class="cls-51" d="M9.14,18.37l-1.35-.68c-.06-.8.6-1.29,1-1.79a3.49,3.49,0,0,0,.7-2.63c.23,0,.34.11.34.34v.47a3.72,3.72,0,0,1-.25,3.78C9.39,18,9.14,18.08,9.14,18.37Z"/><path class="cls-52" d="M9.82,14v-.34c.63-.07.76-1.38,1.69-.68.25.52,1.44.33,1,1.36-.59.17-1,.74-1.69.68A1.83,1.83,0,0,0,9.82,14Z"/><path class="cls-53" d="M12.53,14.29c.44-1-.8-.82-1-1.36,0-.76,1,.07,1-.69a1.84,1.84,0,0,1,1.35.34c-.15.25.51.77,0,.65C12.84,13,13.06,14.05,12.53,14.29Z"/><path class="cls-54" d="M29.13,17c.46.44.32,1.49,1.35,1.36,0,.27.17.65-.34.69-.67-.22-.82.6-1.35.67-.2-.53-1.16-.45-1-1.26C27.59,17.39,27.89,16.76,29.13,17Z"/><path class="cls-55" d="M15.92,31.31v.34c-1.75-.23-2.95-1.67-4.6-2.13-.09,0-.1-.39-.14-.6h1.35c.5-.05.24,1,1,.65.36.63.77,1.18,1.61,1.06.37-.12.48.36.81.34Z"/><path class="cls-56" d="M13.55,29.61c-.73.36-.51-.72-1-.69-.22-.88-1.43-.52-1.69-1.36v-1a1.51,1.51,0,0,1,.73.1c-.05.27-.17.72,0,.77C12.79,27.7,13,28.76,13.55,29.61Z"/><path class="cls-57" d="M8.13,23.14c.22.79.45,1.59.68,2.38C7.37,26,7.93,24.42,7.27,24,6.81,23.69,7.49,23.12,8.13,23.14Z"/><path class="cls-58" d="M9.48,25.18c.06-.37-.17-.81.24-1.09.57-.38.37-.86-.11-.88-1,0-1-.81-.75-1.17a1,1,0,0,1,1.64.08c-.43.05-.86-.12-1.29.09,1.75,1.07,2,1.52,1.7,3-.52-.06-.85.08-.75.69A.85.85,0,0,1,9.48,25.18Z"/><path class="cls-59" d="M10.16,25.86c-.09-.53.14-.76.68-.68.07.36.3.43.57.24,1.07-.73,1.06.16,1.22.8-.06.22-.39.27-.35.55-.36.28-.47-.3-.77-.23h-.67A.84.84,0,0,1,10.16,25.86Z"/><path class="cls-60" d="M12.53,26.54c0-.85.24-2-1.28-1-.22.14-.38-.08-.41-.33.52-1.28.08-2-2-3.06h2c0,.05,0,.15.05.15,2.38.3,2,2.09,2,3.69C12.92,26.25,12.89,26.5,12.53,26.54Z"/><path class="cls-61" d="M12.87,26.2c.17-1.78.17-3.49-2-4.08h.34c.52-.16.83.49,1.35.34.72,1.07,1.85.87,2.89.94.11.19.38.34.36.52s-.26.25-.47.12-.82-.45-1,0c-.19.6.35.8.88.84,0,.64-.89.49-1,1.05a.25.25,0,0,1-.2.3c-.22-.18-.06-.68-.5-.67s-.33.3-.26.56A.7.7,0,0,1,12.87,26.2Z"/><path class="cls-62" d="M12.53,22.46l-1.35-.34c-.46-.68-.6-1.86-1.94-1.06-.43.25-.41-.33-.43-.64.53-.62,1.12-1.22.33-2.05A.3.3,0,0,1,9.48,18a2.41,2.41,0,0,1,.71.06,2.71,2.71,0,0,0,2.3,3C12.29,21.52,12.11,22,12.53,22.46Z"/><path class="cls-63" d="M27.77,18.71c0,.68.89.48,1,1a1.36,1.36,0,0,1-1.49-.31,1.76,1.76,0,0,0-2.24-.36,2.81,2.81,0,0,1-.65-2.39c.34,0,.28.4.47.57.6-.61-.38-1-.15-1.58,1.14.1.07-.79.48-1.14.22-.19-.37-.27-.55-.21-.41.13-1.17-.48-1.21.51-.53.17-.63-.23-.76-.58-.35-.61-.65-.73-1.92-.75-.52.18-.65-.2-.79-.56.53,0,.44-.57.33-.74-.55-.92.08-.92.69-1a1.75,1.75,0,0,0,1,1c0,.27-.16.65.34.69a5,5,0,0,0,3.39.68c.53.21.61-1.39,1.35-.34-1.39,1.15-1.39,1.15,0,2.59,0,.74,0,1.46,0,2.19C27.06,18.58,27.28,18.76,27.77,18.71Z"/><path class="cls-64" d="M25.74,13.61a5,5,0,0,1-3.39-.68C23.64,12.37,24.88,12,25.74,13.61Z"/><path class="cls-65" d="M20,12.93a.87.87,0,0,0,.68.68c0,.34-.37.49-.52.76-.19-.13-.48-.09-.61-.35-.1-.78-.91-1.07-1.21-1.79-.19-.46-1.05-.82-1.44.29A2.14,2.14,0,0,1,15.6,14c-.89.34.28,1,.07,1.49-.88.07-.42-1.1-1.11-1.2.88-1.26.85-3.36,3.28-3.11C19.09,11.3,19.49,12.07,20,12.93Z"/><path class="cls-66" d="M14.56,14.29c.72.16.3,1.2,1,1.36v.25c.51.69.1,1.32-.14,2-.79-.31-.39-1.9-1.69-1.61-.81.18-1.65-.94-2.44.05a1,1,0,0,1-.13-.73Z"/><path class="cls-67" d="M11.18,15.65v.68c0,.32-.42.41-.35.74-.29.27-.18.83-.67,1H9.48A4.06,4.06,0,0,0,9.82,14a1.83,1.83,0,0,1,1,1Z"/><path class="cls-63" d="M12.53,22.46a1,1,0,0,1,0-1.36h.21a.8.8,0,0,1,.4.11c0,.55.61.53.86.85a2.26,2.26,0,0,0,2.35-.28c.6-.41,1.87-.22,1.9.5a2.56,2.56,0,0,0,.8,1.61c.5.58.55,0,.61-.41a4,4,0,0,1,.49,0c2.3,0,2.3,0,2.78-1.86.28-.16,1,.29.79-.59-.11-.49.2-.81.66-1,0,.5.42.3.68.34,0,.44.44.89-.37,1.3a8.09,8.09,0,0,0-1.94,1.9c.56.42,1.37.64,1.3,1.56,0,.51-.42.31-.68.34-1.56-1.25-2.66-1-4.1.47-.51.54-.52,1.73-1.69,1.55-1.11-.45-2.27-.82-3.36-1.34-.12-.8.65-.71,1-1a12.9,12.9,0,0,1,2.87,1.45c.34-2.3-.82-3.68-2.53-3.15C14.51,23.29,13.3,23.53,12.53,22.46Z"/><path class="cls-68" d="M17.61,27.56c.58.06.72-.4,1.06-.74.54-.56.87-1.26,1.69-1.72a2.15,2.15,0,0,1,3,.42c.17.61-.45.83-.65,1.29,1.17-.13,1.17-.13.65,1.1,0-.17.05-.44,0-.49-.64-.39-3.47.28-3.88.92-.14.22.21.36.19.58-.53-.08-.76.15-.68.69h-.33c-.05-.35-.49-.56-.34-1,0-.43-.44-.55-.63-.85C17.64,27.71,17.63,27.63,17.61,27.56Z"/><path class="cls-69" d="M28.11,24.16l-2.37,1H24.38c-.43-1.59.06-2.65,1.71-3.06a.39.39,0,0,1,.37.24c-.75.82-.62,1.56.35,1.78A6.27,6.27,0,0,0,28.11,24.16Z"/><path class="cls-70" d="M26.08,22.12a2.19,2.19,0,0,0-1.7,3.06h-.33c0-.9-.64-1.18-1.58-1.58a11.7,11.7,0,0,1,2.21-1.88c.8-.39.36-.85.38-1.3.73-.37.51.71,1,.68Z"/><path class="cls-71" d="M19.64,28.92c.15-.27-.6-.39-.07-.77,1.11-.81,2.44-.56,3.66-.87.05.21.09.42.14.63.08.62-.24.66-.77.71s-1.2-.44-1.6.3Z"/><path class="cls-72" d="M24.38,20.08c-.65.18-.66.67-.68,1.26,0,.94-.48-.2-.67.1a.35.35,0,0,1-.36-.25c1.06-.61.52-1.66.48-2.45,0-.44.19-1.54-.59-1.51s-1.25,1-1.17,1.72-.66,1.23-.64,1.94a.53.53,0,0,1-.4.22c-.59-.72-1.62-1-2-2a.64.64,0,0,1-.08-.45c.74-.45-.54-1.3.33-1.72,0-.11.07-.21.15-.22s.23.1.27.24c-.18.26-.06.55-.1.82-.12.84.48,1.09,1.09,1.2s.77-.57.91-1c.71-2.2,1.66-2.59,3.42-1.34a2.86,2.86,0,0,0,.68,2.39C24.51,19.18,24.7,19.8,24.38,20.08Z"/><path class="cls-73" d="M28.11,24.16a2.91,2.91,0,0,0-.66,0,1.49,1.49,0,0,1-1.56-.71c-.55-.73.58-.8.53-1.34.91-.25,1.37.26,1.69,1Z"/><path class="cls-74" d="M28.11,23.14c-.32-.75-.77-1.28-1.69-1h-.34v-1C27.73,20.8,28.4,21.48,28.11,23.14Z"/><path class="cls-75" d="M20,30.63c1.53-1.13,2.2-1,2.37.34C21.46,31.6,20.55,32.3,20,30.63Z"/><path class="cls-76" d="M18.29,28.59c-.17.43.28.66.34,1L16.93,31h-1l-.68-.34c-1-.62,0-1.59-.39-2.31.49,0,.54-.82,1.13-.66-.09.23-.05.49-.18.71-.6,1.15.49,1.07,1,1.2s1.4.41,1.07-.78A.48.48,0,0,1,18.29,28.59Z"/><path class="cls-77" d="M27.09,15.65c-1.44-.78-1.44-1.18,0-2.38a10.13,10.13,0,0,1,2,2.38v.68A2.36,2.36,0,0,0,27.09,15.65Z"/><path class="cls-78" d="M27.09,15.65a2.35,2.35,0,0,1,2,.68V17c-1.63-.38-1.38.76-1.36,1.7-.39,0-.74,0-.69-.59C27.14,17.3,27.09,16.47,27.09,15.65Z"/><path class="cls-79" d="M14.9,28.25c.33.76-.68,1.72.34,2.38a1.49,1.49,0,0,1-1.69-1c-.52-.82-.72-1.92-1.92-2.17-.1,0-.08-.58-.12-.9l.68.34C13.15,27.23,13.6,28.59,14.9,28.25Z"/><path class="cls-80" d="M14.9,28.25c-1.3.33-1.77-1-2.71-1.37,0-.23.11-.34.34-.34s.34-.1.34-.34h.34c.34.63.67.63,1,0l3.39,1.36H15.92Z"/><path class="cls-81" d="M15.58,23.48c1.6-.57,2.76.74,2.62,3.07l-3-1.37c-.09-.12-.16-.32-.27-.35-.49-.11-.9-.38-.65-.86s.66-.22,1,.09c.11.09.52.42.48-.17C15.79,23.75,15.65,23.62,15.58,23.48Z"/><path class="cls-63" d="M14.22,26.2c-.34.64-.67.64-1,0,0-.24-.12-.57.29-.66S13.7,26.3,14.22,26.2Z"/><path class="cls-63" d="M10.16,18c.55-.12.36-.74.68-1a.53.53,0,0,1,.42.2c-.22,1.3-.54,2.62,1.13,3.26.24.09.11.41.14.63C11,20.66,10,19.79,10.16,18Z"/><path class="cls-82" d="M24.38,16.67c-1.65-1.21-3-.79-3.39,1.08-.13.59-.14,1.4-1,1.28s-1.13-.69-1-1.52a5.89,5.89,0,0,0,0-.84c0-1,1.3-.9,1.44-1.77a2.68,2.68,0,0,1,2.29-.61.87.87,0,0,0,.68.68,1.61,1.61,0,0,0,1.35.68c-.18.59.75,1,.23,1.68C24.6,17.25,24.89,16.61,24.38,16.67Z"/><path class="cls-83" d="M24.72,15.65A1.61,1.61,0,0,1,23.37,15c0-1.32,1-.44,1.47-.67.2-.09.74,0,.32.3S26,15.85,24.72,15.65Z"/><path class="cls-84" d="M22.69,14.29a2.68,2.68,0,0,0-2.37.68v-.68l.34-.68A1.67,1.67,0,0,1,22.69,14.29Z"/><path class="cls-85" d="M15.58,15.65c-.91-1.84,1.62-2.24,1.55-3.73.37,0,1-.18,1.06.11,0,1.09,1.53,1.16,1.45,2.26a4.11,4.11,0,0,1-.7,0c-.31-.66-.79-1-1.36-.4s-1.27.88-1.58,1.64A.56.56,0,0,1,15.58,15.65Z"/><path class="cls-86" d="M19,14.29h1.36V15c-.07.87-1.43.71-1.36,1.7-.23,0-.34.11-.33.34-1,.34-.81-1.22-1.7-1a.86.86,0,0,1,.84-1A1.42,1.42,0,0,0,19,14.29Z"/><path class="cls-87" d="M15.58,15.65h.34c0,.3.26.38.46.49a4,4,0,0,1,.53,2.59c-.77.28-1.07,1.18-1.89,1.39-.31-.48.32-1-.12-1.51-1-1.81-2.06-2.27-3.72-1.6h-.34c.11-.23.22-.45.34-.68,1.73-.73,3.12-.19,4.15,1.61A2.88,2.88,0,0,0,15.58,15.65Z"/><path class="cls-88" d="M14.9,20.08c1,.07,1.15-1.22,2-1.37h1.36v.35a8.64,8.64,0,0,0-1.31,0c.81,1.54,2.28,2.65,2.66,4.38,0,.36-.05,1.07-.54.49a2.27,2.27,0,0,1-.85-1.69c.08-1.26-1.48-.29-1.82-1.12.18,1.74-1.39.58-2,1.17s-.53-.18-.57-.55A1.52,1.52,0,0,1,14.9,20.08Z"/><path class="cls-89" d="M14.9,20.08a1.5,1.5,0,0,0-1,1.7c-.72.36-.5-.72-1-.68a1.4,1.4,0,0,0-.34-1.22c-.85-.78-.08-1.46.35-2s.83.18,1.14.46a1,1,0,0,0,.88.34C15.38,19.16,14.81,19.62,14.9,20.08Z"/><path class="cls-90" d="M14.9,18.71a1.31,1.31,0,0,1-.75-.2c-.4-.27-.63-1.38-1.35-.53-.46.56-1.12,1.3-.15,2,.39.3.16.72.22,1.08h-.34c0-.17,0-.47,0-.49-1.84-.68-1.3-2.25-1.33-3.6C12.77,16.33,14.19,17,14.9,18.71Z"/><path class="cls-88" d="M20.32,21.1h.34c.57.76,1.37.12,2,.34H23c-.07,2.1-1.51,2.14-3.05,2C19.37,22.58,20.17,21.88,20.32,21.1Z"/><path class="cls-91" d="M20.32,21.1c-.15.78-.95,1.48-.34,2.38h-.34c-.39-1.76-1.8-2.89-2.74-4.42h1.39C18.74,20,19.66,20.4,20.32,21.1Z"/><path class="cls-92" d="M15.92,27.56h1.69l.68,1H18c-.76.36-1.52.78-2-.34Z"/><path class="cls-93" d="M22.69,21.44c-.66-.19-1.45.37-2-.34.36-1.1.69-2.21,1.11-3.28.13-.32.55-.52.83-.78a2.09,2.09,0,0,1,.46,1C23.23,19.23,23.62,20.39,22.69,21.44Z"/><path class="cls-94" d="M18.29,18.71H16.93A4,4,0,0,0,16.26,16h.67c.9-.21.73,1.36,1.7,1C17.67,17.41,19.19,18.3,18.29,18.71Z"/><path class="cls-95" d="M15.92,28.25c.5,1.12,1.27.71,2,.34-.14.34.36.94-.44,1a2.6,2.6,0,0,1-1.83-.49A.5.5,0,0,1,15.92,28.25Z"/><path class="cls-96" d="M16.93,16h-.67a.29.29,0,0,1-.34-.34c.93-1.72,2.14-2.26,3-1.36C18.63,15.27,16.82,14.48,16.93,16Z"/></svg>