<svg id="Icons" xmlns="http://www.w3.org/2000/svg" xmlns:xlink="http://www.w3.org/1999/xlink" viewBox="0 0 39.4 39.4"><defs><style>.cls-1{fill:#fff;}.cls-2{opacity:0.55;fill:url(#radial-gradient);}.cls-3{opacity:0.37;fill:url(#radial-gradient-2);}.cls-4{fill:url(#radial-gradient-3);}.cls-5{fill:url(#radial-gradient-4);}</style><radialGradient id="radial-gradient" cx="19.67" cy="19.66" r="35.1" gradientUnits="userSpaceOnUse"><stop offset="0" stop-color="#fff"/><stop offset="0.31" stop-color="#b7b7b7"/><stop offset="0.64" stop-color="#707070"/><stop offset="0.88" stop-color="#444"/><stop offset="1" stop-color="#333"/></radialGradient><radialGradient id="radial-gradient-2" cx="20.13" cy="15.79" r="47.9" xlink:href="#radial-gradient"/><radialGradient id="radial-gradient-3" cx="19.7" cy="19.7" r="14.21" gradientUnits="userSpaceOnUse"><stop offset="0" stop-color="#f0f0f0" stop-opacity="0"/><stop offset="1" stop-color="#666" stop-opacity="0.5"/></radialGradient><radialGradient id="radial-gradient-4" cx="29.19" cy="42.87" r="72.43" xlink:href="#radial-gradient-3"/></defs><title>Motion Sensor Revamp</title><circle class="cls-1" cx="19.67" cy="19.66" r="12.68"/><circle class="cls-2" cx="19.67" cy="19.66" r="12.68"/><rect class="cls-3" x="17.32" y="9.13" width="4.77" height="21.14"/><path class="cls-4" d="M19.7,33.91A14.21,14.21,0,1,1,33.91,19.7,14.23,14.23,0,0,1,19.7,33.91ZM19.7,7A12.66,12.66,0,1,0,32.36,19.7,12.68,12.68,0,0,0,19.7,7Z"/><path class="cls-5" d="M19.7,32.55A12.85,12.85,0,1,1,32.55,19.7,12.87,12.87,0,0,1,19.7,32.55Zm0-24.32A11.47,11.47,0,1,0,31.17,19.7,11.49,11.49,0,0,0,19.7,8.23Z"/></svg>