<svg id="Icons" xmlns="http://www.w3.org/2000/svg" viewBox="0 0 39.4 39.4"><defs><style>.cls-1{fill:#646869;}</style></defs><title>Resize GSBIG</title><path class="cls-1" d="M13.27,12.4a4.85,4.85,0,0,1-2.65-3.68.74.74,0,0,1,.74-.84h.3a7.47,7.47,0,0,0,6.06-3.13.76.76,0,0,1,.55-.31h.06a.75.75,0,0,1,.53.22,4.83,4.83,0,0,1-1.3,7.74,5.36,5.36,0,0,1,2.65,1.28A5.56,5.56,0,0,0,21,10.88v-3a5.55,5.55,0,0,0-3.94-5.31L16.38.75l-6.3,2.31.66,1.81a5.58,5.58,0,0,0-.91,3.05v3a5.56,5.56,0,0,0,.78,2.81A5.36,5.36,0,0,1,13.27,12.4Z"/><path class="cls-1" d="M18.33,5.2a8.21,8.21,0,0,1-6.67,3.43h-.3a4.09,4.09,0,1,0,7-3.42Z"/><path class="cls-1" d="M19.92,14.52h0c-.56-.92-2.37-1.59-4.51-1.59s-3.95.67-4.51,1.59h0L4,26.4a1.21,1.21,0,0,0,2.09,1.22l4-6.86-.56,5.07H21.29l-.57-5.07,4,6.86a1.22,1.22,0,0,0,1,.6,1.21,1.21,0,0,0,1-1.82Z"/><path class="cls-1" d="M26.9,10.63a.37.37,0,1,0-.74,0v4.76h.74Z"/><path class="cls-1" d="M28.49,10.63a.38.38,0,0,0-.75,0v4.76h.75Z"/><path class="cls-1" d="M30.07,10.63a.37.37,0,0,0-.37-.37.38.38,0,0,0-.37.37v4.76h.74Z"/><path class="cls-1" d="M31.66,10.63a.37.37,0,1,0-.74,0v4.76h.74Z"/><path class="cls-1" d="M33.25,10.63a.38.38,0,0,0-.75,0v4.76h.75Z"/><path class="cls-1" d="M34.46,10.26a.38.38,0,0,0-.37.37v4.76h.75V10.63A.38.38,0,0,0,34.46,10.26Z"/><path class="cls-1" d="M30.07,20.43V36.26a.38.38,0,0,0,.75,0V20.44a4.33,4.33,0,0,0,4-4.31H26.16A4.33,4.33,0,0,0,30.07,20.43Z"/><path class="cls-1" d="M19.79,26.58v3.93a4.38,4.38,0,1,1-8.76,0V26.58H9.41L7,35.23a20.06,20.06,0,0,0,17.75,3.59L21.41,26.58Z"/></svg>