<svg id="Icons" xmlns="http://www.w3.org/2000/svg" viewBox="0 0 39.4 39.4"><defs><style>.cls-1{fill:#646869;}</style></defs><title>Resize GSBIG</title><rect class="cls-1" x="12.35" y="1.37" width="9.52" height="3.6"/><path class="cls-1" d="M17.11,13.15A4.76,4.76,0,0,0,21.87,8.4h0V6.17H12.35V8.39h0A4.76,4.76,0,0,0,17.11,13.15Z"/><path class="cls-1" d="M37.17,13a5.72,5.72,0,0,0-2.75.95A6,6,0,0,1,37.09,12a.48.48,0,0,0-.31-.91A6.72,6.72,0,0,0,33.94,13a8.77,8.77,0,0,1,2-2.9.48.48,0,0,0,0-.68.49.49,0,0,0-.69,0,9.25,9.25,0,0,0-1.82,2.38l.34-2.64a.48.48,0,0,0-.42-.54.5.5,0,0,0-.54.42l-.34,2.63a9.2,9.2,0,0,0-1.15-2.76.49.49,0,0,0-.67-.14.49.49,0,0,0-.15.67,8.86,8.86,0,0,1,1.22,3.31,7,7,0,0,0-2.28-2.54.49.49,0,0,0-.67.14.48.48,0,0,0-.06.4A.45.45,0,0,0,29,11a6.09,6.09,0,0,1,2.11,2.49,5.73,5.73,0,0,0-2.43-1.62.49.49,0,0,0-.62.29.61.61,0,0,0,0,.3.47.47,0,0,0,.31.32,4.28,4.28,0,0,1,3,4.28.47.47,0,0,0,.41.53l1,.13a.48.48,0,0,0,.53-.42,4.29,4.29,0,0,1,4-3.37.48.48,0,1,0-.09-1Z"/><path class="cls-1" d="M31.62,18.6l-1,7.82L28.43,24.1l-.75-6.35a1.89,1.89,0,0,0-.09-.34A3.06,3.06,0,0,0,24.52,15H9.7a3.08,3.08,0,0,0-3.15,2.8L4.94,31.4a1.59,1.59,0,1,0,3.15.37L9.7,18.12h1.06v7.8h12.7v-7.8h1.06v0l.87,7.38,4.35,4.55a1.73,1.73,0,0,0,.41.3l-.31,2.52a.44.44,0,0,0,0,.2.47.47,0,0,0,.4.34.49.49,0,0,0,.55-.41l.3-2.48a1.61,1.61,0,0,0,.88-.42A1.58,1.58,0,0,0,32,27.87l-.53-.55,1.07-8.6Z"/><path class="cls-1" d="M21.54,31.68a4.43,4.43,0,0,1-8.86,0V27.61H10.76v9.53a13.86,13.86,0,0,0,12.7,0V27.61H21.54Z"/></svg>