<svg id="Icons" xmlns="http://www.w3.org/2000/svg" viewBox="0 0 39.4 39.4"><defs><style>.cls-1{fill:#646869;}</style></defs><title>Resize GSBIG</title><path class="cls-1" d="M36.54,26.86l-2.78-2.79a.37.37,0,0,0-.4-.09l-2.43.85-1.16.4a27.18,27.18,0,0,1-1.13-9c0-6.78-.19-12.15-2.58-14.52A4.71,4.71,0,0,0,22.63.41h-.08a4.47,4.47,0,0,0-3.36,1.47c-3,3.22-2.35,10.88-2,16,.06.78.11,1.48.14,2.06a.72.72,0,0,0,.74.67h0a.7.7,0,0,0,.67-.75c0-.59-.08-1.3-.15-2.09-.35-4.53-.94-12.11,1.58-14.87a3,3,0,0,1,2.32-1,3.24,3.24,0,0,1,2.49.9c2,2,2.16,7.28,2.16,13.5,0,5,.61,7.83,1.2,9.46l-1.15.4L24,27.24a.39.39,0,0,0-.14.64l2.78,2.79a.41.41,0,0,0,.41.09l9.34-3.27A.38.38,0,0,0,36.54,26.86Z"/><path class="cls-1" d="M7.4,25.65c-1,0-1.89,2-1.89,4.41s.85,4.42,1.89,4.42,1.89-2,1.89-4.42S8.45,25.65,7.4,25.65Z"/><path class="cls-1" d="M35.53,28.92l-9,3.27-1.9-1.9a.69.69,0,0,0-1,0,.7.7,0,0,0,0,1l2.22,2.22a.67.67,0,0,0,.49.21.64.64,0,0,0,.24,0L36,30.24a.7.7,0,0,0-.48-1.32Z"/><path class="cls-1" d="M19.61,13.25c.06,1.61.18,3.15.28,4.37.06.81.12,1.53.15,2.12a2,2,0,0,1-1.83,2.05h-.09a1.93,1.93,0,0,1-2-1.84c0-.57-.08-1.25-.14-2-.18-2.2-.38-4.88-.33-7.51a8.14,8.14,0,0,0-3-.55c-3,0-6.06,2.48-6.06,4.29,0,1-.09,6.07-.17,10.52a2.14,2.14,0,0,1,.93-.24c1.84,0,3.12,2.32,3.12,5.63a8.52,8.52,0,0,1-.85,4,12,12,0,0,0,3,1.72c.87,0,8.66-2.08,8.66-3.2s.86-16.71-.87-18.44Zm.54,17.94-4.8,1.67a.45.45,0,0,1-.16,0,.49.49,0,0,1-.17-1l4.8-1.68a.5.5,0,1,1,.33.94Zm0-2.34-4.8,1.68a.45.45,0,0,1-.16,0,.49.49,0,0,1-.17-1l4.8-1.68a.49.49,0,1,1,.33.93Zm0-2.73-4.8,1.68a.45.45,0,0,1-.16,0,.5.5,0,0,1-.47-.33.51.51,0,0,1,.3-.64l4.8-1.68a.51.51,0,0,1,.64.31A.5.5,0,0,1,20.15,26.12Z"/></svg>