<svg id="Icons" xmlns="http://www.w3.org/2000/svg" viewBox="0 0 39.4 39.4"><defs><style>.cls-1{fill:#646869;}</style></defs><title>Resize GSBIG</title><path class="cls-1" d="M22.7,34.64l9.81-5a.81.81,0,0,0,.09-1.38l-5.66-3.84a.79.79,0,0,0-.81-.06l-2.6,1.32c-.47-1.19-1.94-5.6-3.15-9.22-1-3.07-1.77-5.31-2.33-6.94l-1.2-3.37c-.28-.72-.42-1-.54-1A28.66,28.66,0,0,0,13,3.22l1.84-.94a.78.78,0,0,0,.35-1.06A.78.78,0,0,0,14.08.87L7.79,4.05a.79.79,0,0,0,.36,1.5.77.77,0,0,0,.36-.09l2.64-1.33.11.07a34.36,34.36,0,0,1,4,2.17c.17.4.61,1.64,1.14,3.21l.27.84a.79.79,0,0,1-.5,1l-.13,0a.79.79,0,0,1-.87-.53L14.09,7.66,11.9,8.83a1.37,1.37,0,0,0-.63,1,64.2,64.2,0,0,0-1,10.92c-.15,6,8.75,3.67,10.91,3,.46,1.35.78,2.23,1,2.7l-5.84,3a.79.79,0,0,0-.09,1.37l5.72,3.82A.79.79,0,0,0,22.7,34.64Z"/><path class="cls-1" d="M34.5,31.56a.88.88,0,0,0-1.18-.39l-11,5.55-4.56-3a.88.88,0,0,0-1,1.47l5,3.32a.88.88,0,0,0,.49.15.78.78,0,0,0,.39-.1l11.43-5.78A.87.87,0,0,0,34.5,31.56Z"/><ellipse class="cls-1" cx="14.37" cy="33.66" rx="1.17" ry="1.77"/><path class="cls-1" d="M25.08,15.59c-.28-1-3.87-7.12-4.79-9.68a.82.82,0,0,0-1.14-.45l-.75.34,5.36,16C25.74,19.85,25.43,16.89,25.08,15.59Z"/></svg>