<svg id="Icons" xmlns="http://www.w3.org/2000/svg" viewBox="0 0 39.4 39.4"><defs><style>.cls-1{fill:#646869;}</style></defs><title>Resize GSBIG</title><rect class="cls-1" x="4.4" y="26.72" width="2.28" height="6.12" rx="1.14"/><path class="cls-1" d="M19.9,26.72a1.14,1.14,0,0,0-1.14,1.14V31.7a1.14,1.14,0,1,0,2.28,0V27.86A1.14,1.14,0,0,0,19.9,26.72Z"/><path class="cls-1" d="M15.78,10h-.85v1.52c0,.65-1,1.52-2.17,1.52s-2.17-.85-2.17-1.55V10H9.66c-2.91,0-5.26.84-5.26,3.74V25.31c.11,0,.23,0,.34-.07,1.48-.53,3.39.21,3.39,1.86v5.72h9.2V27.1c0-1.65,1.91-2.39,3.39-1.86.11,0,.23,0,.34.07V13.75C21,10.85,18.69,10,15.78,10Zm0,12.29H9.68a.76.76,0,0,1,0-1.52h6.08a.76.76,0,1,1,0,1.52Zm0-3H9.68a.76.76,0,0,1,0-1.52h6.08a.76.76,0,0,1,0,1.52Zm0-3H9.68a.76.76,0,1,1,0-1.52h6.08a.76.76,0,1,1,0,1.52Z"/><path class="cls-1" d="M34,31.29H24.17a.77.77,0,0,0,0,1.54H34a.77.77,0,0,0,0-1.54Z"/><path class="cls-1" d="M33.78,26.72h-4V7.79c0-4.24-4-7.69-8.89-7.69s-8.69,3.28-8.88,7.37a.29.29,0,0,0,0,.09v.22h0v3a.73.73,0,0,0,.72.73.73.73,0,0,0,.73-.73v-3c0-3.43,3.34-6.23,7.45-6.23s7.45,2.8,7.45,6.24V26.72H24.44a1,1,0,0,0-1,1v1a1,1,0,0,0,1,1h9.34a1,1,0,0,0,1-1v-1A1,1,0,0,0,33.78,26.72Z"/></svg>