<svg id="Icons" xmlns="http://www.w3.org/2000/svg" viewBox="0 0 39.4 39.4"><defs><style>.cls-1{fill:#646869;}</style></defs><title>Resize GSBIG</title><path class="cls-1" d="M15.06,27.23a6.33,6.33,0,0,1-3.15-7.11.72.72,0,0,0-1.41-.28,8.53,8.53,0,0,0,.22,4.32,9,9,0,0,1-1.57-4.57.72.72,0,0,0-.75-.69.71.71,0,0,0-.68.75,10.18,10.18,0,0,0,1.5,4.82,12.92,12.92,0,0,1-3.3-4,.71.71,0,1,0-1.28.63,13.46,13.46,0,0,0,2.64,3.57L3.66,23.05a.72.72,0,0,0-.57,1.32L6.7,25.94a13.26,13.26,0,0,0-4.4.51.71.71,0,0,0-.48.89.71.71,0,0,0,.89.48,13,13,0,0,1,5.21-.36,10.38,10.38,0,0,0-4.55,2.19.72.72,0,0,0,.47,1.27.71.71,0,0,0,.47-.18,9,9,0,0,1,4.41-2,8.47,8.47,0,0,0-3.3,2.79.72.72,0,0,0,1.16.84,6.34,6.34,0,0,1,7.35-2.56.71.71,0,0,0,.93-.36l.57-1.32A.71.71,0,0,0,15.06,27.23Z"/><path class="cls-1" d="M28.14,33.67,16.82,28.76l-.57,1.32L27.57,35a.72.72,0,0,0,.29.06.7.7,0,0,0,.65-.43A.72.72,0,0,0,28.14,33.67Z"/><path class="cls-1" d="M17.51,8.58,25.63,12a1.83,1.83,0,0,1,.86,1.07l-.06.67,9.84-4-.16-.53A4,4,0,0,0,35.51,8l-.1-.12L27.24,4.37a.23.23,0,0,0-.2,0L17.51,8.1A.26.26,0,0,0,17.51,8.58Z"/><path class="cls-1" d="M37.7,12.22,37.61,12l-1.73-.82L25.6,15.31s1.14.45,1.37.93a8,8,0,0,1,.79,3.36,14,14,0,0,1-.05,2.14A6.15,6.15,0,0,1,27.26,23L37,19.11l.16-.1a4.16,4.16,0,0,0,1.33-3.12A10.57,10.57,0,0,0,37.7,12.22Z"/><path class="cls-1" d="M23,20.17a.6.6,0,0,0,.8-.31.61.61,0,0,0-.31-.8l-8.14-3.55a.61.61,0,0,0-.72.18,3,3,0,0,0-.57,1.7,6.09,6.09,0,0,0,.49,2,.62.62,0,0,0,.32.32l9.63,4.19a.7.7,0,0,0,.25.05.62.62,0,0,0,.38-.14,4.16,4.16,0,0,0,1.34-3.12,10.5,10.5,0,0,0-.78-3.67.71.71,0,0,0-.32-.32l-9.79-4.26a4.77,4.77,0,0,1-.3-1.34,1.65,1.65,0,0,1,.11-.57L24,14.33a.61.61,0,0,0,.48-1.12l-9.18-4a.59.59,0,0,0-.57.07.53.53,0,0,0-.2.22A2.9,2.9,0,0,0,14,11.13a6.17,6.17,0,0,0,.49,2,.61.61,0,0,0,.32.31l9.78,4.27a8.94,8.94,0,0,1,.6,3,3.06,3.06,0,0,1-.65,1.92l-9-3.92a4.62,4.62,0,0,1-.3-1.33,1.68,1.68,0,0,1,.1-.54Z"/></svg>