<svg id="Icons" xmlns="http://www.w3.org/2000/svg" viewBox="0 0 39.4 39.4"><defs><style>.cls-1{fill:#646869;}</style></defs><title>Resize GSBIG</title><path class="cls-1" d="M19.7.42h0A11.21,11.21,0,0,0,8.49,11.63a10.69,10.69,0,0,0,.08,1.27c0,.06,0,.12,0,.18a9.6,9.6,0,0,0,.2,1.07c0,.08,0,.16.06.25a7.25,7.25,0,0,0,.22.76c1.57,5,6,9.15,6.55,13.79h0a1,1,0,0,0,1,1h6.12a1,1,0,0,0,1-1h0c.58-4.64,5-8.76,6.56-13.79.07-.25.15-.51.21-.76,0-.09.05-.17.06-.25a9.6,9.6,0,0,0,.2-1.07c0-.06,0-.12,0-.18a10.69,10.69,0,0,0,.08-1.27A11.21,11.21,0,0,0,19.7.42ZM17.59,12l-1.66,1.39a.16.16,0,0,0,0,.19l.82,2.14a.17.17,0,0,1-.25.21l-1.92-1.15a.17.17,0,0,0-.2,0l-1.67,1.4a.17.17,0,0,1-.28-.16l.43-2.18a.16.16,0,0,0-.07-.18l-1.86-1.21a.17.17,0,0,1,.07-.31l2.23-.22a.18.18,0,0,0,.15-.13l.55-2.1a.17.17,0,0,1,.32,0l.9,2a.18.18,0,0,0,.16.1l2.22-.09A.17.17,0,0,1,17.59,12Zm6.33,5.23-1.22,1a.12.12,0,0,0,0,.14l.6,1.57a.12.12,0,0,1-.18.15l-1.41-.84a.14.14,0,0,0-.15,0l-1.23,1a.12.12,0,0,1-.2-.11l.32-1.61a.12.12,0,0,0-.06-.13L19,17.56a.13.13,0,0,1,.06-.23l1.64-.16a.13.13,0,0,0,.11-.09l.4-1.55a.13.13,0,0,1,.24,0L22.09,17a.14.14,0,0,0,.12.07L23.83,17A.13.13,0,0,1,23.92,17.22ZM28.49,6.69l-2.87,2.4a.29.29,0,0,0-.08.33L27,13.1a.3.3,0,0,1-.43.36l-3.31-2a.3.3,0,0,0-.34,0L20,13.93a.29.29,0,0,1-.47-.28l.74-3.76a.3.3,0,0,0-.13-.3L16.92,7.5A.3.3,0,0,1,17.05,7l3.84-.37a.3.3,0,0,0,.25-.22l.95-3.63a.29.29,0,0,1,.55,0L24.2,6.15a.29.29,0,0,0,.27.18l3.82-.15A.29.29,0,0,1,28.49,6.69Z"/><path class="cls-1" d="M23.24,31.47H16.16a.75.75,0,1,0,0,1.5h7.08a.75.75,0,0,0,0-1.5Z"/><path class="cls-1" d="M23.24,34.48H16.16a.75.75,0,0,0,0,1.5h7.08a.75.75,0,1,0,0-1.5Z"/><path class="cls-1" d="M20.45,37.48H19A.75.75,0,1,0,19,39h1.5a.75.75,0,0,0,0-1.5Z"/></svg>