<svg id="Icons" xmlns="http://www.w3.org/2000/svg" viewBox="0 0 39.4 39.4"><defs><style>.cls-1{fill:#646869;}</style></defs><title>Resize GSBIG</title><path class="cls-1" d="M15.11,15c-2.46,0-4.07,2-4.07,5s1.47,4.87,3.93,4.87h0c2.33,0,4.06-1.7,4.06-5C19.05,17.13,17.66,15,15.11,15Zm0,8.45h0c-1.47,0-2.26-1.64-2.25-3.53s.74-3.55,2.27-3.55,2.23,1.73,2.23,3.5C17.29,21.84,16.53,23.46,15.06,23.46Z"/><path class="cls-1" d="M27.51,15.91a2,2,0,0,1,.7.12l.15-1.29a3.07,3.07,0,0,0-1.07-.17,2.45,2.45,0,0,0-1.73.65,3.16,3.16,0,0,0-.78,2.26v.32H22.46v-.26c0-.86.23-1.48,1-1.48a1.42,1.42,0,0,1,.58.12l.29-1.26a2.67,2.67,0,0,0-.9-.17,2.5,2.5,0,0,0-1.85.67,3.13,3.13,0,0,0-.74,2.21v.17h-.92V19h.92v5.66h1.67V19h2.31v5.66h1.67V19h1.42V17.8H26.44v-.37C26.44,16.62,26.71,15.91,27.51,15.91Z"/></svg>