<svg id="Icons" xmlns="http://www.w3.org/2000/svg" viewBox="0 0 39.4 39.4"><defs><style>.cls-1{fill:#646869;}</style></defs><title>Resize GSBIG</title><path class="cls-1" d="M2.25,28a3.38,3.38,0,0,0,3.39,3.38H31A3.38,3.38,0,0,0,34.37,28v-.44H2.25Z"/><path class="cls-1" d="M35.09,9.66H31.32V7.72a.86.86,0,0,0-.86-.85H6.14a.83.83,0,0,0-.83.83v9.44a6.56,6.56,0,0,0,6.56,6.56h-.44v1.56a.74.74,0,0,0,.74.73H24.46a.74.74,0,0,0,.74-.73V23.7h-.43a6.53,6.53,0,0,0,6.12-4.3h4.2a2.61,2.61,0,0,0,2.61-2.61V12.28A2.61,2.61,0,0,0,35.09,9.66Zm.55,7.13a.55.55,0,0,1-.55.55H31.3c0-.07,0-.13,0-.19V11.73h3.77a.55.55,0,0,1,.55.55Z"/></svg>