<svg id="Icons" xmlns="http://www.w3.org/2000/svg" viewBox="0 0 39.4 39.4"><defs><style>.cls-1{fill:#646869;}</style></defs><title>Resize GSBIG</title><path class="cls-1" d="M32,25.09,27.56,13.62a.54.54,0,0,0-.51-.35h-6.6V2.49h1.12a.54.54,0,0,0,.51-.37L22.71.23h-6l.63,1.89a.54.54,0,0,0,.51.37H19V13.27h-6.6a.54.54,0,0,0-.51.35L7.43,25.09a.54.54,0,0,0,.51.74H31.46A.54.54,0,0,0,32,25.09Z"/><path class="cls-1" d="M19.7,33a.92.92,0,0,0-.92.92v4.57a.92.92,0,1,0,1.83,0V33.88A.92.92,0,0,0,19.7,33Z"/><path class="cls-1" d="M24.41,33a.92.92,0,0,0-1.7.69l1.72,4.24a.92.92,0,0,0,1.7-.68Z"/><path class="cls-1" d="M16.17,32.45A.92.92,0,0,0,15,33L13.26,37.2a.92.92,0,0,0,1.7.68l1.71-4.24A.91.91,0,0,0,16.17,32.45Z"/><path class="cls-1" d="M27.75,30.93a.91.91,0,0,0-1.29,1.29l3.24,3.24A.92.92,0,1,0,31,34.16Z"/><path class="cls-1" d="M12.93,30.93a.92.92,0,0,0-1.3,0L8.4,34.16a.92.92,0,1,0,1.29,1.3l3.24-3.24A.91.91,0,0,0,12.93,30.93Z"/><path class="cls-1" d="M19.69,28.58a5.62,5.62,0,0,0,3.5-1.21.18.18,0,0,0-.11-.33H16.29a.19.19,0,0,0-.11.33A5.67,5.67,0,0,0,19.69,28.58Z"/></svg>