<svg id="Icons" xmlns="http://www.w3.org/2000/svg" viewBox="0 0 39.4 39.4"><defs><style>.cls-1{fill:#656869;}</style></defs><title>Resize GSBIG</title><path class="cls-1" d="M19.75,5.65H12.67s.76,13.58,7,13.72h.1c6.22-.14,7-13.72,7-13.72Zm0,12.43h-.08C14.83,18,14.23,7,14.23,7H25.16S24.58,18,19.74,18.08Z"/><path class="cls-1" d="M19.7,20.07h-.05c-6.22.15-7,13.72-7,13.72H26.73s-.76-13.57-7-13.72H19.7Zm5.46,12.35H14.23s.6-11,5.43-11.06h.08C24.58,21.47,25.16,32.42,25.16,32.42Z"/><path class="cls-1" d="M19.73,11.1H16s.4,5.66,3.69,5.72h.05c3.29-.06,3.68-5.72,3.68-5.72Z"/><path class="cls-1" d="M19.73,26.44h-.06c-4.08.06-4.57,5.36-4.57,5.36h9.2s-.49-5.3-4.57-5.36Z"/><path class="cls-1" d="M19,22.88a.67.67,0,1,0,.67-.67A.67.67,0,0,0,19,22.88Z"/><path class="cls-1" d="M20.37,24.89a.67.67,0,1,0-.67.67A.67.67,0,0,0,20.37,24.89Z"/><path class="cls-1" d="M10.4,4.25H29a.76.76,0,0,0,.74-.79A.76.76,0,0,0,29,2.67H10.4a.76.76,0,0,0-.74.79A.76.76,0,0,0,10.4,4.25Z"/><path class="cls-1" d="M29,35.15H10.4a.79.79,0,0,0,0,1.58H29a.79.79,0,0,0,0-1.58Z"/></svg>