<svg id="Icons" xmlns="http://www.w3.org/2000/svg" viewBox="0 0 39.4 39.4"><defs><style>.cls-1{fill:#646869;}</style></defs><title>Resize GSBIG</title><path class="cls-1" d="M9.42,27.33a1,1,0,0,0-1.34.45L6,32a1,1,0,0,0,.45,1.35,1,1,0,0,0,.45.1,1,1,0,0,0,.89-.55l2.11-4.22A1,1,0,0,0,9.42,27.33Z"/><path class="cls-1" d="M31.64,27.78a1,1,0,1,0-1.79.89L32,32.89a1,1,0,0,0,.9.55,1,1,0,0,0,.45-.1A1,1,0,0,0,33.75,32Z"/><path class="cls-1" d="M35.16,12.44a1,1,0,0,0-1.24.68l-2.17,7.41H22.67a.67.67,0,0,0,0,1.34h2.14v2.54h-19a1,1,0,0,0,0,2H33.9a1,1,0,1,0,0-2H32.71l3.13-10.72A1,1,0,0,0,35.16,12.44Zm-4.54,12H26.14V21.87h5.22Z"/><path class="cls-1" d="M6,10.18H6a.7.7,0,0,0,.44.18h12V23H19.8V10.36h12a.67.67,0,0,0,.35-1.24L19.48,1.39a.68.68,0,0,0-.7,0L6.15,9.11l-.07.05L6,9.29a.78.78,0,0,0-.13.34v.12a.68.68,0,0,0,.13.33Z"/><path class="cls-1" d="M18.46,32.61a.67.67,0,1,0,1.34,0V27.88H18.46Z"/></svg>