<svg id="Icons" xmlns="http://www.w3.org/2000/svg" viewBox="0 0 39.4 39.4"><defs><style>.cls-1{fill:#646869;}</style></defs><title>Resize GSBIG</title><path class="cls-1" d="M34.65,9.07V29.54H21.3c0,.81-1.05,1-1.61,1s-1.6-.21-1.6-1H4.73V9.07a1.7,1.7,0,0,0-1.58,1.57V31.12H17.33a3.45,3.45,0,0,0,2.36.79,3.42,3.42,0,0,0,2.36-.79H36.23V10.64A1.7,1.7,0,0,0,34.65,9.07Z"/><path class="cls-1" d="M7.09,28H18.9V9.07a1.57,1.57,0,0,0-1.57-1.58H7.09a.79.79,0,0,0-.78.79v18.9A.78.78,0,0,0,7.09,28ZM9.45,10.64h7.09v1.58H9.45Zm0,2.37h7.09v1.57H9.45Zm0,2.36h7.09v1.57H9.45Zm0,2.36h7.09v1.58H9.45Zm0,2.36h7.09v1.58H9.45Zm0,2.37h7.09V24H9.45Z"/><path class="cls-1" d="M33.08,27.18V8.28a.79.79,0,0,0-.79-.79H22.05a1.58,1.58,0,0,0-1.57,1.58V28H32.29A.79.79,0,0,0,33.08,27.18ZM29.93,24H22.84V22.46h7.09Zm0-2.36H22.84V20.09h7.09Zm0-2.36H22.84V17.73h7.09Zm0-2.37H22.84V15.37h7.09Zm0-2.36H22.84V13h7.09Zm0-2.36H22.84V10.64h7.09Z"/></svg>