<svg id="Icons" xmlns="http://www.w3.org/2000/svg" viewBox="0 0 39.4 39.4"><defs><style>.cls-1{fill:#656869;}</style></defs><title>Resize GSBIG</title><rect class="cls-1" x="14.47" y="22.33" width="9.97" height="16.64" rx="1.17"/><path class="cls-1" d="M18.31,20.8a6.78,6.78,0,0,1-.77-3.42c0-2.33,2.3-4,2.3-4s1.74,2.09,1.74,3.63a7.73,7.73,0,0,1-1,3.78s3.07-1.54,3.07-3.83c0-2.88-3.84-7.67-3.84-7.67s-5.36,3.83-5.36,6.9S18.31,20.8,18.31,20.8Z"/><path class="cls-1" d="M19.46,4.83a.58.58,0,0,0,.59-.59V.59a.59.59,0,0,0-1.18,0V4.24A.58.58,0,0,0,19.46,4.83Z"/><path class="cls-1" d="M8.49,15.8a.59.59,0,0,0-.59-.59H4.25a.59.59,0,0,0-.59.59.58.58,0,0,0,.59.59H7.9A.58.58,0,0,0,8.49,15.8Z"/><path class="cls-1" d="M34.67,15.21H31a.59.59,0,0,0-.59.59.58.58,0,0,0,.59.59h3.65a.58.58,0,0,0,.59-.59A.59.59,0,0,0,34.67,15.21Z"/><path class="cls-1" d="M27.63,8.22a.59.59,0,0,0,.42-.17l2.58-2.59a.59.59,0,0,0-.83-.83L27.22,7.21a.6.6,0,0,0,0,.84A.58.58,0,0,0,27.63,8.22Z"/><path class="cls-1" d="M10.87,23.56,8.29,26.14a.6.6,0,0,0,0,.84.58.58,0,0,0,.41.17A.59.59,0,0,0,9.12,27l2.58-2.59a.59.59,0,0,0-.83-.83Z"/><path class="cls-1" d="M9.12,4.63a.59.59,0,1,0-.83.83l2.58,2.59a.59.59,0,0,0,.42.17.58.58,0,0,0,.41-.17.6.6,0,0,0,0-.84Z"/><path class="cls-1" d="M28.05,23.56a.59.59,0,0,0-.83.83L29.8,27a.59.59,0,0,0,.42.17.58.58,0,0,0,.41-.17.6.6,0,0,0,0-.84Z"/><path class="cls-1" d="M29.59,11.6a.61.61,0,0,0,.55.37.48.48,0,0,0,.23-.05l3.37-1.39a.6.6,0,0,0,.32-.77.58.58,0,0,0-.77-.32l-3.38,1.39A.6.6,0,0,0,29.59,11.6Z"/><path class="cls-1" d="M9.33,20a.61.61,0,0,0-.78-.32l-3.37,1.4a.59.59,0,0,0,.23,1.13.57.57,0,0,0,.22,0L9,20.77A.59.59,0,0,0,9.33,20Z"/><path class="cls-1" d="M15,5.71a.57.57,0,0,0,.22,0,.59.59,0,0,0,.32-.77L14.19,1.52a.6.6,0,1,0-1.1.46l1.4,3.37A.58.58,0,0,0,15,5.71Z"/><path class="cls-1" d="M33.74,21.08l-3.37-1.4a.61.61,0,0,0-.78.32.59.59,0,0,0,.32.77l3.38,1.4a.57.57,0,0,0,.22,0,.59.59,0,0,0,.23-1.13Z"/><path class="cls-1" d="M5.18,10.53l3.37,1.39a.48.48,0,0,0,.23.05.61.61,0,0,0,.55-.37A.6.6,0,0,0,9,10.83L5.63,9.44a.58.58,0,0,0-.77.32A.6.6,0,0,0,5.18,10.53Z"/><path class="cls-1" d="M25.51,1.2a.61.61,0,0,0-.78.32L23.34,4.9a.59.59,0,0,0,.32.77.57.57,0,0,0,.22,0,.58.58,0,0,0,.55-.36L25.83,2A.6.6,0,0,0,25.51,1.2Z"/></svg>