<svg id="Icons" xmlns="http://www.w3.org/2000/svg" viewBox="0 0 39.4 39.4"><defs><style>.cls-1{fill:#646869;}</style></defs><title>Resize GSBIG</title><path class="cls-1" d="M31.11,27.56H25.87L21.12,30l5.63,2.81h4.36a2.62,2.62,0,1,0,0-5.23Z"/><circle class="cls-1" cx="19.76" cy="4.44" r="4.36"/><path class="cls-1" d="M12.79,35.41a2.61,2.61,0,0,0,4.57,1.73l1.17-.6-5.25-2.62A2.56,2.56,0,0,0,12.79,35.41Z"/><path class="cls-1" d="M24.51,33l-4.68-2.34-6.17-3.08H8.42a2.62,2.62,0,1,0,0,5.23h5.24l.58.29,5.59,2.8.81.41.19.09A2.64,2.64,0,1,0,24.51,33Z"/><path class="cls-1" d="M37.79,24.11c-.28-.42-.91-.35-1.54,0a2.35,2.35,0,0,1-2.09.28l-4.42-1.63L28.87,14h0c0-1.75-2.12-3.5-9.1-3.5s-9.11,1.75-9.11,3.5h0l-.87,8.72L5.37,24.39a2.36,2.36,0,0,1-2.09-.28c-.63-.35-1.25-.42-1.54,0a1.15,1.15,0,0,0,.34,1.6,3.26,3.26,0,0,0,2.49.67l6.09-1c1.74-.47,1.74-2.62,1.74-2.62l.83-8.28,1.3-.44V26.25l5.24,2.62L25,26.25V14l1.3.44.83,8.28s0,2.15,1.74,2.62l6.09,1a3.26,3.26,0,0,0,2.49-.67A1.15,1.15,0,0,0,37.79,24.11Z"/></svg>