<svg id="Icons" xmlns="http://www.w3.org/2000/svg" viewBox="0 0 39.4 39.4"><defs><style>.cls-1{fill:#646869;}</style></defs><title>Resize GSBIG</title><path class="cls-1" d="M15.37,14.46a5.21,5.21,0,0,1-1.25-3.2,3.22,3.22,0,0,1,1.82-2.9c1.39.91,2.3,1.73,2.3,3.49a5.56,5.56,0,0,1-.49,2.61s3.95-.5,3.95-4c0-3-1.78-4.43-3.17-5.44-.5-.37-2.7-2-2.7-3.36,0-1.08-.71-1-.71,0,0,1.81-4,4.69-4,8.59C11.15,13.17,12.88,14.46,15.37,14.46Z"/><path class="cls-1" d="M33.74,25.21c.1-2.47-4.15-2.79-5.53-3A5.53,5.53,0,0,0,27.56,21V17.38a.76.76,0,0,0-.81-.81H6.47a.76.76,0,0,0-.81.81V31.17A2.43,2.43,0,0,0,8.1,33.6H17a4.19,4.19,0,0,0,.41,2.23,2.12,2.12,0,0,0,1.3,1.09,1.84,1.84,0,0,0,.53.08c1.45,0,3.34-1.61,4.22-2.43a7.48,7.48,0,0,0,4.45,2.09,3.44,3.44,0,0,0,1.2-.21c2.62-.94,1.79-5.15,1.42-6.59C31.44,29.17,33.65,27.26,33.74,25.21Zm-4.28,3.88-.38.26.14.44c.37,1.24,1.07,4.9-.52,5.47a2.19,2.19,0,0,1-.77.13h0c-1.93,0-4-2.11-4-2.13l-.45-.48-.46.47c-.94,1-2.78,2.48-3.76,2.48a.47.47,0,0,1-.17,0,.88.88,0,0,1-.54-.47c-.68-1.3.08-4.36.43-5.44l.16-.49-.45-.25c-1.2-.67-3.59-2.42-3.39-3.56s3.14-1.65,5.09-1.78l.42,0,.14-.4c.65-1.91,2-4.57,2.94-4.59h0c1.49,0,2.85,3.08,3.21,4.17l.12.37.39.06,1.18.14c2.3.26,3.7.51,3.65,1.72C32.4,26.72,30.28,28.52,29.46,29.09Z"/><path class="cls-1" d="M24.63,26.33s-.3-.91-.75-.89-.68,1-.68,1-1,.07-1.11.45.72.82.72.82-.38,1.16.11,1.31c.3.09.88-.52.88-.52s.57.6,1.06.43.18-1.22.18-1.22.62-.43.63-.86S25.09,26.4,24.63,26.33Z"/></svg>