<svg id="Icons" xmlns="http://www.w3.org/2000/svg" viewBox="0 0 39.4 39.4"><defs><style>.cls-1{fill:#646869;}</style></defs><title>Resize GSBIG</title><rect class="cls-1" x="2.9" y="27.48" width="33.57" height="1.46" rx="0.52"/><path class="cls-1" d="M19.77,6a.87.87,0,0,0,.88-.88V1.61a.88.88,0,1,0-1.76,0V5.08A.88.88,0,0,0,19.77,6Z"/><path class="cls-1" d="M5.21,20a.88.88,0,0,0-.88-.88H.85a.88.88,0,0,0,0,1.76H4.33A.88.88,0,0,0,5.21,20Z"/><path class="cls-1" d="M38.52,19.13H35a.88.88,0,1,0,0,1.76h3.48a.88.88,0,0,0,0-1.76Z"/><path class="cls-1" d="M13.27,6.22a.89.89,0,0,0,1.15.48.87.87,0,0,0,.47-1.15L13.56,2.34A.88.88,0,1,0,11.94,3Z"/><path class="cls-1" d="M25,6.87A.87.87,0,0,0,26.1,6.4l1.33-3.21a.88.88,0,0,0-1.62-.68L24.48,5.72A.87.87,0,0,0,25,6.87Z"/><path class="cls-1" d="M8.62,9.33a.88.88,0,0,0,1.24,0,.86.86,0,0,0,0-1.24L7.41,5.63A.88.88,0,0,0,6.16,6.87Z"/><path class="cls-1" d="M32.89,13.53A.89.89,0,0,0,34,14l3.21-1.33a.88.88,0,0,0-.67-1.63l-3.22,1.33A.88.88,0,0,0,32.89,13.53Z"/><path class="cls-1" d="M2.12,12.5l3.21,1.33A.88.88,0,0,0,6,12.21L2.8,10.88a.88.88,0,1,0-.68,1.62Z"/><path class="cls-1" d="M30.75,9.5l2.46-2.45a.89.89,0,0,0,0-1.25A.88.88,0,0,0,32,5.8L29.51,8.26a.88.88,0,0,0,0,1.24A.86.86,0,0,0,30.75,9.5Z"/><path class="cls-1" d="M8.53,25.29H30.85a12.36,12.36,0,1,0-22.32,0Z"/></svg>