<svg id="Icons" xmlns="http://www.w3.org/2000/svg" viewBox="0 0 39.4 39.4"><defs><style>.cls-1{fill:#656869;}</style></defs><title>Resize GSBIG</title><path class="cls-1" d="M26.79,15.67a7.25,7.25,0,0,0,.29-2,7.12,7.12,0,0,0-14.23,0,7.25,7.25,0,0,0,.28,2A7.11,7.11,0,1,0,20,27.49a7.11,7.11,0,1,0,6.83-11.82Zm-1.06,2.16a4.85,4.85,0,0,1,3,1.66H24.05A7,7,0,0,0,25.73,17.83ZM20,18.47a4.34,4.34,0,0,1-.63,0,4.78,4.78,0,1,1,1.27,0A4.48,4.48,0,0,1,20,18.47Zm5.13,8.89a4.78,4.78,0,0,1-3.64-1.7h7.3A4.78,4.78,0,0,1,25.09,27.36Zm4.73-4H21.9a5.21,5.21,0,0,0,0-1.51h7.92a4.76,4.76,0,0,1,.07.75A6.32,6.32,0,0,1,29.82,23.33Z"/><path class="cls-1" d="M32.07,7.51a.59.59,0,0,0-.82,0,.59.59,0,0,0,0,.83,16,16,0,0,1,1.49,20.82l-.1-1.88-1.12,1.24.14,2.8,2.79-.14,1.13-1.25-2,.1A17.19,17.19,0,0,0,32.07,7.51Z"/><path class="cls-1" d="M7.19,10.09,7.28,12l1.13-1.25L8.27,7.93l-2.8.14L4.34,9.31l2.05-.1A17.2,17.2,0,0,0,7.85,31.73a.63.63,0,0,0,.42.17.6.6,0,0,0,.41-.17.57.57,0,0,0,0-.82A16,16,0,0,1,7.19,10.09Z"/></svg>