<svg id="Icons" xmlns="http://www.w3.org/2000/svg" viewBox="0 0 39.4 39.4"><defs><style>.cls-1{fill:#646869;}</style></defs><title>Resize GSBIG</title><rect class="cls-1" x="2.02" y="22.03" width="35.57" height="1.46" rx="0.52"/><path class="cls-1" d="M19.9,10.69a.89.89,0,0,0,.88-.88V6.33a.88.88,0,0,0-1.76,0V9.81A.88.88,0,0,0,19.9,10.69Z"/><path class="cls-1" d="M13.39,11A.88.88,0,0,0,15,10.28L13.69,7.07a.88.88,0,0,0-1.63.67Z"/><path class="cls-1" d="M25.08,11.6a.87.87,0,0,0,1.14-.47l1.33-3.22a.86.86,0,0,0-.47-1.14.87.87,0,0,0-1.15.47L24.6,10.45A.88.88,0,0,0,25.08,11.6Z"/><path class="cls-1" d="M8.74,14.06A.88.88,0,0,0,10,12.81L7.53,10.36A.88.88,0,0,0,6.29,11.6Z"/><path class="cls-1" d="M37.85,16.26a.89.89,0,0,0-1.15-.48l-3.21,1.33a.88.88,0,0,0,.67,1.63l3.21-1.33A.89.89,0,0,0,37.85,16.26Z"/><path class="cls-1" d="M5.46,18.56a.88.88,0,1,0,.67-1.62L2.92,15.61a.87.87,0,0,0-1.15.47.89.89,0,0,0,.48,1.15Z"/><path class="cls-1" d="M30.87,14.23l2.46-2.46a.88.88,0,1,0-1.24-1.24L29.63,13a.88.88,0,0,0,1.24,1.24Z"/><path class="cls-1" d="M31.15,19.84a12.35,12.35,0,0,0-22.68,0Z"/></svg>