<svg id="Icons" xmlns="http://www.w3.org/2000/svg" viewBox="0 0 39.4 39.4"><defs><style>.cls-1{fill:#646869;}</style></defs><title>Resize GSBIG</title><path class="cls-1" d="M19.79,6.43a.89.89,0,0,0,.88-.88V2.08a.88.88,0,0,0-1.76,0V5.55A.88.88,0,0,0,19.79,6.43Z"/><rect class="cls-1" y="18.71" width="5.23" height="1.76" rx="0.88"/><path class="cls-1" d="M38.52,18.71H35.05a.88.88,0,0,0-.88.88h0a.87.87,0,0,0,.88.88h3.47a.88.88,0,1,0,0-1.76Z"/><path class="cls-1" d="M13.29,6.69A.88.88,0,0,0,14.91,6L13.58,2.81A.88.88,0,1,0,12,3.48Z"/><path class="cls-1" d="M25,7.34a.88.88,0,0,0,1.15-.48l1.33-3.2A.88.88,0,1,0,25.82,3L24.49,6.19A.88.88,0,0,0,25,7.34Z"/><path class="cls-1" d="M8.64,9.79A.88.88,0,1,0,9.88,8.55L7.43,6.1a.88.88,0,0,0-1.25,0,.89.89,0,0,0,0,1.25Z"/><path class="cls-1" d="M32.9,14a.87.87,0,0,0,1.14.47l3.21-1.33a.88.88,0,1,0-.67-1.62l-3.21,1.33A.87.87,0,0,0,32.9,14Z"/><path class="cls-1" d="M2.15,13,5.36,14.3A.88.88,0,0,0,6,12.67L2.82,11.34A.88.88,0,0,0,2.15,13Z"/><path class="cls-1" d="M30.76,10l2.46-2.46a.88.88,0,0,0,0-1.24.89.89,0,0,0-1.25,0L29.52,8.73a.86.86,0,0,0,0,1.24A.88.88,0,0,0,30.76,10Z"/><path class="cls-1" d="M32.05,20.47a12.35,12.35,0,0,0-24.7,0Z"/><path class="cls-1" d="M33.62,22.42H6.1a.87.87,0,0,0,0,1.74H33.62a.87.87,0,1,0,0-1.74Z"/><path class="cls-1" d="M31.62,26.13H7.74a.87.87,0,1,0,0,1.74H31.62a.87.87,0,0,0,0-1.74Z"/><path class="cls-1" d="M28.39,29.82H11a.87.87,0,0,0,0,1.74H28.39a.87.87,0,1,0,0-1.74Z"/><path class="cls-1" d="M23.55,33.52h-7.7a.87.87,0,0,0,0,1.74h7.7a.87.87,0,0,0,0-1.74Z"/></svg>