<svg id="Icons" xmlns="http://www.w3.org/2000/svg" viewBox="0 0 39.4 39.4"><defs><style>.cls-1{fill:#656869;}</style></defs><title>Resize GSBIG</title><rect class="cls-1" x="21.75" y="21.68" width="20.22" height="2.43" transform="translate(1.45 47.68) rotate(-74.87)"/><polygon class="cls-1" points="35.77 8.45 33.54 12.04 35.89 12.67 35.77 8.45"/><path class="cls-1" d="M27.42,34.68l-.21.78h0a.82.82,0,0,0,.57,1l.78.21h0a.81.81,0,0,0,1-.57h0l.21-.78.43-1.57-2.35-.63Z"/><path class="cls-1" d="M6.15,31.1H25.56V5.21H6.15ZM7.77,7.57H23.14V9.19H7.77Zm0,3.24H23.14v1.62H7.77Zm0,3.23H23.14v1.62H7.77Zm0,3.24H23.14V18.9H7.77Zm0,3.24H23.14v1.61H7.77Zm0,3.23h9.7v1.62H7.77Z"/></svg>