<svg id="Icons" xmlns="http://www.w3.org/2000/svg" viewBox="0 0 39.4 39.4"><defs><style>.cls-1{fill:#646869;}</style></defs><title>Resize GSBIG</title><path class="cls-1" d="M19.83,5.84A.86.86,0,0,0,20.69,5V1.55a.87.87,0,1,0-1.73,0V5A.87.87,0,0,0,19.83,5.84Z"/><path class="cls-1" d="M5.46,19.7a.87.87,0,0,0-.86-.87H1.17a.87.87,0,1,0,0,1.74H4.6A.87.87,0,0,0,5.46,19.7Z"/><path class="cls-1" d="M38.31,18.83H34.89a.87.87,0,0,0,0,1.74h3.42a.87.87,0,1,0,0-1.74Z"/><path class="cls-1" d="M13.41,6.1a.88.88,0,0,0,1.14.47A.86.86,0,0,0,15,5.44L13.7,2.27a.87.87,0,0,0-1.13-.47.88.88,0,0,0-.47,1.14Z"/><path class="cls-1" d="M24.94,6.74a.86.86,0,0,0,1.13-.47l1.31-3.16A.87.87,0,0,0,26.91,2a.86.86,0,0,0-1.13.46L24.47,5.61A.85.85,0,0,0,24.94,6.74Z"/><path class="cls-1" d="M8.83,9.16a.86.86,0,1,0,1.22-1.22L7.63,5.52A.87.87,0,0,0,6.4,6.74Z"/><path class="cls-1" d="M32.76,13.31a.87.87,0,0,0,1.13.47l3.17-1.31a.87.87,0,0,0,.47-1.13.85.85,0,0,0-1.13-.47l-3.17,1.31A.87.87,0,0,0,32.76,13.31Z"/><path class="cls-1" d="M2.42,12.3l3.17,1.31A.87.87,0,1,0,6.25,12L3.08,10.69A.87.87,0,0,0,2,11.16.88.88,0,0,0,2.42,12.3Z"/><path class="cls-1" d="M30.65,9.34l2.43-2.43a.86.86,0,0,0,0-1.22.87.87,0,0,0-1.23,0L29.43,8.11a.87.87,0,0,0,0,1.23A.86.86,0,0,0,30.65,9.34Z"/><path class="cls-1" d="M19.83,33.56a.87.87,0,0,0-.87.86v3.43a.87.87,0,1,0,1.73,0V34.42A.86.86,0,0,0,19.83,33.56Z"/><path class="cls-1" d="M14.55,32.83a.88.88,0,0,0-1.14.47L12.1,36.46a.88.88,0,0,0,.47,1.14.87.87,0,0,0,1.13-.47L15,34A.86.86,0,0,0,14.55,32.83Z"/><path class="cls-1" d="M26.07,33.13a.87.87,0,0,0-1.6.66L25.78,37a.86.86,0,0,0,1.13.46.87.87,0,0,0,.47-1.13Z"/><path class="cls-1" d="M8.83,30.24,6.4,32.66a.87.87,0,0,0,1.23,1.22l2.42-2.42a.86.86,0,0,0-1.22-1.22Z"/><path class="cls-1" d="M37.06,26.93l-3.17-1.31a.87.87,0,1,0-.66,1.6l3.17,1.31a.85.85,0,0,0,1.13-.47A.87.87,0,0,0,37.06,26.93Z"/><path class="cls-1" d="M6.72,26.26a.87.87,0,0,0-1.13-.47L2.42,27.1A.88.88,0,0,0,2,28.24a.87.87,0,0,0,1.13.47l3.17-1.32A.87.87,0,0,0,6.72,26.26Z"/><path class="cls-1" d="M30.65,30.06a.86.86,0,0,0-1.22,0,.87.87,0,0,0,0,1.23l2.42,2.42a.87.87,0,0,0,1.23,0,.86.86,0,0,0,0-1.22Z"/><circle class="cls-1" cx="19.74" cy="19.7" r="12.19"/></svg>