<svg id="Icons" xmlns="http://www.w3.org/2000/svg" viewBox="0 0 39.4 39.4"><defs><style>.cls-1{fill:#646869;}</style></defs><title>Resize GSBIG</title><polygon class="cls-1" points="35.68 15.62 36.16 13.18 34.28 14.77 32.12 13.48 33.03 15.86 31.15 17.45 33.64 17.35 34.66 19.6 35.27 17.23 37.77 16.98 35.68 15.62"/><polygon class="cls-1" points="23.02 10.66 25.13 15.35 26.43 10.41 31.63 9.9 27.28 7.06 28.28 1.96 24.35 5.27 19.84 2.58 21.75 7.56 17.82 10.86 23.02 10.66"/><polygon class="cls-1" points="27.68 17.81 25.63 19.52 23.3 18.13 24.29 20.71 22.24 22.43 24.95 22.32 26.04 24.76 26.71 22.19 29.42 21.93 27.16 20.45 27.68 17.81"/><path class="cls-1" d="M8.41,21A15.14,15.14,0,0,1,13,7.71C5.32,10.81.52,18,1.82,25.32,3.34,34,10.66,39.8,20.73,38c4.39-.78,8.68-4.6,8.68-4.6C19.34,35.21,9.94,29.64,8.41,21Z"/></svg>