<svg id="Icons" xmlns="http://www.w3.org/2000/svg" viewBox="0 0 39.4 39.4"><defs><style>.cls-1{fill:#646869;}</style></defs><title>Resize GSBIG</title><polygon class="cls-1" points="14.7 7.73 14.7 8.44 14.7 8.78 24.7 8.78 24.7 8.44 24.7 7.73 24.7 7.39 14.7 7.39 14.7 7.73"/><polygon class="cls-1" points="19.01 12.73 15.41 12.73 15.41 13.45 15.41 14.12 19.01 14.12 19.01 29.2 15.41 29.2 15.41 29.88 15.41 30.59 19.01 30.59 20.39 30.59 23.99 30.59 23.99 29.88 23.99 29.2 20.39 29.2 20.39 14.12 23.99 14.12 23.99 13.45 23.99 12.73 20.39 12.73 19.01 12.73"/><path class="cls-1" d="M6.84,6.66a.36.36,0,1,0-.72,0V9.18h.72Z"/><path class="cls-1" d="M7.93,6.3a.36.36,0,0,0-.36.36V9.18h.71V6.66A.36.36,0,0,0,7.93,6.3Z"/><path class="cls-1" d="M9.34,6.3A.36.36,0,0,0,9,6.66V9.18H9.7V6.66A.36.36,0,0,0,9.34,6.3Z"/><path class="cls-1" d="M11.13,6.66a.36.36,0,1,0-.72,0V9.18h.72Z"/><path class="cls-1" d="M12.2,6.3a.36.36,0,0,0-.36.36V9.18h.72V6.66A.36.36,0,0,0,12.2,6.3Z"/><path class="cls-1" d="M13.63,6.3a.36.36,0,0,0-.36.36V9.18H14V6.66A.36.36,0,0,0,13.63,6.3Z"/><path class="cls-1" d="M25.77,6.3a.36.36,0,0,0-.35.36V9.18h.71V6.66A.36.36,0,0,0,25.77,6.3Z"/><path class="cls-1" d="M27.58,6.66a.36.36,0,1,0-.72,0V9.18h.72Z"/><path class="cls-1" d="M28.63,6.3a.36.36,0,0,0-.36.36V9.18H29V6.66A.36.36,0,0,0,28.63,6.3Z"/><path class="cls-1" d="M30.06,6.3a.36.36,0,0,0-.36.36V9.18h.72V6.66A.36.36,0,0,0,30.06,6.3Z"/><path class="cls-1" d="M31.85,6.66a.36.36,0,1,0-.72,0V9.18h.72Z"/><path class="cls-1" d="M33.28,6.66a.36.36,0,1,0-.72,0V9.18h.72Z"/><path class="cls-1" d="M34.72,7.39H34V8.78h.73a.7.7,0,1,0,0-1.39Z"/><path class="cls-1" d="M4,8.09a.69.69,0,0,0,.7.69h.73V7.39H4.68A.7.7,0,0,0,4,8.09Z"/><path class="cls-1" d="M6.12,32.32a.81.81,0,0,0,1.61,0V10.59H6.12Z"/><path class="cls-1" d="M11,32.32a.81.81,0,0,0,1.61,0V10.59H11Z"/><path class="cls-1" d="M26.84,32.32a.81.81,0,0,0,1.61,0V10.59H26.84Z"/><path class="cls-1" d="M31.67,32.32a.81.81,0,0,0,1.61,0V10.59H31.67Z"/></svg>