<svg id="Icons" xmlns="http://www.w3.org/2000/svg" viewBox="0 0 39.4 39.4"><defs><style>.cls-1{fill:#646869;}</style></defs><title>Resize GSBIG</title><path class="cls-1" d="M6.89,6.58a.36.36,0,0,0-.36-.36.36.36,0,0,0-.36.36V9.12h.72Z"/><path class="cls-1" d="M8,6.22a.36.36,0,0,0-.36.36V9.12h.72V6.58A.36.36,0,0,0,8,6.22Z"/><path class="cls-1" d="M9.45,6.22a.36.36,0,0,0-.36.36V9.12h.72V6.58A.36.36,0,0,0,9.45,6.22Z"/><path class="cls-1" d="M11.28,6.58a.36.36,0,0,0-.72,0V9.12h.72Z"/><path class="cls-1" d="M12.74,6.58a.36.36,0,0,0-.72,0V9.12h.72Z"/><path class="cls-1" d="M13.84,6.22a.36.36,0,0,0-.35.36V9.12h.71V6.58A.36.36,0,0,0,13.84,6.22Z"/><path class="cls-1" d="M15.31,6.22a.36.36,0,0,0-.36.36V9.12h.72V6.58A.36.36,0,0,0,15.31,6.22Z"/><path class="cls-1" d="M17.13,6.58a.36.36,0,0,0-.72,0V9.12h.72Z"/><path class="cls-1" d="M18.24,6.22a.36.36,0,0,0-.36.36V9.12h.72V6.58A.36.36,0,0,0,18.24,6.22Z"/><path class="cls-1" d="M19.7,6.22a.36.36,0,0,0-.36.36V9.12h.72V6.58A.36.36,0,0,0,19.7,6.22Z"/><path class="cls-1" d="M21.52,6.58a.36.36,0,0,0-.36-.36.36.36,0,0,0-.36.36V9.12h.72Z"/><path class="cls-1" d="M23,6.58a.36.36,0,0,0-.72,0V9.12H23Z"/><path class="cls-1" d="M24.09,6.22a.36.36,0,0,0-.36.36V9.12h.72V6.58A.36.36,0,0,0,24.09,6.22Z"/><path class="cls-1" d="M4,8a.7.7,0,0,0,.7.7h.74V7.32H4.71A.7.7,0,0,0,4,8Z"/><path class="cls-1" d="M32.87,6.22a.36.36,0,0,0-.36.36V9.12h.72V6.58A.36.36,0,0,0,32.87,6.22Z"/><path class="cls-1" d="M31.77,6.58a.36.36,0,1,0-.72,0V9.12h.72Z"/><path class="cls-1" d="M30,6.22a.36.36,0,0,0-.36.36V9.12h.72V6.58A.36.36,0,0,0,30,6.22Z"/><path class="cls-1" d="M28.48,6.22a.36.36,0,0,0-.36.36V9.12h.72V6.58A.36.36,0,0,0,28.48,6.22Z"/><path class="cls-1" d="M27.38,6.58a.36.36,0,1,0-.72,0V9.12h.72Z"/><path class="cls-1" d="M25.56,6.22a.36.36,0,0,0-.36.36V9.12h.71V6.58A.36.36,0,0,0,25.56,6.22Z"/><path class="cls-1" d="M34.69,7.32H34v1.4h.74a.7.7,0,0,0,0-1.4Z"/><path class="cls-1" d="M16.37,32.4a.78.78,0,1,0,1.55,0V10.53H16.37Z"/><path class="cls-1" d="M21.47,32.4a.78.78,0,1,0,1.55,0V10.53H21.47Z"/><path class="cls-1" d="M11.26,32.4a.78.78,0,1,0,1.55,0V10.53H11.26Z"/><path class="cls-1" d="M6.16,32.4a.77.77,0,1,0,1.54,0V10.53H6.16Z"/><path class="cls-1" d="M31.69,32.39h0a.77.77,0,1,0,1.54,0h0V10.53H31.69Z"/><path class="cls-1" d="M26.58,32.4a.78.78,0,1,0,1.55,0V10.53H26.58Z"/></svg>