<svg id="Icons" xmlns="http://www.w3.org/2000/svg" viewBox="0 0 39.4 39.4"><defs><style>.cls-1{fill:#646869;}</style></defs><title>Resize GSBIG</title><path class="cls-1" d="M18.11,29.36A1.13,1.13,0,1,0,17,30.5,1.13,1.13,0,0,0,18.11,29.36Z"/><path class="cls-1" d="M21.31,26.3a1.13,1.13,0,1,0,1.14,1.12A1.13,1.13,0,0,0,21.31,26.3Z"/><path class="cls-1" d="M23.68,24.59a1.13,1.13,0,1,0,1.12-1.14A1.14,1.14,0,0,0,23.68,24.59Z"/><path class="cls-1" d="M26.6,21a1.13,1.13,0,1,0,1.12-1.14A1.14,1.14,0,0,0,26.6,21Z"/><path class="cls-1" d="M29.58,15.8a1.13,1.13,0,1,0,1.13,1.11A1.12,1.12,0,0,0,29.58,15.8Z"/><path class="cls-1" d="M35.16,18.34A1.13,1.13,0,1,0,34,19.48,1.13,1.13,0,0,0,35.16,18.34Z"/><path class="cls-1" d="M31.57,24.51a1.13,1.13,0,0,0,1.11-1.14,1.13,1.13,0,0,0-2.25,0A1.14,1.14,0,0,0,31.57,24.51Z"/><path class="cls-1" d="M28.14,26.65A1.13,1.13,0,0,0,27,27.79a1.13,1.13,0,0,0,2.25,0A1.13,1.13,0,0,0,28.14,26.65Z"/><path class="cls-1" d="M23.74,30.36a1.13,1.13,0,1,0,1.15,1.11A1.13,1.13,0,0,0,23.74,30.36Z"/><path class="cls-1" d="M19.84,33.78a1.13,1.13,0,1,0-2.25,0,1.13,1.13,0,0,0,2.25,0Z"/><path class="cls-1" d="M20.3,37.15a1.14,1.14,0,0,0-1.12,1.14,1.13,1.13,0,1,0,1.12-1.14Z"/><path class="cls-1" d="M26,34.06a1.13,1.13,0,1,0,1.13,1.12A1.13,1.13,0,0,0,26,34.06Z"/><path class="cls-1" d="M31.62,29.85a1.13,1.13,0,1,0,0,2.25A1.11,1.11,0,0,0,32.76,31,1.14,1.14,0,0,0,31.62,29.85Z"/><path class="cls-1" d="M35.51,24.46a1.13,1.13,0,1,0,1.14,1.12A1.14,1.14,0,0,0,35.51,24.46Z"/><path class="cls-1" d="M38.26,18.66a1.13,1.13,0,1,0,1.14,1.12A1.14,1.14,0,0,0,38.26,18.66Z"/><path class="cls-1" d="M10.13,26.39a1.07,1.07,0,0,0,0,1.53l.26.27a1.08,1.08,0,0,0,1.54,0L28.45,11.68a1.1,1.1,0,0,0,0-1.54l-.27-.27a1.1,1.1,0,0,0-1.54,0l-5.91,5.91a.85.85,0,0,1-1.14-1.25L24.52,9.6A10.6,10.6,0,0,0,12,9.52,2.23,2.23,0,0,1,10,9.9L9.3,9.58h0L7.62,8.77S4.73,6.89,3.2,9C2,10.59,4.43,11.19,5.87,11.78L7,12.33H7c.11.05,1.8,1,1.43,1.87l0,0a10.7,10.7,0,0,0,2.48,11.4Z"/></svg>