<svg id="Icons" xmlns="http://www.w3.org/2000/svg" viewBox="0 0 39.4 39.4"><defs><style>.cls-1{fill:#656869;}</style></defs><title>Resize GSBIG</title><path class="cls-1" d="M29.27,13.58V3.36A1.27,1.27,0,0,0,28,2.09H11.41a1.28,1.28,0,0,0-1.28,1.28v10.2H11.4V17.4H28V13.58Z"/><rect class="cls-1" x="11.4" y="18.68" width="16.59" height="3.83"/><rect class="cls-1" x="11.4" y="23.79" width="16.59" height="5.1"/><path class="cls-1" d="M6.3,14.85A1.28,1.28,0,0,0,5,16.13H5V32.72H6.3V34H8.85V32.72h1.28V14.85Z"/><path class="cls-1" d="M33.1,14.85H29.27V32.72h1.28V34H33.1V32.72h1.28V16.13A1.29,1.29,0,0,0,33.1,14.85Z"/></svg>