<svg id="Icons" xmlns="http://www.w3.org/2000/svg" viewBox="0 0 39.4 39.4"><defs><style>.cls-1{fill:#656869;}</style></defs><title>Resize GSBIG</title><path class="cls-1" d="M21.76,3.21,11.43,11.68a5.22,5.22,0,0,1-2.84,1H2.43A1.61,1.61,0,0,0,.82,14.3V25.1a1.61,1.61,0,0,0,1.61,1.6H8.49c.88,0,1.61,0,1.61,0s.56.49,1.24,1.05l10.41,8.4c.68.56,1.24.29,1.24-.59V3.8C23,2.92,22.43,2.65,21.76,3.21Z"/><path class="cls-1" d="M28.22,14.06a.8.8,0,1,0-1,1.28,5.9,5.9,0,0,1,2.22,4.36,5.91,5.91,0,0,1-2.22,4.36.79.79,0,0,0-.16,1.12.8.8,0,0,0,.64.32.77.77,0,0,0,.48-.16,7.51,7.51,0,0,0,2.86-5.64A7.5,7.5,0,0,0,28.22,14.06Z"/><path class="cls-1" d="M30.75,10.75a.8.8,0,1,0-1,1.23,10,10,0,0,1,3.79,7.72,10,10,0,0,1-3.79,7.72.79.79,0,0,0-.11,1.12.78.78,0,0,0,.62.29.81.81,0,0,0,.51-.18,11.35,11.35,0,0,0,0-17.9Z"/><path class="cls-1" d="M33.24,7.4a.81.81,0,0,0-1.13.13.8.8,0,0,0,.13,1.12,15,15,0,0,1,5.53,11,15,15,0,0,1-5.53,11,.81.81,0,0,0-.13,1.13.83.83,0,0,0,.63.3.81.81,0,0,0,.5-.18A16.64,16.64,0,0,0,39.37,19.7,16.66,16.66,0,0,0,33.24,7.4Z"/></svg>