<svg id="Icons" xmlns="http://www.w3.org/2000/svg" viewBox="0 0 39.4 39.4"><defs><style>.cls-1{fill:#656869;}</style></defs><title>Resize GSBIG</title><path class="cls-1" d="M22.35,3.21,12,11.68a5.22,5.22,0,0,1-2.84,1H3a1.61,1.61,0,0,0-1.61,1.6V25.1A1.61,1.61,0,0,0,3,26.7H9.08c.88,0,1.61,0,1.61,0s.56.49,1.24,1.05l10.41,8.4c.68.56,1.24.29,1.24-.59V3.8C23.58,2.92,23,2.65,22.35,3.21Z"/><path class="cls-1" d="M28.81,14.06a.8.8,0,1,0-1,1.28,5.9,5.9,0,0,1,2.22,4.36,5.91,5.91,0,0,1-2.22,4.36.79.79,0,0,0-.16,1.12.8.8,0,0,0,.64.32.77.77,0,0,0,.48-.16,7.51,7.51,0,0,0,2.86-5.64A7.5,7.5,0,0,0,28.81,14.06Z"/></svg>