<svg id="Icons" xmlns="http://www.w3.org/2000/svg" viewBox="0 0 39.4 39.4"><defs><style>.cls-1{fill:#646869;}</style></defs><title>Resize GSBIG</title><path class="cls-1" d="M26.81,23.91a.61.61,0,1,0-1.06.62l1.63,2.82a.61.61,0,0,0,1.06-.62Z"/><path class="cls-1" d="M32,23.3l-2.92-1.39a.62.62,0,0,0-.82.29.61.61,0,0,0,.29.82l2.93,1.39a.63.63,0,0,0,.73-.16.64.64,0,0,0,.08-.14A.6.6,0,0,0,32,23.3Z"/><path class="cls-1" d="M16.31,27.56a.61.61,0,0,0,.84-.23l1.63-2.82a.61.61,0,1,0-1.06-.61l-1.63,2.82A.62.62,0,0,0,16.31,27.56Z"/><path class="cls-1" d="M15.42,21.9,12.5,23.28a.62.62,0,0,0-.3.82l.09.13a.61.61,0,0,0,.73.16L16,23a.61.61,0,1,0-.53-1.1Z"/><path class="cls-1" d="M32.38,19.61,29.79,5.39a.69.69,0,0,0-.67-.56H15.38a.7.7,0,0,0-.68.56L12.12,19.61a.69.69,0,0,0,.67.81h8.4v7.82a.68.68,0,0,1-.69.68H9.85V21.81a.69.69,0,0,0-.69-.68H7.7a.69.69,0,0,0-.69.68V33.89a.69.69,0,0,0,.69.68H9.16a.69.69,0,0,0,.69-.68V31.05H21.94a1.37,1.37,0,0,0,1.37-1.37V20.42H31.7A.69.69,0,0,0,32.38,19.61Z"/></svg>