<svg id="Icons" xmlns="http://www.w3.org/2000/svg" viewBox="0 0 39.4 39.4"><defs><style>.cls-1{fill:#656869;}</style></defs><title>Resize GSBIG</title><path class="cls-1" d="M19.7,26.22a5.26,5.26,0,0,0,3.2-9.43V3a3,3,0,0,0-3-3h-.36a3,3,0,0,0-3,3V16.79a5.25,5.25,0,0,0,3.19,9.43Zm-2.32-9a1.21,1.21,0,0,1,0-.19V10.38h1.88a.38.38,0,0,0,0-.76H17.37V8h1.88a.38.38,0,0,0,0-.76H17.37V5.77h1.88a.38.38,0,0,0,0-.76H17.37V3.62A2.53,2.53,0,0,1,19.57.86h.27A2.53,2.53,0,0,1,22,3.62V17c0,.06,0,.13,0,.19a4.41,4.41,0,1,1-4.65,0Z"/><path class="cls-1" d="M19.7,24.6a3.63,3.63,0,0,0,1.55-6.92V13.11H18.13V17.7a3.63,3.63,0,0,0,1.57,6.9Z"/><path class="cls-1" d="M35.11,29.91a2.68,2.68,0,0,1-2-1A4.09,4.09,0,0,0,30,27.42a4,4,0,0,0-3.07,1.45,2.56,2.56,0,0,1-4.12,0,4,4,0,0,0-6.16,0,2.67,2.67,0,0,1-2,1,2.71,2.71,0,0,1-2.07-1,4,4,0,0,0-6.16,0,2.69,2.69,0,0,1-2.06,1,.74.74,0,1,0,0,1.47,4.09,4.09,0,0,0,3.08-1.46,2.69,2.69,0,0,1,2.06-1,2.67,2.67,0,0,1,2.06,1,4,4,0,0,0,6.17,0,2.55,2.55,0,0,1,4.11,0,4,4,0,0,0,6.16,0,2.55,2.55,0,0,1,4.11,0,4.05,4.05,0,0,0,3.07,1.46.74.74,0,0,0,0-1.47Z"/><path class="cls-1" d="M30,32.18a4,4,0,0,0-3.07,1.45,2.56,2.56,0,0,1-4.12,0,4,4,0,0,0-6.16,0,2.67,2.67,0,0,1-2,1,2.71,2.71,0,0,1-2.07-1,4.07,4.07,0,0,0-3.08-1.45.73.73,0,0,0,0,1.46,2.67,2.67,0,0,1,2.06,1,4,4,0,0,0,6.17,0,2.55,2.55,0,0,1,4.11,0,4,4,0,0,0,6.16,0,2.68,2.68,0,0,1,2.05-1,.73.73,0,1,0,0-1.46Z"/><path class="cls-1" d="M4.29,21.86a4.09,4.09,0,0,0,3.08-1.45,2.69,2.69,0,0,1,2.06-1,2.67,2.67,0,0,1,2.06,1,5,5,0,0,0,1.89,1.26,5.69,5.69,0,0,1-.07-.71,6.42,6.42,0,0,1,.09-.87,4.53,4.53,0,0,1-.89-.73,4,4,0,0,0-6.16,0,2.69,2.69,0,0,1-2.06,1,.73.73,0,1,0,0,1.46Z"/><path class="cls-1" d="M26,21.67a4.85,4.85,0,0,0,1.89-1.26,2.55,2.55,0,0,1,4.11,0,4,4,0,0,0,3.07,1.45.73.73,0,0,0,0-1.46,2.68,2.68,0,0,1-2-1A4.09,4.09,0,0,0,30,17.91a4,4,0,0,0-3.07,1.45,5,5,0,0,1-.89.74,6.11,6.11,0,0,1,.09.86C26.11,21.21,26.06,21.44,26,21.67Z"/><path class="cls-1" d="M4.29,26.62a4.12,4.12,0,0,0,3.08-1.45,2.69,2.69,0,0,1,2.06-1,2.67,2.67,0,0,1,2.06,1,4.13,4.13,0,0,0,3.09,1.45,3.63,3.63,0,0,0,1.56-.35,6.27,6.27,0,0,1-1.26-1.15,2.77,2.77,0,0,1-.3,0,2.7,2.7,0,0,1-2.07-1,4.08,4.08,0,0,0-3.08-1.46,4.09,4.09,0,0,0-3.08,1.46,2.68,2.68,0,0,1-2.06,1,.74.74,0,1,0,0,1.47Z"/><path class="cls-1" d="M35.11,25.15a2.67,2.67,0,0,1-2-1A4.09,4.09,0,0,0,30,22.66a4.05,4.05,0,0,0-3.07,1.46,2.68,2.68,0,0,1-2.06,1,2.72,2.72,0,0,1-.31,0,6.27,6.27,0,0,1-1.26,1.15,3.64,3.64,0,0,0,1.57.35,4.12,4.12,0,0,0,3.08-1.45,2.55,2.55,0,0,1,4.11,0,4.08,4.08,0,0,0,3.07,1.45.74.74,0,0,0,0-1.47Z"/></svg>