<svg x="0" y="0" width="1286" height="1818" viewBox="0 0 1286 1818" version="1.1" xmlns="http://www.w3.org/2000/svg" style="display: block;margin-left: auto;margin-right: auto;">
<defs>
<clipPath id="c_13"><path d="M0,0H1286V1818H0Z"/></clipPath>
<clipPath id="c0_13"><path d="M-.2 1819.2V-.9H1286.7V1819.2Z"/></clipPath>
<clipPath id="c1_13"><path d="M309.8 1741.3V144.1h6.8V1741.3Z"/></clipPath>
<clipPath id="c2_13"><path d="M515.3 297.6V235.3h62.3v62.3Z"/></clipPath>
<clipPath id="c3_13"><path d="M70 506.9V457.3h49.5v49.6Z"/></clipPath>
<clipPath id="c4_13"><path d="M202.9 505.3V440.5h66.3v64.8Z"/></clipPath>
<clipPath id="c5_13"><path d="M1019 1216.2v-62.4h62.4v62.4Z"/></clipPath>
<clipPath id="c6_13"><path d="M923.1 849V651.6h62.4V849Z"/></clipPath>
<clipPath id="c7_13"><path d="M613.4 988V926H758.5v62Z"/></clipPath>
<clipPath id="c8_13"><path d="M513.7 1072.2V926h62.4v146.2Z"/></clipPath>
<clipPath id="c9_13"><path d="M993.1 988V926h145.1v62Z"/></clipPath>
<clipPath id="ca_13"><path d="M1111.5 407.4V235.3h85.1V407.4Z"/></clipPath>
<clipPath id="cb_13"><path d="M990.5 352V235.3h85.1V352Z"/></clipPath>
<clipPath id="cc_13"><path d="M736.3 297.6V235.3h85.1v62.3Z"/></clipPath>
<clipPath id="cd_13"><path d="M622.2 318.9V233.8h62.4v85.1Z"/></clipPath>
<clipPath id="ce_13"><path d="M515.3 476.9V414.5h62.3v62.4Z"/></clipPath>
<clipPath id="cf_13"><path d="M625.9 561.3V498.9H711v62.4Z"/></clipPath>
<clipPath id="cg_13"><path d="M515.3 561.3V498.9h62.3v62.4Z"/></clipPath>
<clipPath id="ch_13"><path d="M757.9 793.2V651.6h62.4V793.2Z"/></clipPath>
<clipPath id="ci_13"><path d="M516.2 718.5V656.1H713.7v62.4Z"/></clipPath>
<clipPath id="cj_13"><path d="M515.1 849V786.7H656.7V849Z"/></clipPath>
<clipPath id="ck_13"><path d="M334.3 1095.1v-6.8h898.9v6.8Z"/></clipPath>

<style>
text { white-space: pre; }
path, image { pointer-events: none; }

.s0_13{font-size:12.22px;font-family:MyriadPro-Semibold_25e;fill:#6D6D6D;}
.s1_13{font-size:18.33px;font-family:MyriadPro-SemiCn_25d;fill:#6D6D6D;}
.s2_13{font-size:9.17px;font-family:MyriadPro-BoldCond_10e;fill:#656A6A;}
.s3_13{font-size:15.28px;font-family:MyriadPro-LightSemiCn_14k;fill:#656A6A;}
.s4_13{font-size:12.22px;font-family:MyriadPro-BoldSemiCn_106;fill:#6D6D6D;}
.s5_13{font-size:12.22px;font-family:MyriadPro-SemiCn_25d;fill:#6D6D6D;}
.s6_13{font-size:21.39px;font-family:MyriadPro-LightSemiCn_14k;fill:#6D6D6D;}
.s7_13{font-size:45.83px;font-family:MyriadPro-Light_10i;fill:#6D6D6D;}
.s8_13{font-size:24.44px;font-family:MyriadPro-LightSemiCn_14k;fill:#646969;}
.s9_13{font-size:24.44px;font-family:MyriadPro-SemiboldSemiCn_25c;fill:#6D6D6D;}
.sa_13{font-size:24.44px;font-family:MyriadPro-LightSemiCn_14k;fill:#6D6D6D;}
.sb_13{font-size:12.22px;font-family:MyriadPro-SemiboldSemiCn_25c;fill:#646464;}
.sc_13{font-size:12.22px;font-family:MyriadPro-LightSemiCn_14k;fill:#646464;}
.sd_13{font-size:16.81px;font-family:MyriadPro-LightSemiCn_14k;fill:#231F20;}
.se_13{font-size:12.22px;font-family:MyriadPro-LightSemiCn_14k;fill:#6D6D6D;}
.sf_13{font-size:12.22px;font-family:MyriadPro-LightSemiCn_14k;fill:#656A6A;}
.sg_13{font-size:12.22px;font-family:MyriadPro-LightSemiCn_14k;fill:#5C6060;}
.sh_13{font-size:9.17px;font-family:MyriadPro-Bold_12-;fill:#656A6A;}
.si_13{font-size:18.33px;font-family:MyriadPro-BoldCond_10e;fill:#656A6A;}

.g0_13{fill:#E6E6E6;}
.g1_13{fill:#6D6D6D;}
.g2_13{fill:none;stroke:#47484F;stroke-width:0.381;}
.g3_13{fill:none;stroke:#231F20;stroke-width:1.527;stroke-linecap:round;stroke-linejoin:round;stroke-dasharray:0,5;}
.g4_13{fill:none;stroke:#231F20;stroke-width:1.527;stroke-linecap:round;stroke-linejoin:round;}
.g5_13{fill:none;stroke:#050604;stroke-width:0.229;stroke-miterlimit:10;}
.g6_13{fill:none;stroke:#040504;stroke-width:0.229;stroke-miterlimit:10;}
.g7_13{fill:none;stroke:#6D6D6D;stroke-width:0.763;}
.g8_13{fill:none;stroke:#1B1B19;stroke-width:0.229;stroke-miterlimit:10;}
.g9_13{fill:none;stroke:#000;stroke-width:0.152;stroke-miterlimit:10;}
.ga_13{fill:none;stroke:#231F20;stroke-width:0.227;stroke-miterlimit:10;}
.gb_13{fill:none;stroke:#050604;stroke-width:0.227;stroke-miterlimit:10;}
.gc_13{fill:none;stroke:#231F20;stroke-width:0.229;stroke-miterlimit:10;}
.gd_13{fill:none;stroke:#050604;stroke-width:0.23;stroke-miterlimit:10;}
.ge_13{fill:none;stroke:#040504;stroke-width:0.23;stroke-miterlimit:10;}
.gf_13{fill:none;stroke:#231F20;stroke-width:0.23;stroke-miterlimit:10;}
.gg_13{fill:none;stroke:#000;stroke-width:0.229;stroke-miterlimit:10;}
.gh_13{fill:none;stroke:#6D6D6D;stroke-width:0.221;stroke-linejoin:bevel;}
.gi_13{fill:none;stroke:#6D6D6D;stroke-width:0.221;stroke-miterlimit:22;}
.gj_13{fill:none;stroke:#6D6D6D;stroke-width:0.221;stroke-linejoin:bevel;}
.gk_13{fill:none;stroke:#6D6D6D;stroke-width:0.152;stroke-linejoin:bevel;}
.gl_13{fill:none;stroke:#6D6D6D;stroke-width:0.444;stroke-linejoin:bevel;}
.gm_13{fill:none;stroke:#6D6D6D;stroke-width:0.218;stroke-linejoin:bevel;}
.gn_13{fill:none;stroke:#6D6D6D;stroke-width:0.218;stroke-linejoin:bevel;}
.go_13{fill:none;stroke:#6D6D6D;stroke-width:0.233;stroke-linejoin:bevel;}
.gp_13{fill:none;stroke:#6D6D6D;stroke-width:0.467;stroke-linejoin:bevel;}
.gq_13{fill:none;stroke:#6D6D6D;stroke-width:0.152;stroke-miterlimit:10;}
.gr_13{fill:none;stroke:#6D6D6D;stroke-width:0.233;stroke-linejoin:bevel;}
.gs_13{fill:none;stroke:#6D6D6D;stroke-width:0.467;stroke-miterlimit:10;}
.gt_13{fill:none;stroke:#6D6D6D;stroke-width:0.233;stroke-miterlimit:10;}
.gu_13{fill:none;stroke:#6D6D6D;stroke-width:0.221;stroke-miterlimit:10;}
.gv_13{fill:none;stroke:#6D6D6D;stroke-width:0.444;stroke-miterlimit:10;}

</style>

</defs>
<path d="M0 0V1818H1286V0Z" fill="#FFFFFF" stroke="none"/>
<g clip-path="url(#c_13)">
<g clip-path="url(#c0_13)">
<path d="M0 1818.9H1286.2V0H0V1818.9Z" class="g0_13"/>
<path d="M112.6 48.1l2.8-16.7h10l-.6 3.8h-5.4l-.4 2.5h5l-.6 3.7h-5l-.5 2.9h5.6l-.6 3.8Zm-13.4 0h4.7l1-6.6h.9c.8 0 1.3 .3 1 1.7c-.1 .8-.2 1.7-.3 2.5c-.1 .8-.3 2 0 2.4h4.9l.1-.2c-.2-.1-.4-.3-.5-.5c0-.3 0-1.1 .2-2l.2-1.4c.1-.9 .3-2.1 0-2.8c-.3-.8-1.1-1.3-2-1.4c1.7-.2 3-1.4 3.4-4c.5-2.8-.6-4.4-3.9-4.4h-7ZM106 34.7h.6c1 0 1.7 .4 1.4 1.8c-.2 1.6-1.1 1.9-1.9 1.9h-.7ZM87.5 48.1v0l2.7-16.7h10.1l-.6 3.8H94.3l-.4 2.5h5l-.6 3.7h-5l-.5 2.9h5.6l-.6 3.8ZM77.2 35.3h3.2L78.3 48.1H83l2.1-12.8h3.1l.7-3.9H77.8Zm-6.7 6.3v0l1.6-10.2h4.1L73.7 48.1H69l-.9-10.3L66.5 48.1h-4L65 31.4h4.8l.7 10.2ZM55.7 48.1h4.7l2.7-16.7H58.4Zm68.6 0h9.8l.6-3.8h-5.1l2.1-12.9h-4.6Z" class="g1_13"/>
<path d="M55 52.1h78.6l.3-2H55.4l-.4 2Z" class="g1_13"/>
<g clip-path="url(#c0_13)">
<text x="1148.2" y="1763.1" class="s0_13">© INTEREL 2025 </text>
<text x="55" y="1763.5" dx="0 0 0 -.1 0 -.1 0 0 -.2 0 0 0 0 0 0 0 0 0" class="s1_13">Signature &amp; stamp: </text>
</g>
<path d="M196.3 1763.7H591.1" class="g2_13"/>
<g clip-path="url(#c0_13)">
<text x="807.2" y="35.4" class="s2_13">REVISION </text>
<text x="959.2" y="35.4" dx="0 -.1 -.5 0" class="s2_13">DATE </text>
<text x="1143.4" y="35.4" dx="0 -.4 -.1 0" class="s2_13">PAGE </text>
<text x="959.1" y="50.9" class="s3_13">27.08.2025 </text>
</g>
</g>
<text x="1143.3" y="50.9" class="s3_13">13 / 13 </text>
<g clip-path="url(#c0_13)">
<g clip-path="url(#c0_13)">
<text x="807.2" y="50.9" class="s3_13">№ 2 </text>
<text x="199.2" y="50.9" dx="0 -.7 0 0 .1 0 0 -.1 0 0 0 0 -.1 0 -.2 0 0 0 0 0 .2 0 0 0 0" class="s3_13">Fairmont Hotel, Al Khobar </text>
<text x="199.2" y="35.4" dx="0 0 0 0 0 0 .2" class="s2_13">PROJECT </text>
<text x="429.4" y="35.4" dx="0 0 0 0 0 0 .2 0 0 -.1 0 0" class="s2_13">PROJECT CODE </text>
<text x="618.3" y="35.4" dx="0 0 0 0 0 -.1 .3 0 0" class="s2_13">ROOM TYPE </text>
<text x="429.4" y="50.9" class="s3_13">SA-0822-2267 </text>
<text x="618.3" y="50.9" dx="0 .1 0 0 0 0 0 0 0 .1 0 0" class="s3_13">Mock Up Room </text>
</g>
</g>
<text x="55" y="1764.7" dx="0 0 0 -.1 0 -.1 0 0 -.2 0 0 0 0 0 0 0 0 0" class="s1_13">Signature &amp; stamp: </text>
<g clip-path="url(#c1_13)" opacity="0.6">
<path d="M313 152.1V1735.8" class="g3_13"/>
<path d="M313 147.5v0m0 1590.6v0" class="g4_13"/>
</g>
<text x="54.2" y="954.1" dx="0 -.2 0 -.1 0 0 0 0 -.1 0 0 0 0 0 0 0 0 0 0 0 0 -.1 0 0 .1 0 0 0 0 0 0 0 0" class="s4_13">Copyright Infringement Disclaimer </text>
<text x="54.2" y="981.6" dx="0 0 0 0 0 0 0 0 1.3 0 0 0 0 0 0 0 1.4 0 0 -.1 0 1.4 0 0 0 1.3 0 -.1 -.1 0 0 0 0 0 0 1.4 0 0 1.3 0 -.1 0 1.4 0 0 0 0 -.1 0" class="s5_13">INTEREL assumes that the provision of any design </text>
<text x="54.2" y="995.4" dx="0 -.1 0 0 0 -.1 0 3 0 0 0 0 0 0 0 0 0 3 0 0 0 3 0 0 0 3 0 0 0 0 -.1 0 0 3 -.1 0 3 0 -.1 0 0 -.1 0 3 -.1 0 0 0 -.1 0" class="s5_13">works, including but not limited to icons, fonts, </text>
<text x="54.2" y="1009.1" dx="0 0 0 0 0 -.1 0 -.3 0 -.1 0 -.1 0 0 0 0 -.3 0 0 0 -.3 0 -.1 -.1 0 0 0 0 -.1 0 -.3 0 0 0 0 0 0 -.3 0 0 -.3 0 0 -.1 0 0 0 -.3 0 0 0" class="s5_13">design patterns and drawings, within or beyond the </text>
<text x="54.2" y="1022.9" dx="0 0 -.1 0 0 0 -.1 0 0 0 0 .3 0 0 .3 -.1 0 0 0 0 -.1 -.1 0 0 0 0 0 .3 0 0 0 0 .3 0 0 .3 0 0 0 .3 0 0 0 .3 0 0 0 0 -.1 0 0" class="s5_13">frameworks of cooperation, such as but not limited </text>
<text x="54.2" y="1036.6" dx="0 -.1 0 2.7 -.1 0 0 0 0 -.1 0 0 0 0 2.7 0 -.1 0 0 0 .2 0 2.7 0 -.1 0 0 0 0 0 0 -.1 0 2.7 0 -.1 0 2.7 0 -.1 0 0 2.7 0 0 2.7 0 -.1 0" class="s5_13">to commercial project proposals, are free of any </text>
<text x="54.2" y="1050.4" dx="0 -.1 0 0 0 0 0 .2 0 0 0 0 0 .5 0 0 0 .5 0 -.1 0 .5 0 0 0 0 0 0 0 .5 0 0 .5 0 -.1 0 0 0 0 .5 0 0 .5 -.2 0 -.1 0 0 0 0 0 0 0" class="s5_13">restrictions and are neither in breach of Copyrights </text>
<text x="54.2" y="1064.1" dx="0 0 0 0 0 0 0 3.1 .1 0 -.1 0 0 0 0 .2 0 0 0 0 3.1 -.2 -.1 0 0 0 .3 .1 0 3.1 0 0 0 0 0 0 3.1 0 -.1 0 -.1 0 .2 0 0 0 0 0 3.1 .1 0" class="s5_13">and/or Intellectual Property rights protection. In </text>
<text x="54.2" y="1077.9" dx="0 0 0 0 0 3.2 0 0 3.2 0 -.1 0 3.2 0 0 -.1 0 0 0 0 0 0 3.2 0 0 0 0 0 0 0 0 0 0 0 0 3.2 0 0 3.2 -.2 0 -.1 0 0 0 0 -.1 0" class="s5_13">case of any potential infringement of Copyright </text>
<text x="54.2" y="1091.6" dx="0 0 0 0 0 0 0 2.1 0 0 2.1 0 0 0 0 0 0 2.1 0 -.1 0 -.1 0 .2 0 0 0 0 2.1 0 0 0 0 0 0 0 2.1 0 0 0 0 0 2.1 0 0 2.1 0 0 0 0 0" class="s5_13">and/or IP rights protection INTEREL shall be fully </text>
<text x="54.2" y="1105.4" dx="0 0 0 0 0 0 0 0 0 0 0 1 0 0 0 1 0 0 0 0 1 0 -.1 0 0 -.1 0 0 0 1 0 0 0 0 0 0 0 0 1 0 0 0 -.1 0 0 -.1 0 0 0" class="s5_13" data-mappings='[[7,"fi"]]'>indemniﬁed and kept entirely harmless therefrom. </text>
<text x="54.2" y="1119.1" dx="0 -.1 0 0 3.5 0 0 0 0 0 0 0 0 0 0 3.5 0 0 3.5 0 0 0 0 -.1 0 3.5 -.1 0 0 0 -.1 0 3.5 0 0 -.1 0 0 0 0 .2 0 0 -.1 0 3.5 0 0" class="s5_13">The submission of design works, irrespective of </text>
<text x="54.2" y="1132.9" dx="0 0 0 0 0 0 1 -.1 0 0 0 1 0 0 1 0 -.1 0 0 -.1 0 1 -.1 0 0 0 0 .2 0 0 -.1 0 0 -.5 0 1 0 0 0 0 0 0 0 1 0 0 0 0 0 0 -1.2 -.9 0" class="s5_13">their form or nature respectively, implies INTEREL’s </text>
<text x="54.2" y="1146.6" dx="0 0 0 0 0 0 0 -.1 0 0 4.4 0 0 0 0 0 4.4 0 0 4.4 0 0 -.1 0 4.4 0 -.1 0 0 4.4 0 0 4.4 0 -.1 0 4.4 0 0 0 0 0 -.1 0 0 0 0 0" class="s5_13">unlimited right in use, free of any obligations </text>
<text x="54.2" y="1160.4" dx="0 -.1 0 4.2 0 0 0 0 0 0 4.2 0 0 0 0 0 4.2 0 0 4.2 -.1 0 0 0 0 0 4.2 0 0 -.1 0 0 0 0 0 0 4.2 0 -.1 0 0 0 0 0 0 4.2 0 0" class="s5_13">to either check or verify potential breaches of </text>
<text x="54.2" y="1174.1" dx="0 -.2 0 -.1 0 0 0 0 0 0 0" class="s5_13">Copyrights </text>
<text x="114.4" y="1174.1" class="s5_13">and/or </text>
<text x="155.5" y="1174.1" dx="0 .1 0 -.1 0 0 0 0 .2 0 0 0 0" class="s5_13">Intellectual </text>
<text x="217.5" y="1174.1" dx="0 -.2 -.1 0 0 0 .3 .1 0" class="s5_13">Property </text>
<text x="267.5" y="1174.1" class="s5_13">rights </text>
<text x="54.2" y="1187.9" dx="0 0 -.1 0 -.1 0 .2 0 0 0 0 0 -.1 0 0 -.1 0 0 -.1 0 0 0 0 0 0 -1.2 -.9 0 -.1 0 0 0 0 0 0 0 0 -.1 0 0 -.1 0 0 0 0 -.1 0 0 0 0 -.1 0" class="s5_13">protection. Given INTEREL’s adaption of such design </text>
<text x="54.2" y="1201.6" dx="0 -.1 0 0 0 0 .1 0 0 0 0 0 0 0 0 .1 0 0 0 0 0 0 -1.2 -.9 0 .1 0 0 0 .1 0 0 .1 0 0 0 .1 -.1 0 0 0 0 .2 0 0 -.1 0 .1 -.1 0 0 0 0" class="s5_13">works entitles INTEREL’s use of the respective works </text>
<text x="54.2" y="1215.4" dx="0 -.1 0 -.2 0 0 0 0 0 -.2 0 0 0 0 0 0 0 -.2 -.1 .2 -.1 0 0 0 -.2 0 0 0 -.2 0 0 0 0 -.1 0 0 0 0 0 0 -.2 0 -.1 0 0 -.2 0 0 -.2 0 -.1 0 -.2 0 0 .3 0" class="s5_13">to their fullest extent and discretion, free of any sort </text>
<text x="54.2" y="1229.1" dx="0 0 0 -.2 0 -.1 0 0 0 0 -.2 0 0 -.2 -.2 0 -.1 0 0 0 0 0 0 0 -.2 0 0 0 0 0 0 -.2 .1 0 -.1 0 0 0 0 .2 0 0 0 0 -.2 -.2 -.1 0 0 0 .3 .1 0" class="s5_13">of breach of Copyrights and/or Intellectual Property </text>
<text x="54.2" y="1242.9" dx="0 0 0 0 0 0 0 .9 0 -.1 0 -.1 0 .2 0 0 0 0 .9 0 0 0 0 .9 0 0 0 .9 0 -.1 -.1 0 0 0 0 0 0 .9 0 0 .3 .1 0 .9 -.1 0 0 0 0 0 0" class="s5_13">rights protection with the providing party waiving </text>
<text x="54.2" y="1256.6" dx="0 0 0 0 1 0 0 -.1 0 0 0 0 0 0 1 0 0 0 -.1 0 1 -.1 0 0 -.1 0 0 0 0 0 0 1 0 0 0 0 0 0 1 0 0 0 0 0 0 0 0 1 0 0 0 0" class="s5_13">its potential right contesting and/or claiming such </text>
<text x="54.2" y="1270.4" dx="0 0 0 0 0 0 0 0 0 0 0 0 0 -.1" class="s5_13">implied usage. </text>
<text x="54.2" y="1297.9" dx="0 0 0 0 .1 0 0 0 0 0 0 0 0" class="s4_13">IP Disclaimer </text>
<text x="54.2" y="1325.4" dx="0 -.8 0 0 0 3 0 -.1 -.1 0 0 0 0 0 0 3 -.1 0 0 0 0 0 0 0 0 3 0 0 -.1 0 0 0 3 0 -.1 0 3 0 -.1 0 -.1 0 .2 -.1 0 0 3 -.1 0" class="s5_13">“All materials contained herein are protected by </text>
<text x="54.2" y="1339.1" dx="0 -.1 0 -.1 0 0 0 0 0 0 -.5 0 0 0 -.5 0 0 0 0 0 -.5 0 -.1 0 -.1 0 .2 0 0 -.1 0 -.6 0 -.1 0 -.1 0 -.6 0 0 0 -.6 0 -.1 0 -.6 0 0 0 -.6 0 0" class="s5_13">copyright and other protective laws, and may not be </text>
<text x="54.2" y="1352.9" dx="0 -.1 0 0 -.1 0 0 0 -.1 0 -.1 0 2.2 -.1 0 0 0 0 0 0 0 0 0 -.1 0 2.2 0 0 0 0 0 0 0 0 -.1 0 -.1 0 2.2 0 -.1 0 0 0 0 0 0 -.1 0 -.1 0" class="s5_13">reproduced, republished, distributed, transmitted, </text>
<text x="54.2" y="1366.6" dx="0 0 0 0 0 0 -.1 -.1 0 -.1 0 5 0 -.1 0 0 0 0 0 0 0 5 0 0 5 0 0 0 0 .3 0 0 0 0 5 0 0 0 0 0 0 -.1 0 0 5 0 0" class="s5_13">displayed, broadcast or otherwise exploited in </text>
<text x="54.2" y="1380.4" dx="0 0 -.1 0 4.6 0 0 0 0 0 0 4.6 0 0 0 0 0 0 0 4.6 0 0 0 4.6 0 0 0 -.1 0 0 0 4.6 0 0 0 0 0 4.6 0 0 0 0 -.1 0 0" class="s5_13">any manner without the express prior written </text>
<text x="54.2" y="1394.1" dx="0 0 0 0 0 0 0 0 0 0 0 1 0 0 1 0 0 0 0 0 0 0 .6 0 .1 0 0 0 -.1 0 0 0 0 1 -.2 0 -.7 0 1 0 0 0 0 0 0 -1.2 -.9 0" class="s5_13">permission of INTEREL TRADEMARKS B.V. INTEREL’s </text>
<text x="54.2" y="1407.9" dx="0 0 0 0 0 0 .4 0 0 0 .4 0 0 0 0 0 .4 0 0 0 .4 0 0 0 .4 -.1 0 0 -.1 -.1 0 0 .4 0 -.1 0 0 0 0 0 0 0 -.1 0 .4 0 -.1 0 0 .3" class="s5_13">names and logos and all related trademarks, trade- </text>
<text x="54.2" y="1421.6" dx="0 0 0 0 0 -.1 0 4.2 0 0 0 4.2 0 0 0 0 0 4.2 0 0 -.1 0 0 0 0 .2 0 0 0 0 4.2 0 -.1 0 0 0 .3 .1 0 4.2 0 -.1 0 4.2 0 0 0" class="s5_13">names, and other intellectual property are the </text>
<text x="54.2" y="1435.4" dx="0 0 -.1 0 0 0 .3 .1 0 -.1 0 0 -.1 0 0 0 0 0 0 0 -.1 0 0 0 -.1 0 0 0 0 0 0 -.1 0 0 -.1 0 0 0 0 -.1 0 0 0 0 0 0 0 -.1 0 0 0" class="s5_13">property of INTEREL and cannot be used without its </text>
<text x="54.2" y="1449.1" dx="0 0 0 0 -.1 0 0 0 0 0 0 0 0 0 0 0 0 0 0 -.1 0 0 0 0 0 0 0 0 0 0 0 0 0 -1.3" class="s5_13">express prior written permission.” </text>
<text x="54.2" y="1476.6" dx="0 -.3 0 .2 -.1 0 -.1 0 0 0 0 0 .1 0 0 0 0 0 0 -.1 -.1 0 0 0 -.1" class="s4_13">Forward-looking Statement </text>
<text x="54.2" y="1504.1" dx="0 -.1 0 0 -.5 0 0 0 0 0 0 0 0 0 -.5 0 -.1 -.1 0 0 0 0 0 -.5 0 0 -.1 0 0 0 0 0 -.5 -.1 0 0 0 0 0 0 -.5 0 -.1 0 0 -.5 0 0 0" class="s5_13">The documents provided herewith contain data and </text>
<text x="54.2" y="1517.9" dx="0 0 0 -.1 -.1 0 0 0 0 0 0 .7 -.1 0 0 -.1 -.1 0 0 .7 -.1 0 .7 0 0 0 0 -.1 0 .7 0 0 0 0 0 0 0 0 .7 0 0 0 .7 0 0 0 0 0 0 0 0" class="s5_13" data-mappings='[[42,"fi"]]'>statements related to future business and ﬁnancial </text>
<text x="54.2" y="1531.6" dx="0 0 0 .4 -.1 0 0 0 0 0 -.1 0 1.9 0 0 -.1 0 1.9 0 -.1 0 1.9 -.1 0 0 0 0 0 0 0 -.1 0 1.9 -.1 0 .3 -.1 0 -.1 0 0 0 0 0 .1 0 0 0" class="s5_13">performance that may constitute forward-looking </text>
<text x="54.2" y="1545.4" dx="0 0 0 -.1 -.1 0 0 0 0 0 0 -.1 0 0 0 -.1 0 -.1 0 0 0 -.1 0 0 0 0 -.1 0 0 -.1 -.1 0 0 0 0 0 0 -.1 0 -.1 0 -.1 0 0 0 0 0 -.1 0 0" class="s5_13">statements and data. Such statements are based on </text>
<text x="54.2" y="1559.1" dx="0 0 0 0 -.6 0 0 0 -.1 0 0 0 -.6 0 0 0 0 .2 0 -.1 0 0 0 0 0 -.6 0 0 0 -.6 -.1 0 .3 0 0 0 0 -.6 0 0 0 0 0 0 0 0 0 0 0 -.6 0 0" class="s5_13">the current expectations and certain assumptions of </text>
<text x="54.2" y="1572.9" dx="0 0 0 0 0 0 0 -1.2 -.9 0 .4 0 0 0 0 0 0 0 0 0 -.1 0 .4 0 0 .4 0 0 0 0 0 .4 0 0 -.1 0 .4 0 -.1 0 .4 0 0 -.1 0 0 0" class="s5_13">INTEREL’s management, of which many are beyond </text>
<text x="54.2" y="1586.6" dx="0 0 0 0 0 0 0 -1.2 -.9 0 .6 -.1 0 0 0 -.1 0 -.1 0 .1 -.1 0 0 0 0 .6 0 -.1 0 .6 0 0 0 0 0 .2 0 .6 -.1 0 .6 0 .6 0 0 0 0 0 0 .6 0 0" class="s5_13">INTEREL’s control. These are subject to a number of </text>
<text x="54.2" y="1600.4" dx="0 0 0 0 0 -.1 0 1.7 0 0 -.1 0 .3 0 0 0 0 0 0 0 0 1.7 0 0 0 1.7 0 0 .2 -.1 0 0 -.1 0 1.7 0 0 0 0 0 0 0 0 -.2 0 1.7 0 0 0 1.7 0 0 0" class="s5_13">risks, uncertainties and factors, including, but not </text>
<text x="54.2" y="1614.1" dx="0 0 0 0 0 -.1 0 0 3 -.1 0 3 0 0 0 0 0 3 0 0 0 0 0 0 0 0 0 3 0 0 3 0 0 0 0 0 0 0 0 -.1 0 -.1 0 3 0 0 3 0 -.1 -.5 0" class="s5_13">limited to those described in disclosures, if any. </text>
<text x="54.2" y="1627.9" dx="0 0 0 0 0 0 0 1.1 0 0 0 1.1 0 0 1.1 0 0 -.1 0 1.1 0 0 1.1 0 0 0 0 0 1.1 0 0 0 0 0 1.1 0 0 1.1 0 0 -.1 0 .3 0 0 0 0 0 0 0 0" class="s5_13">Should one or more of these risks or uncertainties </text>
<text x="54.2" y="1641.6" dx="0 0 -.1 -.1 0 0 0 0 0 0 -.1 -.1 0 1 0 0 1 0 0 0 0 0 0 1 0 0 0 0 0 0 0 0 0 0 1 0 0 0 0 .2 0 -.1 0 0 0 0 0 1 0 0 0" class="s5_13">materialize, or should underlying expectations not </text>
<text x="54.2" y="1655.4" dx="0 0 -.1 0 0 0 -.3 0 0 -.3 0 0 0 0 0 0 0 0 0 0 0 -.3 0 -.1 -.1 -.1 0 -.3 0 0 -.1 0 0 -.1 0 .2 -.1 0 -.3 0 .2 0 0 0 0 -.3 -.1 0 0 0 0 0 -.1 0" class="s5_13">occur or assumptions prove incorrect, actual results, </text>
<text x="54.2" y="1669.1" dx="0 0 0 .4 -.1 0 0 0 0 0 -.1 0 5 0 0 5 0 0 0 0 0 -.1 0 0 0 -.1 0 0 5 0 0 5 0 0 0 0 0 0 0 5 0 -.1 0" class="s5_13">performance or achievements of INTEREL may </text>
<text x="54.2" y="1682.9" dx="0 0 0 0 0 -.1 0 0 -.1 0 0 0 0 0 0 0 0 0 0 0 0 0 -.1 0 0 0 0 0 -.1 0 .3 0 0 0 -.1 -.1 0 0 0 0 0 0 0 0 0 -.1 0 0 0 0 0 0 0 0" class="s5_13">(negatively or positively) vary materially from those </text>
<text x="54.2" y="1696.6" dx="0 0 0 0 0 0 0 0 0 0 3.7 0 0 0 0 0 0 0 0 0 0 3.7 0 0 3.7 0 0 0 0 0 0 0 0 0 0 3.7 0 0 3.7 0 0 0 3.7 -.1 0 0 0 -.1 0 0 0" class="s5_13">described explicitly or implicitly in the relevant </text>
<text x="54.2" y="1710.4" dx="0 -.1 0 .3 -.1 0 -.1 0 0 0 0 0 .1 0 0 0 5.7 0 0 -.1 -.1 0 0 0 -.1 0 0 5.7 0 0 0 5.7 0 -.1 0 0 0 5.7 0 0 0 0 0 0 0" class="s5_13">forward-looking statements and data. INTEREL </text>
<text x="54.2" y="1724.1" dx="0 0 0 0 0 0 0 0 .4 0 0 -.1 0 0 0 0 .4 0 0 0 .4 0 0 0 0 0 0 0 .4 0 -.1 0 .4 0 0 0 0 0 -.1 0 0 0 0 .4 0 0 .4 0 0 0 0 0" class="s5_13">neither intends nor assumes any obligation in light </text>
<text x="54.2" y="1737.9" dx="0 0 0 0 0 0 -.1 0 0 0 0 0 0 -.1 0 0 0 0 0 -.1 0 0 0 0 0 0 0 -.1 0 0 0 0 0 0 0 0 0 0 -.1 0 0 0 0 0 -.1 -.1 0 -.1" class="s5_13" data-mappings='[[18,"ff"]]'>of developments diﬀering from those anticipated. </text>
<path d="M55 435.9H294.5v-249H55v249Z" class="g0_13"/>
<text x="55" y="202.9" dx="0 -.1 0 -.3 0 0 0 0 2.1 0 0 2.1 0 0 0 2.1 0 0 0 0 0 2.1 0 0 0 0 0 0 0 0" class="s6_13">Circles on the panel examples </text>
<text x="55" y="228.6" dx="0 0 0 .5 0 0 0 0 .5 0 0 0 0 .5 0 0 0 0 0 -.1 -.1 0 .5 0 0 0 0 0 0 0 0 0" class="s6_13">on this page indicate positions </text>
<text x="55" y="254.2" dx="0 -.2 0 0" class="s6_13">for </text>
<text x="82.7" y="254.2" dx="0 -1.4 0 0 0 -.1 0 0 0 0 0 0 0 0 0 0 0 0 -.2 0 0 -.4 -2" class="s6_13">“customizable buttons” </text>
<text x="55" y="305.6" dx="0 0 0 -.1 0 0 0 3.1 0 0 -.1 0 3.1 0 -.3 0 3.1 0 0 0 -.1 0 0 3.1 0 0 0 -.1 0 0 0" class="s6_13">(icons that are placed instead </text>
<text x="55" y="331.2" dx="0 0 0 -.5 0 0 0 -.5 0 0 -.3 0 0 0 0 -.5 0 0 0 0 -.5 0 0 -.5 0 0 0 .3 0 0 0 -.5 0 0 0" class="s6_13">of the circles will be backlit and </text>
<text x="55" y="356.9" dx="0 -.1 0 0 0 0 0 0 0 0 0 0 0 0 -.2 0 0" class="s6_13">touch sensitive). </text>
<text x="55" y="408.2" dx="0 -.2 0 0 0 .3 -.2 0 0 0 0 0 0 0 0 -.3 0 0 0 0 -.2 0 0" class="s6_13">The two standard sizes: </text>
<text x="55.3" y="117.1" dx="0 -1.4 0 0 0 0 -1.9 -1.5 0 0 0 0 .8 -.3 0 1.4 0 0 .2" class="s7_13">Panel Type Overview </text>
<text x="330.9" y="205.2" dx="0 -.3 0 .1 .1 0 0 0 0 0 -.8 0 0 0 0" class="s8_13">Corridor Panels </text>
<text x="338.6" y="1130" dx="0 -.9 0 0 0 0 0 0 -.1 -.1 0 0 0 0 0 0 0 0 0 0 0 -.5 0 0 0 0" class="s9_13">Wallmounted Classic Panels </text>
<text x="338.6" y="1550.3" dx="0 0 0 0 0 0 0 0 -.8 -1.4 0 0 0 0" class="s9_13">Classic Table </text>
<text x="338.6" y="1574.7" dx="0 -1.7 0 0 0 -.5 0 0 0 0" class="s9_13">Top Panels </text>
<text x="330.9" y="165" dx="0 -.9 0 0 0 0 0 0 -.1 -.1 0 0 0 -.3 0 -.2 0 0 -.5 0 0 0 0" class="s9_13">Wallmounted Flat Panels </text>
<text x="55.3" y="165" dx="0 0 -.2 0 0 0 0 0 -.2 0" class="s9_13">Icon Sizes </text>
<text x="331.5" y="618.8" dx="0 0 .4 -.2 0 0 0 0 0 0 -.8 0 0 0 0" class="sa_13">Extended Panels </text>
<text x="516.7" y="744.8" dx="0 0 0 0 0 0 0 0 0 .1 -.1 0 0 0 0 0 0 0 0 0 0 -.1 0 -.1 0 0" class="sb_13">Single Extended Horizontal </text>
<text x="516.7" y="759.5" dx="0 0 0 0 0 0 0 0 -1.2 0 0 0 0 0 0 0 0 0 0 0 0 0 .6 -.2 0 0 0 0 0" class="sc_13">8.5x3.7” / 217x95 mm (Vimar) </text>
<text x="516.7" y="774.1" dx="0 0 0 0 0 0 0 0 -1.2 0 0 0 0 0 0 0 0 0 0 0 0 0 0 0 -.1 0 0 0 0" class="sc_13">7.3x3.7” / 185.5x95 mm (Gira) </text>
<text x="759.4" y="609.7" dx="0 0 0 0 0 0 0 0 0 .1 -.1 0 0 0 0 0 0 0 0 0 0 -.1 0 -.1 0 0" class="sb_13">Single Extended Horizontal </text>
<text x="759.4" y="624.3" dx="0 0 0 0 0 0 0 0 0 0 0 0 0 0 0 0 0 0 0 0 -1.2" class="sc_13">217x95 mm / 8.5x3.7” </text>
<text x="859.5" y="624.3" dx="0 .6 -.2 0 0 0 0 0" class="sc_13">(Vimar) </text>
<text x="759.4" y="639" dx="0 0 0 0 0 0 0 0 0 0 0 0 0 0 0 0 0 0 0 0 0 0 -1.2" class="sc_13">185.5x95 mm / 7.3x3.7” </text>
<text x="867.2" y="639" dx="0 -.1 0 0 0 0" class="sc_13">(Gira) </text>
<text x="515.4" y="609.7" dx="0 0 0 0 0 0 0 0 0 .1 -.1 0 0 0 0 0 0 0 0 0 0 -.1 0 -.1 0 0" class="sb_13">Double Extended Horizontal </text>
<text x="515.4" y="624.3" dx="0 0 0 0 0 0 0 0 0 -1.2 0 0 0 0 0 0 0 0 0 0 0 0 0 .6 -.2 0 0 0 0" class="sc_13">11.9x3.7” / 303x95 mm (Vimar) </text>
<text x="515.4" y="639" dx="0 0 0 0 0 0 0 0 0 -1.2 0 0 0 0 0 0 0 0 0 0 0 0 0 -.1 0 0 0 0" class="sc_13">10.1x3.7” / 257x95 mm (Gira) </text>
<text x="923.2" y="609.7" dx="0 0 0 0 0 0 0 0 0 .1 -.1 0 0 0 0 0 -.4 -.4 0 .3 0 0 0 0" class="sb_13">Double Extended Vertical </text>
<text x="923.2" y="624.3" dx="0 0 0 0 0 0 0 0 0 0 0 0 0 0 0 0 0 0 0 0 0 -1.2" class="sc_13">303x95 mm / 11.9x3.7” </text>
<text x="1028.9" y="624.3" dx="0 .6 -.2 0 0 0 0" class="sc_13">(Vimar) </text>
<text x="923.2" y="639" dx="0 0 0 0 0 0 0 0 0 0 0 0 0 0 0 0 0 0 0 0 0 -1.2" class="sc_13">257x95 mm / 10.1x3.7” </text>
<text x="1028.9" y="639" dx="0 -.1 0 0 0 0" class="sc_13">(Gira) </text>
<text x="323.2" y="393.4" dx="0 0 0 0 -.1 0 0 -.3 0 -.1 0 -.3 0 0 -.3" class="sa_13">Light Controls, </text>
<text x="323.2" y="417.8" dx="0 -.2 0 0 .1 0 0 0 0 -.1 0" class="sa_13">Thermostats </text>
<text x="331.5" y="919.7" dx="0 .2 0 0 0 0 0 0 -.8 0 0 0 0" class="s8_13">Double Panels </text>
<text x="331.2" y="939" dx="0 0 0 0 0 0 0 -.1 0 0 -.1 0 0 0 0 0 0 0 0 0 0 0 -.1 0 0 -.1 0" class="sd_13">Glass Switch + Glass Switch </text>
<text x="334.2" y="641.1" dx="0 0 0 0 0 0 0 -.1 0 0 -.1 0 0 0 0 0 .1 0 0 0 0 0" class="sd_13">Glass Switch + Sockets </text>
<text x="612.5" y="902.9" dx="0 0 0 0 0 -.1 0 -.1 0 0" class="sb_13">Horizontal </text>
<text x="612.5" y="917.5" dx="0 0 0 0 0 0 0 0 -1.2 0 0 0 0 0 0 0 0 0 0 0" class="sc_13">8.8x3.7” / 224x95 mm </text>
<text x="515.4" y="1333.5" dx="0 0 0 0 0 0 0 0 -.1 .1 -.1 0 0 0 0" class="sb_13">Single extended </text>
<text x="515.4" y="1348.1" dx="0 0 0 0 0 0 -1.2 0 0 0 0 0 0 0 0 0 0 0 0 0 0" class="se_13">7x3.7” / 177,25x95 mm </text>
<text x="729.1" y="1333.5" dx="0 0 0 0 0 0 0 0 -.1 .1 -.1 0 0 0 0" class="sb_13">Double extended </text>
<text x="729.1" y="1348.1" dx="0 0 0 0 0 0 0 0 0 -1.2 0 0 0 0 0 0 0 0 0 0 0" class="sf_13">10.3x3.7” / 263x95 mm </text>
<text x="956.2" y="1333.5" dx="0 0 0 0 0 0 0 0 -.1 .1 -.1 0 0 0 0" class="sb_13">Double extended </text>
<text x="956.2" y="1348.1" dx="0 0 0 0 0 0 0 0 0 -1.2 0 0 0 0 0 0 0 0 0 0 0" class="sf_13">10.3x3.7” / 263x95 mm </text>
<text x="769.1" y="1234.3" dx="0 -.1 0 0 0 0 0 0 0 -.1" class="sb_13">Thermostat </text>
<text x="769.1" y="1248.9" dx="0 0 0 0 0 0 -1.2 0 0 0 0 0 0 0 0 0 0 0" class="sg_13">5x3.8” / 128x98 mm </text>
<text x="769.1" y="1263.6" class="sg_13">98x98 </text>
<text x="769.1" y="1278.3" class="sg_13">95x95 </text>
<text x="769.1" y="1292.9" class="sg_13">93x93 </text>
<text x="641.3" y="1234.3" class="sb_13">GS 12 </text>
<text x="641.3" y="1248.9" dx="0 0 0 0 0 0 -1.2 0 0 0 0 0 0 0 0 0 0 0" class="sg_13">5x3.8” / 128x98 mm </text>
<text x="641.3" y="1263.6" class="sg_13">98x98 </text>
<text x="641.3" y="1278.3" class="sg_13">95x95 </text>
<text x="641.3" y="1292.9" class="sg_13">93x93 </text>
<text x="513.6" y="1234.3" class="sb_13">GS BIG </text>
<text x="513.6" y="1248.9" dx="0 0 0 0 0 0 -1.2 0 0 0 0 0 0 0 0 0 0 0" class="sg_13">5x3.8” / 128x98 mm </text>
<text x="513.6" y="1263.6" class="sg_13">98x98 </text>
<text x="513.6" y="1278.3" class="sg_13">95x95 </text>
<text x="513.6" y="1292.9" class="sg_13">93x93 </text>
<text x="514.7" y="902.3" dx="0 -.4 0 .3 0 0 0 0" class="sb_13">Vertical </text>
<text x="514.7" y="916.9" dx="0 0 0 0 0 0 0 0 -1.2 0 0 0 0 0 0 0 0 0 0 0" class="sc_13">3.7x8.8” / 95x224 mm </text>
<text x="330.2" y="959.3" dx="0 0 0 0 0 0 0 -.1 0 0 -.1 0 0 0 0 -.8 -.2 0 0 .1 0 0 0 0 -.1" class="sd_13">Glass Switch + Thermostat </text>
<text x="993.4" y="902.9" dx="0 0 0 0 0 -.1 0 -.1 0 0" class="sb_13">Horizontal </text>
<text x="993.4" y="917.5" dx="0 0 0 0 0 0 0 0 -1.2 0 0 0 0 0 0 0 0 0 0 0" class="sc_13">8.8x3.7” / 224x95 mm </text>
<text x="827.7" y="902.9" dx="0 -.4 0 .3 0 0 0 0" class="sb_13">Vertical </text>
<text x="827.7" y="917.5" dx="0 0 0 0 0 0 0 0 -1.2 0 0 0 0 0 0 0 0 0 0 0" class="sc_13">3.7x8.8” / 95x224 mm </text>
<text x="900.7" y="1059.7" dx="0 0 -.4 -.1 0 0 0 0 0 0 0 -.1 0 0 0 0 0 0 0 0 0 0 0 0 0 0 0 0 0 -.1 0 0 0 0 0 0 0 0 0" class="sh_13">! Thermostat needs to be placed on the </text>
<text x="900.7" y="1070.7" dx="0 0 0 0 0 0 0 0 0 0 0 0 0 -.1 0 0 -.1 0 0 -.1 0 .1 0 0 0 0 0 0 0 0 0 0 0 0 0 0 0" class="sh_13">bottom to make correct use of sensors </text>
<path clip-path="url(#c2_13)" d="M577.3 297.3H515.6V235.6h61.7Z" class="g5_13"/>
<path d="M541.9 249.6H551m-4.6 21.7c.6 0 1-.4 1-1h-1.9c0 .6 .4 1 .9 1Zm3-2.3c-.7-.2-1.1-1-1.1-3c0-.9-.6-1.7-1.5-1.9v-.9c0-.2-.2-.3-.4-.3c-.2 0-.3 .1-.3 .3v.9c-.9 .2-1.5 1-1.5 1.9c0 2-.4 2.8-1.1 3c-.3 .1-.4 .4-.3 .7c.1 .1 .3 .2 .5 .2h5.5c.3 0 .5-.2 .5-.4c0-.2-.1-.4-.3-.5Z" class="g6_13"/>
<text x="1111.8" y="196" dx="0 -.2 0 0 0 0 0 0 0 0 0 0 0 0 0 0 0" class="sb_13">With Room Number </text>
<text x="1111.8" y="210.7" dx="0 0 0 0 0 -.1 0 -.1 0 0 0 0 0 0 0" class="sb_13">and Card Reader </text>
<text x="1111.8" y="225.4" dx="0 0 0 0 0 0 0 0 0 -1.2 0 0 0 0 0 0 0 0 0 0 0 0" class="sc_13">5.1x10.4” / 130x263 mm </text>
<text x="990.8" y="196" dx="0 -.2 0 0 0 0 0 0 0 0 0 0 0 0 0 0" class="sb_13">With Room Number </text>
<text x="990.8" y="210.7" dx="0 0 0 0 0 0 0 0 -1.2 0 0 0 0 0 0 0 0 0 0 0 0" class="sc_13">5.1x7.5” / 130x180 mm </text>
<text x="867.4" y="196" dx="0 -.2 0 0 0 0 -.1 0 -.1 0 0 0 0 0 0 0" class="sb_13">With Card Reader </text>
<text x="867.4" y="210.7" dx="0 0 0 0 0 0 0 0 -1.2 0 0 0 0 0 0 0 0 0 0 0 0" class="sc_13">5.1x7.5” / 130x180 mm </text>
<text x="760.5" y="389.2" dx="0 0 0 .2 0 0 0 0 0 0 0 0 -.4 -.4 0 .3 0 0 0 0" class="sb_13">Rectangular Vertical </text>
<text x="760.5" y="403.9" dx="0 0 0 0 0 0 0 0 -1.2 0 0 0 0 0 0 0 0 0 0 0" class="sc_13">3.7x5.1” / 95x130 mm </text>
<text x="622.5" y="196" dx="0 0 0 .2 0 0 0 0 0 0 0 0 -.4 -.4 0 .3 0 0 0 0" class="sb_13">Rectangular Vertical </text>
<text x="622.5" y="210.7" dx="0 0 0 0 0 0 0 0 -1.2 0 0 0 0 0 0 0 0 0 0 0" class="sc_13">3.7x5.1” / 95x130 mm </text>
<text x="736.6" y="196" dx="0 0 0 .2 0 0 0 0 0 0 0 0 0 0 0 0 0 -.1 0 -.1 0 0" class="sb_13">Rectangular Horizontal </text>
<text x="736.6" y="210.7" dx="0 0 0 0 0 0 0 0 -1.2 0 0 0 0 0 0 0 0 0 0 0" class="sc_13">5.1x3.7” / 130x95 mm </text>
<text x="626.2" y="389.2" dx="0 0 0 .2 0 0 0 0 0 0 0 0 0 0 0 0 0 -.1 0 -.1 0 0" class="sb_13">Rectangular Horizontal </text>
<text x="626.2" y="403.9" dx="0 0 0 0 0 0 0 0 -1.2 0 0 0 0 0 0 0 0 0 0 0" class="sc_13">5.1x3.7” / 130x95 mm </text>
<text x="515.6" y="196" dx="0 .1 0 0 0 -.1" class="sb_13">Square </text>
<text x="515.6" y="210.7" dx="0 0 0 0 0 0 0 0 -1.2 0 0 0 0 0 0 0 0 0 0" class="sc_13">3.7x3.7” / 95x95 mm </text>
<text x="515.6" y="389.2" dx="0 .1 0 0 0 -.1" class="sb_13">Square </text>
<text x="515.6" y="403.9" dx="0 0 0 0 0 0 0 0 -1.2 0 0 0 0 0 0 0 0 0 0" class="sc_13">3.7x3.7” / 95x95 mm </text>
<path d="M193 530.9h86.1V517.2H193v13.7Z" class="g0_13"/>
<text x="204" y="530.9" dx="0 .1 0 0 0 0 -.1 0 .1" class="si_13">Diameter: </text>
<path d="M51.5 531.1h86.1V517.4H51.5v13.7Z" class="g0_13"/>
<text x="62.5" y="531.1" dx="0 .1 0 0 0 0 -.1 0 .1" class="si_13">Diameter: </text>
<g clip-path="url(#c3_13)" opacity="0.5">
<path d="M94.9 503.3c11.6 0 21.1-9.5 21.1-21.2c0-11.6-9.5-21.1-21.1-21.1c-11.7 0-21.2 9.5-21.2 21.1c0 11.7 9.5 21.2 21.2 21.2Z" class="g7_13"/>
</g>
<path d="M91.5 494.6h6.7c.4 0 .7 .4 .7 .8c0 .4-.3 .7-.7 .7H91.5c-.4 0-.7-.3-.7-.7c0-.4 .3-.8 .7-.8Z" class="g1_13"/>
<path d="M91.5 497.6h6.7c.4 0 .7 .3 .7 .7c0 .4-.3 .7-.7 .7H91.5c-.4 0-.7-.3-.7-.7c0-.4 .3-.7 .7-.7Z" class="g1_13"/>
<path d="M94.1 500.5h1.5c.4 0 .7 .3 .7 .7c0 .4-.3 .7-.7 .7H94.1c-.4 0-.7-.3-.7-.7c0-.4 .3-.7 .7-.7Z" class="g1_13"/>
<path d="M85.9 469.4c-1.1 1.7-1.7 3.7-1.7 5.9c0 2.6 1.1 5.2 2.4 7.7l6.2-6.5Z" class="g1_13"/>
<path d="M103.2 483c1.3-2.5 2.3-5.1 2.3-7.7c0-2.2-.6-4.2-1.6-5.9l-7 7.1Z" class="g1_13"/>
<path d="M102 467.2c-1.9-1.8-4.4-2.8-7.1-2.8c-2.8 0-5.3 1-7.2 2.8l7.2 7.3Z" class="g1_13"/>
<path d="M88 485.6c1.4 2.4 2.6 4.6 3 6.5c.1 .6 .6 1.1 1.2 1.1h5.3c.6 0 1.1-.5 1.2-1.1c.4-1.9 1.7-4.1 3-6.5l-6.8-7Z" class="g1_13"/>
<path d="M84 485.5c-.5 .6-.5 1.5 0 2.1c.3 .3 .7 .4 1.1 .4c.3 0 .7-.1 1-.4l1.9-2c-.5-.9-1-1.7-1.4-2.6Z" class="g1_13"/>
<path d="M103.2 483c-.5 .9-1 1.7-1.5 2.6l1.9 2c.3 .3 .7 .4 1.1 .4c.3 0 .7-.1 1-.4c.5-.6 .5-1.5 0-2.1Z" class="g1_13"/>
<path d="M103.9 469.4l1.8-1.8c.5-.6 .5-1.5 0-2.1c-.6-.6-1.5-.6-2.1 0l-1.6 1.7c.7 .6 1.3 1.4 1.9 2.2Z" class="g1_13"/>
<path d="M87.7 467.2l-1.6-1.7c-.6-.6-1.5-.6-2.1 0c-.5 .6-.5 1.5 0 2.1l1.9 1.8c.5-.8 1.1-1.6 1.8-2.2Z" class="g1_13"/>
<g clip-path="url(#c4_13)" opacity="0.5">
<path d="M236 503.1c16.6 0 30-13.4 30-30c0-16.5-13.4-29.9-30-29.9c-16.5 0-29.9 13.4-29.9 29.9c0 16.6 13.4 30 29.9 30Z" class="g7_13"/>
</g>
<path d="M231.3 490.5h9.5c.6 0 1 .5 1 1c0 .6-.4 1-1 1h-9.5c-.6 0-1-.4-1-1c0-.5 .4-1 1-1Z" class="g1_13"/>
<path d="M231.3 494.5h9.5c.6 0 1 .5 1 1.1c0 .5-.4 1-1 1h-9.5c-.6 0-1-.5-1-1c0-.6 .4-1.1 1-1.1Z" class="g1_13"/>
<path d="M235 498.6h2q.1 0 .1 0c.5 0 1 .4 1 1c0 .6-.5 1-1 1H235c-.5 0-1-.4-1-1c0-.6 .5-1 1-1Z" class="g1_13"/>
<path d="M223.3 455.5c-1.5 2.4-2.4 5.2-2.4 8.1c0 3.7 1.5 7.3 3.4 10.7l8.9-8.9Z" class="g1_13"/>
<path d="M247.8 474.3c1.9-3.4 3.4-7 3.4-10.7c0-2.9-.9-5.7-2.4-8.1l-9.9 9.9Z" class="g1_13"/>
<path d="M246.2 452.4c-2.7-2.4-6.2-3.9-10.2-3.9c-3.9 0-7.4 1.5-10.1 3.9L236 462.6Z" class="g1_13"/>
<path d="M226.3 478c2 3.2 3.8 6.3 4.3 9c.1 .9 .9 1.5 1.7 1.5h7.5c.8 0 1.6-.6 1.7-1.5c.5-2.7 2.3-5.8 4.3-9l-9.8-9.7Z" class="g1_13"/>
<path d="M220.7 477.9c-.8 .7-.8 2 0 2.8c.4 .4 .9 .6 1.4 .6c.6 0 1.1-.2 1.5-.6l2.7-2.7c-.7-1.2-1.4-2.4-2-3.7Z" class="g1_13"/>
<path d="M247.8 474.3c-.6 1.3-1.3 2.5-2 3.7l2.7 2.7c.4 .4 .9 .6 1.4 .6c.6 0 1.1-.2 1.5-.6c.8-.8 .8-2.1 0-2.8Z" class="g1_13"/>
<path d="M248.8 455.5l2.6-2.5c.8-.8 .8-2.1 0-2.9c-.8-.8-2.1-.8-2.9 0l-2.3 2.3c1 1 1.9 2 2.6 3.1Z" class="g1_13"/>
<path d="M225.9 452.4l-2.3-2.3c-.8-.8-2.1-.8-2.9 0c-.8 .8-.8 2.1 0 2.9l2.6 2.5c.7-1.1 1.6-2.1 2.6-3.1Z" class="g1_13"/>
<text x="63.2" y="560.4" class="sa_13">10 mm </text>
<text x="204.3" y="560.4" class="sa_13">14 mm </text>
<path clip-path="url(#c5_13)" d="M1081.1 1215.9h-61.8v-61.7h61.8Z" class="g8_13"/>
<path d="M1042.3 1170.2h-.1v-1h.1Zm2 0h-.1v-1.3h.1Zm2 0h-.1v-1.6h.1Zm2 0h-.2v-2h.2Zm2 0h-.2v-2.3h.2Zm2 0h-.2v-2.6h.2Zm1.9 0h-.1v-2.9h.1Zm2 0h-.1v-3.3h.1Zm2 0h-.1v-3.6h.1Zm1.7 14.8c0 5.4-4.3 9.8-9.7 9.8c-5.4 0-9.7-4.4-9.7-9.8c0-5.4 4.3-9.7 9.7-9.7c5.4 0 9.7 4.3 9.7 9.7Z" class="g8_13"/>
<text x="895.7" y="1233.7" dx="0 -.1 0 -.1 0 0 0 0 0 0" class="sb_13">Cardholder </text>
<text x="895.7" y="1248.4" dx="0 0 0 0 0 0 -1.2 0 0 0 0 0 0 0 0 0 0 0" class="sg_13">5x3.8” / 128x98 mm </text>
<text x="895.7" y="1263" class="sg_13">98x98 </text>
<text x="895.7" y="1277.7" class="sg_13">95x95 </text>
<text x="895.7" y="1292.4" class="sg_13">93x93 </text>
<text x="1019.3" y="1233.7" dx="0 -.4 0 0 0 0 0 0 -.1 0 -.1 0 -.1 0" class="sb_13">Volume control </text>
<text x="1019.3" y="1248.4" dx="0 0 0 0 0 0 -1.2 0 0 0 0 0 0 0 0 0 0 0" class="sg_13">5x3.8” / 128x98 mm </text>
<text x="1019.3" y="1263" class="sg_13">98x98 </text>
<text x="1019.3" y="1277.7" class="sg_13">95x95 </text>
<text x="1019.3" y="1292.4" class="sg_13">93x93 </text>
<text x="516.2" y="1541.1" dx="0 -.7 0 0 0 0 -.4 -.8 0" class="sb_13">Table Top </text>
<text x="516.2" y="1555.8" dx="0 0 0 0 0 0 -1.2 0 0 0 0 0 0 0 0 0 0" class="sc_13">3.9x5” / 98x128mm </text>
<text x="872.1" y="1541.1" dx="0 0 0 0 0 0 0 -.4 -.7 0 0 0 0 -.4 -.8 0" class="sb_13">Double Table Top </text>
<text x="872.1" y="1555.8" dx="0 0 0 0 0 0 0 0 -1.2 0 0 0 0 0 0 0 0 0 0 0" class="sc_13">7.5x3.9” / 195x100mm </text>
<path d="M551.3 1567.6h1.4l30.2 18.5l-22.5 53.6H559m-7.7-72.1l30.2 18.5L559 1639.7l-30.1-18.6l22.4-53.5Zm22.9 56.5c3.8 .4 8.8 1.6 11.2 1.2c2.3-.4 1.8-1.2 1.8-1.2c0 0-2.5-2.5-6.5-5.1c-3.9-2.6-3.9-4.8-2.7-5.7c1.2-1 4.4-1.3 7.7 .7c3.3 1.9 7.5 5.2 9.4 8.3c2 3.1-1.5 5.9-5.5 8.3c-4 2.3-7.2 3.8-7.2 3.8m-6-8.7c0 0 5.9 1 8.6 .9c2.6-.1 2.8-1.3 2.8-1.5c0-.3-.1-1.4-.5-1.9c-.3-.6-3.8-3.5-5.7-4.7c-2-1.3-4.9-3.4-3-4.2c1.8-.7 4.1-.9 7.6 1c3.5 1.9 6.6 5.2 8 6.9c1.5 1.7 .5 3.4-2.2 5.4c-2.6 1.9-9.9 5.6-9.9 5.6m.2 2.9l-3.4 1.7l-1.8-1l.1-2.7l3.6-1.8l1.5 1.1v2.7Zm-3.4 1.7v-2.7l3.4-1.7m-5.1 .7l1.7 1m-1.4-1.2l1.2-1.4l.7 .1v.4m-.5 .3l.5-.7m-9.3-11.2c2 1.3 4 2.4 5 3.1c1 .6 1.9 1.7 2.1 2.8c.2 1.1 .3 2-.6 2.6c-1 .7-11.7 7.6-12 7.9c-.2 .2-.4 .5-.8 .8c-.4 .3-2.4 1.3-2.4 1.3l-.9-.5m-7.2-71.4c.6 0 1.3-.1 2 .4c.7 .4 26.6 16.4 27.8 17.2c1.2 .8 1.2 1.9 .7 3c-.5 1.1-15 35.8-15.3 36.7c-.2 1-.3 2.2-.3 2.2m325.6-63.8h1.4l59.9 35.2l-15.4 36.9h-1.3m-44.6-72.1l59.9 35.2l-15.3 36.9l-59.8-35.4l15.2-36.7Zm59.8 56.5c3.7 .4 8.8 1.6 11.1 1.2c2.3-.4 1.9-1.2 1.9-1.2c0 0-2.6-2.5-6.5-5.1c-3.9-2.6-3.9-4.8-2.7-5.7c1.1-1 4.3-1.3 7.7 .7c3.3 1.9 7.5 5.2 9.4 8.3c1.9 3.1-1.6 5.9-5.6 8.3c-4 2.3-7.2 3.8-7.2 3.8m-6-8.7c0 0 5.9 1 8.6 .9c2.7-.1 2.8-1.3 2.8-1.5c0-.3 0-1.4-.4-1.9c-.4-.6-3.8-3.5-5.8-4.7c-1.9-1.3-4.8-3.4-3-4.2c1.9-.7 4.2-.9 7.7 1c3.5 1.9 6.5 5.2 8 6.9c1.4 1.7 .5 3.4-2.2 5.4c-2.7 1.9-10 5.6-10 5.6m.2 2.9l-3.4 1.7l-1.8-1l.2-2.7l3.6-1.8l1.4 1.1v2.7Zm-3.4 1.7v-2.7l3.4-1.7m-5 .7l1.6 1m-1.3-1.2l1.1-1.4l.7 .1v.4m-.5 .3l.5-.7m-9.3-11.2c2.1 1.3 4.1 2.4 5 3.1c1 .6 2 1.7 2.2 2.8c.1 1.1 .3 2-.7 2.6c-.9 .7-11.7 7.6-11.9 7.9c-.2 .3-.4 .5-.8 .8c-.4 .3-2.5 1.3-2.5 1.3l-.8-.5m-44.1-71.4c.6-.1 1.3-.1 2 .3c.7 .5 56.2 33.3 57.5 34c1.2 .8 1.1 1.9 .6 3c-.5 1.1-7.7 19.1-8 20c-.3 1-.3 2.2-.3 2.2" class="g9_13"/>
<path d="M968.9 738.3v29.2H939.7V738.3Zm0 55.8v29.3H939.7V794.1Z" class="g5_13"/>
<path clip-path="url(#c6_13)" d="M985.2 651.9V848.7H923.4V651.9Zm-48.4 54.6c2.8 0 5 2.2 5 5c0 2.7-2.2 4.9-5 4.9c-2.7 0-4.9-2.2-4.9-4.9c0-2.8 2.2-5 4.9-5Zm0-17.3c2.8 0 5 2.2 5 4.9c0 2.7-2.2 5-5 5c-2.7 0-4.9-2.3-4.9-5c0-2.7 2.2-4.9 4.9-4.9Zm0-17.4c2.8 0 5 2.2 5 5c0 2.7-2.2 4.9-5 4.9c-2.7 0-4.9-2.2-4.9-4.9c0-2.8 2.2-5 4.9-5Zm17.4 34.7c2.7 0 4.9 2.2 4.9 5c0 2.7-2.2 4.9-4.9 4.9c-2.7 0-5-2.2-5-4.9c0-2.8 2.3-5 5-5Zm0-17.3c2.7 0 4.9 2.2 4.9 4.9c0 2.7-2.2 5-4.9 5c-2.7 0-5-2.3-5-5c0-2.7 2.3-4.9 5-4.9Zm0-17.4c2.7 0 4.9 2.2 4.9 5c0 2.7-2.2 4.9-4.9 4.9c-2.7 0-5-2.2-5-4.9c0-2.8 2.3-5 5-5Zm17.3 34.7c2.8 0 5 2.2 5 5c0 2.7-2.2 4.9-5 4.9c-2.7 0-4.9-2.2-4.9-4.9c0-2.8 2.2-5 4.9-5Zm0-17.3c2.8 0 5 2.2 5 4.9c0 2.7-2.2 5-5 5c-2.7 0-4.9-2.3-4.9-5c0-2.7 2.2-4.9 4.9-4.9Zm0-17.4c2.8 0 5 2.2 5 5c0 2.7-2.2 4.9-5 4.9c-2.7 0-4.9-2.2-4.9-4.9c0-2.8 2.2-5 4.9-5Z" class="g5_13"/>
<path clip-path="url(#c7_13)" d="M758.2 987.7H613.7V926.4H758.2Z" class="ga_13"/>
<path d="M667.6 974.3c0-2.8 2.2-5 4.9-5c2.8 0 5 2.2 5 5c0 2.7-2.2 4.9-5 4.9c-2.7 0-4.9-2.2-4.9-4.9Zm-17.2 0c0-2.8 2.2-5 4.9-5c2.7 0 4.9 2.2 4.9 5c0 2.7-2.2 4.9-4.9 4.9c-2.7 0-4.9-2.2-4.9-4.9Zm-17.2 0c0-2.8 2.2-5 4.9-5c2.7 0 4.9 2.2 4.9 5c0 2.7-2.2 4.9-4.9 4.9c-2.7 0-4.9-2.2-4.9-4.9ZM667.6 957c0-2.7 2.2-4.9 4.9-4.9c2.8 0 5 2.2 5 4.9c0 2.7-2.2 4.9-5 4.9c-2.7 0-4.9-2.2-4.9-4.9Zm-17.2 0c0-2.7 2.2-4.9 4.9-4.9c2.7 0 4.9 2.2 4.9 4.9c0 2.7-2.2 4.9-4.9 4.9c-2.7 0-4.9-2.2-4.9-4.9Zm-17.2 0c0-2.7 2.2-4.9 4.9-4.9c2.7 0 4.9 2.2 4.9 4.9c0 2.7-2.2 4.9-4.9 4.9c-2.7 0-4.9-2.2-4.9-4.9Zm34.4-17.2c0-2.7 2.2-4.9 4.9-4.9c2.8 0 5 2.2 5 4.9c0 2.7-2.2 4.9-5 4.9c-2.7 0-4.9-2.2-4.9-4.9Zm-17.2 0c0-2.7 2.2-4.9 4.9-4.9c2.7 0 4.9 2.2 4.9 4.9c0 2.7-2.2 4.9-4.9 4.9c-2.7 0-4.9-2.2-4.9-4.9Zm-17.2 0c0-2.7 2.2-4.9 4.9-4.9c2.7 0 4.9 2.2 4.9 4.9c0 2.7-2.2 4.9-4.9 4.9c-2.7 0-4.9-2.2-4.9-4.9Zm95.7 34.5c0-2.8 2.2-5 4.9-5c2.8 0 5 2.2 5 5c0 2.7-2.2 4.9-5 4.9c-2.7 0-4.9-2.2-4.9-4.9Zm-17.2 0c0-2.8 2.2-5 4.9-5c2.7 0 4.9 2.2 4.9 5c0 2.7-2.2 4.9-4.9 4.9c-2.7 0-4.9-2.2-4.9-4.9Zm-17.2 0c0-2.8 2.2-5 4.9-5c2.7 0 4.9 2.2 4.9 5c0 2.7-2.2 4.9-4.9 4.9c-2.7 0-4.9-2.2-4.9-4.9ZM728.9 957c0-2.7 2.2-4.9 4.9-4.9c2.8 0 5 2.2 5 4.9c0 2.7-2.2 4.9-5 4.9c-2.7 0-4.9-2.2-4.9-4.9Zm-17.2 0c0-2.7 2.2-4.9 4.9-4.9c2.7 0 4.9 2.2 4.9 4.9c0 2.7-2.2 4.9-4.9 4.9c-2.7 0-4.9-2.2-4.9-4.9Zm-17.2 0c0-2.7 2.2-4.9 4.9-4.9c2.7 0 4.9 2.2 4.9 4.9c0 2.7-2.2 4.9-4.9 4.9c-2.7 0-4.9-2.2-4.9-4.9Zm34.4-17.2c0-2.7 2.2-4.9 4.9-4.9c2.8 0 5 2.2 5 4.9c0 2.7-2.2 4.9-5 4.9c-2.7 0-4.9-2.2-4.9-4.9Zm-17.2 0c0-2.7 2.2-4.9 4.9-4.9c2.7 0 4.9 2.2 4.9 4.9c0 2.7-2.2 4.9-4.9 4.9c-2.7 0-4.9-2.2-4.9-4.9Zm-17.2 0c0-2.7 2.2-4.9 4.9-4.9c2.7 0 4.9 2.2 4.9 4.9c0 2.7-2.2 4.9-4.9 4.9c-2.7 0-4.9-2.2-4.9-4.9Z" class="gb_13"/>
<path clip-path="url(#c8_13)" d="M514.1 926.4h61.7v145.5H514.1Z" class="gc_13"/>
<path d="M527.6 980.7c2.7 0 4.9 2.2 4.9 4.9c0 2.7-2.2 5-4.9 5c-2.8 0-5-2.3-5-5c0-2.7 2.2-4.9 5-4.9Zm0-17.4c2.7 0 4.9 2.2 4.9 5c0 2.7-2.2 4.9-4.9 4.9c-2.8 0-5-2.2-5-4.9c0-2.8 2.2-5 5-5Zm0-17.3c2.7 0 4.9 2.2 4.9 4.9c0 2.7-2.2 5-4.9 5c-2.8 0-5-2.3-5-5c0-2.7 2.2-4.9 5-4.9Zm17.3 34.7c2.7 0 5 2.2 5 4.9c0 2.7-2.3 5-5 5c-2.7 0-4.9-2.3-4.9-5c0-2.7 2.2-4.9 4.9-4.9Zm0-17.4c2.7 0 5 2.2 5 5c0 2.7-2.3 4.9-5 4.9c-2.7 0-4.9-2.2-4.9-4.9c0-2.8 2.2-5 4.9-5Zm0-17.3c2.7 0 5 2.2 5 4.9c0 2.7-2.3 5-5 5c-2.7 0-4.9-2.3-4.9-5c0-2.7 2.2-4.9 4.9-4.9Zm17.4 34.7c2.7 0 4.9 2.2 4.9 4.9c0 2.7-2.2 5-4.9 5c-2.8 0-5-2.3-5-5c0-2.7 2.2-4.9 5-4.9Zm0-17.4c2.7 0 4.9 2.2 4.9 5c0 2.7-2.2 4.9-4.9 4.9c-2.8 0-5-2.2-5-4.9c0-2.8 2.2-5 5-5Zm0-17.3c2.7 0 4.9 2.2 4.9 4.9c0 2.7-2.2 5-4.9 5c-2.8 0-5-2.3-5-5c0-2.7 2.2-4.9 5-4.9Zm-34.7 96.1c2.7 0 4.9 2.2 4.9 4.9c0 2.7-2.2 4.9-4.9 4.9c-2.8 0-5-2.2-5-4.9c0-2.7 2.2-4.9 5-4.9Zm0-17.4c2.7 0 4.9 2.2 4.9 4.9c0 2.8-2.2 5-4.9 5c-2.8 0-5-2.2-5-5c0-2.7 2.2-4.9 5-4.9Zm0-17.3c2.7 0 4.9 2.2 4.9 4.9c0 2.7-2.2 4.9-4.9 4.9c-2.8 0-5-2.2-5-4.9c0-2.7 2.2-4.9 5-4.9Zm17.3 34.7c2.7 0 5 2.2 5 4.9c0 2.7-2.3 4.9-5 4.9c-2.7 0-4.9-2.2-4.9-4.9c0-2.7 2.2-4.9 4.9-4.9Zm0-17.4c2.7 0 5 2.2 5 4.9c0 2.8-2.3 5-5 5c-2.7 0-4.9-2.2-4.9-5c0-2.7 2.2-4.9 4.9-4.9Zm0-17.3c2.7 0 5 2.2 5 4.9c0 2.7-2.3 4.9-5 4.9c-2.7 0-4.9-2.2-4.9-4.9c0-2.7 2.2-4.9 4.9-4.9Zm17.4 34.7c2.7 0 4.9 2.2 4.9 4.9c0 2.7-2.2 4.9-4.9 4.9c-2.8 0-5-2.2-5-4.9c0-2.7 2.2-4.9 5-4.9Zm0-17.4c2.7 0 4.9 2.2 4.9 4.9c0 2.8-2.2 5-4.9 5c-2.8 0-5-2.2-5-5c0-2.7 2.2-4.9 5-4.9Zm0-17.3c2.7 0 4.9 2.2 4.9 4.9c0 2.7-2.2 4.9-4.9 4.9c-2.8 0-5-2.2-5-4.9c0-2.7 2.2-4.9 5-4.9Z" class="g5_13"/>
<path clip-path="url(#c9_13)" d="M1137.9 987.7H993.4V926.4h144.5Z" class="ga_13"/>
<path d="M1047.3 974.3c0-2.8 2.2-5 4.9-5c2.7 0 4.9 2.2 4.9 5c0 2.7-2.2 4.9-4.9 4.9c-2.7 0-4.9-2.2-4.9-4.9Zm-17.2 0c0-2.8 2.2-5 4.9-5c2.7 0 4.9 2.2 4.9 5c0 2.7-2.2 4.9-4.9 4.9c-2.7 0-4.9-2.2-4.9-4.9Zm-17.3 0c0-2.8 2.2-5 5-5c2.7 0 4.9 2.2 4.9 5c0 2.7-2.2 4.9-4.9 4.9c-2.8 0-5-2.2-5-4.9Zm34.5-17.3c0-2.7 2.2-4.9 4.9-4.9c2.7 0 4.9 2.2 4.9 4.9c0 2.7-2.2 4.9-4.9 4.9c-2.7 0-4.9-2.2-4.9-4.9Zm-17.2 0c0-2.7 2.2-4.9 4.9-4.9c2.7 0 4.9 2.2 4.9 4.9c0 2.7-2.2 4.9-4.9 4.9c-2.7 0-4.9-2.2-4.9-4.9Zm-17.3 0c0-2.7 2.2-4.9 5-4.9c2.7 0 4.9 2.2 4.9 4.9c0 2.7-2.2 4.9-4.9 4.9c-2.8 0-5-2.2-5-4.9Zm34.5-17.2c0-2.7 2.2-4.9 4.9-4.9c2.7 0 4.9 2.2 4.9 4.9c0 2.7-2.2 4.9-4.9 4.9c-2.7 0-4.9-2.2-4.9-4.9Zm-17.2 0c0-2.7 2.2-4.9 4.9-4.9c2.7 0 4.9 2.2 4.9 4.9c0 2.7-2.2 4.9-4.9 4.9c-2.7 0-4.9-2.2-4.9-4.9Zm-17.3 0c0-2.7 2.2-4.9 5-4.9c2.7 0 4.9 2.2 4.9 4.9c0 2.7-2.2 4.9-4.9 4.9c-2.8 0-5-2.2-5-4.9Zm95.8 34.5c0-2.8 2.2-5 4.9-5c2.7 0 4.9 2.2 4.9 5c0 2.7-2.2 4.9-4.9 4.9c-2.7 0-4.9-2.2-4.9-4.9Zm-17.2 0c0-2.8 2.2-5 4.9-5c2.7 0 4.9 2.2 4.9 5c0 2.7-2.2 4.9-4.9 4.9c-2.7 0-4.9-2.2-4.9-4.9Zm-17.3 0c0-2.8 2.2-5 5-5c2.7 0 4.9 2.2 4.9 5c0 2.7-2.2 4.9-4.9 4.9c-2.8 0-5-2.2-5-4.9Zm34.5-14.7c0-2.7 2.2-4.9 4.9-4.9c2.7 0 4.9 2.2 4.9 4.9c0 2.7-2.2 4.9-4.9 4.9c-2.7 0-4.9-2.2-4.9-4.9Zm-17.2 0c0-2.7 2.2-4.9 4.9-4.9c2.7 0 4.9 2.2 4.9 4.9c0 2.7-2.2 4.9-4.9 4.9c-2.7 0-4.9-2.2-4.9-4.9Zm-17.3 0c0-2.7 2.2-4.9 5-4.9c2.7 0 4.9 2.2 4.9 4.9c0 2.7-2.2 4.9-4.9 4.9c-2.8 0-5-2.2-5-4.9Zm30.2-22.8c0-2 1.5-3.6 3.5-3.6c2 0 3.6 1.6 3.6 3.6c0 1.9-1.6 3.5-3.6 3.5c-2 0-3.5-1.6-3.5-3.5Zm-11.6 0c0-2 1.6-3.6 3.6-3.6c2 0 3.5 1.6 3.5 3.6c0 1.9-1.5 3.5-3.5 3.5c-2 0-3.6-1.6-3.6-3.5Zm-11.5 0c0-2 1.6-3.6 3.6-3.6c1.9 0 3.5 1.6 3.5 3.6c0 1.9-1.6 3.5-3.5 3.5c-2 0-3.6-1.6-3.6-3.5Zm-7.1 10.2c0-2 1.6-3.6 3.6-3.6c1.9 0 3.5 1.6 3.5 3.6c0 1.9-1.6 3.5-3.5 3.5c-2 0-3.6-1.6-3.6-3.5Zm37.3 0c0-2 1.6-3.6 3.5-3.6c2 0 3.6 1.6 3.6 3.6c0 1.9-1.6 3.5-3.6 3.5c-1.9 0-3.5-1.6-3.5-3.5Zm-2.2 4.4h-25.8v-8.7h25.8Z" class="gb_13"/>
<path d="M827.7 926.4h61.7v145.5H827.7Z" class="gc_13"/>
<path d="M841.2 980.7c2.8 0 5 2.2 5 4.9c0 2.7-2.2 5-5 5c-2.7 0-4.9-2.3-4.9-5c0-2.7 2.2-4.9 4.9-4.9Zm0-17.4c2.8 0 5 2.2 5 5c0 2.7-2.2 4.9-5 4.9c-2.7 0-4.9-2.2-4.9-4.9c0-2.8 2.2-5 4.9-5Zm0-17.3c2.8 0 5 2.2 5 4.9c0 2.7-2.2 5-5 5c-2.7 0-4.9-2.3-4.9-5c0-2.7 2.2-4.9 4.9-4.9Zm17.4 34.7c2.7 0 4.9 2.2 4.9 4.9c0 2.7-2.2 5-4.9 5c-2.8 0-5-2.3-5-5c0-2.7 2.2-4.9 5-4.9Zm0-17.4c2.7 0 4.9 2.2 4.9 5c0 2.7-2.2 4.9-4.9 4.9c-2.8 0-5-2.2-5-4.9c0-2.8 2.2-5 5-5Zm0-17.3c2.7 0 4.9 2.2 4.9 4.9c0 2.7-2.2 5-4.9 5c-2.8 0-5-2.3-5-5c0-2.7 2.2-4.9 5-4.9Zm17.3 34.7c2.8 0 5 2.2 5 4.9c0 2.7-2.2 5-5 5c-2.7 0-4.9-2.3-4.9-5c0-2.7 2.2-4.9 4.9-4.9Zm0-17.4c2.8 0 5 2.2 5 5c0 2.7-2.2 4.9-5 4.9c-2.7 0-4.9-2.2-4.9-4.9c0-2.8 2.2-5 4.9-5Zm0-17.3c2.8 0 5 2.2 5 4.9c0 2.7-2.2 5-5 5c-2.7 0-4.9-2.3-4.9-5c0-2.7 2.2-4.9 4.9-4.9ZM871 1047c0-2.7 2.2-4.9 4.9-4.9c2.8 0 5 2.2 5 4.9c0 2.7-2.2 4.9-5 4.9c-2.7 0-4.9-2.2-4.9-4.9Zm-17.4 0c0-2.7 2.3-4.9 5-4.9c2.7 0 4.9 2.2 4.9 4.9c0 2.7-2.2 4.9-4.9 4.9c-2.7 0-5-2.2-5-4.9Zm-17.3 0c0-2.7 2.2-4.9 4.9-4.9c2.8 0 5 2.2 5 4.9c0 2.7-2.2 4.9-5 4.9c-2.7 0-4.9-2.2-4.9-4.9Zm34.7-14.7c0-2.7 2.2-5 4.9-5c2.8 0 5 2.3 5 5c0 2.7-2.2 4.9-5 4.9c-2.7 0-4.9-2.2-4.9-4.9Zm-17.4 0c0-2.7 2.3-5 5-5c2.7 0 4.9 2.3 4.9 5c0 2.7-2.2 4.9-4.9 4.9c-2.7 0-5-2.2-5-4.9Zm-17.3 0c0-2.7 2.2-5 4.9-5c2.8 0 5 2.3 5 5c0 2.7-2.2 4.9-5 4.9c-2.7 0-4.9-2.2-4.9-4.9Zm30.3-23c0-2 1.6-3.6 3.6-3.6c1.9 0 3.5 1.6 3.5 3.6c0 1.9-1.6 3.5-3.5 3.5c-2 0-3.6-1.6-3.6-3.5Zm-11.6 0c0-2 1.6-3.6 3.6-3.6c2 0 3.6 1.6 3.6 3.6c0 1.9-1.6 3.5-3.6 3.5c-2 0-3.6-1.6-3.6-3.5Zm-11.6 0c0-2 1.6-3.6 3.6-3.6c2 0 3.6 1.6 3.6 3.6c0 1.9-1.6 3.5-3.6 3.5c-2 0-3.6-1.6-3.6-3.5Zm-7.2 10.2c0-1.9 1.6-3.5 3.6-3.5c2 0 3.6 1.6 3.6 3.5c0 2-1.6 3.6-3.6 3.6c-2 0-3.6-1.6-3.6-3.6Zm37.6 0c0-1.9 1.6-3.5 3.6-3.5c1.9 0 3.5 1.6 3.5 3.5c0 2-1.6 3.6-3.5 3.6c-2 0-3.6-1.6-3.6-3.6Zm-2.2 4.5h-26v-8.8h26Z" class="g5_13"/>
<path clip-path="url(#ca_13)" d="M1196.4 407.1h-84.7V235.6h84.7Z" class="gd_13"/>
<path d="M1149.5 303.8h9.1m-4.6 21.8c.6 0 1-.5 1-1h-1.9c0 .5 .4 1 .9 1Zm3-2.3c-.7-.3-1.1-1-1.1-3.1c0-.9-.6-1.7-1.5-1.8v-.9c0-.2-.2-.4-.4-.4c-.2 0-.3 .2-.3 .4v.9c-.9 .1-1.5 .9-1.5 1.8c0 2.1-.4 2.8-1.1 3.1c-.3 .1-.4 .4-.3 .6c.1 .2 .3 .3 .5 .3h5.5c.3 0 .5-.2 .5-.5c0-.2-.1-.3-.3-.4Zm-2 42.1h-1.9v-1.9h1.9Zm2.7 17.7c-.1 0-.2 0-.3-.1c-1.9-1.9-4.9-1.9-6.7 0c-.2 .1-.5 .1-.6 0c-.2-.2-.2-.5 0-.7c2.2-2.2 5.7-2.2 7.9 0c.2 .2 .2 .5 0 .7c-.1 .1-.2 .1-.3 .1Zm2.6-2.7c-.1 0-.2 0-.3-.1c-3.3-3.3-8.6-3.3-11.9 0c-.2 .2-.5 .2-.7 0c-.2-.2-.2-.5 0-.6c3.7-3.7 9.6-3.7 13.3 0c.1 .1 .1 .4 0 .6c-.1 .1-.2 .1-.4 .1Zm1.8-2.6c-.1 0-.2-.1-.3-.2c-2.1-2-4.8-3.2-7.8-3.2c-2.9 0-5.6 1.2-7.7 3.2c-.2 .2-.5 .2-.7 0c-.2-.2-.2-.5 0-.6c2.3-2.3 5.3-3.5 8.4-3.5c3.2 0 6.2 1.2 8.5 3.5c.2 .1 .2 .4 0 .6c-.1 .1-.3 .2-.4 .2Z" class="ge_13"/>
<path d="M1140.9 274.8v-2.7h-6.6l1.4-1.4c2.7-2.7 4.9-5.3 4.9-8.4c0-2.7-1.7-5.2-5.4-5.2c-2 0-3.7 .8-4.8 1.6l.8 2.3c.8-.5 1.9-1.3 3.4-1.3c2 0 2.8 1.3 2.8 2.9c0 2.4-2 4.7-5.5 8.2l-1.9 2v2Zm7.1 .2c3.6 0 5.8-3.2 5.8-9c0-5-1.7-8.9-5.7-8.9c-3.8 0-5.9 3.7-5.9 9c.1 5.2 1.9 8.9 5.7 8.9Zm0-2.5c-1.7 0-2.7-2.2-2.6-6.4c0-4.1 1-6.5 2.6-6.5c1.9 0 2.7 2.5 2.7 6.5c0 4.1-.9 6.4-2.7 6.4Zm17.4 2.3v-2.7h-6.6l1.3-1.4c2.8-2.7 4.9-5.3 4.9-8.4c0-2.7-1.7-5.2-5.4-5.2c-2 0-3.7 .8-4.8 1.6l.9 2.3c.7-.5 1.9-1.3 3.3-1.3c2 0 2.9 1.3 2.9 2.9c-.1 2.4-2 4.7-5.5 8.2l-1.9 2v2Zm7 .2c3.7 0 5.8-3.2 5.8-9c0-5-1.7-8.9-5.6-8.9c-3.9 0-5.9 3.7-5.9 9c0 5.2 1.9 8.9 5.7 8.9Zm.1-2.5c-1.7 0-2.7-2.2-2.7-6.4c0-4.1 1-6.5 2.7-6.5c1.8 0 2.6 2.5 2.6 6.5c0 4.1-.9 6.4-2.6 6.4Z" class="gf_13"/>
<path clip-path="url(#cb_13)" d="M1075.4 351.7H990.6V235.6h84.8Z" class="gd_13"/>
<path d="M1028.5 303.8h9.1m-4.6 21.8c.6 0 1-.5 1-1h-1.9c0 .5 .4 1 .9 1Zm3-2.3c-.7-.3-1.1-1-1.1-3.1c0-.9-.6-1.7-1.5-1.8v-.9c0-.2-.2-.4-.4-.4c-.2 0-.3 .2-.3 .4v.9c-.9 .1-1.6 .9-1.5 1.8c0 2.1-.4 2.8-1.1 3.1c-.3 .1-.4 .4-.3 .6c.1 .2 .3 .3 .4 .3h5.6c.3 0 .5-.2 .5-.5c0-.2-.1-.3-.3-.4Z" class="ge_13"/>
<path d="M1019.9 274.8v-2.7h-6.6l1.4-1.4c2.7-2.7 4.9-5.3 4.9-8.4c0-2.7-1.7-5.2-5.4-5.2c-2 0-3.8 .8-4.8 1.6l.8 2.3c.8-.5 1.9-1.3 3.4-1.3c2 0 2.8 1.3 2.8 2.9c0 2.4-2 4.7-5.5 8.2l-1.9 2v2Zm7.1 .2c3.6 0 5.8-3.2 5.8-9c0-5-1.7-8.9-5.7-8.9c-3.8 0-5.9 3.7-5.9 9c0 5.2 1.9 8.9 5.7 8.9Zm0-2.5c-1.7 0-2.7-2.2-2.6-6.4c0-4.1 1-6.5 2.6-6.5c1.8 0 2.6 2.5 2.6 6.5c0 4.1-.8 6.4-2.6 6.4Zm17.4 2.3v-2.7h-6.7l1.4-1.4c2.8-2.7 4.9-5.3 4.9-8.4c0-2.7-1.7-5.2-5.4-5.2c-2 0-3.7 .8-4.8 1.6l.8 2.3c.8-.5 2-1.3 3.4-1.3c2 0 2.9 1.3 2.9 2.9c-.1 2.4-2 4.7-5.5 8.2l-2 2v2Zm7 .2c3.7 0 5.8-3.2 5.8-9c0-5-1.7-8.9-5.6-8.9c-3.9 0-5.9 3.7-5.9 9c0 5.2 1.9 8.9 5.7 8.9Zm0-2.5c-1.6 0-2.6-2.2-2.6-6.4c0-4.1 1-6.5 2.7-6.5c1.8 0 2.6 2.5 2.6 6.5c0 4.1-.9 6.4-2.6 6.4Z" class="gf_13"/>
<path d="M950.8 351.7H866V235.6h84.8Z" class="gd_13"/>
<path d="M903.8 248.4h9.1m-4.5 21.7c.5 0 1-.4 1-.9h-2c0 .5 .4 .9 1 .9Zm2.9-2.3c-.7-.2-1.1-1-1.1-3c.1-.9-.6-1.7-1.4-1.9V262c0-.2-.2-.3-.4-.3c-.2 0-.4 .1-.4 .3v.9c-.9 .2-1.5 1-1.5 1.9c0 2-.4 2.8-1.1 3.1c-.2 .1-.3 .3-.2 .6c0 .2 .2 .3 .4 .3h5.6c.2 0 .4-.2 .4-.5c0-.2-.1-.4-.3-.4v-.1ZM909.4 310h-2v-2h2Zm2.6 17.7c-.1 0-.2-.1-.3-.2c-1.8-1.8-4.8-1.8-6.7 0c-.1 .2-.4 .2-.6 0c-.2-.1-.2-.4 0-.6c2.2-2.2 5.8-2.2 8 0c.1 .2 .1 .5 0 .6c-.1 .1-.3 .2-.4 .2Zm2.7-2.7c-.1 0-.2 0-.3-.1c-3.3-3.3-8.7-3.3-12 0c-.2 .2-.5 .2-.7 0c-.1-.2-.1-.5 0-.7c3.7-3.6 9.7-3.6 13.3 0c.2 .2 .2 .5 0 .7c-.1 .1-.2 .1-.3 .1Zm1.8-2.7c-.2 0-.3 0-.4-.1c-2-2.1-4.8-3.2-7.7-3.2c-3 0-5.7 1.1-7.8 3.2c-.2 .2-.5 .2-.7 0c-.1-.2-.1-.5 0-.7c2.3-2.2 5.3-3.5 8.5-3.5c3.2 0 6.2 1.3 8.4 3.5c.2 .2 .2 .5 0 .7c-.1 .1-.2 .1-.3 .1Z" class="ge_13"/>
<path clip-path="url(#cc_13)" d="M821 297.3H736.6V235.6H821Z" class="g5_13"/>
<path d="M774.3 249.6h9m-4.5 21.7c.6 0 1-.4 1-1h-1.9c0 .6 .4 1 .9 1Zm3-2.3c-.7-.2-1.1-1-1.1-3c0-.9-.6-1.7-1.5-1.9v-.9c0-.2-.2-.3-.4-.3c-.2 0-.4 .1-.4 .3v.9c-.8 .2-1.5 1-1.5 1.9c0 2-.3 2.8-1 3c-.3 .1-.4 .4-.3 .6c.1 .2 .3 .3 .4 .3h5.6c.3 0 .5-.2 .5-.4c0-.2-.2-.4-.3-.5Z" class="g6_13"/>
<path clip-path="url(#cd_13)" d="M684.3 318.6H622.5V234.2h61.8Z" class="g5_13"/>
<path d="M648.9 259.6h9m-4.5 21.7c.5 0 1-.5 1-1h-2c0 .5 .5 1 1 1Zm2.9-2.3c-.7-.3-1-1-1-3.1c0-.9-.7-1.6-1.5-1.8v-.9c0-.2-.2-.4-.4-.4c-.2 0-.4 .2-.4 .4v.9c-.9 .2-1.5 .9-1.5 1.8c0 2.1-.3 2.8-1.1 3.1c-.2 .1-.3 .4-.2 .6c.1 .2 .2 .3 .4 .3h5.6c.2 0 .4-.2 .4-.5c0-.2-.1-.3-.3-.4Z" class="g6_13"/>
<path d="M626.2 414.8h84.5v61.7H626.2ZM680.9 463c0-2.7 2.2-4.9 4.9-4.9c2.7 0 5 2.2 5 4.9c0 2.8-2.3 5-5 5c-2.7 0-4.9-2.2-4.9-5Zm-17.4 0c0-2.7 2.2-4.9 5-4.9c2.7 0 4.9 2.2 4.9 4.9c0 2.8-2.2 5-4.9 5c-2.8 0-5-2.2-5-5Zm-17.3 0c0-2.7 2.2-4.9 4.9-4.9c2.7 0 4.9 2.2 4.9 4.9c0 2.8-2.2 5-4.9 5c-2.7 0-4.9-2.2-4.9-5Zm34.7-17.3c0-2.7 2.2-5 4.9-5c2.7 0 5 2.3 5 5c0 2.7-2.3 4.9-5 4.9c-2.7 0-4.9-2.2-4.9-4.9Zm-17.4 0c0-2.7 2.2-5 5-5c2.7 0 4.9 2.3 4.9 5c0 2.7-2.2 4.9-4.9 4.9c-2.8 0-5-2.2-5-4.9Zm-17.3 0c0-2.7 2.2-5 4.9-5c2.7 0 4.9 2.3 4.9 5c0 2.7-2.2 4.9-4.9 4.9c-2.7 0-4.9-2.2-4.9-4.9Zm34.7-17.4c0-2.7 2.2-4.9 4.9-4.9c2.7 0 5 2.2 5 4.9c0 2.8-2.3 5-5 5c-2.7 0-4.9-2.2-4.9-5Zm-17.4 0c0-2.7 2.2-4.9 5-4.9c2.7 0 4.9 2.2 4.9 4.9c0 2.8-2.2 5-4.9 5c-2.8 0-5-2.2-5-5Zm-17.3 0c0-2.7 2.2-4.9 4.9-4.9c2.7 0 4.9 2.2 4.9 4.9c0 2.8-2.2 5-4.9 5c-2.7 0-4.9-2.2-4.9-5Zm114.3-13.5h61.7v84.5H760.5Zm43.3 59.6c0-2.7 2.2-4.9 4.9-4.9c2.7 0 4.9 2.2 4.9 4.9c0 2.7-2.2 4.9-4.9 4.9c-2.7 0-4.9-2.2-4.9-4.9Zm-17.4 0c0-2.7 2.2-4.9 4.9-4.9c2.8 0 5 2.2 5 4.9c0 2.7-2.2 4.9-5 4.9c-2.7 0-4.9-2.2-4.9-4.9Zm-17.4 0c0-2.7 2.3-4.9 5-4.9c2.7 0 4.9 2.2 4.9 4.9c0 2.7-2.2 4.9-4.9 4.9c-2.7 0-5-2.2-5-4.9Zm34.8-17.3c0-2.8 2.2-5 4.9-5c2.7 0 4.9 2.2 4.9 5c0 2.7-2.2 4.9-4.9 4.9c-2.7 0-4.9-2.2-4.9-4.9Zm-17.4 0c0-2.8 2.2-5 4.9-5c2.8 0 5 2.2 5 5c0 2.7-2.2 4.9-5 4.9c-2.7 0-4.9-2.2-4.9-4.9Zm-17.4 0c0-2.8 2.3-5 5-5c2.7 0 4.9 2.2 4.9 5c0 2.7-2.2 4.9-4.9 4.9c-2.7 0-5-2.2-5-4.9Zm34.8-17.4c0-2.7 2.2-5 4.9-5c2.7 0 4.9 2.3 4.9 5c0 2.7-2.2 4.9-4.9 4.9c-2.7 0-4.9-2.2-4.9-4.9Zm-17.4 0c0-2.7 2.2-5 4.9-5c2.8 0 5 2.3 5 5c0 2.7-2.2 4.9-5 4.9c-2.7 0-4.9-2.2-4.9-4.9Zm-17.4 0c0-2.7 2.3-5 5-5c2.7 0 4.9 2.3 4.9 5c0 2.7-2.2 4.9-4.9 4.9c-2.7 0-5-2.2-5-4.9Z" class="gg_13"/>
<path clip-path="url(#ce_13)" d="M515.6 414.8h61.7v61.7H515.6ZM558.8 463c0-2.7 2.3-4.9 5-4.9c2.7 0 4.9 2.2 4.9 4.9c0 2.8-2.2 5-4.9 5c-2.7 0-5-2.2-5-5Zm-17.3 0c0-2.7 2.2-4.9 4.9-4.9c2.8 0 5 2.2 5 4.9c0 2.8-2.2 5-5 5c-2.7 0-4.9-2.2-4.9-5Zm-17.4 0c0-2.7 2.3-4.9 5-4.9c2.7 0 4.9 2.2 4.9 4.9c0 2.8-2.2 5-4.9 5c-2.7 0-5-2.2-5-5Zm34.7-17.3c0-2.7 2.3-5 5-5c2.7 0 4.9 2.3 4.9 5c0 2.7-2.2 4.9-4.9 4.9c-2.7 0-5-2.2-5-4.9Zm-17.3 0c0-2.7 2.2-5 4.9-5c2.8 0 5 2.3 5 5c0 2.7-2.2 4.9-5 4.9c-2.7 0-4.9-2.2-4.9-4.9Zm-17.4 0c0-2.7 2.3-5 5-5c2.7 0 4.9 2.3 4.9 5c0 2.7-2.2 4.9-4.9 4.9c-2.7 0-5-2.2-5-4.9Zm34.7-17.4c0-2.7 2.3-4.9 5-4.9c2.7 0 4.9 2.2 4.9 4.9c0 2.8-2.2 5-4.9 5c-2.7 0-5-2.2-5-5Zm-17.3 0c0-2.7 2.2-4.9 4.9-4.9c2.8 0 5 2.2 5 4.9c0 2.8-2.2 5-5 5c-2.7 0-4.9-2.2-4.9-5Zm-17.4 0c0-2.7 2.3-4.9 5-4.9c2.7 0 4.9 2.2 4.9 4.9c0 2.8-2.2 5-4.9 5c-2.7 0-5-2.2-5-5Z" class="gg_13"/>
<path clip-path="url(#cf_13)" d="M626.2 499.3h84.5V561H626.2Zm54.7 48.2c0-2.8 2.2-5 4.9-5c2.7 0 5 2.2 5 5c0 2.7-2.3 4.9-5 4.9c-2.7 0-4.9-2.2-4.9-4.9Zm-17.4 0c0-2.8 2.2-5 5-5c2.7 0 4.9 2.2 4.9 5c0 2.7-2.2 4.9-4.9 4.9c-2.8 0-5-2.2-5-4.9Zm-17.3 0c0-2.8 2.2-5 4.9-5c2.7 0 4.9 2.2 4.9 5c0 2.7-2.2 4.9-4.9 4.9c-2.7 0-4.9-2.2-4.9-4.9Zm34.7-14.7c0-2.8 2.2-5 4.9-5c2.7 0 5 2.2 5 5c0 2.7-2.3 4.9-5 4.9c-2.7 0-4.9-2.2-4.9-4.9Zm-17.4 0c0-2.8 2.2-5 5-5c2.7 0 4.9 2.2 4.9 5c0 2.7-2.2 4.9-4.9 4.9c-2.8 0-5-2.2-5-4.9Zm-17.3 0c0-2.8 2.2-5 4.9-5c2.7 0 4.9 2.2 4.9 5c0 2.7-2.2 4.9-4.9 4.9c-2.7 0-4.9-2.2-4.9-4.9Zm30.3-23.1c0-1.9 1.6-3.5 3.5-3.5c2 0 3.6 1.6 3.6 3.5c0 2-1.6 3.6-3.6 3.6c-1.9 0-3.5-1.6-3.5-3.6Zm-11.6 0c0-1.9 1.6-3.5 3.6-3.5c1.9 0 3.5 1.6 3.5 3.5c0 2-1.6 3.6-3.5 3.6c-2 0-3.6-1.6-3.6-3.6Zm-11.6 0c0-1.9 1.6-3.5 3.6-3.5c1.9 0 3.5 1.6 3.5 3.5c0 2-1.6 3.6-3.5 3.6c-2 0-3.6-1.6-3.6-3.6ZM646.1 520c0-2 1.6-3.6 3.6-3.6c2 0 3.6 1.6 3.6 3.6c0 2-1.6 3.6-3.6 3.6c-2 0-3.6-1.6-3.6-3.6Zm37.6 0c0-2 1.6-3.6 3.5-3.6c2 0 3.6 1.6 3.6 3.6c0 2-1.6 3.6-3.6 3.6c-1.9 0-3.5-1.6-3.5-3.6Z" class="gg_13"/>
<path d="M681.4 524.5H655.5v-8.8h25.9ZM866.2 414.8h61.7v84.5H866.2Zm43.2 59.6c0-2.7 2.2-4.9 5-4.9c2.7 0 4.9 2.2 4.9 4.9c0 2.7-2.2 4.9-4.9 4.9c-2.8 0-5-2.2-5-4.9Zm-17.3 0c0-2.7 2.2-4.9 4.9-4.9c2.7 0 5 2.2 5 4.9c0 2.7-2.3 4.9-5 4.9c-2.7 0-4.9-2.2-4.9-4.9Zm-17.4 0c0-2.7 2.2-4.9 5-4.9c2.7 0 4.9 2.2 4.9 4.9c0 2.7-2.2 4.9-4.9 4.9c-2.8 0-5-2.2-5-4.9Zm34.7-14.7c0-2.7 2.2-5 5-5c2.7 0 4.9 2.3 4.9 5c0 2.7-2.2 4.9-4.9 4.9c-2.8 0-5-2.2-5-4.9Zm-17.3 0c0-2.7 2.2-5 4.9-5c2.7 0 5 2.3 5 5c0 2.7-2.3 4.9-5 4.9c-2.7 0-4.9-2.2-4.9-4.9Zm-17.4 0c0-2.7 2.2-5 5-5c2.7 0 4.9 2.3 4.9 5c0 2.7-2.2 4.9-4.9 4.9c-2.8 0-5-2.2-5-4.9Zm30.3-23c0-2 1.6-3.6 3.6-3.6c2 0 3.6 1.6 3.6 3.6c0 1.9-1.6 3.5-3.6 3.5c-2 0-3.6-1.6-3.6-3.5Zm-11.6 0c0-2 1.6-3.6 3.6-3.6c2 0 3.6 1.6 3.6 3.6c0 1.9-1.6 3.5-3.6 3.5c-2 0-3.6-1.6-3.6-3.5Zm-11.6 0c0-2 1.6-3.6 3.6-3.6c2 0 3.6 1.6 3.6 3.6c0 1.9-1.6 3.5-3.6 3.5c-2 0-3.6-1.6-3.6-3.5Zm-7.1 10.2c0-1.9 1.6-3.5 3.5-3.5c2 0 3.6 1.6 3.6 3.5c0 2-1.6 3.6-3.6 3.6c-1.9 0-3.5-1.6-3.5-3.6Zm37.5 0c0-1.9 1.6-3.5 3.6-3.5c2 0 3.6 1.6 3.6 3.5c0 2-1.6 3.6-3.6 3.6c-2 0-3.6-1.6-3.6-3.6Zm-2.2 4.5H884v-8.8h26Z" class="gg_13"/>
<path clip-path="url(#cg_13)" d="M515.6 499.3h61.7V561H515.6Zm43.2 48.2c0-2.8 2.3-5 5-5c2.7 0 4.9 2.2 4.9 5c0 2.7-2.2 4.9-4.9 4.9c-2.7 0-5-2.2-5-4.9Zm-17.3 0c0-2.8 2.2-5 4.9-5c2.8 0 5 2.2 5 5c0 2.7-2.2 4.9-5 4.9c-2.7 0-4.9-2.2-4.9-4.9Zm-17.4 0c0-2.8 2.3-5 5-5c2.7 0 4.9 2.2 4.9 5c0 2.7-2.2 4.9-4.9 4.9c-2.7 0-5-2.2-5-4.9Zm34.7-14.7c0-2.8 2.3-5 5-5c2.7 0 4.9 2.2 4.9 5c0 2.7-2.2 4.9-4.9 4.9c-2.7 0-5-2.2-5-4.9Zm-17.3 0c0-2.8 2.2-5 4.9-5c2.8 0 5 2.2 5 5c0 2.7-2.2 4.9-5 4.9c-2.7 0-4.9-2.2-4.9-4.9Zm-17.4 0c0-2.8 2.3-5 5-5c2.7 0 4.9 2.2 4.9 5c0 2.7-2.2 4.9-4.9 4.9c-2.7 0-5-2.2-5-4.9Zm30.3-23.1c0-1.9 1.6-3.5 3.6-3.5c2 0 3.6 1.6 3.6 3.5c0 2-1.6 3.6-3.6 3.6c-2 0-3.6-1.6-3.6-3.6Zm-11.5 0c0-1.9 1.6-3.5 3.5-3.5c2 0 3.6 1.6 3.6 3.5c0 2-1.6 3.6-3.6 3.6c-1.9 0-3.5-1.6-3.5-3.6Zm-11.6 0c0-1.9 1.6-3.5 3.6-3.5c1.9 0 3.5 1.6 3.5 3.5c0 2-1.6 3.6-3.5 3.6c-2 0-3.6-1.6-3.6-3.6ZM524.1 520c0-2 1.6-3.6 3.6-3.6c1.9 0 3.5 1.6 3.5 3.6c0 2-1.6 3.6-3.5 3.6c-2 0-3.6-1.6-3.6-3.6Zm37.5 0c0-2 1.6-3.6 3.6-3.6c2 0 3.6 1.6 3.6 3.6c0 2-1.6 3.6-3.6 3.6c-2 0-3.6-1.6-3.6-3.6Z" class="gg_13"/>
<path d="M559.4 524.5h-26v-8.8h26Z" class="gg_13"/>
<path d="M803.7 738.3v29.2H774.5V738.3Z" class="g5_13"/>
<path clip-path="url(#ch_13)" d="M819.9 651.9V792.8H758.2V651.9Zm-48.3 54.6c2.7 0 5 2.2 5 5c0 2.7-2.3 4.9-5 4.9c-2.7 0-4.9-2.2-4.9-4.9c0-2.8 2.2-5 4.9-5Zm0-17.3c2.7 0 5 2.2 5 4.9c0 2.7-2.3 5-5 5c-2.7 0-4.9-2.3-4.9-5c0-2.7 2.2-4.9 4.9-4.9Zm0-17.4c2.7 0 5 2.2 5 5c0 2.7-2.3 4.9-5 4.9c-2.7 0-4.9-2.2-4.9-4.9c0-2.8 2.2-5 4.9-5ZM789 706.5c2.7 0 4.9 2.2 4.9 5c0 2.7-2.2 4.9-4.9 4.9c-2.8 0-5-2.2-5-4.9c0-2.8 2.2-5 5-5Zm0-17.3c2.7 0 4.9 2.2 4.9 4.9c0 2.7-2.2 5-4.9 5c-2.8 0-5-2.3-5-5c0-2.7 2.2-4.9 5-4.9Zm0-17.4c2.7 0 4.9 2.2 4.9 5c0 2.7-2.2 4.9-4.9 4.9c-2.8 0-5-2.2-5-4.9c0-2.8 2.2-5 5-5Zm17.3 34.7c2.8 0 5 2.2 5 5c0 2.7-2.2 4.9-5 4.9c-2.7 0-4.9-2.2-4.9-4.9c0-2.8 2.2-5 4.9-5Zm0-17.3c2.8 0 5 2.2 5 4.9c0 2.7-2.2 5-5 5c-2.7 0-4.9-2.3-4.9-5c0-2.7 2.2-4.9 4.9-4.9Zm0-17.4c2.8 0 5 2.2 5 5c0 2.7-2.2 4.9-5 4.9c-2.7 0-4.9-2.2-4.9-4.9c0-2.8 2.2-5 4.9-5Z" class="g5_13"/>
<path d="M602.9 672.7h29.3v29.2H602.9Zm55.9 0H688v29.2H658.8Z" class="g5_13"/>
<path clip-path="url(#ci_13)" d="M516.5 656.5H713.4v61.7H516.5Zm54.7 48.3c0-2.7 2.2-5 4.9-5c2.7 0 5 2.3 5 5c0 2.7-2.3 4.9-5 4.9c-2.7 0-4.9-2.2-4.9-4.9Zm-17.4 0c0-2.7 2.2-5 5-5c2.7 0 4.9 2.3 4.9 5c0 2.7-2.2 4.9-4.9 4.9c-2.8 0-5-2.2-5-4.9Zm-17.3 0c0-2.7 2.2-5 4.9-5c2.7 0 4.9 2.3 4.9 5c0 2.7-2.2 4.9-4.9 4.9c-2.7 0-4.9-2.2-4.9-4.9Zm34.7-14.7c0-2.8 2.2-5 4.9-5c2.7 0 5 2.2 5 5c0 2.7-2.3 4.9-5 4.9c-2.7 0-4.9-2.2-4.9-4.9Zm-17.4 0c0-2.8 2.2-5 5-5c2.7 0 4.9 2.2 4.9 5c0 2.7-2.2 4.9-4.9 4.9c-2.8 0-5-2.2-5-4.9Zm-17.3 0c0-2.8 2.2-5 4.9-5c2.7 0 4.9 2.2 4.9 5c0 2.7-2.2 4.9-4.9 4.9c-2.7 0-4.9-2.2-4.9-4.9ZM566.8 667c0-1.9 1.6-3.5 3.5-3.5c2 0 3.6 1.6 3.6 3.5c0 2-1.6 3.6-3.6 3.6c-1.9 0-3.5-1.6-3.5-3.6Zm-11.6 0c0-1.9 1.6-3.5 3.6-3.5c1.9 0 3.5 1.6 3.5 3.5c0 2-1.6 3.6-3.5 3.6c-2 0-3.6-1.6-3.6-3.6Zm-11.6 0c0-1.9 1.6-3.5 3.6-3.5c1.9 0 3.5 1.6 3.5 3.5c0 2-1.6 3.6-3.5 3.6c-2 0-3.6-1.6-3.6-3.6Zm-7.2 10.3c0-2 1.6-3.6 3.6-3.6c2 0 3.6 1.6 3.6 3.6c0 2-1.6 3.6-3.6 3.6c-2 0-3.6-1.6-3.6-3.6Zm37.6 0c0-2 1.6-3.6 3.5-3.6c2 0 3.6 1.6 3.6 3.6c0 2-1.6 3.6-3.6 3.6c-1.9 0-3.5-1.6-3.5-3.6Z" class="g5_13"/>
<path d="M571.8 681.8h-26V673h26Z" class="g5_13"/>
<path clip-path="url(#cj_13)" d="M656.4 848.7h-141V787h141Zm-86.3-13.4c0-2.7 2.2-4.9 4.9-4.9c2.7 0 5 2.2 5 4.9c0 2.8-2.3 5-5 5c-2.7 0-4.9-2.2-4.9-5Zm-17.4 0c0-2.7 2.2-4.9 5-4.9c2.7 0 4.9 2.2 4.9 4.9c0 2.8-2.2 5-4.9 5c-2.8 0-5-2.2-5-5Zm-17.3 0c0-2.7 2.2-4.9 4.9-4.9c2.7 0 4.9 2.2 4.9 4.9c0 2.8-2.2 5-4.9 5c-2.7 0-4.9-2.2-4.9-5Zm34.7-14.7c0-2.7 2.2-4.9 4.9-4.9c2.7 0 5 2.2 5 4.9c0 2.7-2.3 4.9-5 4.9c-2.7 0-4.9-2.2-4.9-4.9Zm-17.4 0c0-2.7 2.2-4.9 5-4.9c2.7 0 4.9 2.2 4.9 4.9c0 2.7-2.2 4.9-4.9 4.9c-2.8 0-5-2.2-5-4.9Zm-17.3 0c0-2.7 2.2-4.9 4.9-4.9c2.7 0 4.9 2.2 4.9 4.9c0 2.7-2.2 4.9-4.9 4.9c-2.7 0-4.9-2.2-4.9-4.9Zm30.3-23c0-2 1.6-3.6 3.5-3.6c2 0 3.6 1.6 3.6 3.6c0 2-1.6 3.6-3.6 3.6c-1.9 0-3.5-1.6-3.5-3.6Zm-11.6 0c0-2 1.6-3.6 3.6-3.6c1.9 0 3.5 1.6 3.5 3.6c0 2-1.6 3.6-3.5 3.6c-2 0-3.6-1.6-3.6-3.6Zm-11.6 0c0-2 1.6-3.6 3.6-3.6c1.9 0 3.5 1.6 3.5 3.6c0 2-1.6 3.6-3.5 3.6c-2 0-3.6-1.6-3.6-3.6Zm-7.2 10.2c0-1.9 1.6-3.5 3.6-3.5c2 0 3.6 1.6 3.6 3.5c0 2-1.6 3.6-3.6 3.6c-2 0-3.6-1.6-3.6-3.6Zm37.6 0c0-1.9 1.6-3.5 3.5-3.5c2 0 3.6 1.6 3.6 3.5c0 2-1.6 3.6-3.6 3.6c-1.9 0-3.5-1.6-3.5-3.6Z" class="g5_13"/>
<path d="M570.7 812.3h-26v-8.8h26Zm31.1-9.1h29.3v29.3H601.8Z" class="g5_13"/>
<text x="334.2" y="669.6" dx="0 0 0 0 .1 0 0 0 0 0 0 0 0 0 0 0 0 0 0 0 0 0 0 0 -.1 -.1 0" class="sh_13">! Extended panels can have </text>
<text x="334.2" y="680.6" dx="0 0 0 0 0 0 0 0 0 0 0 0 0 0 0 0 0 0 0 0 0 0 0 0 0 0 0 -.1 0" class="sh_13">glass switches or thermostats </text>
<text x="338.6" y="1386.9" dx="0 0 0 0 .1 0 0 0 0 0 0 0 0 0 0 0 0 0 0 0 0 0 0 0 -.1 -.1 0" class="sh_13">! Extended panels can have </text>
<text x="338.6" y="1397.9" dx="0 0 0 0 0 0 0 0 0 0 0 0 0 0 0 0 0 0 0 0 0 0 0 0 0 0 0 -.1 0" class="sh_13">glass switches or thermostats </text>
<text x="338.6" y="1597.6" dx="0 0 -.4 -.6 0 0 0 0 0 0 0 0 0 0 0 0 0 0 0 0 0 0 0 0 0 -.1 -.1 0" class="sh_13">! Table top panels can have </text>
<text x="338.6" y="1608.6" dx="0 0 0 0 0 0 0 0 0 0 0 0 0 0 0 0 0 0 0 0 0 0 0 0 0 0 0 -.1 0" class="sh_13">glass switches or thermostats </text>
<path d="M514.3 1215.6h80.1v-61.2H514.3v61.2Z" class="g0_13"/>
<path d="M514.1 1215.9h80.6v-61.7H514.1v61.7Zm.4-61.3h79.7v60.8H514.5v-60.8Z" class="g1_13"/>
<path d="M558.9 1173.3c0 2.5-2 4.5-4.5 4.5c-2.5 0-4.5-2-4.5-4.5c0-2.5 2-4.5 4.5-4.5c2.5 0 4.5 2 4.5 4.5Zm16.8 0c0 2.5-2 4.5-4.5 4.5c-2.5 0-4.5-2-4.5-4.5c0-2.5 2-4.5 4.5-4.5c2.5 0 4.5 2 4.5 4.5Zm-33.7 0c0 2.5-2 4.5-4.5 4.5c-2.4 0-4.5-2-4.5-4.5c0-2.5 2.1-4.5 4.5-4.5c2.5 0 4.5 2 4.5 4.5Zm.1 23.4c0 2.5-2 4.5-4.5 4.5c-2.5 0-4.5-2-4.5-4.5c0-2.5 2-4.5 4.5-4.5c2.5 0 4.5 2 4.5 4.5Zm16.8 0c0 2.5-2 4.5-4.5 4.5c-2.5 0-4.5-2-4.5-4.5c0-2.5 2-4.5 4.5-4.5c2.5 0 4.5 2 4.5 4.5Zm16.8 0c0 2.5-2 4.5-4.5 4.5c-2.5 0-4.5-2-4.5-4.5c0-2.5 2-4.5 4.5-4.5c2.5 0 4.5 2 4.5 4.5ZM533 1173.3h9m7.9 0h9m7.8 0h9M533 1196.7h9m7.9 0h9m7.8 0h9" class="gh_13"/>
<path d="M641.5 1215.6h80.2v-61.2H641.5v61.2Z" class="g0_13"/>
<path d="M641.3 1215.9h80.6v-61.7H641.3v61.7Zm.4-61.3h79.8v60.8H641.7v-60.8Z" class="g1_13"/>
<path d="M667.1 1166.1c0-1.8 1.4-3.2 3.2-3.2c1.7 0 3.1 1.4 3.1 3.2c0 1.7-1.4 3.1-3.1 3.1c-1.8 0-3.2-1.4-3.2-3.1Zm0 12.6c0-1.8 1.4-3.2 3.2-3.2c1.7 0 3.1 1.4 3.1 3.2c0 1.7-1.4 3.1-3.1 3.1c-1.8 0-3.2-1.4-3.2-3.1Zm0 12.5c0-1.7 1.4-3.1 3.2-3.1c1.7 0 3.1 1.4 3.1 3.1c0 1.8-1.4 3.2-3.1 3.2c-1.8 0-3.2-1.4-3.2-3.2Zm11.3-25.1c0-1.8 1.5-3.2 3.2-3.2c1.7 0 3.1 1.4 3.1 3.2c0 1.7-1.4 3.1-3.1 3.1c-1.7 0-3.2-1.4-3.2-3.1Zm0 12.6c0-1.8 1.5-3.2 3.2-3.2c1.7 0 3.1 1.4 3.1 3.2c0 1.7-1.4 3.1-3.1 3.1c-1.7 0-3.2-1.4-3.2-3.1Zm0 12.5c0-1.7 1.5-3.1 3.2-3.1c1.7 0 3.1 1.4 3.1 3.1c0 1.8-1.4 3.2-3.1 3.2c-1.7 0-3.2-1.4-3.2-3.2Zm0 12.6c0-1.7 1.5-3.1 3.2-3.1c1.7 0 3.1 1.4 3.1 3.1c0 1.8-1.4 3.2-3.1 3.2c-1.7 0-3.2-1.4-3.2-3.2Zm11.4-37.7c0-1.8 1.4-3.2 3.1-3.2c1.8 0 3.2 1.4 3.2 3.2c0 1.7-1.4 3.1-3.2 3.1c-1.7 0-3.1-1.4-3.1-3.1Zm0 12.6c0-1.8 1.4-3.2 3.1-3.2c1.8 0 3.2 1.4 3.2 3.2c0 1.7-1.4 3.1-3.2 3.1c-1.7 0-3.1-1.4-3.1-3.1Zm0 12.5c0-1.7 1.4-3.1 3.1-3.1c1.8 0 3.2 1.4 3.2 3.1c0 1.8-1.4 3.2-3.2 3.2c-1.7 0-3.1-1.4-3.1-3.2Zm-22.7 12.6c0-1.7 1.4-3.1 3.2-3.1c1.7 0 3.1 1.4 3.1 3.1c0 1.8-1.4 3.2-3.1 3.2c-1.8 0-3.2-1.4-3.2-3.2Zm22.7 0c0-1.7 1.4-3.1 3.1-3.1c1.8 0 3.2 1.4 3.2 3.1c0 1.8-1.4 3.2-3.2 3.2c-1.7 0-3.1-1.4-3.1-3.2Z" class="gi_13"/>
<path d="M670.3 1162.9v6.3m11.3-6.3v6.3m11.3-6.3v6.3m-22.6 6.4v6.3m11.3-6.3v6.3m11.3-6.3v6.3m-22.6 6.2v6.3m11.3-6.3v6.3m11.3-6.3v6.3m-22.6 6.3v6.3m11.3-6.3v6.3m11.3-6.3v6.3" class="gj_13"/>
<path d="M768.7 1215.6h80.2v-61.2H768.7v61.2Z" class="g0_13"/>
<path d="M768.5 1215.9h80.6v-61.7H768.5v61.7Zm.5-61.3h79.7v60.8H769v-60.8Z" class="g1_13"/>
<path d="M800.6 1165.8c0 1.7-1.4 3.1-3.1 3.1c-1.8 0-3.2-1.4-3.2-3.1c0-1.7 1.4-3.2 3.2-3.2c1.7 0 3.1 1.5 3.1 3.2Zm11.4 0c0 1.7-1.4 3.1-3.2 3.1c-1.7 0-3.1-1.4-3.1-3.1c0-1.7 1.4-3.2 3.1-3.2c1.8 0 3.2 1.5 3.2 3.2Zm11.3 0c0 1.7-1.4 3.1-3.1 3.1c-1.8 0-3.2-1.4-3.2-3.1c0-1.7 1.4-3.2 3.2-3.2c1.7 0 3.1 1.5 3.1 3.2Zm7 9.1c0 1.7-1.4 3.1-3.2 3.1c-1.7 0-3.1-1.4-3.1-3.1c0-1.8 1.4-3.2 3.1-3.2c1.8 0 3.2 1.4 3.2 3.2Zm-36.7 0c0 1.7-1.4 3.1-3.1 3.1c-1.8 0-3.2-1.4-3.2-3.1c0-1.8 1.4-3.2 3.2-3.2c1.7 0 3.1 1.4 3.1 3.2Zm7 15.4c0 1.8-1.4 3.2-3.1 3.2c-1.8 0-3.2-1.4-3.2-3.2c0-1.7 1.4-3.1 3.2-3.1c1.7 0 3.1 1.4 3.1 3.1Zm11.4 0c0 1.8-1.4 3.2-3.2 3.2c-1.7 0-3.1-1.4-3.1-3.2c0-1.7 1.4-3.1 3.1-3.1c1.8 0 3.2 1.4 3.2 3.1Zm11.3 0c0 1.8-1.4 3.2-3.1 3.2c-1.8 0-3.2-1.4-3.2-3.2c0-1.7 1.4-3.1 3.2-3.1c1.7 0 3.1 1.4 3.1 3.1ZM795.1 1202c0 1.7-1.4 3.1-3.2 3.1c-1.7 0-3.1-1.4-3.1-3.1c0-1.7 1.4-3.1 3.1-3.1c1.8 0 3.2 1.4 3.2 3.1Zm16.9 0c0 1.7-1.4 3.1-3.2 3.1c-1.7 0-3.1-1.4-3.1-3.1c0-1.7 1.4-3.1 3.1-3.1c1.8 0 3.2 1.4 3.2 3.1Zm16.9 0c0 1.7-1.5 3.1-3.2 3.1c-1.7 0-3.1-1.4-3.1-3.1c0-1.7 1.4-3.1 3.1-3.1c1.7 0 3.2 1.4 3.2 3.1Z" class="gj_13"/>
<path d="M813.8 1173.1h-2.5l-.2-.3l.4-.3h2.4l.2 .3l-.3 .3Zm-2.8 .3l-.3 1.6l-.4 .4l-.3-.4l.4-1.6l.3-.3l.3 .3Zm2.2 2.6h-2.4l-.3-.3l.4-.4h2.4l.2 .4l-.3 .3Zm.7-2.6l-.3 1.6l.2 .4l.4-.4l.4-1.6l-.3-.3l-.4 .3Zm3.4-.3h2.4l.4-.3l-.3-.3h-2.4l-.4 .3l.3 .3Zm-1 .3l-.3 1.6l.2 .4l.4-.4l.3-1.6l-.2-.3l-.4 .3Zm-.6 2.9l-.3 1.6l.2 .4l.4-.4l.3-1.6l-.2-.3l-.4 .3Zm.4 2.7h2.4l.4-.3l-.3-.4h-2.4l-.3 .4l.2 .3Zm-14.2-5.9h-2.4l-.2-.3l.3-.3H802l.3 .3l-.4 .3Zm.9 .3l-.4 1.6l-.3 .4l-.3-.4l.3-1.6l.4-.3l.3 .3Zm-4.2 2.9l-.4 1.7l-.4 .4l-.2-.4l.3-1.7l.4-.3l.3 .3Zm2.7-.3h-2.4l-.2-.3l.3-.4h2.5l.2 .4l-.4 .3Zm-.6 3h-2.4l-.2-.3l.3-.4h2.4l.3 .4l-.4 .3Zm7.1-5.9h-2.4l-.2-.3l.4-.3H808l.2 .3l-.4 .3Zm.9 .3l-.4 1.6l-.3 .4l-.3-.4l.4-1.6l.3-.3l.3 .3Zm-.6 2.9l-.3 1.6l-.4 .4l-.3-.4l.4-1.6l.3-.3l.3 .3Zm-.9-.3h-2.4l-.2-.3l.4-.4h2.4l.2 .4l-.4 .3Zm-.6 3h-2.4l-.2-.3l.4-.4h2.4l.2 .4l-.4 .3Z" class="gk_13"/>
<path d="M797.5 1162.6v6.3m-7 2.8v6.3m7 9.2v6.3m11.3-6.3v6.3m11.4-6.3v6.3m6.9-21.8v6.3m-18.3-15.4v6.3m11.4-6.3v6.3m-11.4 30v6.2m16.9-6.2v6.2m-33.8-6.2v6.2" class="gj_13"/>
<path d="M896 1215.6h80.1v-61.2H896v61.2Z" class="g0_13"/>
<path d="M895.7 1215.9h80.6v-61.7H895.7v61.7Zm.5-61.3h79.7v60.8H896.2v-60.8Z" class="g1_13"/>
<path d="M953 1200.5H919.2c-1.1 0-2-.9-2-2c0-1.1 .9-2 2-2H953c1 0 1.9 .9 1.9 2c0 1.1-.9 2-1.9 2Z" class="gl_13"/>
<path d="M957.2 1173.1c0 2.5-1.9 4.4-4.4 4.4c-2.4 0-4.4-1.9-4.4-4.4c0-2.4 2-4.4 4.4-4.4c2.5 0 4.4 2 4.4 4.4Zm-16.7 0c0 2.5-2 4.4-4.5 4.4c-2.4 0-4.4-1.9-4.4-4.4c0-2.4 2-4.4 4.4-4.4c2.5 0 4.5 2 4.5 4.4Zm-16.8 0c0 2.5-2 4.4-4.4 4.4c-2.5 0-4.5-1.9-4.5-4.4c0-2.4 2-4.4 4.5-4.4c2.4 0 4.4 2 4.4 4.4Zm-8.8 0h8.8m7.9 0h8.9m7.9 0h8.8" class="gj_13"/>
<path d="M871.4 1735.5H991.3v-61.3H871.4v61.3Z" class="g0_13"/>
<path d="M871.2 1735.7H991.5V1674H871.2v61.7Zm.4-61.3H991.1v60.9H871.6v-60.9Z" class="g1_13"/>
<path d="M962.9 1693.3c0 2.5-1.9 4.4-4.4 4.4c-2.4 0-4.4-1.9-4.4-4.4c0-2.4 2-4.4 4.4-4.4c2.5 0 4.4 2 4.4 4.4Zm16.5 0c0 2.5-1.9 4.4-4.4 4.4c-2.4 0-4.4-1.9-4.4-4.4c0-2.4 2-4.4 4.4-4.4c2.5 0 4.4 2 4.4 4.4Zm-32.9 0c0 2.5-2 4.4-4.5 4.4c-2.4 0-4.4-1.9-4.4-4.4c0-2.4 2-4.4 4.4-4.4c2.5 0 4.5 2 4.5 4.4Zm0 23c0 2.5-2 4.4-4.4 4.4c-2.5 0-4.5-1.9-4.5-4.4c0-2.4 2-4.4 4.5-4.4c2.4 0 4.4 2 4.4 4.4Zm16.4 0c0 2.5-1.9 4.4-4.4 4.4c-2.4 0-4.4-1.9-4.4-4.4c0-2.4 2-4.4 4.4-4.4c2.5 0 4.4 2 4.4 4.4Zm16.5 0c0 2.5-2 4.4-4.4 4.4c-2.4 0-4.4-1.9-4.4-4.4c0-2.4 2-4.4 4.4-4.4c2.4 0 4.4 2 4.4 4.4ZM908.6 1693.3c0 2.5-1.9 4.4-4.4 4.4c-2.4 0-4.4-1.9-4.4-4.4c0-2.4 2-4.4 4.4-4.4c2.5 0 4.4 2 4.4 4.4Zm16.5 0c0 2.5-2 4.4-4.4 4.4c-2.4 0-4.4-1.9-4.4-4.4c0-2.4 2-4.4 4.4-4.4c2.4 0 4.4 2 4.4 4.4Zm-33 0c0 2.5-1.9 4.4-4.4 4.4c-2.4 0-4.4-1.9-4.4-4.4c0-2.4 2-4.4 4.4-4.4c2.5 0 4.4 2 4.4 4.4Zm.1 23c0 2.5-2 4.4-4.4 4.4c-2.5 0-4.5-1.9-4.5-4.4c0-2.4 2-4.4 4.5-4.4c2.4 0 4.4 2 4.4 4.4Zm16.4 0c0 2.5-1.9 4.4-4.4 4.4c-2.4 0-4.4-1.9-4.4-4.4c0-2.4 2-4.4 4.4-4.4c2.5 0 4.4 2 4.4 4.4Zm16.5 0c0 2.5-2 4.4-4.4 4.4c-2.5 0-4.4-1.9-4.4-4.4c0-2.4 1.9-4.4 4.4-4.4c2.4 0 4.4 2 4.4 4.4Zm-41.8-23h8.8m7.7 0h8.8m7.7 0h8.8m12.5 0h8.9m7.6 0h8.8m7.7 0h8.8m-96.1 23h8.8m7.7 0h8.8m7.7 0h8.8m12.5 0h8.9m7.6 0h8.8m7.7 0h8.8" class="gm_13"/>
<path d="M1017.5 1735.6h120.2v-61.4H1017.5v61.4Z" class="g0_13"/>
<path d="M1017.4 1735.7h120.5V1674H1017.4v61.7Zm.3-61.3h119.8v61H1017.7v-61Z" class="g1_13"/>
<path d="M1105 1720.6c1.5 0 3-.8 3.7-2.1c.8-1.4 .8-3.1 0-4.4c-.7-1.4-2.2-2.2-3.7-2.2m0 8.7c-1.6 0-3-.8-3.8-2.1c-.7-1.4-.7-3.1 0-4.4c.8-1.4 2.2-2.2 3.8-2.2m0 0c-1.6 0-3 .8-3.8 2.2c-.7 1.3-.7 3 0 4.4c.8 1.3 2.2 2.1 3.8 2.1M1109.4 1693.2c0 2.5-2 4.4-4.4 4.4c-2.5 0-4.4-1.9-4.4-4.4c0-2.4 1.9-4.4 4.4-4.4c2.4 0 4.4 2 4.4 4.4Zm16.5 0c0 2.5-1.9 4.4-4.4 4.4c-2.4 0-4.4-1.9-4.4-4.4c0-2.4 2-4.4 4.4-4.4c2.5 0 4.4 2 4.4 4.4Zm-33 0c0 2.5-2 4.4-4.5 4.4c-2.4 0-4.4-1.9-4.4-4.4c0-2.4 2-4.4 4.4-4.4c2.5 0 4.5 2 4.5 4.4Zm0 23.1c0 2.4-2 4.4-4.4 4.4c-2.5 0-4.5-2-4.5-4.4c0-2.5 2-4.5 4.5-4.5c2.4 0 4.4 2 4.4 4.5Zm33 0c0 2.4-2 4.4-4.4 4.4c-2.5 0-4.4-2-4.4-4.4c0-2.5 1.9-4.5 4.4-4.5c2.4 0 4.4 2 4.4 4.5Zm-83.5-30.6c0 1.7-1.4 3.1-3.1 3.1c-1.7 0-3.1-1.4-3.1-3.1c0-1.7 1.4-3.1 3.1-3.1c1.7 0 3.1 1.4 3.1 3.1Zm11.1 0c0 1.7-1.4 3.1-3.1 3.1c-1.7 0-3.1-1.4-3.1-3.1c0-1.7 1.4-3.1 3.1-3.1c1.7 0 3.1 1.4 3.1 3.1Zm11.2 0c0 1.7-1.4 3.1-3.1 3.1c-1.7 0-3.1-1.4-3.1-3.1c0-1.7 1.4-3.1 3.1-3.1c1.7 0 3.1 1.4 3.1 3.1Zm6.8 8.9c0 1.7-1.3 3.1-3.1 3.1c-1.7 0-3-1.4-3-3.1c0-1.7 1.3-3.1 3-3.1c1.8 0 3.1 1.4 3.1 3.1Zm-36 0c0 1.7-1.4 3.1-3.1 3.1c-1.7 0-3.1-1.4-3.1-3.1c0-1.7 1.4-3.1 3.1-3.1c1.7 0 3.1 1.4 3.1 3.1Zm6.9 15.2c0 1.7-1.4 3.1-3.1 3.1c-1.7 0-3.1-1.4-3.1-3.1c0-1.7 1.4-3.1 3.1-3.1c1.7 0 3.1 1.4 3.1 3.1Zm11.1 0c0 1.7-1.4 3.1-3.1 3.1c-1.7 0-3.1-1.4-3.1-3.1c0-1.7 1.4-3.1 3.1-3.1c1.7 0 3.1 1.4 3.1 3.1Zm11.2 0c0 1.7-1.4 3.1-3.1 3.1c-1.7 0-3.1-1.4-3.1-3.1c0-1.7 1.4-3.1 3.1-3.1c1.7 0 3.1 1.4 3.1 3.1Z" class="gn_13"/>
<path d="M1055.3 1692.9h-2.4l-.2-.3l.3-.4h2.4l.2 .4l-.3 .3Zm-2.7 .3l-.4 1.6l-.3 .3l-.3-.3l.4-1.6l.3-.3l.3 .3Zm2.1 2.5h-2.4l-.2-.3l.4-.3h2.3l.3 .3l-.4 .3Zm.8-2.5l-.4 1.6l.3 .3l.3-.3l.4-1.6l-.3-.3l-.3 .3Zm3.3-.3h2.3l.4-.3l-.2-.4h-2.4l-.4 .4l.3 .3Zm-1 .3l-.3 1.6l.2 .3l.4-.3l.3-1.6l-.2-.3l-.4 .3Zm-.6 2.8l-.3 1.6l.2 .3l.4-.3l.3-1.6l-.2-.3l-.4 .3Zm.4 2.7h2.3l.4-.4l-.2-.3h-2.4l-.4 .3l.3 .4Zm-13.9-5.8h-2.4l-.3-.3l.4-.4h2.4l.2 .4l-.3 .3Zm.8 .3l-.3 1.6l-.4 .3l-.2-.3l.3-1.6l.3-.3l.3 .3Zm-4.1 2.8l-.4 1.7l-.4 .3l-.2-.3l.4-1.7l.3-.3l.3 .3Zm2.7-.3h-2.4l-.2-.3l.3-.3h2.4l.2 .3l-.3 .3Zm-.6 3h-2.4l-.2-.4l.3-.3h2.4l.2 .3l-.3 .4Zm7-5.8h-2.4l-.2-.3l.3-.4h2.4l.2 .4l-.3 .3Zm.8 .3l-.3 1.6l-.4 .3l-.2-.3l.3-1.6l.4-.3l.2 .3Zm-.6 2.8l-.3 1.6l-.4 .3l-.2-.3l.3-1.6l.4-.3l.2 .3Zm-.8-.3h-2.4l-.2-.3l.4-.3h2.3l.3 .3l-.4 .3Zm-.6 3h-2.4l-.2-.4l.4-.3h2.3l.3 .3l-.4 .4Z" class="gk_13"/>
<path d="M1039.3 1682.6v6.2m-6.9 2.7v6.2m6.9 9v6.2m11.1-6.2v6.2m11.2-6.2v6.2m-24.7 8.4c0 1.7-1.3 3.1-3.1 3.1c-1.7 0-3-1.4-3-3.1c0-1.7 1.3-3.1 3-3.1c1.8 0 3.1 1.4 3.1 3.1Zm16.6 0c0 1.7-1.4 3.1-3.1 3.1c-1.7 0-3.1-1.4-3.1-3.1c0-1.7 1.4-3.1 3.1-3.1c1.7 0 3.1 1.4 3.1 3.1Zm16.6 0c0 1.7-1.4 3.1-3.1 3.1c-1.7 0-3.1-1.4-3.1-3.1c0-1.7 1.4-3.1 3.1-3.1c1.7 0 3.1 1.4 3.1 3.1Zm-36.3-3.1v6.2m16.6-6.2v6.2m16.6-6.2v6.2m1.4-32.9v6.2m-18-15.1v6.2m11.2-6.2v6.2m22.4 4.4h8.9m7.7 0h8.8m7.7 0h8.8m-41.9 23.1h8.9m7.7 0h8.8m7.7 0h8.8" class="gn_13"/>
<path d="M515.6 1756.1h61.2v-80.2H515.6v80.2Z" class="g0_13"/>
<path d="M515.4 1756.3h61.7v-80.6H515.4v80.6Zm.4-80.2h60.8v79.8H515.8v-79.8Z" class="g1_13"/>
<path d="M550.7 1704.3c0 2.5-2 4.5-4.5 4.5c-2.5 0-4.5-2-4.5-4.5c0-2.5 2-4.5 4.5-4.5c2.5 0 4.5 2 4.5 4.5Zm16.8 0c0 2.5-2 4.5-4.5 4.5c-2.5 0-4.5-2-4.5-4.5c0-2.5 2-4.5 4.5-4.5c2.5 0 4.5 2 4.5 4.5Zm-33.6 0c0 2.5-2 4.5-4.5 4.5c-2.5 0-4.5-2-4.5-4.5c0-2.5 2-4.5 4.5-4.5c2.5 0 4.5 2 4.5 4.5Zm0 23.4c0 2.5-2 4.5-4.5 4.5c-2.5 0-4.5-2-4.5-4.5c0-2.5 2-4.5 4.5-4.5c2.5 0 4.5 2 4.5 4.5Zm16.8 0c0 2.5-2 4.5-4.5 4.5c-2.5 0-4.5-2-4.5-4.5c0-2.5 2-4.5 4.5-4.5c2.5 0 4.5 2 4.5 4.5Zm16.8 0c0 2.5-2 4.5-4.5 4.5c-2.5 0-4.5-2-4.5-4.5c0-2.5 2-4.5 4.5-4.5c2.5 0 4.5 2 4.5 4.5Zm-42.6-23.4h9m7.8 0h9m7.8 0h9m-42.6 23.4h9m7.8 0h9m7.8 0h9" class="gh_13"/>
<path d="M609.6 1756.1h61.3v-80.2H609.6v80.2Z" class="g0_13"/>
<path d="M609.4 1756.3h61.7v-80.6H609.4v80.6Zm.5-80.2h60.8v79.8H609.9v-79.8Z" class="g1_13"/>
<path d="M625.8 1697.1c0-1.7 1.4-3.1 3.1-3.1c1.8 0 3.2 1.4 3.2 3.1c0 1.8-1.4 3.2-3.2 3.2c-1.7 0-3.1-1.4-3.1-3.2Zm0 12.6c0-1.7 1.4-3.1 3.1-3.1c1.8 0 3.2 1.4 3.2 3.1c0 1.7-1.4 3.2-3.2 3.2c-1.7 0-3.1-1.5-3.1-3.2Zm0 12.6c0-1.7 1.4-3.1 3.1-3.1c1.8 0 3.2 1.4 3.2 3.1c0 1.7-1.4 3.2-3.2 3.2c-1.7 0-3.1-1.5-3.1-3.2Zm11.3-25.2c0-1.7 1.4-3.1 3.2-3.1c1.7 0 3.1 1.4 3.1 3.1c0 1.8-1.4 3.2-3.1 3.2c-1.8 0-3.2-1.4-3.2-3.2Zm0 12.6c0-1.7 1.4-3.1 3.2-3.1c1.7 0 3.1 1.4 3.1 3.1c0 1.7-1.4 3.2-3.1 3.2c-1.8 0-3.2-1.5-3.2-3.2Zm0 12.6c0-1.7 1.4-3.1 3.2-3.1c1.7 0 3.1 1.4 3.1 3.1c0 1.7-1.4 3.2-3.1 3.2c-1.8 0-3.2-1.5-3.2-3.2Zm0 12.6c0-1.7 1.4-3.2 3.2-3.2c1.7 0 3.1 1.5 3.1 3.2c0 1.7-1.4 3.1-3.1 3.1c-1.8 0-3.2-1.4-3.2-3.1Zm11.4-37.8c0-1.7 1.4-3.1 3.1-3.1c1.7 0 3.2 1.4 3.2 3.1c0 1.8-1.5 3.2-3.2 3.2c-1.7 0-3.1-1.4-3.1-3.2Zm0 12.6c0-1.7 1.4-3.1 3.1-3.1c1.7 0 3.2 1.4 3.2 3.1c0 1.7-1.5 3.2-3.2 3.2c-1.7 0-3.1-1.5-3.1-3.2Zm0 12.6c0-1.7 1.4-3.1 3.1-3.1c1.7 0 3.2 1.4 3.2 3.1c0 1.7-1.5 3.2-3.2 3.2c-1.7 0-3.1-1.5-3.1-3.2Zm-22.7 12.6c0-1.7 1.4-3.2 3.1-3.2c1.8 0 3.2 1.5 3.2 3.2c0 1.7-1.4 3.1-3.2 3.1c-1.7 0-3.1-1.4-3.1-3.1Zm22.7 0c0-1.7 1.4-3.2 3.1-3.2c1.7 0 3.2 1.5 3.2 3.2c0 1.7-1.5 3.1-3.2 3.1c-1.7 0-3.1-1.4-3.1-3.1Z" class="gi_13"/>
<path d="M628.9 1694v6.3m11.4-6.3v6.3m11.3-6.3v6.3m-22.7 6.4v6.3m11.4-6.3v6.3m11.3-6.3v6.3m-22.7 6.2v6.3m11.4-6.3v6.3m11.3-6.3v6.3m-22.7 6.2v6.3m11.4-6.3v6.3m11.3-6.3v6.3" class="gj_13"/>
<path d="M709.4 1756.1h61.3v-80.2H709.4v80.2Z" class="g0_13"/>
<path d="M709.2 1756.3h61.7v-80.6H709.2v80.6Zm.4-80.2h60.8v79.8H709.6v-79.8Z" class="g1_13"/>
<path d="M731.8 1696.7c0 1.7-1.4 3.1-3.1 3.1c-1.8 0-3.2-1.4-3.2-3.1c0-1.8 1.4-3.2 3.2-3.2c1.7 0 3.1 1.4 3.1 3.2Zm11.4 0c0 1.7-1.5 3.1-3.2 3.1c-1.7 0-3.1-1.4-3.1-3.1c0-1.8 1.4-3.2 3.1-3.2c1.7 0 3.2 1.4 3.2 3.2Zm11.3 0c0 1.7-1.4 3.1-3.2 3.1c-1.7 0-3.1-1.4-3.1-3.1c0-1.8 1.4-3.2 3.1-3.2c1.8 0 3.2 1.4 3.2 3.2Zm7 9c0 1.8-1.4 3.2-3.2 3.2c-1.7 0-3.1-1.4-3.1-3.2c0-1.7 1.4-3.1 3.1-3.1c1.8 0 3.2 1.4 3.2 3.1Zm-36.7 0c0 1.8-1.4 3.2-3.1 3.2c-1.8 0-3.2-1.4-3.2-3.2c0-1.7 1.4-3.1 3.2-3.1c1.7 0 3.1 1.4 3.1 3.1Zm7 15.5c0 1.8-1.4 3.2-3.1 3.2c-1.8 0-3.2-1.4-3.2-3.2c0-1.7 1.4-3.1 3.2-3.1c1.7 0 3.1 1.4 3.1 3.1Zm11.4 0c0 1.8-1.5 3.2-3.2 3.2c-1.7 0-3.1-1.4-3.1-3.2c0-1.7 1.4-3.1 3.1-3.1c1.7 0 3.2 1.4 3.2 3.1Zm11.3 0c0 1.8-1.4 3.2-3.2 3.2c-1.7 0-3.1-1.4-3.1-3.2c0-1.7 1.4-3.1 3.1-3.1c1.8 0 3.2 1.4 3.2 3.1Z" class="gj_13"/>
<path d="M744.9 1704h-2.4l-.2-.4l.4-.3h2.4l.2 .3l-.4 .4Zm-2.7 .3l-.4 1.6l-.3 .3l-.3-.3l.4-1.6l.3-.3l.3 .3Zm2.2 2.6h-2.5l-.2-.4l.4-.3h2.4l.2 .3l-.3 .4Zm.7-2.6l-.3 1.6l.2 .3l.4-.3l.3-1.6l-.2-.3l-.4 .3Zm3.4-.3h2.4l.4-.4l-.3-.3h-2.4l-.4 .3l.3 .4Zm-1 .3l-.3 1.6l.2 .3l.4-.3l.3-1.6l-.2-.3l-.4 .3Zm-.6 2.9l-.3 1.6l.2 .3l.4-.3l.3-1.6l-.2-.3l-.4 .3Zm.4 2.7h2.4l.4-.4l-.3-.3h-2.4l-.4 .3l.3 .4Zm-14.2-5.9h-2.4l-.2-.4l.3-.3h2.4l.3 .3l-.4 .4Zm.8 .3l-.3 1.6l-.4 .3l-.2-.3l.3-1.6l.4-.3l.2 .3Zm-4.2 2.9l-.3 1.7l-.4 .3l-.2-.3l.3-1.7l.4-.4l.2 .4Zm2.8-.3h-2.4l-.2-.4l.3-.3h2.4l.3 .3l-.4 .4Zm-.6 3h-2.4l-.2-.4l.3-.3H732l.3 .3l-.4 .4Zm7.1-5.9h-2.4l-.2-.4l.3-.3h2.5l.2 .3l-.4 .4Zm.9 .3l-.4 1.6l-.3 .3l-.3-.3l.4-1.6l.3-.3l.3 .3Zm-.6 2.9l-.4 1.6l-.3 .3l-.3-.3l.4-1.6l.3-.3l.3 .3Zm-.9-.3H736l-.2-.4l.4-.3h2.4l.2 .3l-.4 .4Zm-.6 3h-2.4l-.2-.4l.3-.3H738l.2 .3l-.4 .4Z" class="gk_13"/>
<path d="M728.7 1693.5v6.3m-7 2.8v6.3m7 9.2v6.3m11.3-6.3v6.3m11.3-6.3v6.3m-25 8.5c0 1.7-1.4 3.1-3.2 3.1c-1.7 0-3.1-1.4-3.1-3.1c0-1.8 1.4-3.2 3.1-3.2c1.8 0 3.2 1.4 3.2 3.2Zm16.9 0c0 1.7-1.5 3.1-3.2 3.1c-1.7 0-3.1-1.4-3.1-3.1c0-1.8 1.4-3.2 3.1-3.2c1.7 0 3.2 1.4 3.2 3.2Zm16.8 0c0 1.7-1.4 3.1-3.1 3.1c-1.8 0-3.2-1.4-3.2-3.1c0-1.8 1.4-3.2 3.2-3.2c1.7 0 3.1 1.4 3.1 3.2Zm-36.9-3.2v6.3m16.9-6.3v6.3m16.9-6.3v6.3m1.4-33.4v6.3M740 1693.5v6.3m11.3-6.3v6.3" class="gj_13"/>
<path d="M515.7 1433.7H631.5v-61.3H515.7v61.3Z" class="g0_13"/>
<path d="M515.4 1433.9H631.7v-61.7H515.4v61.7Zm.5-61.2H631.3v60.8H515.9v-60.8Z" class="g1_13"/>
<path d="M605.6 1390.7c0 2.6-2.1 4.8-4.7 4.8c-2.7 0-4.8-2.2-4.8-4.8c0-2.6 2.1-4.7 4.8-4.7c2.6 0 4.7 2.1 4.7 4.7Zm17.7 0c0 2.6-2.1 4.8-4.7 4.8c-2.6 0-4.7-2.2-4.7-4.8c0-2.6 2.1-4.7 4.7-4.7c2.6 0 4.7 2.1 4.7 4.7Zm-35.4 0c0 2.6-2.1 4.8-4.8 4.8c-2.6 0-4.7-2.2-4.7-4.8c0-2.6 2.1-4.7 4.7-4.7c2.7 0 4.8 2.1 4.8 4.7Zm0 24.7c0 2.7-2.1 4.8-4.7 4.8c-2.7 0-4.8-2.1-4.8-4.8c0-2.6 2.1-4.7 4.8-4.7c2.6 0 4.7 2.1 4.7 4.7Zm17.7 0c0 2.7-2.1 4.8-4.7 4.8c-2.7 0-4.8-2.1-4.8-4.8c0-2.6 2.1-4.7 4.8-4.7c2.6 0 4.7 2.1 4.7 4.7Zm17.7 0c0 2.7-2.1 4.8-4.7 4.8c-2.6 0-4.8-2.1-4.8-4.8c0-2.6 2.2-4.7 4.8-4.7c2.6 0 4.7 2.1 4.7 4.7Zm-44.9-24.7h9.5m8.2 0h9.5m8.3 0h9.4m-44.9 24.7h9.5m8.2 0h9.5m8.3 0h9.4" class="go_13"/>
<path d="M558.9 1418H529v-29.9h29.9Z" class="gp_13"/>
<path d="M547.5 1407.5q-.4 .1-.4 .7c0 .5 0 .8 0 1.3c0 .7-.6 1-.6 1v1.2c0 .3 .7 .4 1.2 .4c.8 0 .5-.4 .9-.5c.4-.1 .6-.1 1-.1c.4 0 2.1 0 2.4 0c.4 0 .7-.1 .7-.6c0-.5 0-2.2 0-2.2c0 0-1.1 0-1.3 0c-.6 0-.5-.6-1.9-.6c-.9-.1-1.2-.1-1.2-.3c0-.3-.3-.3-.8-.3Zm-7.5 0q.4 .1 .4 .7c0 .5 0 .8 0 1.3c0 .7 .6 1 .6 1v1.2c0 .3-.7 .4-1.2 .4c-.8 0-.5-.4-.9-.5c-.4-.1-.6-.1-1-.1c-.4 0-2.1 0-2.4 0c-.4 0-.7-.1-.7-.6c0-.5-.1-2.2-.1-2.2c0 0 1.2 0 1.4 0c.6 0 .5-.6 1.9-.6c.8-.1 1.2-.1 1.2-.3c0-.3 .3-.3 .8-.3Zm3.7-2.7c-.8 0-1.4-1.1-1.5-2.5c-.1-1.4-.1-1.8-.1-1.8c0 0 .6-.2 .6-.9c0-.7-1.2-.7-1.2-2.1c0-1.5 .9-1.6 .9-2.6c0-.9 .1-1 .5-1c.4 0 .8 0 .8 0c0 0 .5 0 .9 0c.4 0 .5 .1 .5 1c0 1 .9 1.1 .9 2.6c0 1.4-1.2 1.4-1.2 2.1c0 .7 .6 .9 .6 .9c0 0 0 .4-.1 1.8c-.1 1.4-.7 2.5-1.6 2.5Zm1.1 1.9c0-.6-.5-1-1.1-1c-.5 0-1 .4-1 1c0 .6 .5 1.1 1 1.1c.6 0 1.1-.5 1.1-1.1Zm0 3.6c0-.6-.5-1.1-1.1-1.1c-.5 0-1 .5-1 1.1c0 .6 .5 1 1 1c.6 0 1.1-.4 1.1-1Z" class="gq_13"/>
<path d="M515.7 1507.7H631.5v-61.2H515.7v61.2Z" class="g0_13"/>
<path d="M515.4 1508H631.7v-61.7H515.4V1508Zm.5-61.3H631.3v60.8H515.9v-60.8Z" class="g1_13"/>
<path d="M592.1 1455.8c0 1.9-1.5 3.4-3.3 3.4c-1.8 0-3.3-1.5-3.3-3.4c0-1.8 1.5-3.3 3.3-3.3c1.8 0 3.3 1.5 3.3 3.3Zm12 0c0 1.9-1.5 3.4-3.4 3.4c-1.8 0-3.3-1.5-3.3-3.4c0-1.8 1.5-3.3 3.3-3.3c1.9 0 3.4 1.5 3.4 3.3Zm11.9 0c0 1.9-1.5 3.4-3.3 3.4c-1.8 0-3.3-1.5-3.3-3.4c0-1.8 1.5-3.3 3.3-3.3c1.8 0 3.3 1.5 3.3 3.3Zm7.4 9.6c0 1.8-1.5 3.3-3.3 3.3c-1.9 0-3.4-1.5-3.4-3.3c0-1.9 1.5-3.3 3.4-3.3c1.8 0 3.3 1.4 3.3 3.3Zm-38.7 0c0 1.8-1.4 3.3-3.3 3.3c-1.8 0-3.3-1.5-3.3-3.3c0-1.9 1.5-3.3 3.3-3.3c1.9 0 3.3 1.4 3.3 3.3Zm7.4 16.3c0 1.8-1.5 3.3-3.3 3.3c-1.8 0-3.3-1.5-3.3-3.3c0-1.8 1.5-3.3 3.3-3.3c1.8 0 3.3 1.5 3.3 3.3Zm12 0c0 1.8-1.5 3.3-3.4 3.3c-1.8 0-3.3-1.5-3.3-3.3c0-1.8 1.5-3.3 3.3-3.3c1.9 0 3.4 1.5 3.4 3.3Zm11.9 0c0 1.8-1.5 3.3-3.3 3.3c-1.8 0-3.3-1.5-3.3-3.3c0-1.8 1.5-3.3 3.3-3.3c1.8 0 3.3 1.5 3.3 3.3Z" class="gr_13"/>
<path d="M605.9 1463.5h-2.5l-.2-.3l.3-.3h2.6l.2 .3l-.4 .3Zm-2.9 .4l-.3 1.7l-.4 .3l-.3-.3l.4-1.7l.4-.4l.2 .4Zm2.3 2.7h-2.5l-.3-.4l.4-.3h2.6l.2 .3l-.4 .4Zm.8-2.7l-.3 1.7l.2 .3l.4-.3l.4-1.7l-.3-.4l-.4 .4Zm3.6-.4h2.5l.4-.3l-.3-.3h-2.5l-.4 .3l.3 .3Zm-1.1 .4l-.3 1.7l.3 .3l.3-.3l.4-1.7l-.3-.4l-.4 .4Zm-.6 3l-.3 1.7l.2 .4l.4-.4l.4-1.7l-.3-.3l-.4 .3Zm.4 2.8h2.5l.4-.3l-.2-.3h-2.6l-.3 .3l.2 .3Zm-14.9-6.2h-2.6l-.2-.3l.4-.3h2.5l.3 .3l-.4 .3Zm.9 .4l-.4 1.7l-.4 .3l-.2-.3l.3-1.7l.4-.4l.3 .4Zm-4.5 3l-.3 1.8l-.4 .4l-.3-.4l.4-1.8l.4-.3l.2 .3Zm3-.3h-2.6l-.2-.4l.4-.3H593l.2 .3l-.3 .4Zm-.7 3.1h-2.5l-.3-.3l.4-.3h2.5l.3 .3l-.4 .3Zm7.5-6.2h-2.5l-.3-.3l.4-.3h2.5l.3 .3l-.4 .3Zm.9 .4l-.4 1.7l-.3 .3l-.3-.3l.4-1.7l.3-.4l.3 .4Zm-.6 3l-.4 1.7l-.4 .4l-.2-.4l.3-1.7l.4-.3l.3 .3Zm-.9-.3h-2.5l-.3-.4l.4-.3h2.5l.3 .3l-.4 .4Zm-.7 3.1h-2.5l-.2-.3l.3-.3h2.6l.2 .3l-.4 .3Z" class="gk_13"/>
<path d="M588.8 1452.5v6.6m-7.4 3v6.6m7.4 9.7v6.6m11.9-6.6v6.6m12-6.6v6.6m-26.4 9c0 1.8-1.5 3.3-3.3 3.3c-1.9 0-3.4-1.5-3.4-3.3c0-1.8 1.5-3.3 3.4-3.3c1.8 0 3.3 1.5 3.3 3.3Zm17.8 0c0 1.8-1.5 3.3-3.4 3.3c-1.8 0-3.3-1.5-3.3-3.3c0-1.8 1.5-3.3 3.3-3.3c1.9 0 3.4 1.5 3.4 3.3Zm17.8 0c0 1.8-1.5 3.3-3.4 3.3c-1.8 0-3.3-1.5-3.3-3.3c0-1.8 1.5-3.3 3.3-3.3c1.9 0 3.4 1.5 3.4 3.3Zm-38.9-3.3v6.6m17.7-6.6v6.6m17.8-6.6v6.6m1.6-35.2v6.6m-19.4-16.2v6.6m12-6.6v6.6" class="gr_13"/>
<path d="M558.9 1491.8H529V1462h29.9Z" class="gs_13"/>
<path d="M547.5 1481.4c-.4 0-.4 .1-.4 .6c0 .5 0 .8 0 1.3c0 .7-.6 1.1-.6 1.1v1.2c0 .2 .7 .4 1.2 .3c.8 0 .5-.4 .9-.5c.4-.1 .6-.1 1-.1c.4 0 2.1 0 2.4 0c.4 0 .7-.1 .7-.6c0-.5 0-2.2 0-2.2c0 0-1.1 0-1.3 0c-.6 .1-.5-.6-1.9-.6c-.9 0-1.2-.1-1.2-.3c0-.2-.3-.3-.8-.2Zm-7.5 0c.4 0 .4 .1 .4 .6c0 .5 0 .8 0 1.3c0 .7 .6 1.1 .6 1.1v1.2c0 .2-.7 .4-1.2 .3c-.8 0-.5-.4-.9-.5c-.4-.1-.6-.1-1-.1c-.4 0-2.1 0-2.4 0c-.4 0-.7-.1-.7-.6c0-.5-.1-2.2-.1-2.2c0 0 1.2 0 1.4 0c.6 .1 .5-.6 1.9-.6c.8 0 1.2-.1 1.2-.3c0-.2 .3-.3 .8-.2Zm3.7-2.8c-.8 0-1.4-1.1-1.5-2.5c-.1-1.4-.1-1.8-.1-1.8c0 0 .6-.2 .6-.9c0-.6-1.2-.7-1.2-2.1c0-1.4 .9-1.6 .9-2.6c0-.9 .1-1 .5-1c.4 0 .8 0 .8 0c0 0 .5 0 .9 0c.4 0 .5 .1 .5 1c0 1 .9 1.2 .9 2.6c0 1.4-1.2 1.5-1.2 2.1c0 .7 .6 .9 .6 .9c0 0 0 .4-.1 1.8c-.1 1.4-.7 2.5-1.6 2.5Zm1.1 1.9c0-.5-.5-1-1.1-1c-.5 0-1 .5-1 1c0 .6 .5 1.1 1 1.1c.6 0 1.1-.5 1.1-1.1Zm0 3.6c0-.6-.5-1.1-1.1-1.1c-.5 0-1 .5-1 1.1c0 .6 .5 1 1 1c.6 0 1.1-.4 1.1-1Z" class="gq_13"/>
<path d="M727.7 1433.7H900.4v-61.3H727.7v61.3Z" class="g0_13"/>
<path d="M727.5 1433.9H900.7v-61.7H727.5v61.7Zm.4-61.2H900.2v60.8H727.9v-60.8Z" class="g1_13"/>
<path d="M874.6 1390.7c0 2.6-2.2 4.8-4.8 4.8c-2.6 0-4.7-2.2-4.7-4.8c0-2.6 2.1-4.7 4.7-4.7c2.6 0 4.8 2.1 4.8 4.7Zm17.7 0c0 2.6-2.1 4.8-4.7 4.8c-2.7 0-4.8-2.2-4.8-4.8c0-2.6 2.1-4.7 4.8-4.7c2.6 0 4.7 2.1 4.7 4.7Zm-35.5 0c0 2.6-2.1 4.8-4.7 4.8c-2.6 0-4.7-2.2-4.7-4.8c0-2.6 2.1-4.7 4.7-4.7c2.6 0 4.7 2.1 4.7 4.7Zm.1 24.7c0 2.7-2.2 4.8-4.8 4.8c-2.6 0-4.7-2.1-4.7-4.8c0-2.6 2.1-4.7 4.7-4.7c2.6 0 4.8 2.1 4.8 4.7Zm17.7 0c0 2.7-2.2 4.8-4.8 4.8c-2.6 0-4.7-2.1-4.7-4.8c0-2.6 2.1-4.7 4.7-4.7c2.6 0 4.8 2.1 4.8 4.7Zm17.7 0c0 2.7-2.1 4.8-4.8 4.8c-2.6 0-4.7-2.1-4.7-4.8c0-2.6 2.1-4.7 4.7-4.7c2.7 0 4.8 2.1 4.8 4.7Zm-45-24.7h9.5m8.3 0h9.5m8.2 0h9.5m-45 24.7h9.5m8.3 0h9.5m8.2 0h9.5" class="go_13"/>
<path d="M806 1407.6c-.3 0-.6-.2-.6-.6v-7.9c0-.3 .3-.6 .6-.6h2.9c.4 0 .6 .3 .6 .6v7.9c0 .4-.2 .6-.6 .6H806Zm10.9 0c-.3 0-.6-.2-.6-.6v-7.9c0-.3 .3-.6 .6-.6h2.9c.3 0 .6 .3 .6 .6v7.9c0 .4-.3 .6-.6 .6h-2.9Z" class="gt_13"/>
<path d="M770.9 1418H741.1v-29.9h29.8Z" class="gs_13"/>
<path d="M759.5 1407.5q-.4 .1-.4 .7c0 .5 0 .8 0 1.3c.1 .7-.6 1-.6 1v1.2c0 .3 .7 .4 1.2 .4c.8 0 .5-.4 .9-.5c.4-.1 .6-.1 1-.1c.4 0 2.1 0 2.5 0c.3 0 .7-.1 .7-.6c0-.5 0-2.2 0-2.2c0 0-1.1 0-1.4 0c-.6 0-.4-.6-1.9-.6c-.8-.1-1.1-.1-1.1-.3c0-.3-.4-.3-.9-.3Zm-7.5 0c.4 .1 .5 .1 .5 .7c0 .5 0 .8 0 1.3c-.1 .7 .6 1 .6 1v1.2c0 .3-.7 .4-1.2 .4c-.8 0-.6-.4-.9-.5c-.4-.1-.6-.1-1-.1c-.4 0-2.2 0-2.5 0c-.3 0-.7-.1-.7-.6c0-.5 0-2.2 0-2.2c0 0 1.1 0 1.4 0c.6 0 .4-.6 1.8-.6c.9-.1 1.2-.1 1.2-.3c0-.3 .4-.3 .8-.3Zm3.8-2.7c-.8 0-1.5-1.1-1.6-2.5c-.1-1.4 0-1.8 0-1.8c0 0 .5-.2 .5-.9c0-.7-1.2-.7-1.2-2.1c0-1.5 .9-1.6 .9-2.6c0-.9 .2-1 .6-1c.4 0 .8 0 .8 0c0 0 .4 0 .8 0c.4 0 .6 .1 .6 1c0 1 .8 1.1 .8 2.6c0 1.4-1.1 1.4-1.1 2.1c0 .7 .5 .9 .5 .9c0 0 0 .4-.1 1.8c-.1 1.4-.7 2.5-1.5 2.5Zm1 1.9c0-.6-.4-1-1-1c-.6 0-1.1 .4-1.1 1c0 .6 .5 1.1 1.1 1.1c.6 0 1-.5 1-1.1Zm0 3.6c0-.6-.4-1.1-1-1.1c-.6 0-1.1 .5-1.1 1.1c0 .6 .5 1 1.1 1c.6 0 1-.4 1-1Z" class="gt_13"/>
<path d="M827.9 1418H798v-29.9h29.9Z" class="gs_13"/>
<path d="M954.5 1433.7h167.1v-61.3H954.5v61.3Z" class="g0_13"/>
<path d="M954.3 1433.9h167.5v-61.7H954.3v61.7Zm.4-61.2h166.7v60.8H954.7v-60.8Z" class="g1_13"/>
<path d="M1076.5 1384.2c0-1.8 1.4-3.2 3.1-3.2c1.8 0 3.2 1.4 3.2 3.2c0 1.7-1.4 3.1-3.2 3.1c-1.7 0-3.1-1.4-3.1-3.1Zm0 12.6c0-1.8 1.4-3.2 3.1-3.2c1.8 0 3.2 1.4 3.2 3.2c0 1.7-1.4 3.1-3.2 3.1c-1.7 0-3.1-1.4-3.1-3.1Zm0 12.6c0-1.8 1.4-3.2 3.1-3.2c1.8 0 3.2 1.4 3.2 3.2c0 1.7-1.4 3.1-3.2 3.1c-1.7 0-3.1-1.4-3.1-3.1Zm11.3-25.2c0-1.8 1.4-3.2 3.1-3.2c1.8 0 3.2 1.4 3.2 3.2c0 1.7-1.4 3.1-3.2 3.1c-1.7 0-3.1-1.4-3.1-3.1Zm0 12.6c0-1.8 1.4-3.2 3.1-3.2c1.8 0 3.2 1.4 3.2 3.2c0 1.7-1.4 3.1-3.2 3.1c-1.7 0-3.1-1.4-3.1-3.1Zm0 12.6c0-1.8 1.4-3.2 3.1-3.2c1.8 0 3.2 1.4 3.2 3.2c0 1.7-1.4 3.1-3.2 3.1c-1.7 0-3.1-1.4-3.1-3.1Zm0 12.6c0-1.8 1.4-3.2 3.1-3.2c1.8 0 3.2 1.4 3.2 3.2c0 1.7-1.4 3.1-3.2 3.1c-1.7 0-3.1-1.4-3.1-3.1Zm11.3-37.8c0-1.8 1.4-3.2 3.2-3.2c1.7 0 3.1 1.4 3.1 3.2c0 1.7-1.4 3.1-3.1 3.1c-1.8 0-3.2-1.4-3.2-3.1Zm0 12.6c0-1.8 1.4-3.2 3.2-3.2c1.7 0 3.1 1.4 3.1 3.2c0 1.7-1.4 3.1-3.1 3.1c-1.8 0-3.2-1.4-3.2-3.1Zm0 12.6c0-1.8 1.4-3.2 3.2-3.2c1.7 0 3.1 1.4 3.1 3.2c0 1.7-1.4 3.1-3.1 3.1c-1.8 0-3.2-1.4-3.2-3.1Zm-22.6 12.6c0-1.8 1.4-3.2 3.1-3.2c1.8 0 3.2 1.4 3.2 3.2c0 1.7-1.4 3.1-3.2 3.1c-1.7 0-3.1-1.4-3.1-3.1Zm22.6 0c0-1.8 1.4-3.2 3.2-3.2c1.7 0 3.1 1.4 3.1 3.2c0 1.7-1.4 3.1-3.1 3.1c-1.8 0-3.2-1.4-3.2-3.1Z" class="gi_13"/>
<path d="M1079.6 1381v6.3m11.3-6.3v6.3m11.4-6.3v6.3m-22.7 6.4v6.3m11.3-6.3v6.3m11.4-6.3v6.3m-22.7 6.2v6.3m11.3-6.3v6.3m11.4-6.3v6.3m-22.7 6.3v6.3m11.3-6.3v6.3m11.4-6.3v6.3" class="gj_13"/>
<path d="M1030.4 1407.2c-.3 0-.6-.3-.6-.6v-7.5c0-.3 .3-.6 .6-.6h2.7c.4 0 .6 .3 .6 .6v7.5c0 .3-.2 .6-.6 .6h-2.7Zm13.7-.6c0 .3-.3 .6-.6 .6h-2.8c-.3 0-.6-.3-.6-.6v-7.5c0-.3 .3-.6 .6-.6h2.8c.3 0 .6 .3 .6 .6v7.5Z" class="gu_13"/>
<path d="M968.8 1417h28.3v-28.3H968.8Z" class="gv_13"/>
<path d="M986.3 1407.1c-.4 0-.4 .1-.4 .6c0 .4 0 .8 0 1.2c0 .7-.6 1-.6 1v1.2c0 .2 .7 .3 1.1 .3c.8 0 .5-.4 .9-.5c.4-.1 .6-.1 .9-.1c.4 0 2.1 0 2.4 0c.3 0 .6-.1 .6-.6c0-.4 .1-2 .1-2c0 0-1.1 0-1.3 0c-.6 0-.5-.6-1.8-.6c-.8 0-1.1-.1-1.1-.3c0-.2-.4-.3-.8-.2Zm-7.1 0c.3 0 .4 .1 .4 .6c0 .4 0 .8 0 1.2c-.1 .7 .5 1 .5 1v1.2c0 .2-.6 .3-1.1 .3c-.7 0-.5-.4-.9-.5c-.3-.1-.5-.1-.9-.1c-.4 0-2 0-2.4 0c-.3 0-.6-.1-.6-.6c0-.4 0-2 0-2c0 0 1 0 1.3 0c.6 0 .4-.6 1.8-.6c.8 0 1.1-.1 1.1-.3c0-.2 .3-.3 .8-.2Zm3.5-2.6c-.8 0-1.4-1.1-1.5-2.4c-.1-1.3 0-1.7 0-1.7c0 0 .5-.2 .5-.9c0-.6-1.1-.6-1.1-2c0-1.3 .8-1.5 .8-2.4c0-.9 .2-1 .5-1c.4 0 .8 0 .8 0c0 0 .4 0 .8 0c.4 0 .5 .1 .5 1c0 .9 .9 1.1 .9 2.4c0 1.4-1.2 1.4-1.2 2c0 .7 .6 .9 .6 .9c0 0 0 .4-.1 1.7c-.1 1.3-.7 2.4-1.5 2.4Zm1 1.8c0-.6-.4-1-1-1c-.5 0-1 .4-1 1c0 .6 .5 1 1 1c.6 0 1-.4 1-1Zm0 3.4c0-.6-.4-1-1-1c-.5 0-1 .4-1 1c0 .5 .5 1 1 1c.6 0 1-.5 1-1Z" class="gu_13"/>
<path d="M1051.1 1417h-28.3v-28.3h28.3Z" class="gv_13"/>
<path d="M338.6 1223.9h144v-69.7h-144v69.7Z" class="g0_13"/>
<text x="338.6" y="1172.5" dx="0 0 0 0 -.1 0 0 -.3 0 -.1 0 -.3 0 0 -.3" class="sa_13">Light Controls, </text>
<text x="338.6" y="1196.9" dx="0 -.2 0 0 .1 0 0 0 0 -.1 0 -.3" class="sa_13">Thermostats, </text>
<text x="338.6" y="1221.4" dx="0 -.2 0 -.3 0 0 0 0 0 0 0 0" class="sa_13">Cardholders </text>
<path d="M338.6 1342.6H492.4v-18.3H338.6v18.3Z" class="g0_13"/>
<text x="338.6" y="1342.6" dx="0 0 .4 -.2 0 0 0 0 0 0 -.8 0 0 0 0" class="sa_13">Extended Panels </text>
<text x="515.4" y="1365.3" dx="0 -.1 -.1 0 0 0 0 0 0 0 0 0 0 0 0 0 0 0 0 0 0 0 0 0 0 0 0 0 0 0 0 0 0 0 0 0 0 0 0 0 0 0 0 0 0 0 0 0 0 0 0 0 0 0 0 0" class="s2_13">available in 180,25x98 mm, 177,25x95 mm and 175,25x93 mm </text>
<text x="729.1" y="1365.3" dx="0 -.1 -.1 0 0 0 0 0 0 0 0 0 0 0 0 0 0 0 0 0 0 0 0 0 0 0 0 0 0 0 0 0 0 0 0 0 0 0 0 0 0 0 0 0" class="s2_13">available in 266x98 mm, 263x95 mm and 261x93 </text>
<text x="954.3" y="1365.3" dx="0 -.1 -.1 0 0 0 0 0 0 0 0 0 0 0 0 0 0 0 0 0 0 0 0 0 0 0 0 0 0 0 0 0 0 0 0 0 0 0 0 0 0 0 0 0" class="s2_13">available in 266x98 mm, 263x95 mm and 261x93 </text>
<text x="871.2" y="1667" class="sf_13">195x100 mm </text>
<text x="1017.8" y="1667" class="sf_13">195x100 mm </text>
<text x="516.9" y="1667" class="sf_13">98x128 mm </text>
<text x="611.4" y="1667" class="sf_13">98x128 mm </text>
<text x="710.7" y="1667" class="sf_13">98x128 mm </text>
<g clip-path="url(#ck_13)" opacity="0.6">
<path d="M341.9 1091.4h885.7" class="g3_13"/>
<path d="M337.4 1091.4v0m892.5 0v0" class="g4_13"/>
</g>
<text x="338.6" y="1361.4" dx="0 0 0 0 0 0 0 -.1 0 0 -.1 0 0 0 0 0 .1 0 0 0 0 0" class="sd_13">Glass Switch + Sockets </text>

</g>

<style>

@font-face {
	font-family: MyriadPro-BoldCond_10e;
	src: url("fonts/MyriadPro-BoldCond_10e.woff") format("woff");
}

@font-face {
	font-family: MyriadPro-BoldSemiCn_106;
	src: url("fonts/MyriadPro-BoldSemiCn_106.woff") format("woff");
}

@font-face {
	font-family: MyriadPro-Bold_12-;
	src: url("fonts/MyriadPro-Bold_12-.woff") format("woff");
}

@font-face {
	font-family: MyriadPro-LightSemiCn_14k;
	src: url("fonts/MyriadPro-LightSemiCn_14k.woff") format("woff");
}

@font-face {
	font-family: MyriadPro-Light_10i;
	src: url("fonts/MyriadPro-Light_10i.woff") format("woff");
}

@font-face {
	font-family: MyriadPro-SemiCn_25d;
	src: url("fonts/MyriadPro-SemiCn_25d.woff") format("woff");
}

@font-face {
	font-family: MyriadPro-SemiboldSemiCn_25c;
	src: url("fonts/MyriadPro-SemiboldSemiCn_25c.woff") format("woff");
}

@font-face {
	font-family: MyriadPro-Semibold_25e;
	src: url("fonts/MyriadPro-Semibold_25e.woff") format("woff");
}

</style>

</svg>
