<svg id="Icons" xmlns="http://www.w3.org/2000/svg" viewBox="0 0 39.4 39.4"><defs><style>.cls-1{fill:#646869;}</style></defs><title>Resize GSBIG</title><rect class="cls-1" x="12.51" y="19.06" width="14.38" height="1.45"/><path class="cls-1" d="M15.61,11.49a2.18,2.18,0,0,0,1.59-.65,2.14,2.14,0,0,0,.66-1.59,2.2,2.2,0,0,0-.65-1.59,2.28,2.28,0,0,0-3.17,0,2.23,2.23,0,0,0,0,3.18A2.16,2.16,0,0,0,15.61,11.49Zm-1.06-3.3a1.48,1.48,0,0,1,1.08-.44,1.42,1.42,0,0,1,1.06.44,1.51,1.51,0,0,1,0,2.13,1.54,1.54,0,0,1-2.15,0,1.49,1.49,0,0,1-.43-1.09A1.38,1.38,0,0,1,14.55,8.19Z"/><path class="cls-1" d="M23.18,16.55a4.92,4.92,0,0,0,2.08-.37L25,14.89a4.24,4.24,0,0,1-1.57.28c-1.75,0-2.87-1.17-2.87-3.34,0-2.32,1.27-3.42,2.89-3.42a3.78,3.78,0,0,1,1.52.3l.34-1.3a4.27,4.27,0,0,0-1.93-.36c-2.47,0-4.52,1.66-4.52,4.86C18.88,14.74,20.49,16.55,23.18,16.55Z"/><path class="cls-1" d="M14,23.79a2.21,2.21,0,0,0-.69,1.63,2.32,2.32,0,0,0,2.32,2.34,2.28,2.28,0,0,0,1.65-.68,2.32,2.32,0,0,0,0-3.28A2.35,2.35,0,0,0,14,23.79Zm2.73,2.74a1.56,1.56,0,0,1-2.19,0A1.49,1.49,0,0,1,14,25.42a1.42,1.42,0,0,1,.46-1.07,1.51,1.51,0,0,1,1.1-.44,1.46,1.46,0,0,1,1.08.44,1.55,1.55,0,0,1,0,2.18Z"/><polygon class="cls-1" points="19.85 32.38 21.47 32.38 21.47 28.43 24.5 28.43 24.5 27.09 21.47 27.09 21.47 24.49 24.73 24.49 24.73 23.13 19.85 23.13 19.85 32.38"/></svg>