<svg id="Icons" xmlns="http://www.w3.org/2000/svg" viewBox="0 0 39.65 39.65"><defs><style>.cls-1{fill:#646869;}</style></defs><title>Resize GSBIG</title><path class="cls-1" d="M22.78,20.89c2.21.27,5.27.2,6.71-.46,2.2-1,3.36-2.52,3-5.12-.6-4.79-7.67-4.36-7.71.56,0,2-.65,2.77-2.11,3.43a2.64,2.64,0,0,0-.9-1.18l-.06-.05c1-2,1.81-4.9,1.63-6.47-.27-2.4-1.36-4-3.93-4.47-4.75-.91-6.53,5.93-1.85,7.5,1.89.63,2.5,1.37,2.67,3h0a2.55,2.55,0,0,0-1.53.56c-1.62-1.51-4.11-3.22-5.66-3.54-2.37-.48-4.21.07-5.47,2.36-2.33,4.23,3.64,8,6.57,4.08,1.19-1.6,2.07-2,3.7-1.61a2.38,2.38,0,0,0-.11.7,2.61,2.61,0,0,0,.18.93c-2,1.07-4.34,2.9-5.12,4.28-1.19,2.1-1.24,4,.55,5.92,3.31,3.52,8.77-1,5.91-5-1.16-1.63-1.22-2.58-.38-4l.11.05a2.44,2.44,0,0,0,1.31.37h.15c.41,2.18,1.42,5,2.49,6.2,1.63,1.78,3.44,2.41,5.81,1.3,4.37-2.05,1.79-8.64-2.91-7.15-1.9.6-2.83.36-3.94-.88l0-.09A2.49,2.49,0,0,0,22.78,20.89Z"/></svg>